G04 DipTrace 3.2.0.1*
G04 BottomSilk.gbr*
%MOIN*%
G04 #@! TF.FileFunction,Legend,Bot*
G04 #@! TF.Part,Single*
%ADD10C,0.009843*%
%ADD53C,0.015422*%
%ADD61C,0.015412*%
%ADD144C,0.00772*%
%ADD145C,0.009264*%
%FSLAX26Y26*%
G04*
G70*
G90*
G75*
G01*
G04 BotSilk*
%LPD*%
X2285335Y1763229D2*
D10*
X2249173Y1727066D1*
X3556102Y2618130D2*
Y2669272D1*
X1743130Y1756299D2*
X1794272D1*
X2283119Y980654D2*
Y1106748D1*
X2290631Y980654D2*
Y1106748D1*
Y980654D2*
X2243295Y980707D1*
X2290631Y1106748D2*
X2243295Y1106694D1*
X1518130Y1231299D2*
X1569272D1*
X1569488Y1975165D2*
Y1912236D1*
X1562039Y1975165D2*
Y1912236D1*
Y1975165D2*
X1585598D1*
X1562039Y1912236D2*
X1585598D1*
X1794272Y1306102D2*
X1743130D1*
X3856299Y1244272D2*
Y1193130D1*
X2042917Y2992913D2*
X1944484D1*
X2042917Y3000362D2*
X1944484D1*
X2042917D2*
Y2976803D1*
X1944484Y3000362D2*
Y2976803D1*
X3081299Y2894272D2*
Y2843130D1*
X1894272Y1306102D2*
X1843130D1*
Y1756299D2*
X1894272D1*
X2044272Y1306102D2*
X1993130D1*
X1918130Y1756299D2*
X1969272D1*
X2767917Y2767913D2*
X2669484D1*
X2767917Y2775362D2*
X2669484D1*
X2767917D2*
Y2751803D1*
X2669484Y2775362D2*
Y2751803D1*
X3369272Y2906102D2*
X3318130D1*
X4206299Y1944272D2*
Y1893130D1*
Y2144272D2*
Y2093130D1*
X1892917Y2992913D2*
X1794484D1*
X1892917Y3000362D2*
X1794484D1*
X1892917D2*
Y2976803D1*
X1794484Y3000362D2*
Y2976803D1*
X3856299Y1119272D2*
Y1068130D1*
X4206299Y2044272D2*
Y1993130D1*
X1518130Y1631299D2*
X1569272D1*
X3969272Y1910060D2*
X3918130D1*
X1419272Y781102D2*
X1368130D1*
X1729444Y756201D2*
X1491934D1*
Y631201D1*
X1729444D1*
Y756201D1*
X1691917D2*
Y631201D1*
X2968130Y1281299D2*
X3019272D1*
X1869484Y2644488D2*
X1967917D1*
X1869484Y2637039D2*
X1967917D1*
X1869484D2*
Y2660598D1*
X1967917Y2637039D2*
Y2660598D1*
X2781299Y1419272D2*
Y1368130D1*
X3169272Y1281102D2*
X3118130D1*
X3019272D2*
X2968130D1*
X3856299Y1469272D2*
Y1418130D1*
Y1394272D2*
Y1343130D1*
X4794272Y2881102D2*
X4743130D1*
X4894272D2*
X4843130D1*
X4006299Y2994272D2*
Y2943130D1*
X5094272Y2881102D2*
X5043130D1*
X4878150Y662236D2*
Y725165D1*
X4885598Y662236D2*
Y725165D1*
Y662236D2*
X4862039D1*
X4885598Y725165D2*
X4862039D1*
X4994272Y2881102D2*
X4943130D1*
X4006299Y3094272D2*
Y3043130D1*
X3731102Y2693130D2*
Y2744272D1*
X5644488Y2350165D2*
Y2287236D1*
X5637039Y2350165D2*
Y2287236D1*
Y2350165D2*
X5660598D1*
X5637039Y2287236D2*
X5660598D1*
X5644488Y2250165D2*
Y2187236D1*
X5637039Y2250165D2*
Y2187236D1*
Y2250165D2*
X5660598D1*
X5637039Y2187236D2*
X5660598D1*
X5644488Y2650165D2*
Y2587236D1*
X5637039Y2650165D2*
Y2587236D1*
Y2650165D2*
X5660598D1*
X5637039Y2587236D2*
X5660598D1*
X5644488Y2150165D2*
Y2087236D1*
X5637039Y2150165D2*
Y2087236D1*
Y2150165D2*
X5660598D1*
X5637039Y2087236D2*
X5660598D1*
X5644488Y1850165D2*
Y1787236D1*
X5637039Y1850165D2*
Y1787236D1*
Y1850165D2*
X5660598D1*
X5637039Y1787236D2*
X5660598D1*
X5644488Y1750165D2*
Y1687236D1*
X5637039Y1750165D2*
Y1687236D1*
Y1750165D2*
X5660598D1*
X5637039Y1687236D2*
X5660598D1*
X5644488Y1450165D2*
Y1387236D1*
X5637039Y1450165D2*
Y1387236D1*
Y1450165D2*
X5660598D1*
X5637039Y1387236D2*
X5660598D1*
X5644488Y2050165D2*
Y1987236D1*
X5637039Y2050165D2*
Y1987236D1*
Y2050165D2*
X5660598D1*
X5637039Y1987236D2*
X5660598D1*
X5644488Y850165D2*
Y787236D1*
X5637039Y850165D2*
Y787236D1*
Y850165D2*
X5660598D1*
X5637039Y787236D2*
X5660598D1*
X5644488Y1050165D2*
Y987236D1*
X5637039Y1050165D2*
Y987236D1*
Y1050165D2*
X5660598D1*
X5637039Y987236D2*
X5660598D1*
X5644488Y1250165D2*
Y1187236D1*
X5637039Y1250165D2*
Y1187236D1*
Y1250165D2*
X5660598D1*
X5637039Y1187236D2*
X5660598D1*
X4244488Y3100165D2*
Y3037236D1*
X4237039Y3100165D2*
Y3037236D1*
Y3100165D2*
X4260598D1*
X4237039Y3037236D2*
X4260598D1*
X3181102Y1368130D2*
Y1419272D1*
X3731102Y2843130D2*
Y2894272D1*
X5644488Y2450165D2*
Y2387236D1*
X5637039Y2450165D2*
Y2387236D1*
Y2450165D2*
X5660598D1*
X5637039Y2387236D2*
X5660598D1*
X5644488Y2550165D2*
Y2487236D1*
X5637039Y2550165D2*
Y2487236D1*
Y2550165D2*
X5660598D1*
X5637039Y2487236D2*
X5660598D1*
X5644488Y2750165D2*
Y2687236D1*
X5637039Y2750165D2*
Y2687236D1*
Y2750165D2*
X5660598D1*
X5637039Y2687236D2*
X5660598D1*
X5644488Y1550165D2*
Y1487236D1*
X5637039Y1550165D2*
Y1487236D1*
Y1550165D2*
X5660598D1*
X5637039Y1487236D2*
X5660598D1*
X5644488Y1950165D2*
Y1887236D1*
X5637039Y1950165D2*
Y1887236D1*
Y1950165D2*
X5660598D1*
X5637039Y1887236D2*
X5660598D1*
X5644488Y1650165D2*
Y1587236D1*
X5637039Y1650165D2*
Y1587236D1*
Y1650165D2*
X5660598D1*
X5637039Y1587236D2*
X5660598D1*
X5644488Y1350165D2*
Y1287236D1*
X5637039Y1350165D2*
Y1287236D1*
Y1350165D2*
X5660598D1*
X5637039Y1287236D2*
X5660598D1*
X5644488Y950165D2*
Y887236D1*
X5637039Y950165D2*
Y887236D1*
Y950165D2*
X5660598D1*
X5637039Y887236D2*
X5660598D1*
X5644488Y1150165D2*
Y1087236D1*
X5637039Y1150165D2*
Y1087236D1*
Y1150165D2*
X5660598D1*
X5637039Y1087236D2*
X5660598D1*
X4244488Y3000165D2*
Y2937236D1*
X4237039Y3000165D2*
Y2937236D1*
Y3000165D2*
X4260598D1*
X4237039Y2937236D2*
X4260598D1*
X4531102Y693130D2*
Y744272D1*
X3656102Y1568130D2*
Y1619272D1*
X2418701Y1631204D2*
Y1456197D1*
X2518701Y1631204D2*
X2506201D1*
X2518701Y1456197D2*
Y1631204D1*
X2418701D2*
X2431201D1*
X2418701Y1456197D2*
X2431201D1*
X2518701D2*
X2506201D1*
X2418701Y1568702D2*
X2518701D1*
X1403543Y1460236D2*
X1517717D1*
X1403543Y1527165D2*
X1517717D1*
X1403543Y1468134D2*
Y1460236D1*
Y1527165D2*
Y1519268D1*
X1517717Y1468134D2*
Y1460236D1*
Y1527165D2*
Y1519268D1*
X1480315Y1527165D2*
Y1460236D1*
X3086529Y2399951D2*
X2811503D1*
X2999005Y2637451D2*
Y2399951D1*
X3086529Y2637451D2*
Y2593703D1*
Y2399951D2*
Y2443698D1*
Y2637451D2*
X2811503D1*
Y2593703D1*
Y2399951D2*
Y2443698D1*
X1918701Y706197D2*
Y881204D1*
X1818701Y706197D2*
X1831201D1*
X1818701Y881204D2*
Y706197D1*
X1918701D2*
X1906201D1*
X1918701Y881204D2*
X1906201D1*
X1818701D2*
X1831201D1*
X1918701Y768700D2*
X1818701D1*
X1635236Y2792717D2*
Y2678543D1*
X1702165Y2792717D2*
Y2678543D1*
X1643134Y2792717D2*
X1635236D1*
X1702165D2*
X1694268D1*
X1643134Y2678543D2*
X1635236D1*
X1702165D2*
X1694268D1*
X1702165Y2715945D2*
X1635236D1*
X1668701Y906197D2*
Y1081204D1*
X1568701Y906197D2*
X1581201D1*
X1568701Y1081204D2*
Y906197D1*
X1668701D2*
X1656201D1*
X1668701Y1081204D2*
X1656201D1*
X1568701D2*
X1581201D1*
X1668701Y968700D2*
X1568701D1*
X2135236Y2792717D2*
Y2678543D1*
X2202165Y2792717D2*
Y2678543D1*
X2143134Y2792717D2*
X2135236D1*
X2202165D2*
X2194268D1*
X2143134Y2678543D2*
X2135236D1*
X2202165D2*
X2194268D1*
X2202165Y2715945D2*
X2135236D1*
X2102165Y2678543D2*
Y2792717D1*
X2035236Y2678543D2*
Y2792717D1*
X2094268Y2678543D2*
X2102165D1*
X2035236D2*
X2043134D1*
X2094268Y2792717D2*
X2102165D1*
X2035236D2*
X2043134D1*
X2035236Y2755315D2*
X2102165D1*
X1802165Y2678543D2*
Y2792717D1*
X1735236Y2678543D2*
Y2792717D1*
X1794268Y2678543D2*
X1802165D1*
X1735236D2*
X1743134D1*
X1794268Y2792717D2*
X1802165D1*
X1735236D2*
X1743134D1*
X1735236Y2755315D2*
X1802165D1*
X5231204Y3068701D2*
X5056197D1*
X5231204Y2968701D2*
Y2981201D1*
X5056197Y2968701D2*
X5231204D1*
Y3068701D2*
Y3056201D1*
X5056197Y3068701D2*
Y3056201D1*
Y2968701D2*
Y2981201D1*
X5168702Y3068701D2*
Y2968701D1*
X4610236Y908858D2*
Y794685D1*
X4677165Y908858D2*
Y794685D1*
X4618134Y908858D2*
X4610236D1*
X4677165D2*
X4669268D1*
X4618134Y794685D2*
X4610236D1*
X4677165D2*
X4669268D1*
X4677165Y832087D2*
X4610236D1*
Y642717D2*
Y528543D1*
X4677165Y642717D2*
Y528543D1*
X4618134Y642717D2*
X4610236D1*
X4677165D2*
X4669268D1*
X4618134Y528543D2*
X4610236D1*
X4677165D2*
X4669268D1*
X4677165Y565945D2*
X4610236D1*
X4743701Y2993688D2*
Y3168713D1*
X4593701Y2993712D2*
X4631201Y2993688D1*
X4593701Y3168713D2*
Y2993688D1*
X4743701Y2993712D2*
X4706201Y2993688D1*
X4743701Y3168690D2*
X4706201Y3168713D1*
X4593701Y3168690D2*
X4631201Y3168713D1*
X4743701Y3056201D2*
X4593701D1*
X4860236Y3133858D2*
Y3019685D1*
X4927165Y3133858D2*
Y3019685D1*
X4868134Y3133858D2*
X4860236D1*
X4927165D2*
X4919268D1*
X4868134Y3019685D2*
X4860236D1*
X4927165D2*
X4919268D1*
X4927165Y3057087D2*
X4860236D1*
X4452165Y794685D2*
Y908858D1*
X4385236Y794685D2*
Y908858D1*
X4444268Y794685D2*
X4452165D1*
X4385236D2*
X4393134D1*
X4444268Y908858D2*
X4452165D1*
X4385236D2*
X4393134D1*
X4385236Y871457D2*
X4452165D1*
Y528543D2*
Y642717D1*
X4385236Y528543D2*
Y642717D1*
X4444268Y528543D2*
X4452165D1*
X4385236D2*
X4393134D1*
X4444268Y642717D2*
X4452165D1*
X4385236D2*
X4393134D1*
X4385236Y605315D2*
X4452165D1*
X3581185Y2168701D2*
Y2118701D1*
Y2168701D2*
X3831217D1*
Y2118701D1*
X3581185Y1968701D2*
Y1918701D1*
X3831217D1*
Y1968701D2*
Y1918701D1*
D53*
X3483410Y1699550D3*
X3433268Y1690349D2*
D10*
Y1572244D1*
X3413583D1*
Y1690349D1*
X3433268D1*
X4076803Y2150165D2*
X4100362D1*
X4076803Y2087236D2*
X4100362D1*
X4076803Y1950165D2*
X4100362D1*
X4076803Y1887236D2*
X4100362D1*
X4076803Y2050165D2*
X4100362D1*
X4076803Y1987236D2*
X4100362D1*
X1764429Y1724953D2*
X1839411D1*
X1764429Y1662449D2*
X1839411D1*
X2874411Y2737402D2*
Y2950000D1*
X3000392D1*
Y2737402D2*
Y2950000D1*
X2874411Y2737402D2*
X2921654D1*
X3000392D2*
X2953149D1*
X2921654D2*
G02X2953149Y2737402I15748J6D01*
G01*
D61*
X4020725Y1741984D3*
X4074790Y1747246D2*
D10*
Y1865354D1*
X4106270Y1747246D2*
Y1865354D1*
X4074790D2*
X4106270D1*
X4074790Y1747246D2*
X4106270D1*
X1348812Y795274D2*
Y992128D1*
X1451188Y795274D2*
Y992128D1*
X1348812D2*
X1451188D1*
X1380306Y795274D2*
X1348812D1*
X1419694D2*
X1451188D1*
X1380306D2*
G02X1419694Y795274I19694J-9D01*
G01*
X2895476Y1223031D2*
X2832476D1*
Y1339173D1*
X2895476D1*
Y1223031D1*
X3492510Y1320973D2*
Y1061114D1*
X3366538Y1320973D2*
Y1061114D1*
X3492510D2*
X3366538D1*
X3492510Y1320973D2*
X3449212D1*
X3409835D2*
X3366538D1*
X3449212D2*
G02X3409835Y1320973I-19689J-9D01*
G01*
X3673812Y2920274D2*
Y3117128D1*
X3776188Y2920274D2*
Y3117128D1*
X3673812D2*
X3776188D1*
X3705306Y2920274D2*
X3673812D1*
X3744694D2*
X3776188D1*
X3705306D2*
G02X3744694Y2920274I19694J-9D01*
G01*
X1260892Y2166475D2*
Y2066232D1*
Y2166475D2*
G03X1260892Y2216596I-25161J25061D01*
G01*
Y2066232D2*
X1426509D1*
Y2316839D1*
X1260892D1*
Y2216596D1*
X2388152Y1774514D2*
D144*
X2390529Y1779267D1*
X2395337Y1784075D1*
X2400091Y1786452D1*
X2409652D1*
X2414461Y1784075D1*
X2419214Y1779267D1*
X2421646Y1774514D1*
X2424022Y1767329D1*
Y1755335D1*
X2421646Y1748205D1*
X2419214Y1743397D1*
X2414461Y1738644D1*
X2409652Y1736212D1*
X2400091D1*
X2395337Y1738644D1*
X2390529Y1743397D1*
X2388152Y1748205D1*
X2372713Y1776835D2*
X2367905Y1779267D1*
X2360720Y1786397D1*
Y1736212D1*
X3618736Y2659513D2*
X3621113Y2664266D1*
X3625921Y2669075D1*
X3630674Y2671451D1*
X3640236D1*
X3645044Y2669075D1*
X3649798Y2664266D1*
X3652229Y2659513D1*
X3654606Y2652328D1*
Y2640335D1*
X3652229Y2633205D1*
X3649798Y2628396D1*
X3645044Y2623643D1*
X3640236Y2621211D1*
X3630674D1*
X3625921Y2623643D1*
X3621113Y2628396D1*
X3618736Y2633205D1*
X3600865Y2659458D2*
Y2661835D1*
X3598488Y2666643D1*
X3596112Y2669020D1*
X3591303Y2671396D1*
X3581742D1*
X3576989Y2669020D1*
X3574612Y2666643D1*
X3572180Y2661835D1*
Y2657081D1*
X3574612Y2652273D1*
X3579365Y2645143D1*
X3603297Y2621211D1*
X3569803D1*
X1752888Y1956728D2*
X1748135Y1959105D1*
X1743327Y1963913D1*
X1740950Y1968666D1*
Y1978228D1*
X1743327Y1983037D1*
X1748135Y1987790D1*
X1752888Y1990222D1*
X1760073Y1992598D1*
X1772067D1*
X1779197Y1990222D1*
X1784005Y1987790D1*
X1788758Y1983036D1*
X1791190Y1978228D1*
Y1968666D1*
X1788758Y1963913D1*
X1784005Y1959105D1*
X1779197Y1956728D1*
X1741005Y1936481D2*
Y1910228D1*
X1760129Y1924542D1*
Y1917357D1*
X1762505Y1912604D1*
X1764882Y1910228D1*
X1772067Y1907796D1*
X1776820D1*
X1784005Y1910228D1*
X1788814Y1914981D1*
X1791190Y1922166D1*
Y1929351D1*
X1788814Y1936481D1*
X1786382Y1938857D1*
X1781629Y1941289D1*
X2273460Y1171915D2*
X2275837Y1176668D1*
X2280646Y1181476D1*
X2285399Y1183853D1*
X2294960D1*
X2299769Y1181476D1*
X2304522Y1176668D1*
X2306954Y1171915D1*
X2309330Y1164730D1*
Y1152736D1*
X2306954Y1145606D1*
X2304522Y1140798D1*
X2299769Y1136045D1*
X2294960Y1133613D1*
X2285399D1*
X2280646Y1136045D1*
X2275837Y1140798D1*
X2273460Y1145606D1*
X2229336Y1183798D2*
X2253213D1*
X2255589Y1162298D1*
X2253213Y1164674D1*
X2246028Y1167106D1*
X2238898D1*
X2231713Y1164674D1*
X2226904Y1159921D1*
X2224528Y1152736D1*
Y1147983D1*
X2226904Y1140798D1*
X2231713Y1135990D1*
X2238898Y1133613D1*
X2246028D1*
X2253213Y1135990D1*
X2255589Y1138421D1*
X2258021Y1143175D1*
X1527888Y1181728D2*
X1523135Y1184105D1*
X1518327Y1188913D1*
X1515950Y1193666D1*
Y1203228D1*
X1518327Y1208037D1*
X1523135Y1212790D1*
X1527888Y1215222D1*
X1535073Y1217598D1*
X1547067D1*
X1554197Y1215222D1*
X1559005Y1212790D1*
X1563758Y1208036D1*
X1566190Y1203228D1*
Y1193666D1*
X1563758Y1188913D1*
X1559005Y1184105D1*
X1554197Y1181728D1*
X1566190Y1156727D2*
X1516005Y1132796D1*
Y1166289D1*
X1419067Y1952919D2*
X1421443Y1957672D1*
X1426252Y1962480D1*
X1431005Y1964857D1*
X1440566D1*
X1445375Y1962480D1*
X1450128Y1957672D1*
X1452560Y1952919D1*
X1454937Y1945734D1*
Y1933740D1*
X1452560Y1926610D1*
X1450128Y1921802D1*
X1445375Y1917049D1*
X1440566Y1914617D1*
X1431005D1*
X1426252Y1917049D1*
X1421443Y1921802D1*
X1419067Y1926610D1*
X1403627Y1955240D2*
X1398819Y1957672D1*
X1391634Y1964802D1*
Y1914617D1*
X1361825Y1964802D2*
X1369010Y1962425D1*
X1373818Y1955240D1*
X1376195Y1943302D1*
Y1936117D1*
X1373818Y1924179D1*
X1369010Y1916994D1*
X1361825Y1914617D1*
X1357071D1*
X1349886Y1916994D1*
X1345133Y1924179D1*
X1342701Y1936117D1*
Y1943302D1*
X1345133Y1955240D1*
X1349886Y1962425D1*
X1357071Y1964802D1*
X1361825D1*
X1345133Y1955240D2*
X1373818Y1924179D1*
X2140388Y821703D2*
X2135635Y824079D1*
X2130827Y828888D1*
X2128450Y833641D1*
Y843202D1*
X2130827Y848011D1*
X2135635Y852764D1*
X2140388Y855196D1*
X2147573Y857572D1*
X2159567D1*
X2166697Y855196D1*
X2171505Y852764D1*
X2176258Y848011D1*
X2178690Y843202D1*
Y833641D1*
X2176258Y828888D1*
X2171505Y824079D1*
X2166697Y821703D1*
X2138067Y806263D2*
X2135635Y801455D1*
X2128505Y794270D1*
X2178690D1*
X2138067Y778831D2*
X2135635Y774022D1*
X2128505Y766837D1*
X2178690D1*
X4095445Y1234513D2*
X4097821Y1239266D1*
X4102630Y1244075D1*
X4107383Y1246451D1*
X4116944D1*
X4121753Y1244075D1*
X4126506Y1239266D1*
X4128938Y1234513D1*
X4131314Y1227328D1*
Y1215335D1*
X4128938Y1208205D1*
X4126506Y1203396D1*
X4121753Y1198643D1*
X4116944Y1196211D1*
X4107383D1*
X4102630Y1198643D1*
X4097821Y1203396D1*
X4095445Y1208205D1*
X4080005Y1236835D2*
X4075197Y1239266D1*
X4068012Y1246396D1*
Y1196211D1*
X4050141Y1234458D2*
Y1236835D1*
X4047764Y1241643D1*
X4045388Y1244020D1*
X4040579Y1246396D1*
X4031017D1*
X4026264Y1244020D1*
X4023888Y1241643D1*
X4021456Y1236835D1*
Y1232081D1*
X4023888Y1227273D1*
X4028641Y1220143D1*
X4052573Y1196211D1*
X4019079D1*
X2079266Y3108830D2*
X2074513Y3111207D1*
X2069705Y3116015D1*
X2067328Y3120769D1*
Y3130330D1*
X2069705Y3135139D1*
X2074513Y3139892D1*
X2079266Y3142324D1*
X2086451Y3144700D1*
X2098445D1*
X2105575Y3142324D1*
X2110383Y3139892D1*
X2115136Y3135139D1*
X2117568Y3130330D1*
Y3120769D1*
X2115136Y3116015D1*
X2110383Y3111207D1*
X2105575Y3108830D1*
X2076945Y3093391D2*
X2074513Y3088583D1*
X2067383Y3081398D1*
X2117568D1*
X2067383Y3061150D2*
Y3034897D1*
X2086507Y3049212D1*
Y3042027D1*
X2088883Y3037274D1*
X2091260Y3034897D1*
X2098445Y3032465D1*
X2103198D1*
X2110383Y3034897D1*
X2115192Y3039650D1*
X2117568Y3046835D1*
Y3054020D1*
X2115192Y3061150D1*
X2112760Y3063527D1*
X2108007Y3065958D1*
X3171633Y2959513D2*
X3174009Y2964266D1*
X3178818Y2969075D1*
X3183571Y2971451D1*
X3193133D1*
X3197941Y2969075D1*
X3202694Y2964266D1*
X3205126Y2959513D1*
X3207503Y2952328D1*
Y2940335D1*
X3205126Y2933205D1*
X3202694Y2928396D1*
X3197941Y2923643D1*
X3193133Y2921211D1*
X3183571D1*
X3178818Y2923643D1*
X3174009Y2928396D1*
X3171633Y2933205D1*
X3156194Y2961835D2*
X3151385Y2964266D1*
X3144200Y2971396D1*
Y2921211D1*
X3104829D2*
Y2971396D1*
X3128761Y2937958D1*
X3092891D1*
X2215388Y831237D2*
X2210635Y833613D1*
X2205827Y838422D1*
X2203450Y843175D1*
Y852736D1*
X2205827Y857545D1*
X2210635Y862298D1*
X2215388Y864730D1*
X2222573Y867106D1*
X2234567D1*
X2241697Y864730D1*
X2246505Y862298D1*
X2251258Y857545D1*
X2253690Y852736D1*
Y843175D1*
X2251258Y838422D1*
X2246505Y833613D1*
X2241697Y831237D1*
X2213067Y815797D2*
X2210635Y810989D1*
X2203505Y803804D1*
X2253690D1*
X2210635Y759680D2*
X2205882Y762056D1*
X2203505Y769241D1*
Y773995D1*
X2205882Y781180D1*
X2213067Y785988D1*
X2225005Y788365D1*
X2236944D1*
X2246505Y785988D1*
X2251314Y781180D1*
X2253690Y773995D1*
Y771618D1*
X2251314Y764488D1*
X2246505Y759680D1*
X2239320Y757303D1*
X2236943D1*
X2229758Y759680D1*
X2225005Y764488D1*
X2222629Y771618D1*
Y773995D1*
X2225005Y781180D1*
X2229759Y785988D1*
X2236944Y788365D1*
X1852888Y2006195D2*
X1848135Y2008571D1*
X1843327Y2013380D1*
X1840950Y2018133D1*
Y2027694D1*
X1843327Y2032503D1*
X1848135Y2037256D1*
X1852888Y2039688D1*
X1860073Y2042064D1*
X1872067D1*
X1879197Y2039688D1*
X1884005Y2037256D1*
X1888758Y2032503D1*
X1891190Y2027694D1*
Y2018133D1*
X1888758Y2013380D1*
X1884005Y2008571D1*
X1879197Y2006194D1*
X1852944Y1988323D2*
X1850567D1*
X1845759Y1985947D1*
X1843382Y1983570D1*
X1841005Y1978762D1*
Y1969200D1*
X1843382Y1964447D1*
X1845759Y1962070D1*
X1850567Y1959639D1*
X1855320D1*
X1860129Y1962070D1*
X1867259Y1966824D1*
X1891190Y1990755D1*
Y1957262D1*
X1841005Y1927453D2*
X1843382Y1934638D1*
X1850567Y1939446D1*
X1862505Y1941823D1*
X1869690D1*
X1881629Y1939446D1*
X1888814Y1934638D1*
X1891190Y1927453D1*
Y1922699D1*
X1888814Y1915514D1*
X1881629Y1910761D1*
X1869690Y1908329D1*
X1862505D1*
X1850567Y1910761D1*
X1843382Y1915514D1*
X1841005Y1922700D1*
Y1927453D1*
X1850567Y1910761D2*
X1881629Y1939446D1*
X2365388Y832452D2*
X2360635Y834829D1*
X2355827Y839638D1*
X2353450Y844391D1*
Y853952D1*
X2355827Y858761D1*
X2360635Y863514D1*
X2365388Y865946D1*
X2372573Y868322D1*
X2384567D1*
X2391697Y865946D1*
X2396505Y863514D1*
X2401258Y858761D1*
X2403690Y853952D1*
Y844391D1*
X2401258Y839637D1*
X2396505Y834829D1*
X2391697Y832452D1*
X2365444Y814581D2*
X2363067D1*
X2358259Y812205D1*
X2355882Y809828D1*
X2353505Y805020D1*
Y795458D1*
X2355882Y790705D1*
X2358259Y788328D1*
X2363067Y785897D1*
X2367820D1*
X2372629Y788328D1*
X2379759Y793082D1*
X2403690Y817013D1*
Y783520D1*
X2363067Y768081D2*
X2360635Y763272D1*
X2353505Y756087D1*
X2403690D1*
X1927888Y2006195D2*
X1923135Y2008571D1*
X1918327Y2013380D1*
X1915950Y2018133D1*
Y2027694D1*
X1918327Y2032503D1*
X1923135Y2037256D1*
X1927888Y2039688D1*
X1935073Y2042064D1*
X1947067D1*
X1954197Y2039688D1*
X1959005Y2037256D1*
X1963758Y2032503D1*
X1966190Y2027694D1*
Y2018133D1*
X1963758Y2013380D1*
X1959005Y2008571D1*
X1954197Y2006194D1*
X1927944Y1988323D2*
X1925567D1*
X1920759Y1985947D1*
X1918382Y1983570D1*
X1916005Y1978762D1*
Y1969200D1*
X1918382Y1964447D1*
X1920759Y1962070D1*
X1925567Y1959639D1*
X1930320D1*
X1935129Y1962070D1*
X1942259Y1966824D1*
X1966190Y1990755D1*
Y1957262D1*
X1927944Y1939391D2*
X1925567D1*
X1920759Y1937014D1*
X1918382Y1934638D1*
X1916005Y1929829D1*
Y1920268D1*
X1918382Y1915514D1*
X1920759Y1913138D1*
X1925567Y1910706D1*
X1930320D1*
X1935129Y1913138D1*
X1942258Y1917891D1*
X1966190Y1941823D1*
Y1908329D1*
X2554266Y2844580D2*
X2549513Y2846957D1*
X2544705Y2851765D1*
X2542328Y2856519D1*
Y2866080D1*
X2544705Y2870889D1*
X2549513Y2875642D1*
X2554266Y2878074D1*
X2561451Y2880450D1*
X2573445D1*
X2580575Y2878074D1*
X2585383Y2875642D1*
X2590136Y2870889D1*
X2592568Y2866080D1*
Y2856519D1*
X2590136Y2851765D1*
X2585383Y2846957D1*
X2580575Y2844580D1*
X2554322Y2826709D2*
X2551945D1*
X2547137Y2824333D1*
X2544760Y2821956D1*
X2542383Y2817148D1*
Y2807586D1*
X2544760Y2802833D1*
X2547137Y2800456D1*
X2551945Y2798024D1*
X2556698D1*
X2561507Y2800456D1*
X2568636Y2805209D1*
X2592568Y2829141D1*
Y2795648D1*
X2542383Y2775400D2*
Y2749147D1*
X2561507Y2763462D1*
Y2756277D1*
X2563883Y2751524D1*
X2566260Y2749147D1*
X2573445Y2746715D1*
X2578198D1*
X2585383Y2749147D1*
X2590192Y2753900D1*
X2592568Y2761085D1*
Y2768270D1*
X2590192Y2775400D1*
X2587760Y2777777D1*
X2583007Y2780209D1*
X3439496Y2849238D2*
X3434743Y2851615D1*
X3429934Y2856423D1*
X3427558Y2861177D1*
Y2870738D1*
X3429934Y2875547D1*
X3434743Y2880300D1*
X3439496Y2882732D1*
X3446681Y2885108D1*
X3458675D1*
X3465804Y2882732D1*
X3470613Y2880300D1*
X3475366Y2875547D1*
X3477798Y2870738D1*
Y2861177D1*
X3475366Y2856423D1*
X3470613Y2851615D1*
X3465804Y2849238D1*
X3439551Y2831367D2*
X3437175D1*
X3432366Y2828991D1*
X3429990Y2826614D1*
X3427613Y2821806D1*
Y2812244D1*
X3429990Y2807491D1*
X3432366Y2805114D1*
X3437175Y2802682D1*
X3441928D1*
X3446736Y2805114D1*
X3453866Y2809867D1*
X3477798Y2833799D1*
Y2800306D1*
Y2760935D2*
X3427613D1*
X3461051Y2784867D1*
Y2748997D1*
X4481194Y1934513D2*
X4483571Y1939266D1*
X4488380Y1944075D1*
X4493133Y1946451D1*
X4502694D1*
X4507503Y1944075D1*
X4512256Y1939266D1*
X4514688Y1934513D1*
X4517064Y1927328D1*
Y1915335D1*
X4514688Y1908205D1*
X4512256Y1903396D1*
X4507503Y1898643D1*
X4502694Y1896211D1*
X4493133D1*
X4488380Y1898643D1*
X4483571Y1903396D1*
X4481194Y1908205D1*
X4463323Y1934458D2*
Y1936835D1*
X4460947Y1941643D1*
X4458570Y1944020D1*
X4453762Y1946396D1*
X4444200D1*
X4439447Y1944020D1*
X4437070Y1941643D1*
X4434638Y1936835D1*
Y1932081D1*
X4437070Y1927273D1*
X4441824Y1920143D1*
X4465755Y1896211D1*
X4432262D1*
X4388138Y1946396D2*
X4412014D1*
X4414391Y1924896D1*
X4412014Y1927273D1*
X4404829Y1929705D1*
X4397699D1*
X4390514Y1927273D1*
X4385706Y1922520D1*
X4383329Y1915335D1*
Y1910581D1*
X4385706Y1903396D1*
X4390514Y1898588D1*
X4397699Y1896211D1*
X4404829D1*
X4412014Y1898588D1*
X4414391Y1901020D1*
X4416823Y1905773D1*
X4479979Y2134513D2*
X4482355Y2139266D1*
X4487164Y2144075D1*
X4491917Y2146451D1*
X4501478D1*
X4506287Y2144075D1*
X4511040Y2139266D1*
X4513472Y2134513D1*
X4515848Y2127328D1*
Y2115335D1*
X4513472Y2108205D1*
X4511040Y2103396D1*
X4506287Y2098643D1*
X4501478Y2096211D1*
X4491917D1*
X4487164Y2098643D1*
X4482355Y2103396D1*
X4479979Y2108205D1*
X4462107Y2134458D2*
Y2136835D1*
X4459731Y2141643D1*
X4457354Y2144020D1*
X4452546Y2146396D1*
X4442984D1*
X4438231Y2144020D1*
X4435854Y2141643D1*
X4433423Y2136835D1*
Y2132081D1*
X4435854Y2127273D1*
X4440608Y2120143D1*
X4464539Y2096211D1*
X4431046D1*
X4386922Y2139266D2*
X4389298Y2144020D1*
X4396483Y2146396D1*
X4401237D1*
X4408422Y2144020D1*
X4413230Y2136835D1*
X4415607Y2124896D1*
Y2112958D1*
X4413230Y2103396D1*
X4408422Y2098588D1*
X4401237Y2096211D1*
X4398860D1*
X4391730Y2098588D1*
X4386922Y2103396D1*
X4384545Y2110581D1*
Y2112958D1*
X4386922Y2120143D1*
X4391730Y2124896D1*
X4398860Y2127273D1*
X4401237D1*
X4408422Y2124896D1*
X4413230Y2120143D1*
X4415607Y2112958D1*
X1729266Y3119580D2*
X1724513Y3121957D1*
X1719705Y3126765D1*
X1717328Y3131519D1*
Y3141080D1*
X1719705Y3145889D1*
X1724513Y3150642D1*
X1729266Y3153074D1*
X1736451Y3155450D1*
X1748445D1*
X1755575Y3153074D1*
X1760383Y3150642D1*
X1765136Y3145889D1*
X1767568Y3141080D1*
Y3131519D1*
X1765136Y3126765D1*
X1760383Y3121957D1*
X1755575Y3119580D1*
X1729322Y3101709D2*
X1726945D1*
X1722137Y3099333D1*
X1719760Y3096956D1*
X1717383Y3092148D1*
Y3082586D1*
X1719760Y3077833D1*
X1722137Y3075456D1*
X1726945Y3073024D1*
X1731698D1*
X1736507Y3075456D1*
X1743636Y3080209D1*
X1767568Y3104141D1*
Y3070648D1*
Y3045647D2*
X1717383Y3021715D1*
Y3055209D1*
X3806167Y1109513D2*
X3808543Y1114266D1*
X3813352Y1119075D1*
X3818105Y1121451D1*
X3827667D1*
X3832475Y1119075D1*
X3837228Y1114266D1*
X3839660Y1109513D1*
X3842037Y1102328D1*
Y1090335D1*
X3839660Y1083205D1*
X3837228Y1078396D1*
X3832475Y1073643D1*
X3827667Y1071211D1*
X3818105D1*
X3813352Y1073643D1*
X3808543Y1078396D1*
X3806167Y1083205D1*
X3788296Y1109458D2*
Y1111835D1*
X3785919Y1116643D1*
X3783543Y1119020D1*
X3778734Y1121396D1*
X3769172D1*
X3764419Y1119020D1*
X3762043Y1116643D1*
X3759611Y1111835D1*
Y1107081D1*
X3762043Y1102273D1*
X3766796Y1095143D1*
X3790728Y1071211D1*
X3757234D1*
X3729857Y1121396D2*
X3736987Y1119020D1*
X3739418Y1114266D1*
Y1109458D1*
X3736987Y1104705D1*
X3732233Y1102273D1*
X3722672Y1099896D1*
X3715487Y1097520D1*
X3710734Y1092711D1*
X3708357Y1087958D1*
Y1080773D1*
X3710734Y1076020D1*
X3713110Y1073588D1*
X3720295Y1071211D1*
X3729857D1*
X3736987Y1073588D1*
X3739418Y1076020D1*
X3741795Y1080773D1*
Y1087958D1*
X3739418Y1092711D1*
X3734610Y1097520D1*
X3727480Y1099896D1*
X3717919Y1102273D1*
X3713110Y1104705D1*
X3710734Y1109458D1*
Y1114266D1*
X3713110Y1119020D1*
X3720295Y1121396D1*
X3729857D1*
X4555006Y2034513D2*
X4557383Y2039266D1*
X4562191Y2044075D1*
X4566944Y2046451D1*
X4576506D1*
X4581314Y2044075D1*
X4586068Y2039266D1*
X4588500Y2034513D1*
X4590876Y2027328D1*
Y2015335D1*
X4588500Y2008205D1*
X4586068Y2003396D1*
X4581314Y1998643D1*
X4576506Y1996211D1*
X4566944D1*
X4562191Y1998643D1*
X4557383Y2003396D1*
X4555006Y2008205D1*
X4537135Y2034458D2*
Y2036835D1*
X4534758Y2041643D1*
X4532382Y2044020D1*
X4527573Y2046396D1*
X4518012D1*
X4513259Y2044020D1*
X4510882Y2041643D1*
X4508450Y2036835D1*
Y2032081D1*
X4510882Y2027273D1*
X4515635Y2020143D1*
X4539567Y1996211D1*
X4506074D1*
X4459518Y2029705D2*
X4461949Y2022520D1*
X4466703Y2017711D1*
X4473888Y2015335D1*
X4476264D1*
X4483449Y2017711D1*
X4488202Y2022520D1*
X4490634Y2029705D1*
Y2032081D1*
X4488202Y2039266D1*
X4483449Y2044020D1*
X4476264Y2046396D1*
X4473888D1*
X4466703Y2044020D1*
X4461949Y2039266D1*
X4459518Y2029705D1*
Y2017711D1*
X4461949Y2005773D1*
X4466703Y1998588D1*
X4473888Y1996211D1*
X4478641D1*
X4485826Y1998588D1*
X4488202Y2003396D1*
X1602888Y1756195D2*
X1598135Y1758571D1*
X1593327Y1763380D1*
X1590950Y1768133D1*
Y1777694D1*
X1593327Y1782503D1*
X1598135Y1787256D1*
X1602888Y1789688D1*
X1610073Y1792064D1*
X1622067D1*
X1629197Y1789688D1*
X1634005Y1787256D1*
X1638758Y1782503D1*
X1641190Y1777694D1*
Y1768133D1*
X1638758Y1763380D1*
X1634005Y1758571D1*
X1629197Y1756194D1*
X1591005Y1735947D2*
Y1709694D1*
X1610129Y1724009D1*
Y1716824D1*
X1612505Y1712070D1*
X1614882Y1709694D1*
X1622067Y1707262D1*
X1626820D1*
X1634005Y1709694D1*
X1638814Y1714447D1*
X1641190Y1721632D1*
Y1728817D1*
X1638814Y1735947D1*
X1636382Y1738323D1*
X1631629Y1740755D1*
X1591005Y1677453D2*
X1593382Y1684638D1*
X1600567Y1689446D1*
X1612505Y1691823D1*
X1619690D1*
X1631629Y1689446D1*
X1638814Y1684638D1*
X1641190Y1677453D1*
Y1672699D1*
X1638814Y1665514D1*
X1631629Y1660761D1*
X1619690Y1658329D1*
X1612505D1*
X1600567Y1660761D1*
X1593382Y1665514D1*
X1591005Y1672700D1*
Y1677453D1*
X1600567Y1660761D2*
X1631629Y1689446D1*
X4002888Y1709431D2*
X3998135Y1711808D1*
X3993327Y1716617D1*
X3990950Y1721370D1*
Y1730931D1*
X3993327Y1735740D1*
X3998135Y1740493D1*
X4002888Y1742925D1*
X4010073Y1745301D1*
X4022067D1*
X4029197Y1742925D1*
X4034005Y1740493D1*
X4038758Y1735740D1*
X4041190Y1730931D1*
Y1721370D1*
X4038758Y1716616D1*
X4034005Y1711808D1*
X4029197Y1709431D1*
X3991005Y1689184D2*
Y1662931D1*
X4010129Y1677246D1*
Y1670061D1*
X4012505Y1665307D1*
X4014882Y1662931D1*
X4022067Y1660499D1*
X4026820D1*
X4034005Y1662931D1*
X4038814Y1667684D1*
X4041190Y1674869D1*
Y1682054D1*
X4038814Y1689184D1*
X4036382Y1691560D1*
X4031629Y1693992D1*
X4000567Y1645060D2*
X3998135Y1640251D1*
X3991005Y1633066D1*
X4041190D1*
X1377888Y568202D2*
X1373135Y570579D1*
X1368327Y575387D1*
X1365950Y580141D1*
Y589702D1*
X1368327Y594511D1*
X1373135Y599264D1*
X1377888Y601696D1*
X1385073Y604072D1*
X1397067D1*
X1404197Y601696D1*
X1409005Y599264D1*
X1413758Y594511D1*
X1416190Y589702D1*
Y580141D1*
X1413758Y575387D1*
X1409005Y570579D1*
X1404197Y568202D1*
X1366005Y547955D2*
Y521702D1*
X1385129Y536016D1*
Y528831D1*
X1387505Y524078D1*
X1389882Y521702D1*
X1397067Y519270D1*
X1401820D1*
X1409005Y521702D1*
X1413814Y526455D1*
X1416190Y533640D1*
Y540825D1*
X1413814Y547955D1*
X1411382Y550331D1*
X1406629Y552763D1*
X1377944Y501399D2*
X1375567D1*
X1370759Y499022D1*
X1368382Y496646D1*
X1366005Y491837D1*
Y482276D1*
X1368382Y477522D1*
X1370759Y475146D1*
X1375567Y472714D1*
X1380320D1*
X1385129Y475146D1*
X1392258Y479899D1*
X1416190Y503831D1*
Y470337D1*
X1641687Y592486D2*
X1644063Y597239D1*
X1648872Y602047D1*
X1653625Y604424D1*
X1663186D1*
X1667995Y602047D1*
X1672748Y597239D1*
X1675180Y592486D1*
X1677557Y585301D1*
Y573307D1*
X1675180Y566177D1*
X1672748Y561369D1*
X1667995Y556616D1*
X1663186Y554184D1*
X1653625D1*
X1648872Y556616D1*
X1644063Y561369D1*
X1641687Y566177D1*
X1621439Y604369D2*
X1595186D1*
X1609501Y585245D1*
X1602316D1*
X1597562Y582869D1*
X1595186Y580492D1*
X1592754Y573307D1*
Y568554D1*
X1595186Y561369D1*
X1599939Y556560D1*
X1607124Y554184D1*
X1614309D1*
X1621439Y556560D1*
X1623815Y558992D1*
X1626247Y563745D1*
X1572506Y604369D2*
X1546253D1*
X1560568Y585245D1*
X1553383D1*
X1548630Y582869D1*
X1546253Y580492D1*
X1543821Y573307D1*
Y568554D1*
X1546253Y561369D1*
X1551006Y556560D1*
X1558192Y554184D1*
X1565377D1*
X1572506Y556560D1*
X1574883Y558992D1*
X1577315Y563745D1*
X3052888Y1306195D2*
X3048135Y1308571D1*
X3043327Y1313380D1*
X3040950Y1318133D1*
Y1327694D1*
X3043327Y1332503D1*
X3048135Y1337256D1*
X3052888Y1339688D1*
X3060073Y1342064D1*
X3072067D1*
X3079197Y1339688D1*
X3084005Y1337256D1*
X3088758Y1332503D1*
X3091190Y1327694D1*
Y1318133D1*
X3088758Y1313380D1*
X3084005Y1308571D1*
X3079197Y1306194D1*
X3041005Y1285947D2*
Y1259694D1*
X3060129Y1274009D1*
Y1266824D1*
X3062505Y1262070D1*
X3064882Y1259694D1*
X3072067Y1257262D1*
X3076820D1*
X3084005Y1259694D1*
X3088814Y1264447D1*
X3091190Y1271632D1*
Y1278817D1*
X3088814Y1285947D1*
X3086382Y1288323D1*
X3081629Y1290755D1*
X3041005Y1213138D2*
Y1237014D1*
X3062505Y1239391D1*
X3060129Y1237014D1*
X3057697Y1229829D1*
Y1222700D1*
X3060129Y1215514D1*
X3064882Y1210706D1*
X3072067Y1208329D1*
X3076820D1*
X3084005Y1210706D1*
X3088814Y1215514D1*
X3091190Y1222699D1*
Y1229829D1*
X3088814Y1237014D1*
X3086382Y1239391D1*
X3081629Y1241823D1*
X1904266Y2504817D2*
X1899513Y2507193D1*
X1894705Y2512002D1*
X1892328Y2516755D1*
Y2526316D1*
X1894705Y2531125D1*
X1899513Y2535878D1*
X1904266Y2538310D1*
X1911451Y2540686D1*
X1923445D1*
X1930575Y2538310D1*
X1935383Y2535878D1*
X1940136Y2531125D1*
X1942568Y2526316D1*
Y2516755D1*
X1940136Y2512002D1*
X1935383Y2507193D1*
X1930575Y2504817D1*
X1892383Y2484569D2*
Y2458316D1*
X1911507Y2472631D1*
Y2465446D1*
X1913883Y2460692D1*
X1916260Y2458316D1*
X1923445Y2455884D1*
X1928198D1*
X1935383Y2458316D1*
X1940192Y2463069D1*
X1942568Y2470254D1*
Y2477439D1*
X1940192Y2484569D1*
X1937760Y2486945D1*
X1933007Y2489377D1*
X1942568Y2430883D2*
X1892383Y2406951D1*
Y2440445D1*
X2731167Y1409513D2*
X2733543Y1414266D1*
X2738352Y1419075D1*
X2743105Y1421451D1*
X2752667D1*
X2757475Y1419075D1*
X2762228Y1414266D1*
X2764660Y1409513D1*
X2767037Y1402328D1*
Y1390335D1*
X2764660Y1383205D1*
X2762228Y1378396D1*
X2757475Y1373643D1*
X2752667Y1371211D1*
X2743105D1*
X2738352Y1373643D1*
X2733543Y1378396D1*
X2731167Y1383205D1*
X2710919Y1421396D2*
X2684666D1*
X2698981Y1402273D1*
X2691796D1*
X2687043Y1399896D1*
X2684666Y1397520D1*
X2682234Y1390335D1*
Y1385581D1*
X2684666Y1378396D1*
X2689419Y1373588D1*
X2696604Y1371211D1*
X2703789D1*
X2710919Y1373588D1*
X2713296Y1376020D1*
X2715728Y1380773D1*
X2654857Y1421396D2*
X2661987Y1419020D1*
X2664418Y1414266D1*
Y1409458D1*
X2661987Y1404705D1*
X2657233Y1402273D1*
X2647672Y1399896D1*
X2640487Y1397520D1*
X2635734Y1392711D1*
X2633357Y1387958D1*
Y1380773D1*
X2635734Y1376020D1*
X2638110Y1373588D1*
X2645295Y1371211D1*
X2654857D1*
X2661987Y1373588D1*
X2664418Y1376020D1*
X2666795Y1380773D1*
Y1387958D1*
X2664418Y1392711D1*
X2659610Y1397520D1*
X2652480Y1399896D1*
X2642919Y1402273D1*
X2638110Y1404705D1*
X2635734Y1409458D1*
Y1414266D1*
X2638110Y1419020D1*
X2645295Y1421396D1*
X2654857D1*
X3127888Y1092014D2*
X3123135Y1094391D1*
X3118327Y1099199D1*
X3115950Y1103952D1*
Y1113514D1*
X3118327Y1118322D1*
X3123135Y1123076D1*
X3127888Y1125507D1*
X3135073Y1127884D1*
X3147067D1*
X3154197Y1125507D1*
X3159005Y1123076D1*
X3163758Y1118322D1*
X3166190Y1113514D1*
Y1103952D1*
X3163758Y1099199D1*
X3159005Y1094391D1*
X3154197Y1092014D1*
X3116005Y1071766D2*
Y1045513D1*
X3135129Y1059828D1*
Y1052643D1*
X3137505Y1047890D1*
X3139882Y1045513D1*
X3147067Y1043082D1*
X3151820D1*
X3159005Y1045513D1*
X3163814Y1050267D1*
X3166190Y1057452D1*
Y1064637D1*
X3163814Y1071766D1*
X3161382Y1074143D1*
X3156629Y1076575D1*
X3132697Y996526D2*
X3139882Y998957D1*
X3144690Y1003711D1*
X3147067Y1010896D1*
Y1013272D1*
X3144690Y1020457D1*
X3139882Y1025210D1*
X3132697Y1027642D1*
X3130320D1*
X3123135Y1025210D1*
X3118382Y1020457D1*
X3116005Y1013272D1*
Y1010896D1*
X3118382Y1003711D1*
X3123135Y998957D1*
X3132697Y996526D1*
X3144690D1*
X3156629Y998957D1*
X3163814Y1003711D1*
X3166190Y1010896D1*
Y1015649D1*
X3163814Y1022834D1*
X3159005Y1025210D1*
X2902888Y1169391D2*
X2898135Y1171767D1*
X2893327Y1176576D1*
X2890950Y1181329D1*
Y1190891D1*
X2893327Y1195699D1*
X2898135Y1200452D1*
X2902888Y1202884D1*
X2910073Y1205261D1*
X2922067D1*
X2929197Y1202884D1*
X2934005Y1200452D1*
X2938758Y1195699D1*
X2941190Y1190890D1*
Y1181329D1*
X2938758Y1176576D1*
X2934005Y1171767D1*
X2929197Y1169391D1*
X2941190Y1130020D2*
X2891005D1*
X2924444Y1153951D1*
Y1118082D1*
X2891005Y1088272D2*
X2893382Y1095457D1*
X2900567Y1100266D1*
X2912505Y1102642D1*
X2919690D1*
X2931629Y1100266D1*
X2938814Y1095457D1*
X2941190Y1088272D1*
Y1083519D1*
X2938814Y1076334D1*
X2931629Y1071581D1*
X2919690Y1069149D1*
X2912505D1*
X2900567Y1071581D1*
X2893382Y1076334D1*
X2891005Y1083519D1*
Y1088272D1*
X2900567Y1071581D2*
X2931629Y1100266D1*
X4096633Y1459513D2*
X4099009Y1464266D1*
X4103818Y1469075D1*
X4108571Y1471451D1*
X4118133D1*
X4122941Y1469075D1*
X4127694Y1464266D1*
X4130126Y1459513D1*
X4132503Y1452328D1*
Y1440335D1*
X4130126Y1433205D1*
X4127694Y1428396D1*
X4122941Y1423643D1*
X4118133Y1421211D1*
X4108571D1*
X4103818Y1423643D1*
X4099009Y1428396D1*
X4096633Y1433205D1*
X4057262Y1421211D2*
Y1471396D1*
X4081194Y1437958D1*
X4045324D1*
X4029884Y1461835D2*
X4025076Y1464266D1*
X4017891Y1471396D1*
Y1421211D1*
X4107383Y1384513D2*
X4109759Y1389266D1*
X4114568Y1394075D1*
X4119321Y1396451D1*
X4128883D1*
X4133691Y1394075D1*
X4138444Y1389266D1*
X4140876Y1384513D1*
X4143253Y1377328D1*
Y1365335D1*
X4140876Y1358205D1*
X4138444Y1353396D1*
X4133691Y1348643D1*
X4128883Y1346211D1*
X4119321D1*
X4114568Y1348643D1*
X4109759Y1353396D1*
X4107383Y1358205D1*
X4068012Y1346211D2*
Y1396396D1*
X4091944Y1362958D1*
X4056074D1*
X4038202Y1384458D2*
Y1386835D1*
X4035826Y1391643D1*
X4033449Y1394020D1*
X4028641Y1396396D1*
X4019079D1*
X4014326Y1394020D1*
X4011949Y1391643D1*
X4009518Y1386835D1*
Y1382081D1*
X4011949Y1377273D1*
X4016703Y1370143D1*
X4040634Y1346211D1*
X4007141D1*
X4752888Y2694391D2*
X4748135Y2696767D1*
X4743327Y2701576D1*
X4740950Y2706329D1*
Y2715891D1*
X4743327Y2720699D1*
X4748135Y2725452D1*
X4752888Y2727884D1*
X4760073Y2730261D1*
X4772067D1*
X4779197Y2727884D1*
X4784005Y2725452D1*
X4788758Y2720699D1*
X4791190Y2715890D1*
Y2706329D1*
X4788758Y2701576D1*
X4784005Y2696767D1*
X4779197Y2694391D1*
X4791190Y2655020D2*
X4741005D1*
X4774444Y2678951D1*
Y2643082D1*
X4741005Y2622834D2*
Y2596581D1*
X4760129Y2610896D1*
Y2603711D1*
X4762505Y2598957D1*
X4764882Y2596581D1*
X4772067Y2594149D1*
X4776820D1*
X4784005Y2596581D1*
X4788814Y2601334D1*
X4791190Y2608519D1*
Y2615704D1*
X4788814Y2622834D1*
X4786382Y2625210D1*
X4781629Y2627642D1*
X4852888Y2695579D2*
X4848135Y2697956D1*
X4843327Y2702764D1*
X4840950Y2707517D1*
Y2717079D1*
X4843327Y2721887D1*
X4848135Y2726640D1*
X4852888Y2729072D1*
X4860073Y2731449D1*
X4872067D1*
X4879197Y2729072D1*
X4884005Y2726640D1*
X4888758Y2721887D1*
X4891190Y2717079D1*
Y2707517D1*
X4888758Y2702764D1*
X4884005Y2697956D1*
X4879197Y2695579D1*
X4891190Y2656208D2*
X4841005D1*
X4874444Y2680140D1*
Y2644270D1*
X4891190Y2604899D2*
X4841005D1*
X4874444Y2628831D1*
X4874443Y2592961D1*
X4107383Y2834513D2*
X4109759Y2839266D1*
X4114568Y2844075D1*
X4119321Y2846451D1*
X4128883D1*
X4133691Y2844075D1*
X4138444Y2839266D1*
X4140876Y2834513D1*
X4143253Y2827328D1*
Y2815335D1*
X4140876Y2808205D1*
X4138444Y2803396D1*
X4133691Y2798643D1*
X4128883Y2796211D1*
X4119321D1*
X4114568Y2798643D1*
X4109759Y2803396D1*
X4107383Y2808205D1*
X4068012Y2796211D2*
Y2846396D1*
X4091944Y2812958D1*
X4056074D1*
X4011949Y2846396D2*
X4035826D1*
X4038202Y2824896D1*
X4035826Y2827273D1*
X4028641Y2829705D1*
X4021511D1*
X4014326Y2827273D1*
X4009518Y2822520D1*
X4007141Y2815335D1*
Y2810581D1*
X4009518Y2803396D1*
X4014326Y2798588D1*
X4021511Y2796211D1*
X4028641D1*
X4035826Y2798588D1*
X4038202Y2801020D1*
X4040634Y2805773D1*
X5052888Y2693175D2*
X5048135Y2695551D1*
X5043327Y2700360D1*
X5040950Y2705113D1*
Y2714675D1*
X5043327Y2719483D1*
X5048135Y2724236D1*
X5052888Y2726668D1*
X5060073Y2729045D1*
X5072067D1*
X5079197Y2726668D1*
X5084005Y2724236D1*
X5088758Y2719483D1*
X5091190Y2714675D1*
Y2705113D1*
X5088758Y2700360D1*
X5084005Y2695551D1*
X5079197Y2693175D1*
X5091190Y2653804D2*
X5041005D1*
X5074444Y2677735D1*
Y2641866D1*
X5048135Y2597742D2*
X5043382Y2600118D1*
X5041005Y2607303D1*
Y2612056D1*
X5043382Y2619241D1*
X5050567Y2624050D1*
X5062505Y2626426D1*
X5074444D1*
X5084005Y2624050D1*
X5088814Y2619241D1*
X5091190Y2612056D1*
Y2609680D1*
X5088814Y2602550D1*
X5084005Y2597742D1*
X5076820Y2595365D1*
X5074443D1*
X5067258Y2597742D1*
X5062505Y2602550D1*
X5060129Y2609680D1*
Y2612056D1*
X5062505Y2619241D1*
X5067259Y2624050D1*
X5074444Y2626426D1*
X5081005Y715419D2*
X5083381Y720172D1*
X5088190Y724980D1*
X5092943Y727357D1*
X5102505D1*
X5107313Y724980D1*
X5112066Y720172D1*
X5114498Y715419D1*
X5116875Y708234D1*
Y696240D1*
X5114498Y689110D1*
X5112066Y684302D1*
X5107313Y679549D1*
X5102505Y677117D1*
X5092943D1*
X5088190Y679549D1*
X5083381Y684302D1*
X5081005Y689110D1*
X5041634Y677117D2*
Y727302D1*
X5065566Y693864D1*
X5029696D1*
X5004695Y677117D2*
X4980763Y727302D1*
X5014256D1*
X4952888Y2694363D2*
X4948135Y2696740D1*
X4943327Y2701548D1*
X4940950Y2706301D1*
Y2715863D1*
X4943327Y2720671D1*
X4948135Y2725425D1*
X4952888Y2727856D1*
X4960073Y2730233D1*
X4972067D1*
X4979197Y2727856D1*
X4984005Y2725424D1*
X4988758Y2720671D1*
X4991190Y2715863D1*
Y2706301D1*
X4988758Y2701548D1*
X4984005Y2696740D1*
X4979197Y2694363D1*
X4991190Y2654992D2*
X4941005D1*
X4974444Y2678924D1*
Y2643054D1*
X4941005Y2615676D2*
X4943382Y2622806D1*
X4948135Y2625238D1*
X4952944D1*
X4957697Y2622806D1*
X4960129Y2618053D1*
X4962505Y2608491D1*
X4964882Y2601306D1*
X4969690Y2596553D1*
X4974443Y2594177D1*
X4981629D1*
X4986382Y2596553D1*
X4988814Y2598930D1*
X4991190Y2606115D1*
Y2615676D1*
X4988814Y2622806D1*
X4986382Y2625238D1*
X4981629Y2627615D1*
X4974444D1*
X4969690Y2625238D1*
X4964882Y2620430D1*
X4962505Y2613300D1*
X4960129Y2603738D1*
X4957697Y2598930D1*
X4952944Y2596553D1*
X4948135D1*
X4943382Y2598930D1*
X4941005Y2606115D1*
Y2615676D1*
X4106194Y2909513D2*
X4108571Y2914266D1*
X4113380Y2919075D1*
X4118133Y2921451D1*
X4127694D1*
X4132503Y2919075D1*
X4137256Y2914266D1*
X4139688Y2909513D1*
X4142064Y2902328D1*
Y2890335D1*
X4139688Y2883205D1*
X4137256Y2878396D1*
X4132503Y2873643D1*
X4127694Y2871211D1*
X4118133D1*
X4113380Y2873643D1*
X4108571Y2878396D1*
X4106194Y2883205D1*
X4066824Y2871211D2*
Y2921396D1*
X4090755Y2887958D1*
X4054885D1*
X4008329Y2904705D2*
X4010761Y2897520D1*
X4015514Y2892711D1*
X4022699Y2890335D1*
X4025076D1*
X4032261Y2892711D1*
X4037014Y2897520D1*
X4039446Y2904705D1*
Y2907081D1*
X4037014Y2914266D1*
X4032261Y2919020D1*
X4025076Y2921396D1*
X4022699D1*
X4015514Y2919020D1*
X4010761Y2914266D1*
X4008329Y2904705D1*
Y2892711D1*
X4010761Y2880773D1*
X4015514Y2873588D1*
X4022699Y2871211D1*
X4027453D1*
X4034638Y2873588D1*
X4037014Y2878396D1*
X3843202Y2734513D2*
X3845579Y2739266D1*
X3850387Y2744075D1*
X3855141Y2746451D1*
X3864702D1*
X3869511Y2744075D1*
X3874264Y2739266D1*
X3876696Y2734513D1*
X3879072Y2727328D1*
Y2715335D1*
X3876696Y2708205D1*
X3874264Y2703396D1*
X3869511Y2698643D1*
X3864702Y2696211D1*
X3855141D1*
X3850387Y2698643D1*
X3845579Y2703396D1*
X3843202Y2708205D1*
X3799078Y2746396D2*
X3822955D1*
X3825331Y2724896D1*
X3822955Y2727273D1*
X3815770Y2729705D1*
X3808640D1*
X3801455Y2727273D1*
X3796646Y2722520D1*
X3794270Y2715335D1*
Y2710581D1*
X3796646Y2703396D1*
X3801455Y2698588D1*
X3808640Y2696211D1*
X3815770D1*
X3822955Y2698588D1*
X3825331Y2701020D1*
X3827763Y2705773D1*
X3764460Y2746396D2*
X3771645Y2744020D1*
X3776454Y2736835D1*
X3778831Y2724896D1*
Y2717711D1*
X3776454Y2705773D1*
X3771645Y2698588D1*
X3764460Y2696211D1*
X3759707D1*
X3752522Y2698588D1*
X3747769Y2705773D1*
X3745337Y2717711D1*
Y2724896D1*
X3747769Y2736835D1*
X3752522Y2744020D1*
X3759707Y2746396D1*
X3764460D1*
X3747769Y2736835D2*
X3776454Y2705773D1*
X5844067Y2340419D2*
X5846443Y2345172D1*
X5851252Y2349980D1*
X5856005Y2352357D1*
X5865566D1*
X5870375Y2349980D1*
X5875128Y2345172D1*
X5877560Y2340419D1*
X5879937Y2333234D1*
Y2321240D1*
X5877560Y2314110D1*
X5875128Y2309302D1*
X5870375Y2304549D1*
X5865566Y2302117D1*
X5856005D1*
X5851252Y2304549D1*
X5846443Y2309302D1*
X5844067Y2314110D1*
X5799942Y2352302D2*
X5823819D1*
X5826195Y2330802D1*
X5823819Y2333178D1*
X5816634Y2335610D1*
X5809504D1*
X5802319Y2333178D1*
X5797511Y2328425D1*
X5795134Y2321240D1*
Y2316487D1*
X5797511Y2309302D1*
X5802319Y2304494D1*
X5809504Y2302117D1*
X5816634D1*
X5823819Y2304494D1*
X5826195Y2306925D1*
X5828627Y2311679D1*
X5779695Y2342740D2*
X5774886Y2345172D1*
X5767701Y2352302D1*
Y2302117D1*
X5854817Y2240419D2*
X5857193Y2245172D1*
X5862002Y2249980D1*
X5866755Y2252357D1*
X5876316D1*
X5881125Y2249980D1*
X5885878Y2245172D1*
X5888310Y2240419D1*
X5890686Y2233234D1*
Y2221240D1*
X5888310Y2214110D1*
X5885878Y2209302D1*
X5881125Y2204549D1*
X5876316Y2202117D1*
X5866755D1*
X5862002Y2204549D1*
X5857193Y2209302D1*
X5854817Y2214110D1*
X5810692Y2252302D2*
X5834569D1*
X5836945Y2230802D1*
X5834569Y2233178D1*
X5827384Y2235610D1*
X5820254D1*
X5813069Y2233178D1*
X5808261Y2228425D1*
X5805884Y2221240D1*
Y2216487D1*
X5808261Y2209302D1*
X5813069Y2204494D1*
X5820254Y2202117D1*
X5827384D1*
X5834569Y2204494D1*
X5836945Y2206925D1*
X5839377Y2211679D1*
X5788013Y2240363D2*
Y2242740D1*
X5785636Y2247548D1*
X5783260Y2249925D1*
X5778451Y2252302D1*
X5768890D1*
X5764136Y2249925D1*
X5761760Y2247548D1*
X5759328Y2242740D1*
Y2237987D1*
X5761760Y2233178D1*
X5766513Y2226049D1*
X5790445Y2202117D1*
X5756951D1*
X5854817Y2640419D2*
X5857193Y2645172D1*
X5862002Y2649980D1*
X5866755Y2652357D1*
X5876316D1*
X5881125Y2649980D1*
X5885878Y2645172D1*
X5888310Y2640419D1*
X5890686Y2633234D1*
Y2621240D1*
X5888310Y2614110D1*
X5885878Y2609302D1*
X5881125Y2604549D1*
X5876316Y2602117D1*
X5866755D1*
X5862002Y2604549D1*
X5857193Y2609302D1*
X5854817Y2614110D1*
X5810692Y2652302D2*
X5834569D1*
X5836945Y2630802D1*
X5834569Y2633178D1*
X5827384Y2635610D1*
X5820254D1*
X5813069Y2633178D1*
X5808261Y2628425D1*
X5805884Y2621240D1*
Y2616487D1*
X5808261Y2609302D1*
X5813069Y2604494D1*
X5820254Y2602117D1*
X5827384D1*
X5834569Y2604494D1*
X5836945Y2606925D1*
X5839377Y2611679D1*
X5785636Y2652302D2*
X5759383D1*
X5773698Y2633178D1*
X5766513D1*
X5761760Y2630802D1*
X5759383Y2628425D1*
X5756951Y2621240D1*
Y2616487D1*
X5759383Y2609302D1*
X5764136Y2604494D1*
X5771321Y2602117D1*
X5778506D1*
X5785636Y2604494D1*
X5788013Y2606925D1*
X5790445Y2611679D1*
X5856005Y2140419D2*
X5858381Y2145172D1*
X5863190Y2149980D1*
X5867943Y2152357D1*
X5877505D1*
X5882313Y2149980D1*
X5887066Y2145172D1*
X5889498Y2140419D1*
X5891875Y2133234D1*
Y2121240D1*
X5889498Y2114110D1*
X5887066Y2109302D1*
X5882313Y2104549D1*
X5877505Y2102117D1*
X5867943D1*
X5863190Y2104549D1*
X5858381Y2109302D1*
X5856005Y2114110D1*
X5811881Y2152302D2*
X5835757D1*
X5838134Y2130802D1*
X5835757Y2133178D1*
X5828572Y2135610D1*
X5821442D1*
X5814257Y2133178D1*
X5809449Y2128425D1*
X5807072Y2121240D1*
Y2116487D1*
X5809449Y2109302D1*
X5814257Y2104494D1*
X5821442Y2102117D1*
X5828572D1*
X5835757Y2104494D1*
X5838134Y2106925D1*
X5840566Y2111679D1*
X5767701Y2102117D2*
Y2152302D1*
X5791633Y2118864D1*
X5755763D1*
X5854817Y1840419D2*
X5857193Y1845172D1*
X5862002Y1849980D1*
X5866755Y1852357D1*
X5876316D1*
X5881125Y1849980D1*
X5885878Y1845172D1*
X5888310Y1840419D1*
X5890686Y1833234D1*
Y1821240D1*
X5888310Y1814110D1*
X5885878Y1809302D1*
X5881125Y1804549D1*
X5876316Y1802117D1*
X5866755D1*
X5862002Y1804549D1*
X5857193Y1809302D1*
X5854817Y1814110D1*
X5810692Y1852302D2*
X5834569D1*
X5836945Y1830802D1*
X5834569Y1833178D1*
X5827384Y1835610D1*
X5820254D1*
X5813069Y1833178D1*
X5808261Y1828425D1*
X5805884Y1821240D1*
Y1816487D1*
X5808261Y1809302D1*
X5813069Y1804494D1*
X5820254Y1802117D1*
X5827384D1*
X5834569Y1804494D1*
X5836945Y1806925D1*
X5839377Y1811679D1*
X5761760Y1852302D2*
X5785636D1*
X5788013Y1830802D1*
X5785636Y1833178D1*
X5778451Y1835610D1*
X5771321D1*
X5764136Y1833178D1*
X5759328Y1828425D1*
X5756951Y1821240D1*
Y1816487D1*
X5759328Y1809302D1*
X5764136Y1804494D1*
X5771321Y1802117D1*
X5778451D1*
X5785636Y1804494D1*
X5788013Y1806925D1*
X5790445Y1811679D1*
X5853601Y1740419D2*
X5855977Y1745172D1*
X5860786Y1749980D1*
X5865539Y1752357D1*
X5875100D1*
X5879909Y1749980D1*
X5884662Y1745172D1*
X5887094Y1740419D1*
X5889471Y1733234D1*
Y1721240D1*
X5887094Y1714110D1*
X5884662Y1709302D1*
X5879909Y1704549D1*
X5875100Y1702117D1*
X5865539D1*
X5860786Y1704549D1*
X5855977Y1709302D1*
X5853601Y1714110D1*
X5809476Y1752302D2*
X5833353D1*
X5835729Y1730802D1*
X5833353Y1733178D1*
X5826168Y1735610D1*
X5819038D1*
X5811853Y1733178D1*
X5807045Y1728425D1*
X5804668Y1721240D1*
Y1716487D1*
X5807045Y1709302D1*
X5811853Y1704494D1*
X5819038Y1702117D1*
X5826168D1*
X5833353Y1704494D1*
X5835729Y1706925D1*
X5838161Y1711679D1*
X5760544Y1745172D2*
X5762920Y1749925D1*
X5770105Y1752302D1*
X5774859D1*
X5782044Y1749925D1*
X5786852Y1742740D1*
X5789229Y1730802D1*
Y1718864D1*
X5786852Y1709302D1*
X5782044Y1704494D1*
X5774859Y1702117D1*
X5772482D1*
X5765352Y1704494D1*
X5760544Y1709302D1*
X5758167Y1716487D1*
Y1718864D1*
X5760544Y1726049D1*
X5765352Y1730802D1*
X5772482Y1733178D1*
X5774859D1*
X5782044Y1730802D1*
X5786852Y1726049D1*
X5789229Y1718864D1*
X5854817Y1440419D2*
X5857193Y1445172D1*
X5862002Y1449980D1*
X5866755Y1452357D1*
X5876316D1*
X5881125Y1449980D1*
X5885878Y1445172D1*
X5888310Y1440419D1*
X5890686Y1433234D1*
Y1421240D1*
X5888310Y1414110D1*
X5885878Y1409302D1*
X5881125Y1404549D1*
X5876316Y1402117D1*
X5866755D1*
X5862002Y1404549D1*
X5857193Y1409302D1*
X5854817Y1414110D1*
X5810692Y1452302D2*
X5834569D1*
X5836945Y1430802D1*
X5834569Y1433178D1*
X5827384Y1435610D1*
X5820254D1*
X5813069Y1433178D1*
X5808261Y1428425D1*
X5805884Y1421240D1*
Y1416487D1*
X5808261Y1409302D1*
X5813069Y1404494D1*
X5820254Y1402117D1*
X5827384D1*
X5834569Y1404494D1*
X5836945Y1406925D1*
X5839377Y1411679D1*
X5780883Y1402117D2*
X5756951Y1452302D1*
X5790445D1*
X5854789Y2040419D2*
X5857165Y2045172D1*
X5861974Y2049980D1*
X5866727Y2052357D1*
X5876289D1*
X5881097Y2049980D1*
X5885850Y2045172D1*
X5888282Y2040419D1*
X5890659Y2033234D1*
Y2021240D1*
X5888282Y2014110D1*
X5885850Y2009302D1*
X5881097Y2004549D1*
X5876289Y2002117D1*
X5866727D1*
X5861974Y2004549D1*
X5857165Y2009302D1*
X5854789Y2014110D1*
X5810665Y2052302D2*
X5834541D1*
X5836918Y2030802D1*
X5834541Y2033178D1*
X5827356Y2035610D1*
X5820226D1*
X5813041Y2033178D1*
X5808233Y2028425D1*
X5805856Y2021240D1*
Y2016487D1*
X5808233Y2009302D1*
X5813041Y2004494D1*
X5820226Y2002117D1*
X5827356D1*
X5834541Y2004494D1*
X5836918Y2006925D1*
X5839350Y2011679D1*
X5778479Y2052302D2*
X5785609Y2049925D1*
X5788040Y2045172D1*
Y2040363D1*
X5785609Y2035610D1*
X5780855Y2033178D1*
X5771294Y2030802D1*
X5764109Y2028425D1*
X5759356Y2023617D1*
X5756979Y2018864D1*
Y2011679D1*
X5759356Y2006925D1*
X5761732Y2004494D1*
X5768917Y2002117D1*
X5778479D1*
X5785609Y2004494D1*
X5788040Y2006925D1*
X5790417Y2011679D1*
Y2018864D1*
X5788040Y2023617D1*
X5783232Y2028425D1*
X5776102Y2030802D1*
X5766541Y2033178D1*
X5761732Y2035610D1*
X5759356Y2040363D1*
Y2045172D1*
X5761732Y2049925D1*
X5768917Y2052302D1*
X5778479D1*
X5853628Y840419D2*
X5856005Y845172D1*
X5860813Y849980D1*
X5865566Y852357D1*
X5875128D1*
X5879937Y849980D1*
X5884690Y845172D1*
X5887122Y840419D1*
X5889498Y833234D1*
Y821240D1*
X5887122Y814110D1*
X5884690Y809302D1*
X5879937Y804549D1*
X5875128Y802117D1*
X5865566D1*
X5860813Y804549D1*
X5856005Y809302D1*
X5853628Y814110D1*
X5809504Y852302D2*
X5833381D1*
X5835757Y830802D1*
X5833381Y833178D1*
X5826195Y835610D1*
X5819066D1*
X5811881Y833178D1*
X5807072Y828425D1*
X5804696Y821240D1*
Y816487D1*
X5807072Y809302D1*
X5811881Y804494D1*
X5819066Y802117D1*
X5826195D1*
X5833381Y804494D1*
X5835757Y806925D1*
X5838189Y811679D1*
X5758140Y835610D2*
X5760572Y828425D1*
X5765325Y823617D1*
X5772510Y821240D1*
X5774886D1*
X5782071Y823617D1*
X5786825Y828425D1*
X5789256Y835610D1*
Y837987D1*
X5786825Y845172D1*
X5782071Y849925D1*
X5774886Y852302D1*
X5772510D1*
X5765325Y849925D1*
X5760572Y845172D1*
X5758140Y835610D1*
Y823617D1*
X5760572Y811679D1*
X5765325Y804494D1*
X5772510Y802117D1*
X5777263D1*
X5784448Y804494D1*
X5786825Y809302D1*
X5853601Y1040419D2*
X5855977Y1045172D1*
X5860786Y1049980D1*
X5865539Y1052357D1*
X5875100D1*
X5879909Y1049980D1*
X5884662Y1045172D1*
X5887094Y1040419D1*
X5889471Y1033234D1*
Y1021240D1*
X5887094Y1014110D1*
X5884662Y1009302D1*
X5879909Y1004549D1*
X5875100Y1002117D1*
X5865539D1*
X5860786Y1004549D1*
X5855977Y1009302D1*
X5853601Y1014110D1*
X5809476Y1045172D2*
X5811853Y1049925D1*
X5819038Y1052302D1*
X5823791D1*
X5830976Y1049925D1*
X5835785Y1042740D1*
X5838161Y1030802D1*
Y1018864D1*
X5835785Y1009302D1*
X5830976Y1004494D1*
X5823791Y1002117D1*
X5821415D1*
X5814285Y1004494D1*
X5809476Y1009302D1*
X5807100Y1016487D1*
Y1018864D1*
X5809476Y1026049D1*
X5814285Y1030802D1*
X5821415Y1033178D1*
X5823791D1*
X5830976Y1030802D1*
X5835785Y1026049D1*
X5838161Y1018864D1*
X5777291Y1052302D2*
X5784476Y1049925D1*
X5789284Y1042740D1*
X5791661Y1030802D1*
Y1023617D1*
X5789284Y1011679D1*
X5784476Y1004494D1*
X5777291Y1002117D1*
X5772537D1*
X5765352Y1004494D1*
X5760599Y1011679D1*
X5758167Y1023617D1*
Y1030802D1*
X5760599Y1042740D1*
X5765352Y1049925D1*
X5772537Y1052302D1*
X5777291D1*
X5760599Y1042740D2*
X5789284Y1011679D1*
X5842851Y1240419D2*
X5845227Y1245172D1*
X5850036Y1249980D1*
X5854789Y1252357D1*
X5864351D1*
X5869159Y1249980D1*
X5873912Y1245172D1*
X5876344Y1240419D1*
X5878721Y1233234D1*
Y1221240D1*
X5876344Y1214110D1*
X5873912Y1209302D1*
X5869159Y1204549D1*
X5864351Y1202117D1*
X5854789D1*
X5850036Y1204549D1*
X5845227Y1209302D1*
X5842851Y1214110D1*
X5798727Y1245172D2*
X5801103Y1249925D1*
X5808288Y1252302D1*
X5813041D1*
X5820226Y1249925D1*
X5825035Y1242740D1*
X5827411Y1230802D1*
Y1218864D1*
X5825035Y1209302D1*
X5820226Y1204494D1*
X5813041Y1202117D1*
X5810665D1*
X5803535Y1204494D1*
X5798727Y1209302D1*
X5796350Y1216487D1*
Y1218864D1*
X5798727Y1226049D1*
X5803535Y1230802D1*
X5810665Y1233178D1*
X5813041D1*
X5820226Y1230802D1*
X5825035Y1226049D1*
X5827411Y1218864D1*
X5780911Y1242740D2*
X5776102Y1245172D1*
X5768917Y1252302D1*
Y1202117D1*
X4303601Y2890419D2*
X4305977Y2895172D1*
X4310786Y2899980D1*
X4315539Y2902357D1*
X4325100D1*
X4329909Y2899980D1*
X4334662Y2895172D1*
X4337094Y2890419D1*
X4339471Y2883234D1*
Y2871240D1*
X4337094Y2864110D1*
X4334662Y2859302D1*
X4329909Y2854549D1*
X4325100Y2852117D1*
X4315539D1*
X4310786Y2854549D1*
X4305977Y2859302D1*
X4303601Y2864110D1*
X4259476Y2895172D2*
X4261853Y2899925D1*
X4269038Y2902302D1*
X4273791D1*
X4280976Y2899925D1*
X4285785Y2892740D1*
X4288161Y2880802D1*
Y2868864D1*
X4285785Y2859302D1*
X4280976Y2854494D1*
X4273791Y2852117D1*
X4271415D1*
X4264285Y2854494D1*
X4259476Y2859302D1*
X4257100Y2866487D1*
Y2868864D1*
X4259476Y2876049D1*
X4264285Y2880802D1*
X4271415Y2883178D1*
X4273791D1*
X4280976Y2880802D1*
X4285785Y2876049D1*
X4288161Y2868864D1*
X4239229Y2890363D2*
Y2892740D1*
X4236852Y2897548D1*
X4234476Y2899925D1*
X4229667Y2902302D1*
X4220105D1*
X4215352Y2899925D1*
X4212976Y2897548D1*
X4210544Y2892740D1*
Y2887987D1*
X4212976Y2883178D1*
X4217729Y2876049D1*
X4241661Y2852117D1*
X4208167D1*
X3291986Y1409513D2*
X3294363Y1414266D1*
X3299171Y1419075D1*
X3303925Y1421451D1*
X3313486D1*
X3318295Y1419075D1*
X3323048Y1414266D1*
X3325480Y1409513D1*
X3327856Y1402328D1*
Y1390335D1*
X3325480Y1383205D1*
X3323048Y1378396D1*
X3318295Y1373643D1*
X3313486Y1371211D1*
X3303925D1*
X3299171Y1373643D1*
X3294363Y1378396D1*
X3291986Y1383205D1*
X3247862Y1414266D2*
X3250239Y1419020D1*
X3257424Y1421396D1*
X3262177D1*
X3269362Y1419020D1*
X3274171Y1411835D1*
X3276547Y1399896D1*
Y1387958D1*
X3274171Y1378396D1*
X3269362Y1373588D1*
X3262177Y1371211D1*
X3259800D1*
X3252671Y1373588D1*
X3247862Y1378396D1*
X3245486Y1385581D1*
Y1387958D1*
X3247862Y1395143D1*
X3252671Y1399896D1*
X3259800Y1402273D1*
X3262177D1*
X3269362Y1399896D1*
X3274171Y1395143D1*
X3276547Y1387958D1*
X3225238Y1421396D2*
X3198985D1*
X3213300Y1402273D1*
X3206115D1*
X3201362Y1399896D1*
X3198985Y1397520D1*
X3196553Y1390335D1*
Y1385581D1*
X3198985Y1378396D1*
X3203738Y1373588D1*
X3210923Y1371211D1*
X3218108D1*
X3225238Y1373588D1*
X3227615Y1376020D1*
X3230046Y1380773D1*
X3843175Y2884513D2*
X3845551Y2889266D1*
X3850360Y2894075D1*
X3855113Y2896451D1*
X3864675D1*
X3869483Y2894075D1*
X3874236Y2889266D1*
X3876668Y2884513D1*
X3879045Y2877328D1*
Y2865335D1*
X3876668Y2858205D1*
X3874236Y2853396D1*
X3869483Y2848643D1*
X3864675Y2846211D1*
X3855113D1*
X3850360Y2848643D1*
X3845551Y2853396D1*
X3843175Y2858205D1*
X3799051Y2889266D2*
X3801427Y2894020D1*
X3808612Y2896396D1*
X3813365D1*
X3820550Y2894020D1*
X3825359Y2886835D1*
X3827735Y2874896D1*
Y2862958D1*
X3825359Y2853396D1*
X3820550Y2848588D1*
X3813365Y2846211D1*
X3810989D1*
X3803859Y2848588D1*
X3799051Y2853396D1*
X3796674Y2860581D1*
Y2862958D1*
X3799051Y2870143D1*
X3803859Y2874896D1*
X3810989Y2877273D1*
X3813365D1*
X3820550Y2874896D1*
X3825359Y2870143D1*
X3827735Y2862958D1*
X3757303Y2846211D2*
Y2896396D1*
X3781235Y2862958D1*
X3745365D1*
X5853601Y2440419D2*
X5855977Y2445172D1*
X5860786Y2449980D1*
X5865539Y2452357D1*
X5875100D1*
X5879909Y2449980D1*
X5884662Y2445172D1*
X5887094Y2440419D1*
X5889471Y2433234D1*
Y2421240D1*
X5887094Y2414110D1*
X5884662Y2409302D1*
X5879909Y2404549D1*
X5875100Y2402117D1*
X5865539D1*
X5860786Y2404549D1*
X5855977Y2409302D1*
X5853601Y2414110D1*
X5809476Y2445172D2*
X5811853Y2449925D1*
X5819038Y2452302D1*
X5823791D1*
X5830976Y2449925D1*
X5835785Y2442740D1*
X5838161Y2430802D1*
Y2418864D1*
X5835785Y2409302D1*
X5830976Y2404494D1*
X5823791Y2402117D1*
X5821415D1*
X5814285Y2404494D1*
X5809476Y2409302D1*
X5807100Y2416487D1*
Y2418864D1*
X5809476Y2426049D1*
X5814285Y2430802D1*
X5821415Y2433178D1*
X5823791D1*
X5830976Y2430802D1*
X5835785Y2426049D1*
X5838161Y2418864D1*
X5762976Y2452302D2*
X5786852D1*
X5789229Y2430802D1*
X5786852Y2433178D1*
X5779667Y2435610D1*
X5772537D1*
X5765352Y2433178D1*
X5760544Y2428425D1*
X5758167Y2421240D1*
Y2416487D1*
X5760544Y2409302D1*
X5765352Y2404494D1*
X5772537Y2402117D1*
X5779667D1*
X5786852Y2404494D1*
X5789229Y2406925D1*
X5791661Y2411679D1*
X5852385Y2540419D2*
X5854761Y2545172D1*
X5859570Y2549980D1*
X5864323Y2552357D1*
X5873885D1*
X5878693Y2549980D1*
X5883446Y2545172D1*
X5885878Y2540419D1*
X5888255Y2533234D1*
Y2521240D1*
X5885878Y2514110D1*
X5883446Y2509302D1*
X5878693Y2504549D1*
X5873885Y2502117D1*
X5864323D1*
X5859570Y2504549D1*
X5854761Y2509302D1*
X5852385Y2514110D1*
X5808261Y2545172D2*
X5810637Y2549925D1*
X5817822Y2552302D1*
X5822575D1*
X5829760Y2549925D1*
X5834569Y2542740D1*
X5836945Y2530802D1*
Y2518864D1*
X5834569Y2509302D1*
X5829760Y2504494D1*
X5822575Y2502117D1*
X5820199D1*
X5813069Y2504494D1*
X5808261Y2509302D1*
X5805884Y2516487D1*
Y2518864D1*
X5808261Y2526049D1*
X5813069Y2530802D1*
X5820199Y2533178D1*
X5822575D1*
X5829760Y2530802D1*
X5834569Y2526049D1*
X5836945Y2518864D1*
X5761760Y2545172D2*
X5764136Y2549925D1*
X5771321Y2552302D1*
X5776075D1*
X5783260Y2549925D1*
X5788068Y2542740D1*
X5790445Y2530802D1*
Y2518864D1*
X5788068Y2509302D1*
X5783260Y2504494D1*
X5776075Y2502117D1*
X5773698D1*
X5766568Y2504494D1*
X5761760Y2509302D1*
X5759383Y2516487D1*
Y2518864D1*
X5761760Y2526049D1*
X5766568Y2530802D1*
X5773698Y2533178D1*
X5776075D1*
X5783260Y2530802D1*
X5788068Y2526049D1*
X5790445Y2518864D1*
X5853601Y2740419D2*
X5855977Y2745172D1*
X5860786Y2749980D1*
X5865539Y2752357D1*
X5875100D1*
X5879909Y2749980D1*
X5884662Y2745172D1*
X5887094Y2740419D1*
X5889471Y2733234D1*
Y2721240D1*
X5887094Y2714110D1*
X5884662Y2709302D1*
X5879909Y2704549D1*
X5875100Y2702117D1*
X5865539D1*
X5860786Y2704549D1*
X5855977Y2709302D1*
X5853601Y2714110D1*
X5809476Y2745172D2*
X5811853Y2749925D1*
X5819038Y2752302D1*
X5823791D1*
X5830976Y2749925D1*
X5835785Y2742740D1*
X5838161Y2730802D1*
Y2718864D1*
X5835785Y2709302D1*
X5830976Y2704494D1*
X5823791Y2702117D1*
X5821415D1*
X5814285Y2704494D1*
X5809476Y2709302D1*
X5807100Y2716487D1*
Y2718864D1*
X5809476Y2726049D1*
X5814285Y2730802D1*
X5821415Y2733178D1*
X5823791D1*
X5830976Y2730802D1*
X5835785Y2726049D1*
X5838161Y2718864D1*
X5782099Y2702117D2*
X5758167Y2752302D1*
X5791661D1*
X5853573Y1540419D2*
X5855950Y1545172D1*
X5860758Y1549980D1*
X5865511Y1552357D1*
X5875073D1*
X5879881Y1549980D1*
X5884634Y1545172D1*
X5887066Y1540419D1*
X5889443Y1533234D1*
Y1521240D1*
X5887066Y1514110D1*
X5884634Y1509302D1*
X5879881Y1504549D1*
X5875073Y1502117D1*
X5865511D1*
X5860758Y1504549D1*
X5855950Y1509302D1*
X5853573Y1514110D1*
X5809449Y1545172D2*
X5811825Y1549925D1*
X5819010Y1552302D1*
X5823764D1*
X5830949Y1549925D1*
X5835757Y1542740D1*
X5838134Y1530802D1*
Y1518864D1*
X5835757Y1509302D1*
X5830949Y1504494D1*
X5823764Y1502117D1*
X5821387D1*
X5814257Y1504494D1*
X5809449Y1509302D1*
X5807072Y1516487D1*
Y1518864D1*
X5809449Y1526049D1*
X5814257Y1530802D1*
X5821387Y1533178D1*
X5823764D1*
X5830949Y1530802D1*
X5835757Y1526049D1*
X5838134Y1518864D1*
X5779695Y1552302D2*
X5786825Y1549925D1*
X5789256Y1545172D1*
Y1540363D1*
X5786825Y1535610D1*
X5782071Y1533178D1*
X5772510Y1530802D1*
X5765325Y1528425D1*
X5760572Y1523617D1*
X5758195Y1518864D1*
Y1511679D1*
X5760572Y1506925D1*
X5762948Y1504494D1*
X5770133Y1502117D1*
X5779695D1*
X5786825Y1504494D1*
X5789256Y1506925D1*
X5791633Y1511679D1*
Y1518864D1*
X5789256Y1523617D1*
X5784448Y1528425D1*
X5777318Y1530802D1*
X5767757Y1533178D1*
X5762948Y1535610D1*
X5760572Y1540363D1*
Y1545172D1*
X5762948Y1549925D1*
X5770133Y1552302D1*
X5779695D1*
X5852412Y1940419D2*
X5854789Y1945172D1*
X5859597Y1949980D1*
X5864351Y1952357D1*
X5873912D1*
X5878721Y1949980D1*
X5883474Y1945172D1*
X5885906Y1940419D1*
X5888282Y1933234D1*
Y1921240D1*
X5885906Y1914110D1*
X5883474Y1909302D1*
X5878721Y1904549D1*
X5873912Y1902117D1*
X5864351D1*
X5859597Y1904549D1*
X5854789Y1909302D1*
X5852412Y1914110D1*
X5808288Y1945172D2*
X5810665Y1949925D1*
X5817850Y1952302D1*
X5822603D1*
X5829788Y1949925D1*
X5834596Y1942740D1*
X5836973Y1930802D1*
Y1918864D1*
X5834596Y1909302D1*
X5829788Y1904494D1*
X5822603Y1902117D1*
X5820226D1*
X5813097Y1904494D1*
X5808288Y1909302D1*
X5805912Y1916487D1*
Y1918864D1*
X5808288Y1926049D1*
X5813097Y1930802D1*
X5820226Y1933178D1*
X5822603D1*
X5829788Y1930802D1*
X5834596Y1926049D1*
X5836973Y1918864D1*
X5759356Y1935610D2*
X5761787Y1928425D1*
X5766541Y1923617D1*
X5773726Y1921240D1*
X5776102D1*
X5783287Y1923617D1*
X5788040Y1928425D1*
X5790472Y1935610D1*
Y1937987D1*
X5788040Y1945172D1*
X5783287Y1949925D1*
X5776102Y1952302D1*
X5773726D1*
X5766541Y1949925D1*
X5761787Y1945172D1*
X5759356Y1935610D1*
Y1923617D1*
X5761787Y1911679D1*
X5766541Y1904494D1*
X5773726Y1902117D1*
X5778479D1*
X5785664Y1904494D1*
X5788040Y1909302D1*
X5854817Y1640419D2*
X5857193Y1645172D1*
X5862002Y1649980D1*
X5866755Y1652357D1*
X5876316D1*
X5881125Y1649980D1*
X5885878Y1645172D1*
X5888310Y1640419D1*
X5890686Y1633234D1*
Y1621240D1*
X5888310Y1614110D1*
X5885878Y1609302D1*
X5881125Y1604549D1*
X5876316Y1602117D1*
X5866755D1*
X5862002Y1604549D1*
X5857193Y1609302D1*
X5854817Y1614110D1*
X5829816Y1602117D2*
X5805884Y1652302D1*
X5839377D1*
X5776075D2*
X5783260Y1649925D1*
X5788068Y1642740D1*
X5790445Y1630802D1*
Y1623617D1*
X5788068Y1611679D1*
X5783260Y1604494D1*
X5776075Y1602117D1*
X5771321D1*
X5764136Y1604494D1*
X5759383Y1611679D1*
X5756951Y1623617D1*
Y1630802D1*
X5759383Y1642740D1*
X5764136Y1649925D1*
X5771321Y1652302D1*
X5776075D1*
X5759383Y1642740D2*
X5788068Y1611679D1*
X5844067Y1340419D2*
X5846443Y1345172D1*
X5851252Y1349980D1*
X5856005Y1352357D1*
X5865566D1*
X5870375Y1349980D1*
X5875128Y1345172D1*
X5877560Y1340419D1*
X5879937Y1333234D1*
Y1321240D1*
X5877560Y1314110D1*
X5875128Y1309302D1*
X5870375Y1304549D1*
X5865566Y1302117D1*
X5856005D1*
X5851252Y1304549D1*
X5846443Y1309302D1*
X5844067Y1314110D1*
X5819066Y1302117D2*
X5795134Y1352302D1*
X5828627D1*
X5779695Y1342740D2*
X5774886Y1345172D1*
X5767701Y1352302D1*
Y1302117D1*
X5854817Y940419D2*
X5857193Y945172D1*
X5862002Y949980D1*
X5866755Y952357D1*
X5876316D1*
X5881125Y949980D1*
X5885878Y945172D1*
X5888310Y940419D1*
X5890686Y933234D1*
Y921240D1*
X5888310Y914110D1*
X5885878Y909302D1*
X5881125Y904549D1*
X5876316Y902117D1*
X5866755D1*
X5862002Y904549D1*
X5857193Y909302D1*
X5854817Y914110D1*
X5829816Y902117D2*
X5805884Y952302D1*
X5839377D1*
X5788013Y940363D2*
Y942740D1*
X5785636Y947548D1*
X5783260Y949925D1*
X5778451Y952302D1*
X5768890D1*
X5764136Y949925D1*
X5761760Y947548D1*
X5759328Y942740D1*
Y937987D1*
X5761760Y933178D1*
X5766513Y926049D1*
X5790445Y902117D1*
X5756951D1*
X5854817Y1140419D2*
X5857193Y1145172D1*
X5862002Y1149980D1*
X5866755Y1152357D1*
X5876316D1*
X5881125Y1149980D1*
X5885878Y1145172D1*
X5888310Y1140419D1*
X5890686Y1133234D1*
Y1121240D1*
X5888310Y1114110D1*
X5885878Y1109302D1*
X5881125Y1104549D1*
X5876316Y1102117D1*
X5866755D1*
X5862002Y1104549D1*
X5857193Y1109302D1*
X5854817Y1114110D1*
X5829816Y1102117D2*
X5805884Y1152302D1*
X5839377D1*
X5785636D2*
X5759383D1*
X5773698Y1133178D1*
X5766513D1*
X5761760Y1130802D1*
X5759383Y1128425D1*
X5756951Y1121240D1*
Y1116487D1*
X5759383Y1109302D1*
X5764136Y1104494D1*
X5771321Y1102117D1*
X5778506D1*
X5785636Y1104494D1*
X5788013Y1106925D1*
X5790445Y1111679D1*
X4306005Y2815419D2*
X4308381Y2820172D1*
X4313190Y2824980D1*
X4317943Y2827357D1*
X4327505D1*
X4332313Y2824980D1*
X4337066Y2820172D1*
X4339498Y2815419D1*
X4341875Y2808234D1*
Y2796240D1*
X4339498Y2789110D1*
X4337066Y2784302D1*
X4332313Y2779549D1*
X4327505Y2777117D1*
X4317943D1*
X4313190Y2779549D1*
X4308381Y2784302D1*
X4306005Y2789110D1*
X4281004Y2777117D2*
X4257072Y2827302D1*
X4290566D1*
X4217701Y2777117D2*
Y2827302D1*
X4241633Y2793864D1*
X4205763D1*
X4343202Y734513D2*
X4345579Y739266D1*
X4350387Y744075D1*
X4355141Y746451D1*
X4364702D1*
X4369511Y744075D1*
X4374264Y739266D1*
X4376696Y734513D1*
X4379072Y727328D1*
Y715335D1*
X4376696Y708205D1*
X4374264Y703396D1*
X4369511Y698643D1*
X4364702Y696211D1*
X4355141D1*
X4350387Y698643D1*
X4345579Y703396D1*
X4343202Y708205D1*
X4318201Y696211D2*
X4294270Y746396D1*
X4327763D1*
X4250146D2*
X4274022D1*
X4276399Y724896D1*
X4274022Y727273D1*
X4266837Y729705D1*
X4259707D1*
X4252522Y727273D1*
X4247714Y722520D1*
X4245337Y715335D1*
Y710581D1*
X4247714Y703396D1*
X4252522Y698588D1*
X4259707Y696211D1*
X4266837D1*
X4274022Y698588D1*
X4276399Y701020D1*
X4278831Y705773D1*
X3766986Y1609513D2*
X3769363Y1614266D1*
X3774171Y1619075D1*
X3778925Y1621451D1*
X3788486D1*
X3793295Y1619075D1*
X3798048Y1614266D1*
X3800480Y1609513D1*
X3802856Y1602328D1*
Y1590335D1*
X3800480Y1583205D1*
X3798048Y1578396D1*
X3793295Y1573643D1*
X3788486Y1571211D1*
X3778925D1*
X3774171Y1573643D1*
X3769363Y1578396D1*
X3766986Y1583205D1*
X3741986Y1571211D2*
X3718054Y1621396D1*
X3751547D1*
X3673930Y1614266D2*
X3676306Y1619020D1*
X3683491Y1621396D1*
X3688245D1*
X3695430Y1619020D1*
X3700238Y1611835D1*
X3702615Y1599896D1*
Y1587958D1*
X3700238Y1578396D1*
X3695430Y1573588D1*
X3688245Y1571211D1*
X3685868D1*
X3678738Y1573588D1*
X3673930Y1578396D1*
X3671553Y1585581D1*
Y1587958D1*
X3673930Y1595143D1*
X3678738Y1599896D1*
X3685868Y1602273D1*
X3688245D1*
X3695430Y1599896D1*
X3700238Y1595143D1*
X3702615Y1587958D1*
X2345478Y1574164D2*
X2395718D1*
Y1557417D1*
X2393286Y1550232D1*
X2388533Y1545424D1*
X2383724Y1543047D1*
X2376595Y1540671D1*
X2364601D1*
X2357416Y1543047D1*
X2352663Y1545424D1*
X2347854Y1550232D1*
X2345478Y1557417D1*
Y1574164D1*
X2355095Y1525231D2*
X2352663Y1520423D1*
X2345533Y1513238D1*
X2395718D1*
X1501843Y1425388D2*
Y1375148D1*
X1485096D1*
X1477911Y1377580D1*
X1473103Y1382333D1*
X1470726Y1387142D1*
X1468350Y1394272D1*
Y1406265D1*
X1470726Y1413450D1*
X1473103Y1418203D1*
X1477911Y1423012D1*
X1485096Y1425388D1*
X1501843D1*
X1424225Y1425333D2*
X1448102D1*
X1450478Y1403833D1*
X1448102Y1406210D1*
X1440917Y1408642D1*
X1433787D1*
X1426602Y1406210D1*
X1421794Y1401457D1*
X1419417Y1394272D1*
Y1389519D1*
X1421794Y1382333D1*
X1426602Y1377525D1*
X1433787Y1375148D1*
X1440917D1*
X1448102Y1377525D1*
X1450478Y1379957D1*
X1452910Y1384710D1*
X2964013Y2385674D2*
Y2335434D1*
X2947266D1*
X2940081Y2337866D1*
X2935273Y2342619D1*
X2932896Y2347427D1*
X2930519Y2354557D1*
Y2366551D1*
X2932896Y2373736D1*
X2935273Y2378489D1*
X2940081Y2383297D1*
X2947266Y2385674D1*
X2964013D1*
X2886395Y2378489D2*
X2888772Y2383242D1*
X2895957Y2385619D1*
X2900710D1*
X2907895Y2383242D1*
X2912704Y2376057D1*
X2915080Y2364119D1*
Y2352181D1*
X2912704Y2342619D1*
X2907895Y2337810D1*
X2900710Y2335434D1*
X2898334D1*
X2891204Y2337810D1*
X2886395Y2342619D1*
X2884019Y2349804D1*
Y2352181D1*
X2886395Y2359366D1*
X2891204Y2364119D1*
X2898334Y2366495D1*
X2900710D1*
X2907895Y2364119D1*
X2912704Y2359366D1*
X2915080Y2352181D1*
X1945478Y834886D2*
X1995718D1*
Y818139D1*
X1993286Y810954D1*
X1988533Y806146D1*
X1983724Y803769D1*
X1976595Y801393D1*
X1964601D1*
X1957416Y803769D1*
X1952663Y806146D1*
X1947854Y810954D1*
X1945478Y818140D1*
Y834886D1*
X1945533Y774015D2*
X1947910Y781145D1*
X1952663Y783577D1*
X1957471D1*
X1962224Y781145D1*
X1964656Y776392D1*
X1967033Y766830D1*
X1969409Y759645D1*
X1974218Y754892D1*
X1978971Y752516D1*
X1986156D1*
X1990909Y754892D1*
X1993341Y757269D1*
X1995718Y764454D1*
Y774015D1*
X1993341Y781145D1*
X1990909Y783577D1*
X1986156Y785954D1*
X1978971D1*
X1974218Y783577D1*
X1969409Y778769D1*
X1967033Y771639D1*
X1964656Y762077D1*
X1962224Y757269D1*
X1957471Y754892D1*
X1952663D1*
X1947910Y757269D1*
X1945533Y764454D1*
Y774015D1*
X1637013Y2600655D2*
X1687253D1*
Y2583908D1*
X1684821Y2576723D1*
X1680068Y2571914D1*
X1675260Y2569538D1*
X1668130Y2567161D1*
X1656136D1*
X1648951Y2569538D1*
X1644198Y2571915D1*
X1639390Y2576723D1*
X1637013Y2583908D1*
Y2600655D1*
X1653760Y2520605D2*
X1660945Y2523037D1*
X1665753Y2527790D1*
X1668130Y2534975D1*
Y2537352D1*
X1665753Y2544537D1*
X1660945Y2549290D1*
X1653760Y2551722D1*
X1651383D1*
X1644198Y2549290D1*
X1639445Y2544537D1*
X1637068Y2537352D1*
Y2534975D1*
X1639445Y2527790D1*
X1644198Y2523037D1*
X1653760Y2520605D1*
X1665753D1*
X1677692Y2523037D1*
X1684877Y2527790D1*
X1687253Y2534975D1*
Y2539729D1*
X1684877Y2546914D1*
X1680068Y2549290D1*
X1495478Y1123630D2*
X1545718D1*
Y1106883D1*
X1543286Y1099698D1*
X1538533Y1094890D1*
X1533724Y1092513D1*
X1526595Y1090137D1*
X1514601D1*
X1507416Y1092513D1*
X1502663Y1094890D1*
X1497854Y1099698D1*
X1495478Y1106883D1*
Y1123630D1*
X1505095Y1074698D2*
X1502663Y1069889D1*
X1495533Y1062704D1*
X1545718D1*
X1495533Y1032895D2*
X1497910Y1040080D1*
X1505095Y1044888D1*
X1517033Y1047265D1*
X1524218D1*
X1536156Y1044888D1*
X1543341Y1040080D1*
X1545718Y1032895D1*
Y1028142D1*
X1543341Y1020957D1*
X1536156Y1016203D1*
X1524218Y1013772D1*
X1517033D1*
X1505095Y1016203D1*
X1497910Y1020957D1*
X1495533Y1028142D1*
Y1032895D1*
X1505095Y1016203D2*
X1536156Y1044888D1*
X2137013Y2604809D2*
X2187253D1*
Y2588063D1*
X2184821Y2580878D1*
X2180068Y2576069D1*
X2175260Y2573693D1*
X2168130Y2571316D1*
X2156136D1*
X2148951Y2573693D1*
X2144198Y2576069D1*
X2139390Y2580878D1*
X2137013Y2588063D1*
Y2604809D1*
X2146630Y2555877D2*
X2144198Y2551068D1*
X2137068Y2543883D1*
X2187253D1*
X2146630Y2528444D2*
X2144198Y2523636D1*
X2137068Y2516451D1*
X2187253D1*
X2037013Y2615559D2*
X2087253D1*
Y2598813D1*
X2084821Y2591628D1*
X2080068Y2586819D1*
X2075260Y2584443D1*
X2068130Y2582066D1*
X2056136D1*
X2048951Y2584443D1*
X2044198Y2586819D1*
X2039390Y2591628D1*
X2037013Y2598813D1*
Y2615559D1*
X2046630Y2566627D2*
X2044198Y2561818D1*
X2037068Y2554633D1*
X2087253D1*
X2049007Y2536762D2*
X2046630D1*
X2041822Y2534386D1*
X2039445Y2532009D1*
X2037068Y2527201D1*
Y2517639D1*
X2039445Y2512886D1*
X2041822Y2510509D1*
X2046630Y2508077D1*
X2051383D1*
X2056192Y2510509D1*
X2063321Y2515262D1*
X2087253Y2539194D1*
Y2505701D1*
X1737013Y2616748D2*
X1787253D1*
Y2600001D1*
X1784821Y2592816D1*
X1780068Y2588007D1*
X1775260Y2585631D1*
X1768130Y2583254D1*
X1756136D1*
X1748951Y2585631D1*
X1744198Y2588007D1*
X1739390Y2592816D1*
X1737013Y2600001D1*
Y2616748D1*
X1746630Y2567815D2*
X1744198Y2563007D1*
X1737068Y2555822D1*
X1787253Y2555821D1*
Y2516451D2*
X1737068D1*
X1770507Y2540382D1*
X1770506Y2504512D1*
X5123630Y2941924D2*
Y2891684D1*
X5106883D1*
X5099698Y2894116D1*
X5094890Y2898869D1*
X5092513Y2903677D1*
X5090137Y2910807D1*
Y2922801D1*
X5092513Y2929986D1*
X5094890Y2934739D1*
X5099698Y2939547D1*
X5106883Y2941924D1*
X5123630D1*
X5074698Y2932307D2*
X5069889Y2934739D1*
X5062704Y2941869D1*
Y2891684D1*
X5018580Y2941869D2*
X5042456D1*
X5044833Y2920369D1*
X5042456Y2922745D1*
X5035271Y2925177D1*
X5028142D1*
X5020956Y2922745D1*
X5016148Y2917992D1*
X5013771Y2910807D1*
Y2906054D1*
X5016148Y2898869D1*
X5020956Y2894060D1*
X5028142Y2891684D1*
X5035271D1*
X5042456Y2894060D1*
X5044833Y2896492D1*
X5047265Y2901245D1*
X4537013Y905485D2*
X4587253D1*
Y888738D1*
X4584821Y881553D1*
X4580068Y876745D1*
X4575260Y874368D1*
X4568130Y871992D1*
X4556136D1*
X4548951Y874368D1*
X4544198Y876745D1*
X4539390Y881553D1*
X4537013Y888738D1*
Y905485D1*
X4546630Y856553D2*
X4544198Y851744D1*
X4537068Y844559D1*
X4587253D1*
X4544198Y800435D2*
X4539445Y802812D1*
X4537068Y809997D1*
Y814750D1*
X4539445Y821935D1*
X4546630Y826743D1*
X4558568Y829120D1*
X4570507D1*
X4580068Y826743D1*
X4584877Y821935D1*
X4587253Y814750D1*
Y812373D1*
X4584877Y805243D1*
X4580068Y800435D1*
X4572883Y798058D1*
X4570506D1*
X4563321Y800435D1*
X4558568Y805243D1*
X4556192Y812373D1*
Y814750D1*
X4558568Y821935D1*
X4563322Y826743D1*
X4570507Y829120D1*
X4537013Y640559D2*
X4587253D1*
Y623813D1*
X4584821Y616628D1*
X4580068Y611819D1*
X4575260Y609443D1*
X4568130Y607066D1*
X4556136D1*
X4548951Y609443D1*
X4544198Y611819D1*
X4539390Y616628D1*
X4537013Y623813D1*
Y640559D1*
X4546630Y591627D2*
X4544198Y586818D1*
X4537068Y579633D1*
X4587253D1*
Y554632D2*
X4537068Y530701D1*
Y564194D1*
X4645478Y2936103D2*
X4695718Y2936102D1*
Y2919356D1*
X4693286Y2912171D1*
X4688533Y2907362D1*
X4683724Y2904986D1*
X4676595Y2902609D1*
X4664601D1*
X4657416Y2904986D1*
X4652663Y2907362D1*
X4647854Y2912171D1*
X4645478Y2919356D1*
Y2936103D1*
X4655095Y2887170D2*
X4652663Y2882362D1*
X4645533Y2875176D1*
X4695718D1*
X4645533Y2847799D2*
X4647910Y2854929D1*
X4652663Y2857361D1*
X4657471D1*
X4662224Y2854929D1*
X4664656Y2850176D1*
X4667033Y2840614D1*
X4669409Y2833429D1*
X4674218Y2828676D1*
X4678971Y2826299D1*
X4686156D1*
X4690909Y2828676D1*
X4693341Y2831052D1*
X4695718Y2838237D1*
Y2847799D1*
X4693341Y2854929D1*
X4690909Y2857361D1*
X4686156Y2859737D1*
X4678971D1*
X4674218Y2857361D1*
X4669409Y2852552D1*
X4667033Y2845422D1*
X4664656Y2835861D1*
X4662224Y2831052D1*
X4657471Y2828676D1*
X4652663D1*
X4647910Y2831052D1*
X4645533Y2838237D1*
Y2847799D1*
X4962013Y3092451D2*
X5012253D1*
Y3075704D1*
X5009821Y3068519D1*
X5005068Y3063711D1*
X5000260Y3061334D1*
X4993130Y3058958D1*
X4981136D1*
X4973951Y3061334D1*
X4969198Y3063711D1*
X4964390Y3068519D1*
X4962013Y3075704D1*
Y3092451D1*
X4974007Y3041087D2*
X4971630D1*
X4966822Y3038710D1*
X4964445Y3036333D1*
X4962068Y3031525D1*
Y3021963D1*
X4964445Y3017210D1*
X4966822Y3014834D1*
X4971630Y3012402D1*
X4976383D1*
X4981192Y3014833D1*
X4988322Y3019587D1*
X5012253Y3043518D1*
Y3010025D1*
X4962068Y2980216D2*
X4964445Y2987401D1*
X4971630Y2992209D1*
X4983568Y2994586D1*
X4990753D1*
X5002692Y2992209D1*
X5009877Y2987401D1*
X5012253Y2980216D1*
Y2975463D1*
X5009877Y2968278D1*
X5002692Y2963524D1*
X4990753Y2961093D1*
X4983568D1*
X4971630Y2963524D1*
X4964445Y2968278D1*
X4962068Y2975463D1*
Y2980216D1*
X4971630Y2963524D2*
X5002692Y2992209D1*
X4312013Y906701D2*
X4362253D1*
Y889954D1*
X4359821Y882769D1*
X4355068Y877961D1*
X4350260Y875584D1*
X4343130Y873208D1*
X4331136D1*
X4323951Y875584D1*
X4319198Y877961D1*
X4314390Y882769D1*
X4312013Y889954D1*
Y906701D1*
X4324007Y855337D2*
X4321630D1*
X4316822Y852960D1*
X4314445Y850583D1*
X4312068Y845775D1*
Y836213D1*
X4314445Y831460D1*
X4316822Y829084D1*
X4321630Y826652D1*
X4326383D1*
X4331192Y829084D1*
X4338322Y833837D1*
X4362253Y857768D1*
Y824275D1*
X4321630Y808836D2*
X4319198Y804027D1*
X4312068Y796842D1*
X4362253D1*
X4312013Y651309D2*
X4362253D1*
Y634563D1*
X4359821Y627377D1*
X4355068Y622569D1*
X4350260Y620192D1*
X4343130Y617816D1*
X4331136D1*
X4323951Y620192D1*
X4319198Y622569D1*
X4314390Y627378D1*
X4312013Y634563D1*
Y651309D1*
X4324007Y599945D2*
X4321630D1*
X4316822Y597568D1*
X4314445Y595192D1*
X4312068Y590383D1*
Y580822D1*
X4314445Y576068D1*
X4316822Y573692D1*
X4321630Y571260D1*
X4326383D1*
X4331192Y573692D1*
X4338322Y578445D1*
X4362253Y602377D1*
Y568883D1*
X4324007Y551012D2*
X4321630D1*
X4316822Y548636D1*
X4314445Y546259D1*
X4312068Y541451D1*
Y531889D1*
X4314445Y527136D1*
X4316822Y524759D1*
X4321630Y522327D1*
X4326383D1*
X4331192Y524759D1*
X4338321Y529512D1*
X4362253Y553444D1*
Y519951D1*
X3745010Y2241924D2*
Y2191684D1*
X3716325D1*
X3698454Y2229930D2*
Y2232307D1*
X3696077Y2237115D1*
X3693700Y2239492D1*
X3688892Y2241869D1*
X3679330D1*
X3674577Y2239492D1*
X3672201Y2237115D1*
X3669769Y2232307D1*
Y2227554D1*
X3672201Y2222745D1*
X3676954Y2215616D1*
X3700885Y2191684D1*
X3667392D1*
X3453548Y1780475D2*
X3458301Y1778154D1*
X3463109Y1773345D1*
X3465486Y1768537D1*
X3467918Y1761352D1*
Y1749414D1*
X3465486Y1742229D1*
X3463109Y1737475D1*
X3458301Y1732667D1*
X3453548Y1730290D1*
X3443986D1*
X3439178Y1732667D1*
X3434424Y1737475D1*
X3432048Y1742229D1*
X3429616Y1749414D1*
Y1761352D1*
X3432048Y1768537D1*
X3434424Y1773345D1*
X3439178Y1778154D1*
X3443986Y1780475D1*
X3453548D1*
X3446363Y1739852D2*
X3432048Y1725482D1*
X3409368Y1780420D2*
X3383115D1*
X3397430Y1761297D1*
X3390245D1*
X3385492Y1758920D1*
X3383115Y1756543D1*
X3380683Y1749358D1*
Y1744605D1*
X3383115Y1737420D1*
X3387868Y1732612D1*
X3395053Y1730235D1*
X3402238D1*
X3409368Y1732612D1*
X3411745Y1735043D1*
X3414177Y1739797D1*
X2486565Y1247520D2*
X2465066D1*
X2457881Y1249952D1*
X2455449Y1252328D1*
X2453072Y1257081D1*
Y1261890D1*
X2455449Y1266643D1*
X2457881Y1269075D1*
X2465066Y1271451D1*
X2486565D1*
Y1221211D1*
X2469819Y1247520D2*
X2453072Y1221211D1*
X2437633Y1261835D2*
X2432824Y1264266D1*
X2425639Y1271396D1*
Y1221211D1*
X3439882Y2472315D2*
Y2450816D1*
X3437450Y2443630D1*
X3435073Y2441199D1*
X3430320Y2438822D1*
X3425512D1*
X3420759Y2441199D1*
X3418327Y2443631D1*
X3415950Y2450816D1*
Y2472315D1*
X3466190D1*
X3439882Y2455569D2*
X3466190Y2438822D1*
X3416005Y2418574D2*
Y2392321D1*
X3435129Y2406636D1*
Y2399451D1*
X3437505Y2394698D1*
X3439882Y2392321D1*
X3447067Y2389890D1*
X3451820D1*
X3459005Y2392321D1*
X3463814Y2397075D1*
X3466190Y2404260D1*
Y2411445D1*
X3463814Y2418574D1*
X3461382Y2420951D1*
X3456629Y2423383D1*
X3339882Y2596099D2*
Y2574600D1*
X3337450Y2567415D1*
X3335073Y2564983D1*
X3330320Y2562606D1*
X3325512D1*
X3320759Y2564983D1*
X3318327Y2567415D1*
X3315950Y2574600D1*
Y2596099D1*
X3366190D1*
X3339882Y2579353D2*
X3366190Y2562606D1*
X3323135Y2518482D2*
X3318382Y2520859D1*
X3316005Y2528044D1*
Y2532797D1*
X3318382Y2539982D1*
X3325567Y2544790D1*
X3337505Y2547167D1*
X3349444D1*
X3359005Y2544790D1*
X3363814Y2539982D1*
X3366190Y2532797D1*
Y2530420D1*
X3363814Y2523290D1*
X3359005Y2518482D1*
X3351820Y2516105D1*
X3349443D1*
X3342258Y2518482D1*
X3337505Y2523290D1*
X3335129Y2530420D1*
Y2532797D1*
X3337505Y2539982D1*
X3342259Y2544790D1*
X3349444Y2547167D1*
X3439882Y2247512D2*
Y2226012D1*
X3437450Y2218827D1*
X3435073Y2216395D1*
X3430320Y2214019D1*
X3425512D1*
X3420759Y2216396D1*
X3418327Y2218827D1*
X3415950Y2226012D1*
Y2247512D1*
X3466190D1*
X3439882Y2230766D2*
X3466190Y2214019D1*
Y2189018D2*
X3416005Y2165086D1*
Y2198580D1*
X3979768Y2128425D2*
X3958268D1*
X3951083Y2130857D1*
X3948651Y2133234D1*
X3946275Y2137987D1*
Y2142795D1*
X3948651Y2147548D1*
X3951083Y2149980D1*
X3958268Y2152357D1*
X3979768D1*
Y2102117D1*
X3963021Y2128425D2*
X3946275Y2102117D1*
X3918897Y2152302D2*
X3926027Y2149925D1*
X3928459Y2145172D1*
Y2140363D1*
X3926027Y2135610D1*
X3921274Y2133178D1*
X3911712Y2130802D1*
X3904527Y2128425D1*
X3899774Y2123617D1*
X3897397Y2118864D1*
Y2111679D1*
X3899774Y2106925D1*
X3902151Y2104494D1*
X3909336Y2102117D1*
X3918897D1*
X3926027Y2104494D1*
X3928459Y2106925D1*
X3930835Y2111679D1*
Y2118864D1*
X3928459Y2123617D1*
X3923650Y2128425D1*
X3916521Y2130802D1*
X3906959Y2133178D1*
X3902151Y2135610D1*
X3899774Y2140363D1*
Y2145172D1*
X3902151Y2149925D1*
X3909336Y2152302D1*
X3918897D1*
X3978607Y1953425D2*
X3957107D1*
X3949922Y1955857D1*
X3947491Y1958234D1*
X3945114Y1962987D1*
Y1967795D1*
X3947491Y1972548D1*
X3949922Y1974980D1*
X3957107Y1977357D1*
X3978607D1*
Y1927117D1*
X3961861Y1953425D2*
X3945114Y1927117D1*
X3898558Y1960610D2*
X3900990Y1953425D1*
X3905743Y1948617D1*
X3912928Y1946240D1*
X3915305D1*
X3922490Y1948617D1*
X3927243Y1953425D1*
X3929675Y1960610D1*
Y1962987D1*
X3927243Y1970172D1*
X3922490Y1974925D1*
X3915305Y1977302D1*
X3912928D1*
X3905743Y1974925D1*
X3900990Y1970172D1*
X3898558Y1960610D1*
Y1948617D1*
X3900990Y1936679D1*
X3905743Y1929494D1*
X3912928Y1927117D1*
X3917681D1*
X3924866Y1929494D1*
X3927243Y1934302D1*
X1461032Y2897520D2*
X1439532D1*
X1432347Y2899952D1*
X1429915Y2902328D1*
X1427538Y2907081D1*
Y2911890D1*
X1429915Y2916643D1*
X1432347Y2919075D1*
X1439532Y2921451D1*
X1461032D1*
Y2871211D1*
X1444285Y2897520D2*
X1427538Y2871211D1*
X1412099Y2911835D2*
X1407291Y2914266D1*
X1400106Y2921396D1*
Y2871211D1*
X1370296Y2921396D2*
X1377481Y2919020D1*
X1382290Y2911835D1*
X1384666Y2899896D1*
Y2892711D1*
X1382290Y2880773D1*
X1377481Y2873588D1*
X1370296Y2871211D1*
X1365543D1*
X1358358Y2873588D1*
X1353605Y2880773D1*
X1351173Y2892711D1*
Y2899896D1*
X1353605Y2911835D1*
X1358358Y2919020D1*
X1365543Y2921396D1*
X1370296D1*
X1353605Y2911835D2*
X1382290Y2880773D1*
X1614882Y1225479D2*
Y1203979D1*
X1612450Y1196794D1*
X1610073Y1194362D1*
X1605320Y1191985D1*
X1600512D1*
X1595759Y1194362D1*
X1593327Y1196794D1*
X1590950Y1203979D1*
Y1225479D1*
X1641190D1*
X1614882Y1208732D2*
X1641190Y1191985D1*
X1600567Y1176546D2*
X1598135Y1171738D1*
X1591005Y1164553D1*
X1641190D1*
X1600567Y1149113D2*
X1598135Y1144305D1*
X1591005Y1137120D1*
X1641190D1*
X3993512Y2028425D2*
X3972012D1*
X3964827Y2030857D1*
X3962395Y2033234D1*
X3960019Y2037987D1*
Y2042795D1*
X3962395Y2047548D1*
X3964827Y2049980D1*
X3972012Y2052357D1*
X3993512D1*
Y2002117D1*
X3976765Y2028425D2*
X3960019Y2002117D1*
X3944579Y2042740D2*
X3939771Y2045172D1*
X3932586Y2052302D1*
Y2002117D1*
X3914715Y2040363D2*
Y2042740D1*
X3912338Y2047548D1*
X3909962Y2049925D1*
X3905153Y2052302D1*
X3895592D1*
X3890838Y2049925D1*
X3888462Y2047548D1*
X3886030Y2042740D1*
Y2037987D1*
X3888462Y2033178D1*
X3893215Y2026049D1*
X3917147Y2002117D1*
X3883653D1*
X2302382Y861229D2*
Y839729D1*
X2299950Y832544D1*
X2297573Y830112D1*
X2292820Y827735D1*
X2288012D1*
X2283259Y830112D1*
X2280827Y832544D1*
X2278450Y839729D1*
Y861229D1*
X2328690D1*
X2302382Y844482D2*
X2328690Y827735D1*
X2288067Y812296D2*
X2285635Y807488D1*
X2278505Y800303D1*
X2328690Y800302D1*
X2278505Y780055D2*
Y753802D1*
X2297629Y768117D1*
Y760932D1*
X2300005Y756178D1*
X2302382Y753802D1*
X2309567Y751370D1*
X2314320D1*
X2321505Y753802D1*
X2326314Y758555D1*
X2328690Y765740D1*
Y772925D1*
X2326314Y780055D1*
X2323882Y782431D1*
X2319129Y784863D1*
X2162220Y1722520D2*
X2140720D1*
X2133535Y1724952D1*
X2131103Y1727328D1*
X2128727Y1732081D1*
Y1736890D1*
X2131103Y1741643D1*
X2133535Y1744075D1*
X2140720Y1746451D1*
X2162220D1*
Y1696211D1*
X2145473Y1722520D2*
X2128727Y1696211D1*
X2113287Y1736835D2*
X2108479Y1739266D1*
X2101294Y1746396D1*
Y1696211D1*
X2061923D2*
Y1746396D1*
X2085855Y1712958D1*
X2049985D1*
X2019349Y1690925D2*
X1997849D1*
X1990664Y1693357D1*
X1988233Y1695734D1*
X1985856Y1700487D1*
Y1705295D1*
X1988233Y1710048D1*
X1990664Y1712480D1*
X1997849Y1714857D1*
X2019349D1*
Y1664617D1*
X2002603Y1690925D2*
X1985856Y1664617D1*
X1970417Y1705240D2*
X1965608Y1707672D1*
X1958423Y1714802D1*
Y1664617D1*
X1914299Y1714802D2*
X1938176D1*
X1940552Y1693302D1*
X1938176Y1695678D1*
X1930990Y1698110D1*
X1923861D1*
X1916676Y1695678D1*
X1911867Y1690925D1*
X1909491Y1683740D1*
Y1678987D1*
X1911867Y1671802D1*
X1916676Y1666994D1*
X1923861Y1664617D1*
X1930990D1*
X1938176Y1666994D1*
X1940552Y1669425D1*
X1942984Y1674179D1*
X2089882Y860013D2*
Y838513D1*
X2087450Y831328D1*
X2085073Y828896D1*
X2080320Y826519D1*
X2075512D1*
X2070759Y828896D1*
X2068327Y831328D1*
X2065950Y838513D1*
Y860013D1*
X2116190D1*
X2089882Y843266D2*
X2116190Y826519D1*
X2075567Y811080D2*
X2073135Y806272D1*
X2066005Y799087D1*
X2116190D1*
X2073135Y754963D2*
X2068382Y757339D1*
X2066005Y764524D1*
Y769277D1*
X2068382Y776462D1*
X2075567Y781271D1*
X2087505Y783647D1*
X2099444D1*
X2109005Y781271D1*
X2113814Y776462D1*
X2116190Y769277D1*
Y766901D1*
X2113814Y759771D1*
X2109005Y754963D1*
X2101820Y752586D1*
X2099443D1*
X2092258Y754963D1*
X2087505Y759771D1*
X2085129Y766901D1*
Y769277D1*
X2087505Y776462D1*
X2092259Y781271D1*
X2099444Y783647D1*
X1536201Y2597520D2*
X1514701D1*
X1507516Y2599952D1*
X1505084Y2602328D1*
X1502708Y2607081D1*
Y2611890D1*
X1505084Y2616643D1*
X1507516Y2619075D1*
X1514701Y2621451D1*
X1536201D1*
Y2571211D1*
X1519454Y2597520D2*
X1502708Y2571211D1*
X1487268Y2611835D2*
X1482460Y2614266D1*
X1475275Y2621396D1*
Y2571211D1*
X1447897Y2621396D2*
X1455027Y2619020D1*
X1457459Y2614266D1*
Y2609458D1*
X1455027Y2604705D1*
X1450274Y2602273D1*
X1440712Y2599896D1*
X1433527Y2597520D1*
X1428774Y2592711D1*
X1426398Y2587958D1*
Y2580773D1*
X1428774Y2576020D1*
X1431151Y2573588D1*
X1438336Y2571211D1*
X1447897D1*
X1455027Y2573588D1*
X1457459Y2576020D1*
X1459836Y2580773D1*
Y2587958D1*
X1457459Y2592711D1*
X1452651Y2597520D1*
X1445521Y2599896D1*
X1435959Y2602273D1*
X1431151Y2604705D1*
X1428774Y2609458D1*
Y2614266D1*
X1431151Y2619020D1*
X1438336Y2621396D1*
X1447897D1*
X4239882Y1709843D2*
Y1688344D1*
X4237450Y1681159D1*
X4235073Y1678727D1*
X4230320Y1676350D1*
X4225512D1*
X4220759Y1678727D1*
X4218327Y1681159D1*
X4215950Y1688344D1*
Y1709843D1*
X4266190D1*
X4239882Y1693097D2*
X4266190Y1676350D1*
X4225567Y1660911D2*
X4223135Y1656102D1*
X4216005Y1648917D1*
X4266190D1*
X4232697Y1602361D2*
X4239882Y1604793D1*
X4244690Y1609546D1*
X4247067Y1616732D1*
Y1619108D1*
X4244690Y1626293D1*
X4239882Y1631046D1*
X4232697Y1633478D1*
X4230320D1*
X4223135Y1631046D1*
X4218382Y1626293D1*
X4216005Y1619108D1*
Y1616732D1*
X4218382Y1609546D1*
X4223135Y1604793D1*
X4232697Y1602361D1*
X4244690D1*
X4256629Y1604793D1*
X4263814Y1609546D1*
X4266190Y1616731D1*
Y1621485D1*
X4263814Y1628670D1*
X4259005Y1631046D1*
X1346782Y1672520D2*
X1325282D1*
X1318097Y1674952D1*
X1315665Y1677328D1*
X1313288Y1682081D1*
Y1686890D1*
X1315665Y1691643D1*
X1318097Y1694075D1*
X1325282Y1696451D1*
X1346782D1*
Y1646211D1*
X1330035Y1672520D2*
X1313288Y1646211D1*
X1295417Y1684458D2*
Y1686835D1*
X1293041Y1691643D1*
X1290664Y1694020D1*
X1285856Y1696396D1*
X1276294D1*
X1271541Y1694020D1*
X1269164Y1691643D1*
X1266732Y1686835D1*
Y1682081D1*
X1269164Y1677273D1*
X1273917Y1670143D1*
X1297849Y1646211D1*
X1264356D1*
X1234546Y1696396D2*
X1241731Y1694020D1*
X1246540Y1686835D1*
X1248916Y1674896D1*
Y1667711D1*
X1246540Y1655773D1*
X1241731Y1648588D1*
X1234546Y1646211D1*
X1229793D1*
X1222608Y1648588D1*
X1217855Y1655773D1*
X1215423Y1667711D1*
Y1674896D1*
X1217855Y1686835D1*
X1222608Y1694020D1*
X1229793Y1696396D1*
X1234546D1*
X1217855Y1686835D2*
X1246540Y1655773D1*
X1689882Y1511032D2*
Y1489532D1*
X1687450Y1482347D1*
X1685073Y1479915D1*
X1680320Y1477538D1*
X1675512D1*
X1670759Y1479915D1*
X1668327Y1482347D1*
X1665950Y1489532D1*
Y1511032D1*
X1716190D1*
X1689882Y1494285D2*
X1716190Y1477538D1*
X1677944Y1459667D2*
X1675567D1*
X1670759Y1457291D1*
X1668382Y1454914D1*
X1666005Y1450106D1*
Y1440544D1*
X1668382Y1435791D1*
X1670759Y1433414D1*
X1675567Y1430982D1*
X1680320D1*
X1685129Y1433414D1*
X1692259Y1438167D1*
X1716190Y1462099D1*
Y1428606D1*
X1675567Y1413167D2*
X1673135Y1408358D1*
X1666005Y1401173D1*
X1716190D1*
X1346978Y1747520D2*
X1325479D1*
X1318294Y1749952D1*
X1315862Y1752328D1*
X1313485Y1757081D1*
Y1761890D1*
X1315862Y1766643D1*
X1318294Y1769075D1*
X1325479Y1771451D1*
X1346978D1*
Y1721211D1*
X1330232Y1747520D2*
X1313485Y1721211D1*
X1295614Y1759458D2*
Y1761835D1*
X1293237Y1766643D1*
X1290861Y1769020D1*
X1286052Y1771396D1*
X1276491D1*
X1271738Y1769020D1*
X1269361Y1766643D1*
X1266929Y1761835D1*
Y1757081D1*
X1269361Y1752273D1*
X1274114Y1745143D1*
X1298046Y1721211D1*
X1264553D1*
X1246681Y1759458D2*
Y1761835D1*
X1244305Y1766643D1*
X1241928Y1769020D1*
X1237120Y1771396D1*
X1227558D1*
X1222805Y1769020D1*
X1220428Y1766643D1*
X1217997Y1761835D1*
Y1757081D1*
X1220428Y1752273D1*
X1225182Y1745143D1*
X1249113Y1721211D1*
X1215620D1*
X1471782Y1597520D2*
X1450282D1*
X1443097Y1599952D1*
X1440665Y1602328D1*
X1438288Y1607081D1*
Y1611890D1*
X1440665Y1616643D1*
X1443097Y1619075D1*
X1450282Y1621451D1*
X1471782D1*
Y1571211D1*
X1455035Y1597520D2*
X1438288Y1571211D1*
X1420417Y1609458D2*
Y1611835D1*
X1418041Y1616643D1*
X1415664Y1619020D1*
X1410856Y1621396D1*
X1401294D1*
X1396541Y1619020D1*
X1394164Y1616643D1*
X1391732Y1611835D1*
Y1607081D1*
X1394164Y1602273D1*
X1398917Y1595143D1*
X1422849Y1571211D1*
X1389356D1*
X1369108Y1621396D2*
X1342855D1*
X1357170Y1602273D1*
X1349985D1*
X1345232Y1599896D1*
X1342855Y1597520D1*
X1340423Y1590335D1*
Y1585581D1*
X1342855Y1578396D1*
X1347608Y1573588D1*
X1354793Y1571211D1*
X1361978D1*
X1369108Y1573588D1*
X1371485Y1576020D1*
X1373916Y1580773D1*
X2452382Y873167D2*
Y851667D1*
X2449950Y844482D1*
X2447573Y842050D1*
X2442820Y839673D1*
X2438012D1*
X2433259Y842050D1*
X2430827Y844482D1*
X2428450Y851667D1*
Y873167D1*
X2478690D1*
X2452382Y856420D2*
X2478690Y839673D1*
X2440444Y821802D2*
X2438067D1*
X2433259Y819426D1*
X2430882Y817049D1*
X2428505Y812241D1*
Y802679D1*
X2430882Y797926D1*
X2433259Y795549D1*
X2438067Y793118D1*
X2442820Y793117D1*
X2447629Y795549D1*
X2454759Y800303D1*
X2478690Y824234D1*
Y790741D1*
Y751370D2*
X2428505D1*
X2461944Y775302D1*
X2461943Y739432D1*
X2121782Y1947520D2*
X2100282D1*
X2093097Y1949952D1*
X2090665Y1952328D1*
X2088288Y1957081D1*
Y1961890D1*
X2090665Y1966643D1*
X2093097Y1969075D1*
X2100282Y1971451D1*
X2121782D1*
Y1921211D1*
X2105035Y1947520D2*
X2088288Y1921211D1*
X2070417Y1959458D2*
Y1961835D1*
X2068041Y1966643D1*
X2065664Y1969020D1*
X2060856Y1971396D1*
X2051294D1*
X2046541Y1969020D1*
X2044164Y1966643D1*
X2041732Y1961835D1*
Y1957081D1*
X2044164Y1952273D1*
X2048917Y1945143D1*
X2072849Y1921211D1*
X2039356D1*
X1995232Y1971396D2*
X2019108D1*
X2021485Y1949896D1*
X2019108Y1952273D1*
X2011923Y1954705D1*
X2004793D1*
X1997608Y1952273D1*
X1992800Y1947520D1*
X1990423Y1940335D1*
Y1935581D1*
X1992800Y1928396D1*
X1997608Y1923588D1*
X2004793Y1921211D1*
X2011923D1*
X2019108Y1923588D1*
X2021485Y1926020D1*
X2023916Y1930773D1*
X3277382Y2758263D2*
Y2736763D1*
X3274950Y2729578D1*
X3272573Y2727146D1*
X3267820Y2724769D1*
X3263012D1*
X3258259Y2727146D1*
X3255827Y2729578D1*
X3253450Y2736763D1*
Y2758263D1*
X3303690D1*
X3277382Y2741516D2*
X3303690Y2724769D1*
X3265444Y2706898D2*
X3263067D1*
X3258259Y2704522D1*
X3255882Y2702145D1*
X3253505Y2697337D1*
Y2687775D1*
X3255882Y2683022D1*
X3258259Y2680645D1*
X3263067Y2678213D1*
X3267820D1*
X3272629Y2680645D1*
X3279759Y2685398D1*
X3303690Y2709330D1*
Y2675837D1*
X3260635Y2631713D2*
X3255882Y2634089D1*
X3253505Y2641274D1*
Y2646027D1*
X3255882Y2653212D1*
X3263067Y2658021D1*
X3275005Y2660397D1*
X3286944D1*
X3296505Y2658021D1*
X3301314Y2653212D1*
X3303690Y2646027D1*
Y2643651D1*
X3301314Y2636521D1*
X3296505Y2631713D1*
X3289320Y2629336D1*
X3286943D1*
X3279758Y2631713D1*
X3275005Y2636521D1*
X3272629Y2643651D1*
Y2646027D1*
X3275005Y2653212D1*
X3279759Y2658021D1*
X3286944Y2660397D1*
X3221978Y2722520D2*
X3200479D1*
X3193294Y2724952D1*
X3190862Y2727328D1*
X3188485Y2732081D1*
Y2736890D1*
X3190862Y2741643D1*
X3193294Y2744075D1*
X3200479Y2746451D1*
X3221978D1*
Y2696211D1*
X3205232Y2722520D2*
X3188485Y2696211D1*
X3170614Y2734458D2*
Y2736835D1*
X3168237Y2741643D1*
X3165861Y2744020D1*
X3161052Y2746396D1*
X3151491D1*
X3146738Y2744020D1*
X3144361Y2741643D1*
X3141929Y2736835D1*
Y2732081D1*
X3144361Y2727273D1*
X3149114Y2720143D1*
X3173046Y2696211D1*
X3139553D1*
X3114552D2*
X3090620Y2746396D1*
X3124113D1*
X2664882Y3059254D2*
Y3037754D1*
X2662450Y3030569D1*
X2660073Y3028137D1*
X2655320Y3025761D1*
X2650512D1*
X2645759Y3028137D1*
X2643327Y3030569D1*
X2640950Y3037754D1*
Y3059254D1*
X2691190D1*
X2664882Y3042507D2*
X2691190Y3025761D1*
X2652944Y3007890D2*
X2650567D1*
X2645759Y3005513D1*
X2643382Y3003136D1*
X2641005Y2998328D1*
Y2988766D1*
X2643382Y2984013D1*
X2645759Y2981637D1*
X2650567Y2979205D1*
X2655320D1*
X2660129Y2981637D1*
X2667259Y2986390D1*
X2691190Y3010321D1*
Y2976828D1*
X2641005Y2949451D2*
X2643382Y2956580D1*
X2648135Y2959012D1*
X2652944D1*
X2657697Y2956580D1*
X2660129Y2951827D1*
X2662505Y2942266D1*
X2664882Y2935081D1*
X2669690Y2930327D1*
X2674443Y2927951D1*
X2681629D1*
X2686382Y2930327D1*
X2688814Y2932704D1*
X2691190Y2939889D1*
Y2949451D1*
X2688814Y2956580D1*
X2686382Y2959012D1*
X2681629Y2961389D1*
X2674444D1*
X2669690Y2959012D1*
X2664882Y2954204D1*
X2662505Y2947074D1*
X2660129Y2937513D1*
X2657697Y2932704D1*
X2652944Y2930327D1*
X2648135D1*
X2643382Y2932704D1*
X2641005Y2939889D1*
Y2949451D1*
X4145790Y1297520D2*
X4124290D1*
X4117105Y1299952D1*
X4114673Y1302328D1*
X4112297Y1307081D1*
Y1311890D1*
X4114673Y1316643D1*
X4117105Y1319075D1*
X4124290Y1321451D1*
X4145790D1*
Y1271211D1*
X4129044Y1297520D2*
X4112297Y1271211D1*
X4094426Y1309458D2*
Y1311835D1*
X4092049Y1316643D1*
X4089673Y1319020D1*
X4084864Y1321396D1*
X4075302D1*
X4070549Y1319020D1*
X4068173Y1316643D1*
X4065741Y1311835D1*
Y1307081D1*
X4068173Y1302273D1*
X4072926Y1295143D1*
X4096858Y1271211D1*
X4063364D1*
X4016808Y1304705D2*
X4019240Y1297520D1*
X4023993Y1292711D1*
X4031178Y1290335D1*
X4033555D1*
X4040740Y1292711D1*
X4045493Y1297520D1*
X4047925Y1304705D1*
Y1307081D1*
X4045493Y1314266D1*
X4040740Y1319020D1*
X4033555Y1321396D1*
X4031178D1*
X4023993Y1319020D1*
X4019240Y1314266D1*
X4016808Y1304705D1*
Y1292711D1*
X4019240Y1280773D1*
X4023993Y1273588D1*
X4031178Y1271211D1*
X4035932D1*
X4043117Y1273588D1*
X4045493Y1278396D1*
X3846782Y1022520D2*
X3825282D1*
X3818097Y1024952D1*
X3815665Y1027328D1*
X3813288Y1032081D1*
Y1036890D1*
X3815665Y1041643D1*
X3818097Y1044075D1*
X3825282Y1046451D1*
X3846782D1*
Y996211D1*
X3830035Y1022520D2*
X3813288Y996211D1*
X3793041Y1046396D2*
X3766788D1*
X3781102Y1027273D1*
X3773917D1*
X3769164Y1024896D1*
X3766788Y1022520D1*
X3764356Y1015335D1*
Y1010581D1*
X3766788Y1003396D1*
X3771541Y998588D1*
X3778726Y996211D1*
X3785911D1*
X3793041Y998588D1*
X3795417Y1001020D1*
X3797849Y1005773D1*
X3734546Y1046396D2*
X3741731Y1044020D1*
X3746540Y1036835D1*
X3748916Y1024896D1*
Y1017711D1*
X3746540Y1005773D1*
X3741731Y998588D1*
X3734546Y996211D1*
X3729793D1*
X3722608Y998588D1*
X3717855Y1005773D1*
X3715423Y1017711D1*
Y1024896D1*
X3717855Y1036835D1*
X3722608Y1044020D1*
X3729793Y1046396D1*
X3734546D1*
X3717855Y1036835D2*
X3746540Y1005773D1*
X1139882Y711032D2*
Y689532D1*
X1137450Y682347D1*
X1135073Y679915D1*
X1130320Y677538D1*
X1125512D1*
X1120759Y679915D1*
X1118327Y682347D1*
X1115950Y689532D1*
Y711032D1*
X1166190D1*
X1139882Y694285D2*
X1166190Y677538D1*
X1116005Y657291D2*
Y631038D1*
X1135129Y645353D1*
Y638167D1*
X1137505Y633414D1*
X1139882Y631038D1*
X1147067Y628606D1*
X1151820D1*
X1159005Y631038D1*
X1163814Y635791D1*
X1166190Y642976D1*
Y650161D1*
X1163814Y657291D1*
X1161382Y659667D1*
X1156629Y662099D1*
X1125567Y613167D2*
X1123135Y608358D1*
X1116005Y601173D1*
X1166190D1*
X1289882Y596782D2*
Y575282D1*
X1287450Y568097D1*
X1285073Y565665D1*
X1280320Y563288D1*
X1275512D1*
X1270759Y565665D1*
X1268327Y568097D1*
X1265950Y575282D1*
Y596782D1*
X1316190D1*
X1289882Y580035D2*
X1316190Y563288D1*
X1266005Y543041D2*
Y516788D1*
X1285129Y531102D1*
Y523917D1*
X1287505Y519164D1*
X1289882Y516788D1*
X1297067Y514356D1*
X1301820D1*
X1309005Y516788D1*
X1313814Y521541D1*
X1316190Y528726D1*
Y535911D1*
X1313814Y543041D1*
X1311382Y545417D1*
X1306629Y547849D1*
X1277944Y496485D2*
X1275567D1*
X1270759Y494108D1*
X1268382Y491732D1*
X1266005Y486923D1*
Y477361D1*
X1268382Y472608D1*
X1270759Y470232D1*
X1275567Y467800D1*
X1280320D1*
X1285129Y470232D1*
X1292258Y474985D1*
X1316190Y498916D1*
Y465423D1*
X1752382Y1146782D2*
Y1125282D1*
X1749950Y1118097D1*
X1747573Y1115665D1*
X1742820Y1113288D1*
X1738012D1*
X1733259Y1115665D1*
X1730827Y1118097D1*
X1728450Y1125282D1*
Y1146782D1*
X1778690D1*
X1752382Y1130035D2*
X1778690Y1113288D1*
X1728505Y1093041D2*
Y1066788D1*
X1747629Y1081102D1*
Y1073917D1*
X1750005Y1069164D1*
X1752382Y1066788D1*
X1759567Y1064356D1*
X1764320D1*
X1771505Y1066788D1*
X1776314Y1071541D1*
X1778690Y1078726D1*
Y1085911D1*
X1776314Y1093041D1*
X1773882Y1095417D1*
X1769129Y1097849D1*
X1728505Y1044108D2*
Y1017855D1*
X1747629Y1032170D1*
Y1024985D1*
X1750005Y1020232D1*
X1752382Y1017855D1*
X1759567Y1015423D1*
X1764320D1*
X1771505Y1017855D1*
X1776314Y1022608D1*
X1778690Y1029793D1*
Y1036978D1*
X1776314Y1044108D1*
X1773882Y1046485D1*
X1769129Y1048917D1*
X3112016Y959861D2*
X3090516D1*
X3083331Y962293D1*
X3080899Y964669D1*
X3078523Y969423D1*
Y974231D1*
X3080899Y978984D1*
X3083331Y981416D1*
X3090516Y983793D1*
X3112016D1*
Y933553D1*
X3095269Y959861D2*
X3078523Y933553D1*
X3058275Y983737D2*
X3032022D1*
X3046337Y964614D1*
X3039152D1*
X3034398Y962238D1*
X3032022Y959861D1*
X3029590Y952676D1*
Y947923D1*
X3032022Y940738D1*
X3036775Y935929D1*
X3043960Y933553D1*
X3051145D1*
X3058275Y935929D1*
X3060651Y938361D1*
X3063083Y943114D1*
X2990219Y933553D2*
Y983737D1*
X3014151Y950299D1*
X2978281D1*
X4296978Y1022520D2*
X4275479D1*
X4268294Y1024952D1*
X4265862Y1027328D1*
X4263485Y1032081D1*
Y1036890D1*
X4265862Y1041643D1*
X4268294Y1044075D1*
X4275479Y1046451D1*
X4296978D1*
Y996211D1*
X4280232Y1022520D2*
X4263485Y996211D1*
X4243237Y1046396D2*
X4216984D1*
X4231299Y1027273D1*
X4224114D1*
X4219361Y1024896D1*
X4216984Y1022520D1*
X4214553Y1015335D1*
Y1010581D1*
X4216984Y1003396D1*
X4221738Y998588D1*
X4228923Y996211D1*
X4236108D1*
X4243237Y998588D1*
X4245614Y1001020D1*
X4248046Y1005773D1*
X4170428Y1046396D2*
X4194305D1*
X4196681Y1024896D1*
X4194305Y1027273D1*
X4187120Y1029705D1*
X4179990D1*
X4172805Y1027273D1*
X4167997Y1022520D1*
X4165620Y1015335D1*
Y1010581D1*
X4167997Y1003396D1*
X4172805Y998588D1*
X4179990Y996211D1*
X4187120D1*
X4194305Y998588D1*
X4196681Y1001020D1*
X4199113Y1005773D1*
X3870566Y3235020D2*
X3849066D1*
X3841881Y3237452D1*
X3839449Y3239828D1*
X3837072Y3244581D1*
Y3249390D1*
X3839449Y3254143D1*
X3841881Y3256575D1*
X3849066Y3258951D1*
X3870566D1*
Y3208711D1*
X3853819Y3235020D2*
X3837072Y3208711D1*
X3816825Y3258896D2*
X3790572D1*
X3804886Y3239773D1*
X3797701D1*
X3792948Y3237396D1*
X3790572Y3235020D1*
X3788140Y3227835D1*
Y3223081D1*
X3790572Y3215896D1*
X3795325Y3211088D1*
X3802510Y3208711D1*
X3809695D1*
X3816825Y3211088D1*
X3819201Y3213520D1*
X3821633Y3218273D1*
X3744016Y3251766D2*
X3746392Y3256520D1*
X3753577Y3258896D1*
X3758330D1*
X3765515Y3256520D1*
X3770324Y3249335D1*
X3772701Y3237396D1*
Y3225458D1*
X3770324Y3215896D1*
X3765515Y3211088D1*
X3758330Y3208711D1*
X3755954D1*
X3748824Y3211088D1*
X3744016Y3215896D1*
X3741639Y3223081D1*
Y3225458D1*
X3744016Y3232643D1*
X3748824Y3237396D1*
X3755954Y3239773D1*
X3758330D1*
X3765515Y3237396D1*
X3770324Y3232643D1*
X3772701Y3225458D1*
X4821131Y1171782D2*
Y1150282D1*
X4818699Y1143097D1*
X4816323Y1140665D1*
X4811570Y1138288D1*
X4806761D1*
X4802008Y1140665D1*
X4799576Y1143097D1*
X4797200Y1150282D1*
Y1171782D1*
X4847440D1*
X4821131Y1155035D2*
X4847440Y1138288D1*
X4797255Y1118041D2*
Y1091788D1*
X4816378Y1106102D1*
Y1098917D1*
X4818755Y1094164D1*
X4821131Y1091788D1*
X4828316Y1089356D1*
X4833069D1*
X4840255Y1091788D1*
X4845063Y1096541D1*
X4847440Y1103726D1*
Y1110911D1*
X4845063Y1118041D1*
X4842631Y1120417D1*
X4837878Y1122849D1*
X4847440Y1064355D2*
X4797255Y1040423D1*
Y1073917D1*
X3214882Y1846951D2*
Y1825451D1*
X3212450Y1818266D1*
X3210073Y1815834D1*
X3205320Y1813458D1*
X3200512D1*
X3195759Y1815834D1*
X3193327Y1818266D1*
X3190950Y1825451D1*
Y1846951D1*
X3241190D1*
X3214882Y1830204D2*
X3241190Y1813457D1*
X3191005Y1793210D2*
Y1766957D1*
X3210129Y1781272D1*
Y1774087D1*
X3212505Y1769333D1*
X3214882Y1766957D1*
X3222067Y1764525D1*
X3226820D1*
X3234005Y1766957D1*
X3238814Y1771710D1*
X3241190Y1778895D1*
Y1786080D1*
X3238814Y1793210D1*
X3236382Y1795586D1*
X3231629Y1798018D1*
X3191005Y1737148D2*
X3193382Y1744277D1*
X3198135Y1746709D1*
X3202944D1*
X3207697Y1744277D1*
X3210129Y1739524D1*
X3212505Y1729963D1*
X3214882Y1722777D1*
X3219690Y1718024D1*
X3224443Y1715648D1*
X3231629D1*
X3236382Y1718024D1*
X3238814Y1720401D1*
X3241190Y1727586D1*
Y1737148D1*
X3238814Y1744277D1*
X3236382Y1746709D1*
X3231629Y1749086D1*
X3224444D1*
X3219690Y1746709D1*
X3214882Y1741901D1*
X3212505Y1734771D1*
X3210129Y1725209D1*
X3207697Y1720401D1*
X3202944Y1718024D1*
X3198135D1*
X3193382Y1720401D1*
X3191005Y1727586D1*
Y1737148D1*
X4020593Y3235020D2*
X3999093D1*
X3991908Y3237452D1*
X3989477Y3239828D1*
X3987100Y3244581D1*
Y3249390D1*
X3989477Y3254143D1*
X3991908Y3256575D1*
X3999093Y3258951D1*
X4020593D1*
Y3208711D1*
X4003847Y3235020D2*
X3987100Y3208711D1*
X3966852Y3258896D2*
X3940599D1*
X3954914Y3239773D1*
X3947729D1*
X3942976Y3237396D1*
X3940599Y3235020D1*
X3938167Y3227835D1*
Y3223081D1*
X3940599Y3215896D1*
X3945352Y3211088D1*
X3952537Y3208711D1*
X3959723D1*
X3966852Y3211088D1*
X3969229Y3213520D1*
X3971661Y3218273D1*
X3891611Y3242205D2*
X3894043Y3235020D1*
X3898796Y3230211D1*
X3905981Y3227835D1*
X3908358D1*
X3915543Y3230211D1*
X3920296Y3235020D1*
X3922728Y3242205D1*
Y3244581D1*
X3920296Y3251766D1*
X3915543Y3256520D1*
X3908358Y3258896D1*
X3905981D1*
X3898796Y3256520D1*
X3894043Y3251766D1*
X3891611Y3242205D1*
Y3230211D1*
X3894043Y3218273D1*
X3898796Y3211088D1*
X3905981Y3208711D1*
X3910735D1*
X3917920Y3211088D1*
X3920296Y3215896D1*
X4822970Y772520D2*
X4801470D1*
X4794285Y774952D1*
X4791853Y777328D1*
X4789477Y782081D1*
Y786890D1*
X4791853Y791643D1*
X4794285Y794075D1*
X4801470Y796451D1*
X4822970D1*
Y746211D1*
X4806223Y772520D2*
X4789477Y746211D1*
X4750106D2*
Y796396D1*
X4774037Y762958D1*
X4738167D1*
X4708358Y796396D2*
X4715543Y794020D1*
X4720352Y786835D1*
X4722728Y774896D1*
Y767711D1*
X4720352Y755773D1*
X4715543Y748588D1*
X4708358Y746211D1*
X4703605D1*
X4696420Y748588D1*
X4691667Y755773D1*
X4689235Y767711D1*
Y774896D1*
X4691667Y786835D1*
X4696420Y794020D1*
X4703605Y796396D1*
X4708358D1*
X4691667Y786835D2*
X4720352Y755773D1*
X3589882Y3248167D2*
Y3226667D1*
X3587450Y3219482D1*
X3585073Y3217050D1*
X3580320Y3214673D1*
X3575512D1*
X3570759Y3217050D1*
X3568327Y3219482D1*
X3565950Y3226667D1*
Y3248167D1*
X3616190D1*
X3589882Y3231420D2*
X3616190Y3214673D1*
Y3175302D2*
X3566005Y3175303D1*
X3599444Y3199234D1*
Y3163364D1*
X3566005Y3143117D2*
Y3116864D1*
X3585129Y3131178D1*
Y3123993D1*
X3587505Y3119240D1*
X3589882Y3116864D1*
X3597067Y3114432D1*
X3601820D1*
X3609005Y3116864D1*
X3613814Y3121617D1*
X3616190Y3128802D1*
Y3135987D1*
X3613814Y3143117D1*
X3611382Y3145493D1*
X3606629Y3147925D1*
X3649355Y1747520D2*
X3627855D1*
X3620670Y1749952D1*
X3618238Y1752328D1*
X3615862Y1757081D1*
Y1761890D1*
X3618238Y1766643D1*
X3620670Y1769075D1*
X3627855Y1771451D1*
X3649355D1*
Y1721211D1*
X3632608Y1747520D2*
X3615862Y1721211D1*
X3576491D2*
Y1771396D1*
X3600422Y1737958D1*
X3564553D1*
X3525182Y1721211D2*
Y1771396D1*
X3549113Y1737958D1*
X3513243D1*
X3003615Y2723223D2*
Y2687353D1*
X3001238Y2680168D1*
X2996429Y2675415D1*
X2989244Y2672983D1*
X2984491D1*
X2977306Y2675415D1*
X2972498Y2680168D1*
X2970121Y2687353D1*
Y2723223D1*
X2952250Y2711230D2*
Y2713606D1*
X2949874Y2718415D1*
X2947497Y2720791D1*
X2942688Y2723168D1*
X2933127D1*
X2928374Y2720791D1*
X2925997Y2718415D1*
X2923565Y2713606D1*
Y2708853D1*
X2925997Y2704045D1*
X2930750Y2696915D1*
X2954682Y2672983D1*
X2921189D1*
X4155380Y1713577D2*
Y1677707D1*
X4153003Y1670522D1*
X4148195Y1665769D1*
X4141010Y1663337D1*
X4136256D1*
X4129071Y1665769D1*
X4124263Y1670522D1*
X4121886Y1677707D1*
Y1713577D1*
X4101639Y1713522D2*
X4075386D1*
X4089700Y1694399D1*
X4082515D1*
X4077762Y1692022D1*
X4075386Y1689646D1*
X4072954Y1682461D1*
Y1677707D1*
X4075386Y1670522D1*
X4080139Y1665714D1*
X4087324Y1663337D1*
X4094509D1*
X4101639Y1665714D1*
X4104015Y1668146D1*
X4106447Y1672899D1*
X3571925Y988479D2*
Y952609D1*
X3569548Y945424D1*
X3564740Y940671D1*
X3557555Y938239D1*
X3552802D1*
X3545617Y940671D1*
X3540808Y945424D1*
X3538432Y952609D1*
Y988479D1*
X3499061Y938239D2*
Y988424D1*
X3522992Y954986D1*
X3487122D1*
X1441213Y1065351D2*
Y1029481D1*
X1438836Y1022296D1*
X1434028Y1017543D1*
X1426843Y1015111D1*
X1422090D1*
X1414905Y1017543D1*
X1410096Y1022296D1*
X1407720Y1029481D1*
Y1065351D1*
X1363595Y1065296D2*
X1387472D1*
X1389849Y1043796D1*
X1387472Y1046173D1*
X1380287Y1048604D1*
X1373157D1*
X1365972Y1046173D1*
X1361164Y1041419D1*
X1358787Y1034234D1*
Y1029481D1*
X1361164Y1022296D1*
X1365972Y1017488D1*
X1373157Y1015111D1*
X1380287D1*
X1387472Y1017488D1*
X1389849Y1019919D1*
X1392280Y1024673D1*
X2855189Y1187396D2*
Y1151526D1*
X2852813Y1144341D1*
X2848004Y1139588D1*
X2840819Y1137156D1*
X2836066D1*
X2828881Y1139588D1*
X2824073Y1144341D1*
X2821696Y1151526D1*
Y1187396D1*
X2796695Y1137156D2*
X2772763Y1187341D1*
X2806257D1*
X3470709Y1394196D2*
Y1358326D1*
X3468332Y1351141D1*
X3463524Y1346388D1*
X3456339Y1343956D1*
X3451586D1*
X3444401Y1346388D1*
X3439592Y1351141D1*
X3437216Y1358326D1*
Y1394196D1*
X3409838Y1394141D2*
X3416968Y1391764D1*
X3419400Y1387011D1*
Y1382203D1*
X3416968Y1377450D1*
X3412215Y1375018D1*
X3402653Y1372641D1*
X3395468Y1370264D1*
X3390715Y1365456D1*
X3388338Y1360703D1*
Y1353518D1*
X3390715Y1348765D1*
X3393091Y1346333D1*
X3400277Y1343956D1*
X3409838D1*
X3416968Y1346333D1*
X3419400Y1348765D1*
X3421776Y1353518D1*
Y1360703D1*
X3419400Y1365456D1*
X3414591Y1370264D1*
X3407462Y1372641D1*
X3397900Y1375018D1*
X3393091Y1377450D1*
X3390715Y1382203D1*
Y1387011D1*
X3393091Y1391764D1*
X3400277Y1394141D1*
X3409838D1*
X3715025Y3190351D2*
Y3154481D1*
X3712648Y3147296D1*
X3707840Y3142543D1*
X3700655Y3140111D1*
X3695901D1*
X3688716Y3142543D1*
X3683908Y3147296D1*
X3681531Y3154481D1*
Y3190351D1*
X3634975Y3173604D2*
X3637407Y3166419D1*
X3642160Y3161611D1*
X3649345Y3159234D1*
X3651722D1*
X3658907Y3161611D1*
X3663660Y3166419D1*
X3666092Y3173604D1*
Y3175981D1*
X3663660Y3183166D1*
X3658907Y3187919D1*
X3651722Y3190296D1*
X3649345D1*
X3642160Y3187919D1*
X3637407Y3183166D1*
X3634975Y3173604D1*
Y3161611D1*
X3637407Y3149673D1*
X3642160Y3142488D1*
X3649345Y3140111D1*
X3654099D1*
X3661284Y3142488D1*
X3663660Y3147296D1*
X1578383Y2242514D2*
X1559260Y2192274D1*
X1540137Y2242514D1*
X1510327D2*
X1515136Y2240138D1*
X1519889Y2235329D1*
X1522321Y2230576D1*
X1524698Y2223391D1*
Y2211398D1*
X1522321Y2204268D1*
X1519889Y2199459D1*
X1515136Y2194706D1*
X1510327Y2192274D1*
X1500766D1*
X1496013Y2194706D1*
X1491204Y2199459D1*
X1488828Y2204268D1*
X1486451Y2211398D1*
Y2223391D1*
X1488828Y2230576D1*
X1491204Y2235329D1*
X1496013Y2240138D1*
X1500766Y2242514D1*
X1510327D1*
X1471012Y2232898D2*
X1466203Y2235329D1*
X1459018Y2242459D1*
Y2192274D1*
X4086489Y702351D2*
D145*
X4060690D1*
X4052068Y705270D1*
X4049149Y708122D1*
X4046297Y713825D1*
Y719596D1*
X4049149Y725299D1*
X4052068Y728218D1*
X4060690Y731070D1*
X4086489D1*
Y670782D1*
X4066393Y702351D2*
X4046297Y670782D1*
X3990430Y731070D2*
X4027770D1*
Y670782D1*
Y702351D2*
X4004822D1*
X3913582Y699500D2*
X3887716D1*
X3879160Y702351D1*
X3876242Y705270D1*
X3873390Y710974D1*
Y719596D1*
X3876242Y725299D1*
X3879160Y728218D1*
X3887716Y731070D1*
X3913582D1*
Y670782D1*
X3840537Y710974D2*
X3846241Y708122D1*
X3852011Y702351D1*
X3854863Y693729D1*
Y688026D1*
X3852011Y679404D1*
X3846241Y673700D1*
X3840537Y670782D1*
X3831915D1*
X3826145Y673700D1*
X3820441Y679404D1*
X3817523Y688026D1*
Y693729D1*
X3820441Y702351D1*
X3826145Y708122D1*
X3831915Y710974D1*
X3840537D1*
X3798996D2*
X3787522Y670782D1*
X3776048Y710974D1*
X3764574Y670782D1*
X3753100Y710974D1*
X3734573Y693729D2*
X3700151D1*
Y699500D1*
X3703003Y705270D1*
X3705855Y708122D1*
X3711625Y710974D1*
X3720247D1*
X3725951Y708122D1*
X3731721Y702351D1*
X3734573Y693729D1*
Y688026D1*
X3731721Y679404D1*
X3725951Y673700D1*
X3720247Y670782D1*
X3711625D1*
X3705855Y673700D1*
X3700151Y679404D1*
X3681624Y710974D2*
Y670782D1*
Y693729D2*
X3678706Y702351D1*
X3673002Y708122D1*
X3667232Y710974D1*
X3658610D1*
X3541569Y722447D2*
X3547273Y728218D1*
X3555895Y731070D1*
X3567369D1*
X3575991Y728218D1*
X3581761Y722447D1*
Y716744D1*
X3578843Y710974D1*
X3575991Y708122D1*
X3570287Y705270D1*
X3553043Y699500D1*
X3547273Y696648D1*
X3544421Y693729D1*
X3541569Y688026D1*
Y679404D1*
X3547273Y673700D1*
X3555895Y670782D1*
X3567369D1*
X3575991Y673700D1*
X3581761Y679404D1*
X3523042Y710974D2*
Y682255D1*
X3520190Y673700D1*
X3514420Y670782D1*
X3505798D1*
X3500094Y673700D1*
X3491472Y682255D1*
Y710974D2*
Y670782D1*
X3472945Y710974D2*
Y650686D1*
Y702351D2*
X3467175Y708055D1*
X3461471Y710974D1*
X3452849D1*
X3447079Y708055D1*
X3441375Y702351D1*
X3438457Y693729D1*
Y687959D1*
X3441375Y679404D1*
X3447079Y673633D1*
X3452849Y670782D1*
X3461471D1*
X3467175Y673633D1*
X3472945Y679404D1*
X3419930Y710974D2*
Y650686D1*
Y702351D2*
X3414160Y708055D1*
X3408456Y710974D1*
X3399834D1*
X3394064Y708055D1*
X3388360Y702351D1*
X3385442Y693729D1*
Y687959D1*
X3388360Y679404D1*
X3394064Y673633D1*
X3399834Y670782D1*
X3408456D1*
X3414160Y673633D1*
X3419930Y679404D1*
X3366915Y731070D2*
Y670782D1*
X3345469Y710974D2*
X3328292Y670782D1*
X3333995Y659308D1*
X3339765Y653537D1*
X3345469Y650686D1*
X3348388D1*
X3311047Y710974D2*
X3328292Y670782D1*
X3188303D2*
Y731070D1*
X3211251Y670782D1*
X3234199Y731070D1*
Y670782D1*
X3135354Y710974D2*
Y670782D1*
Y702351D2*
X3141058Y708122D1*
X3146828Y710974D1*
X3155384D1*
X3161154Y708122D1*
X3166858Y702351D1*
X3169776Y693729D1*
Y688026D1*
X3166858Y679404D1*
X3161154Y673700D1*
X3155384Y670782D1*
X3146828D1*
X3141058Y673700D1*
X3135354Y679404D1*
X3116827Y731070D2*
X3113975Y728218D1*
X3111057Y731070D1*
X3113975Y733988D1*
X3116827Y731070D1*
X3113975Y710974D2*
Y670782D1*
X3092530Y710974D2*
Y670782D1*
Y699500D2*
X3083908Y708122D1*
X3078138Y710974D1*
X3069582D1*
X3063812Y708122D1*
X3060960Y699500D1*
Y670782D1*
X2984112Y731070D2*
Y670782D1*
X2958246D1*
X2949624Y673700D1*
X2946772Y676552D1*
X2943920Y682255D1*
Y690878D1*
X2946772Y696648D1*
X2949624Y699500D1*
X2958246Y702351D1*
X2949624Y705270D1*
X2946772Y708122D1*
X2943920Y713825D1*
Y719596D1*
X2946772Y725299D1*
X2949624Y728218D1*
X2958246Y731070D1*
X2984112D1*
Y702351D2*
X2958246D1*
X2911067Y710974D2*
X2916771Y708122D1*
X2922541Y702351D1*
X2925393Y693729D1*
Y688026D1*
X2922541Y679404D1*
X2916771Y673700D1*
X2911067Y670782D1*
X2902445D1*
X2896675Y673700D1*
X2890971Y679404D1*
X2888053Y688026D1*
Y693729D1*
X2890971Y702351D1*
X2896675Y708122D1*
X2902445Y710974D1*
X2911067D1*
X2835104D2*
Y670782D1*
Y702351D2*
X2840808Y708122D1*
X2846578Y710974D1*
X2855133D1*
X2860904Y708122D1*
X2866607Y702351D1*
X2869526Y693729D1*
Y688026D1*
X2866607Y679404D1*
X2860904Y673700D1*
X2855133Y670782D1*
X2846578D1*
X2840808Y673700D1*
X2835104Y679404D1*
X2816577Y710974D2*
Y670782D1*
Y693729D2*
X2813658Y702351D1*
X2807955Y708122D1*
X2802184Y710974D1*
X2793562D1*
X2740613Y731070D2*
Y670782D1*
Y702351D2*
X2746317Y708122D1*
X2752087Y710974D1*
X2760709D1*
X2766413Y708122D1*
X2772183Y702351D1*
X2775035Y693729D1*
Y688026D1*
X2772183Y679404D1*
X2766413Y673700D1*
X2760709Y670782D1*
X2752087D1*
X2746317Y673700D1*
X2740613Y679404D1*
X4181338Y591744D2*
X4184189Y597447D1*
X4189960Y603218D1*
X4195663Y606070D1*
X4207137D1*
X4212908Y603218D1*
X4218611Y597447D1*
X4221530Y591744D1*
X4224381Y583122D1*
Y568729D1*
X4221530Y560174D1*
X4218611Y554404D1*
X4212908Y548700D1*
X4207137Y545782D1*
X4195663D1*
X4189960Y548700D1*
X4184189Y554404D1*
X4181338Y560174D1*
X4162810Y606070D2*
Y545782D1*
Y574500D2*
X4154188Y583122D1*
X4148418Y585974D1*
X4139796D1*
X4134092Y583122D1*
X4131240Y574500D1*
Y545782D1*
X4112713Y606070D2*
Y545782D1*
X4086847D1*
X4078225Y548700D1*
X4075373Y551552D1*
X4072521Y557255D1*
Y565878D1*
X4075373Y571648D1*
X4078225Y574500D1*
X4086847Y577351D1*
X4078225Y580270D1*
X4075373Y583122D1*
X4072521Y588825D1*
Y594596D1*
X4075373Y600299D1*
X4078225Y603218D1*
X4086847Y606070D1*
X4112713D1*
Y577351D2*
X4086847D1*
X4053994D2*
X4028194D1*
X4019572Y580270D1*
X4016654Y583122D1*
X4013802Y588825D1*
Y594596D1*
X4016654Y600299D1*
X4019572Y603218D1*
X4028194Y606070D1*
X4053994D1*
Y545782D1*
X4033898Y577351D2*
X4013802Y545782D1*
X3995275Y577351D2*
X3969475D1*
X3960853Y580270D1*
X3957935Y583122D1*
X3955083Y588825D1*
Y594596D1*
X3957935Y600299D1*
X3960853Y603218D1*
X3969475Y606070D1*
X3995275D1*
Y545782D1*
X3975179Y577351D2*
X3955083Y545782D1*
X3858139Y621788D2*
X3863909Y616084D1*
X3869613Y607462D1*
X3875383Y595988D1*
X3878235Y581596D1*
Y570122D1*
X3875383Y555796D1*
X3869613Y544322D1*
X3863909Y535700D1*
X3858139Y529997D1*
X3796568Y591744D2*
X3799420Y597447D1*
X3805190Y603218D1*
X3810894Y606070D1*
X3822368D1*
X3828138Y603218D1*
X3833842Y597447D1*
X3836760Y591744D1*
X3839612Y583122D1*
Y568729D1*
X3836760Y560174D1*
X3833842Y554404D1*
X3828138Y548700D1*
X3822368Y545782D1*
X3810894D1*
X3805190Y548700D1*
X3799420Y554404D1*
X3796568Y560174D1*
X3778041Y621788D2*
X3772271Y616084D1*
X3766567Y607462D1*
X3760797Y595988D1*
X3757945Y581596D1*
Y570122D1*
X3760797Y555796D1*
X3766567Y544322D1*
X3772271Y535700D1*
X3778041Y529997D1*
X3678178Y591677D2*
Y594529D1*
X3675326Y600299D1*
X3672475Y603151D1*
X3666704Y606003D1*
X3655230D1*
X3649527Y603151D1*
X3646675Y600299D1*
X3643756Y594529D1*
Y588825D1*
X3646675Y583055D1*
X3652379Y574500D1*
X3681097Y545782D1*
X3640905D1*
X3605133Y606003D2*
X3613755Y603151D1*
X3619526Y594529D1*
X3622377Y580203D1*
Y571581D1*
X3619526Y557255D1*
X3613755Y548633D1*
X3605133Y545782D1*
X3599430D1*
X3590808Y548633D1*
X3585104Y557255D1*
X3582185Y571581D1*
Y580203D1*
X3585104Y594529D1*
X3590808Y603151D1*
X3599430Y606003D1*
X3605133D1*
X3585104Y594529D2*
X3619526Y557255D1*
X3563658Y594529D2*
X3557888Y597447D1*
X3549266Y606003D1*
Y545782D1*
X3516413Y606003D2*
X3524969Y603151D1*
X3527887Y597447D1*
Y591677D1*
X3524969Y585974D1*
X3519265Y583055D1*
X3507791Y580203D1*
X3499169Y577351D1*
X3493465Y571581D1*
X3490613Y565878D1*
Y557255D1*
X3493465Y551552D1*
X3496317Y548633D1*
X3504939Y545782D1*
X3516413D1*
X3524969Y548633D1*
X3527887Y551552D1*
X3530739Y557255D1*
Y565878D1*
X3527887Y571581D1*
X3522117Y577351D1*
X3513561Y580203D1*
X3502087Y583055D1*
X3496317Y585974D1*
X3493465Y591677D1*
Y597447D1*
X3496317Y603151D1*
X3504939Y606003D1*
X3516413D1*
M02*
