G04 DipTrace 3.2.0.1*
G04 Bottom.gbr*
%MOIN*%
G04 #@! TF.FileFunction,Copper,L2,Bot*
G04 #@! TF.Part,Single*
%AMOUTLINE0*
4,1,4,
-0.038974,-0.002784,
0.002784,0.038974,
0.038974,0.002784,
-0.002784,-0.038974,
-0.038974,-0.002784,
0*%
%AMOUTLINE3*
4,1,4,
0.002784,-0.038974,
-0.038974,0.002784,
-0.002784,0.038974,
0.038974,-0.002784,
0.002784,-0.038974,
0*%
G04 #@! TA.AperFunction,Conductor*
%ADD10C,0.009843*%
%ADD13C,0.019685*%
%ADD14C,0.07874*%
%ADD15C,0.03937*%
%ADD16C,0.074803*%
%ADD17C,0.062992*%
G04 #@! TA.AperFunction,ComponentPad*
%ADD18C,0.070866*%
G04 #@! TA.AperFunction,Conductor*
%ADD19C,0.051181*%
%ADD20C,0.031496*%
%ADD21C,0.015748*%
%ADD22C,0.065748*%
%ADD23C,0.023622*%
G04 #@! TA.AperFunction,CopperBalancing*
%ADD24C,0.025*%
%ADD25R,0.051181X0.059055*%
%ADD26R,0.059055X0.051181*%
%ADD27R,0.074803X0.133858*%
G04 #@! TA.AperFunction,ComponentPad*
%ADD28R,0.094488X0.094488*%
%ADD29C,0.094488*%
%ADD30R,0.062992X0.070866*%
%ADD31R,0.106299X0.062992*%
G04 #@! TA.AperFunction,ComponentPad*
%ADD32R,0.11811X0.11811*%
%ADD33C,0.11811*%
%ADD34R,0.070866X0.070866*%
%ADD35C,0.094488*%
%ADD36R,0.086614X0.086614*%
%ADD37R,0.065748X0.073622*%
G04 #@! TA.AperFunction,ComponentPad*
%ADD38O,0.07874X0.11811*%
%ADD39R,0.07874X0.11811*%
%ADD40R,0.062992X0.031496*%
%ADD41R,0.1X0.15*%
%ADD42R,0.031496X0.062992*%
%ADD43R,0.073622X0.065748*%
%ADD44R,0.085827X0.06378*%
G04 #@! TA.AperFunction,ComponentPad*
%ADD45R,0.102362X0.102362*%
%ADD46C,0.102362*%
%ADD47O,0.11811X0.094488*%
%ADD48R,0.094488X0.137795*%
G04 #@! TA.AperFunction,ComponentPad*
%ADD49C,0.070866*%
%ADD50R,0.11811X0.19685*%
%ADD51R,0.314961X0.23622*%
%ADD52O,0.070866X0.086614*%
%ADD54R,0.041339X0.025591*%
%ADD55R,0.047244X0.070866*%
G04 #@! TA.AperFunction,ComponentPad*
%ADD56R,0.07874X0.102362*%
%ADD57R,0.19685X0.11811*%
%ADD58O,0.051181X0.086614*%
%ADD59R,0.051181X0.023622*%
%ADD60R,0.094488X0.122047*%
%ADD62R,0.043307X0.023622*%
G04 #@! TA.AperFunction,ComponentPad*
%ADD63O,0.059055X0.098425*%
%ADD64R,0.07874X0.023622*%
%ADD65R,0.047244X0.023622*%
%ADD66R,0.070866X0.015748*%
G04 #@! TA.AperFunction,ViaPad*
%ADD67C,0.059055*%
%ADD147OUTLINE0*%
%ADD150OUTLINE3*%
%FSLAX26Y26*%
G04*
G70*
G90*
G75*
G01*
G04 Bottom*
%LPD*%
X3618701Y3093701D2*
D13*
X3518701D1*
X3315354Y1255020D2*
D10*
X3380020D1*
X3393701Y1268701D1*
Y1543701D1*
X3418701Y1568701D1*
Y1768701D1*
X3468701Y1818701D1*
X3668701D1*
X3743701Y1893701D1*
Y2218701D1*
X3843701Y2318701D1*
Y2743701D1*
X3893701Y2793701D1*
Y3056201D1*
X3881201Y3068701D1*
X3768701D1*
X3743701Y3093701D1*
X3618701D1*
X2293701Y1343701D2*
D13*
Y1243701D1*
X1943701Y1268701D2*
X1868701D1*
X1893701Y1343701D2*
Y1368701D1*
X1869685Y1392717D1*
Y1443701D1*
X1893701Y1343701D2*
Y1318701D1*
X1868701Y1293701D1*
Y1268701D1*
X2018701Y1868701D2*
Y1868504D1*
X1943701D1*
X1868701D1*
X1818701D1*
X1768701D1*
X2093701Y1193898D2*
X2018701D1*
X1943701D1*
X1868701D1*
X1818701D1*
X1768701D1*
X1832185Y1561811D2*
D10*
Y1382185D1*
D13*
X1818701Y1368701D1*
Y1193898D1*
Y1868504D2*
Y1643701D1*
X1832185Y1630217D1*
Y1561811D1*
X1468701Y1743701D2*
X1543504D1*
X1543701Y1743504D1*
X1593504D1*
X1718701Y1868701D1*
X1768504D1*
X1693701Y1268701D2*
X1768701D1*
X1543701D2*
X1618504D1*
X1618701Y1268898D1*
X1693504D1*
X1693701Y1268701D1*
X1293701Y2014370D2*
Y1368701D1*
X1393701Y1268701D1*
X1543701D1*
X1793699Y1443701D2*
Y1393699D1*
X1781201Y1381201D1*
Y1268701D1*
X1768701D1*
X2018701D2*
X2093701D1*
X1945668Y1443701D2*
Y1391734D1*
X2018701Y1318701D1*
Y1268701D1*
X2093701D2*
X2118701D1*
X2143701Y1243701D1*
Y1143701D1*
X1718701D1*
X1693701Y1168701D1*
Y1193898D1*
X893701Y1518701D2*
D14*
X843701D1*
X693701Y1368701D1*
X543701D1*
X493701Y1318701D1*
Y1118701D1*
X893681Y718720D1*
X1018701D1*
X2343701Y1043701D2*
D15*
Y1143701D1*
X2368701Y1168701D1*
Y1243504D1*
X2368504Y1243701D1*
X2368701D2*
Y1443701D1*
X2293701Y1518701D1*
Y1555215D1*
X2287105Y1561811D1*
X1018701Y718720D2*
D14*
Y593701D1*
X1118701Y493701D1*
X1943701D1*
X2343701Y893701D1*
D16*
Y1043701D1*
X1293701Y968701D2*
D13*
X1243701D1*
X1043701Y768701D1*
Y743720D1*
X1018701Y718720D1*
Y993681D2*
D14*
Y1143701D1*
X1093701Y1218701D1*
Y1318701D1*
X2190157Y1043701D2*
X2118701D1*
X2093701Y1068701D1*
X1918701D1*
X1818701D1*
X1762184D1*
X1443701D1*
X1418701Y1093701D1*
X1143701D1*
X1043681Y993681D1*
X1018701D1*
X2190157Y1043701D2*
D15*
Y1297244D1*
X2097635Y1389766D1*
Y1443701D1*
Y1489766D1*
X2068701Y1518701D1*
Y1561811D1*
X2060135D1*
X1818701Y1043504D2*
D13*
Y1068701D1*
X1618701D2*
X1762184D1*
X1918701Y1043701D2*
Y1068701D1*
X2060135Y1561811D2*
D15*
Y1660135D1*
X2218701Y1818701D1*
Y1868701D1*
X543701Y2043701D2*
D14*
Y1818701D1*
X493701Y1768701D1*
X643701Y1518701D2*
X543701Y1618701D1*
Y1718701D1*
X493701Y1768701D1*
X1193701Y2993701D2*
X1043701Y2843701D1*
Y2768701D1*
X1081199Y2731202D1*
Y2718701D1*
X1043701Y2443701D2*
Y2668701D1*
X1081199Y2706199D1*
Y2718701D1*
X543701Y2443701D2*
Y2668701D1*
X493701Y2718701D1*
X568701Y2793701D1*
X718701D1*
X868701Y2943701D1*
X1527559Y1493701D2*
D13*
Y1527559D1*
X1543701Y1543701D1*
Y1593701D1*
X2173621Y1561811D2*
D15*
Y1648621D1*
X2268848Y1743848D1*
X2343701Y1818701D1*
Y1943701D1*
X2318701Y1968701D1*
Y2043701D1*
X2293701Y1718701D2*
D13*
Y1718994D1*
X2268848Y1743848D1*
X2468701Y1618701D2*
X2393701D1*
X2346595Y1665807D1*
X2211122Y1443701D2*
X2218701D1*
Y1618701D1*
X2256201Y1656201D1*
X2331201D1*
X2340807Y1665807D1*
X2346595D1*
X2468701Y918701D2*
Y1468701D1*
X1737499Y793701D2*
X1768701D1*
X1868701Y893701D1*
Y868701D1*
Y893701D2*
X1918701Y943701D1*
X1893701D1*
X1868701Y968701D1*
X1818701D1*
X1718701D2*
X1818701D1*
X1918701Y943701D2*
X1968701D1*
X1993701Y918701D1*
X2068701D1*
X1943701Y1793701D2*
X2018701D1*
X1984151Y1561811D2*
Y1603251D1*
X1943701Y1643701D1*
Y1793701D1*
X1518701Y2043701D2*
D15*
Y1943701D1*
Y1868701D2*
Y2043701D1*
X1618504Y1593701D2*
D13*
Y1493504D1*
X1618701D1*
X1737451Y1693701D2*
X1718504D1*
X1618504Y1593701D1*
X1393701Y2014370D2*
Y1743898D1*
X1393898Y1743701D1*
Y1668898D1*
X1393701Y1668701D1*
Y1493701D1*
X1618701Y1418701D2*
Y1343504D1*
X1543701D1*
X1618504D2*
X1618701Y1343701D1*
X1293701Y818701D2*
X1318701D1*
X1393701Y743701D1*
X1506299Y968701D2*
Y918701D1*
Y868701D1*
Y818701D1*
Y918701D2*
X1618701D1*
Y793701D2*
Y918701D1*
X1506299Y818701D2*
Y697323D1*
X1502677Y693701D1*
X1293701Y668701D2*
X1393504D1*
X1393701Y668898D1*
X1418898D1*
X1443701Y693701D1*
X1502677D1*
X1218701Y693504D2*
Y743504D1*
Y843701D1*
X1243701Y868701D1*
X1293701D1*
Y743504D2*
X1218701D1*
X1843701Y3043701D2*
X1668701D1*
X1618701Y2993701D1*
Y2893701D1*
X1543701Y2818701D1*
X1443504D1*
X1843701Y3043701D2*
D17*
X1918701D1*
X1993701D1*
X2086220D1*
D14*
X2181201D1*
X2218701Y3006201D1*
Y2881201D1*
X2256201Y2843701D1*
X2393701D1*
X2418708Y2868708D1*
X2493701D1*
X2643695D1*
X1918701Y3168701D2*
Y3068701D1*
D17*
X1943701Y3043701D1*
X1993701D1*
X2831102Y2818699D2*
D15*
X2718701D1*
Y2818701D1*
X2693702D1*
X2643695Y2868708D1*
X2493701Y2993701D2*
D13*
Y2868708D1*
X4143661Y1768898D2*
X4143504D1*
X4068701Y1843701D1*
X4037362D1*
X3818701Y1868701D2*
D14*
Y2043701D1*
X4037362Y1843701D2*
D13*
X4018701D1*
X3993701Y1868701D1*
X3943701D1*
X3818701D2*
D18*
X3893504D1*
D19*
X3943701D1*
X3893701Y1443701D2*
D10*
X3718701D1*
X3543701Y1280610D2*
X3605610D1*
X3643701Y1318701D1*
Y1368701D1*
X3718701Y1443701D1*
X1043701Y2043701D2*
D14*
Y1806199D1*
X1081199Y1768701D1*
X1093701Y1518701D2*
Y1756199D1*
X1081199Y1768701D1*
X1768701Y2668701D2*
D13*
X1793701D1*
X1818701Y2693701D1*
X1908465D1*
X1918701Y2703937D1*
X2068701Y2668701D2*
X2043701D1*
X2018701Y2693701D1*
X1928937D1*
X1918701Y2703937D1*
X1368701Y2718701D2*
X1468701D1*
X1493701Y2743701D1*
X1843701D1*
X1883465Y2703937D1*
X1918701D1*
X4418701Y784843D2*
Y718898D1*
X4418898Y718701D1*
Y652756D1*
X4418701Y652559D1*
X5168701Y3168701D2*
D14*
X5318701D1*
X5368701D1*
Y3168552D1*
X3543701Y1306201D2*
D10*
Y1493701D1*
X3968504Y1443701D2*
D13*
Y1368701D1*
Y1293898D1*
X3968701Y1293701D1*
Y1218898D1*
X3968504Y1218701D1*
X4293701Y3168701D2*
D15*
Y3078937D1*
X4303937Y3068701D1*
Y2968701D2*
Y3068701D1*
X4293701Y3168701D2*
X4418701D1*
X4543701Y3143701D2*
X4493700D1*
X4468701Y3168701D1*
X4418701D1*
X4543701Y3143701D2*
X4693701D1*
Y3143700D1*
X4793701D1*
X4893701Y3143701D2*
D20*
X4833268D1*
D15*
Y3143700D1*
X4793701D1*
X5293701Y3168701D2*
D14*
X5318701D1*
X5443701D2*
Y3168552D1*
X5368701D1*
X3315354Y1178248D2*
D21*
X3153051D1*
D13*
X3143701Y1168898D1*
X2993701D1*
X2779524Y866043D2*
Y930176D1*
X2843049Y993701D1*
X2993701Y1144353D1*
Y1168898D1*
X2818701Y1281102D2*
X2862450D1*
Y1362647D1*
X2893504Y1393701D1*
X2993504D1*
X2993701Y1393504D1*
Y1168898D2*
X2893504D1*
X2862450Y1199951D1*
Y1281102D1*
X3968504Y1093701D2*
Y1018701D1*
Y1093701D2*
X4043701D1*
X4043898Y1018701D2*
Y1093504D1*
X2918701Y1793701D2*
D15*
Y1618701D1*
Y1518701D1*
Y1443701D1*
X2893504Y1418504D1*
Y1393701D1*
X4279524Y866043D2*
D13*
Y957878D1*
X4143701Y1093701D1*
X4043701D1*
X4279524Y866043D2*
Y757878D1*
X4318701Y718701D1*
X4418898D1*
X2918701Y1631201D2*
D15*
Y1618701D1*
X3943701Y1718701D2*
D13*
Y1643701D1*
X3968504Y1618898D1*
Y1518701D1*
Y1443701D1*
X3543701Y1493701D2*
X3643701D1*
X3668701Y1518701D1*
X3968504D1*
X3468701Y1593898D2*
X3543701D1*
X3543898Y1593701D1*
X3543701Y1493701D2*
Y1593504D1*
X4668701Y3168701D2*
Y3143700D1*
X4693701D1*
X3068898Y1393701D2*
X2993898D1*
X2843701Y993701D2*
X2843049D1*
X4043898Y1018701D2*
D10*
Y956398D1*
X4031201Y943701D1*
Y818701D1*
X4006201Y793701D1*
X3918701D1*
X3881201Y831201D1*
Y864366D1*
X3879524Y866043D1*
X3043701Y2818699D2*
D13*
X2962403D1*
X2937402Y2843701D1*
X1868701D2*
X1921056D1*
X1968701D1*
X1921056D2*
Y2706293D1*
X1918701Y2703937D1*
X2906201Y2893701D2*
Y2843701D1*
Y2793701D1*
Y2843701D2*
X2937402D1*
X2968701Y2893701D2*
Y2843701D1*
Y2793701D1*
Y2843701D2*
X2937402D1*
X5068701Y3168701D2*
D14*
Y3090945D1*
D22*
Y3018701D1*
X3893898Y1293701D2*
D10*
Y1218898D1*
X3893701Y1218701D1*
X3543701Y1178248D2*
X3753248D1*
X3793701Y1218701D1*
X3893701D1*
X4037362Y1768898D2*
X4043701D1*
Y1193701D1*
X4018701Y1168701D1*
X3918701D1*
X3893701Y1193701D1*
Y1218701D1*
X1393701Y2368701D2*
D13*
Y2393701D1*
X1368701Y2418701D1*
Y2468701D1*
Y2593701D1*
X1293701Y2368701D2*
Y2593701D1*
X1293898D1*
Y2743898D1*
X1368701Y2818701D1*
X1718701Y693701D2*
X1643701D1*
X1568701Y618701D1*
X1218701D1*
X1718701Y693701D2*
X1768701D1*
X1793701Y718701D1*
X1868701D1*
X2318701Y2943701D2*
D14*
Y3093701D1*
X2243701Y3168701D1*
X2095472D1*
D16*
X2018701D1*
X1518701Y2943701D2*
D14*
Y3093701D1*
X1593701Y3168701D1*
X1741929D1*
D16*
X1818701D1*
X5218701Y3018701D2*
D15*
X5368701Y3018552D1*
X1668701Y2668701D2*
D13*
Y2643701D1*
X1718701Y2593701D1*
X1918701D1*
X2168701Y2668701D2*
Y2643701D1*
X2118701Y2593701D1*
X1918701D1*
D15*
X1993701Y2518701D1*
X2418701D1*
X2468701Y2468701D1*
Y2218701D1*
X2668701Y2018701D1*
Y1793701D1*
X3543701Y1255020D2*
D10*
X3717382D1*
X3718701Y1253701D1*
Y1243701D1*
X3843701Y1368701D1*
X3893701D1*
X2093504Y1793701D2*
D13*
Y1868701D1*
X1628937Y1943701D2*
X2068701D1*
X2093504Y1918898D1*
Y1868701D1*
X1718701Y1368701D2*
X1718699Y1561811D1*
Y1581199D1*
X1781201Y1643701D1*
Y1793701D1*
X1768701D1*
X3543701Y1229429D2*
D10*
X3482972D1*
X3443701Y1268701D1*
Y1493701D1*
X3315354Y1306201D2*
Y1440354D1*
X3343701Y1468701D1*
Y1493701D1*
X3315354Y1280610D2*
X3269291D1*
X3243701Y1306201D1*
Y1493701D1*
X3143701Y1243701D2*
D13*
Y1243504D1*
X2993898D1*
X2993701Y1243701D1*
X3543701Y1203839D2*
D21*
X3498425D1*
D13*
X3360630D1*
D21*
X3315354D1*
X3233563D1*
X3193701Y1243701D1*
X3143701D1*
X2909252D2*
D13*
X2993701D1*
X3218701Y1668701D2*
D10*
X3293701D1*
X3143701Y1243701D2*
Y1293701D1*
X3106201Y1331201D1*
Y1606201D1*
X3168701Y1668701D1*
X3218701D1*
X2879524Y866043D2*
D13*
Y832878D1*
X2943701Y768701D1*
X4118701D1*
X4168701Y818701D1*
Y866043D1*
X4179524D1*
X2818701Y1318504D2*
Y1393701D1*
X2879524Y866043D2*
Y829524D1*
X2818701Y768701D1*
X2743701D1*
X2718701Y793701D1*
Y1243701D1*
Y1368701D1*
X2743701Y1393701D1*
X2818701D1*
Y1518701D2*
D15*
Y1393701D1*
Y1243701D2*
D13*
X2718701D1*
X2909252Y1318504D2*
X2993504D1*
X2993701Y1318701D1*
X3315354Y1127067D2*
D10*
X3239567D1*
X3193701Y1081201D1*
X3131201D1*
X2981201Y931201D1*
Y867720D1*
X2979524Y866043D1*
X3315354Y1101476D2*
X3251476D1*
X3081201Y931201D1*
Y867720D1*
X3079524Y866043D1*
X3315346Y1075886D2*
Y1065346D1*
X3181201Y931201D1*
Y866043D1*
X3179524D1*
X3543701Y1075886D2*
X3425886D1*
X3281201Y931201D1*
Y867720D1*
X3279524Y866043D1*
X3543701Y1101476D2*
X3610925D1*
X3781201Y931201D1*
Y867720D1*
X3779524Y866043D1*
X3543701Y1127067D2*
X3672835D1*
X3831201Y968701D1*
X3943701D1*
X3981201Y931201D1*
Y867720D1*
X3979524Y866043D1*
X3543701Y1152657D2*
X3759744D1*
X3818701Y1093701D1*
X3893701D1*
Y1018701D1*
X4243701Y1768701D2*
X4218701D1*
X4068701Y1618701D1*
Y1168701D1*
X4043701Y1143701D1*
X3918701D1*
X3893701Y1118701D1*
Y1093701D1*
X4079524Y866043D2*
Y929524D1*
X4118701Y968701D1*
Y1018701D1*
X2831102Y2768701D2*
D13*
Y2731299D1*
X2868701Y2693701D1*
X3068701Y2518701D2*
D14*
X3143701D1*
X3068701D2*
Y2643701D1*
D18*
Y2693701D1*
D15*
Y2718701D1*
X3043701Y2743701D1*
Y2768701D1*
X3693701Y2718701D2*
Y2868701D1*
D13*
X3756299D1*
X3831299Y2943701D1*
X3693701Y2493701D2*
D15*
Y2718701D1*
X3018701Y1793701D2*
Y1518701D1*
Y1793701D2*
X3093701Y1868701D1*
X3643701D1*
X3706201Y1931201D1*
Y2343701D1*
X3693701Y2356201D1*
Y2493701D1*
X2768701Y1793701D2*
Y1818701D1*
X2818701Y1868701D1*
X2968701D1*
X3018701Y1818701D1*
Y1793701D1*
X3831299Y3043701D2*
D23*
X3743701D1*
D15*
X3718701Y3018701D1*
Y2918701D1*
X3693701Y2893701D1*
Y2868701D1*
X1768701Y2802559D2*
D13*
X1718701D1*
X1668701D1*
X1718701D2*
Y2943701D1*
X2068701Y2802559D2*
X2118701D1*
X2168701D1*
X2118701D2*
Y2943701D1*
X3831299Y3093701D2*
X3793701D1*
X3768701Y3118701D1*
Y3168701D1*
X3993504D2*
X4093701D1*
X4193701D2*
D15*
Y3068701D1*
Y2968701D2*
Y3068701D1*
X4118504D1*
Y2968701D2*
X4193701D1*
X3993701Y2493701D2*
Y2668701D1*
X4193701Y2868701D1*
Y2968701D1*
X5018701Y568701D2*
D14*
X5343701D1*
X5393701Y518701D1*
X5543701D1*
X4928937Y693701D2*
D13*
X4918701D1*
X4899950Y712451D1*
Y1068701D1*
X4928937Y693701D2*
Y683465D1*
X5018701Y593701D1*
Y568701D1*
X4143661Y1843701D2*
Y1918661D1*
X4143701Y1918701D1*
X4243701Y1843504D2*
Y1918701D1*
Y2493701D2*
D14*
Y2318701D1*
X4193701Y2268701D1*
Y2168701D1*
X4194983Y2167419D1*
D19*
X4243701Y2118701D1*
X4793701Y2993700D2*
D15*
X4668701Y2993701D1*
X4543701D1*
X4793701Y2993700D2*
X4868700D1*
X4968701Y3093701D1*
Y3168701D1*
X4893701Y3009843D2*
D13*
Y2993700D1*
X4868700D1*
X4543701Y2993701D2*
D15*
X4518701D1*
X4493701Y2968701D1*
X4443701D1*
X4668701Y2993701D2*
D13*
D3*
X3543898Y1668701D2*
X3468701D1*
X4718701Y518701D2*
X4643701D1*
X4418701D2*
X4643701D1*
X3868701Y1593701D2*
X3818701D1*
X3743701Y1668701D1*
X3693701D1*
X3618701D1*
Y1593701D1*
X3518701Y2468504D2*
Y2568701D1*
X3418701Y2918701D2*
X3518701Y2818701D1*
Y2568701D2*
Y2643701D1*
Y2818701D1*
X3268701Y2868701D2*
Y2893701D1*
X3243702Y2918699D1*
X3043701D1*
X3268701Y2868701D2*
X3343701D1*
Y2893701D1*
X3368701Y2918701D1*
X3418701D1*
X3518701Y2643701D2*
D3*
X4418701Y918701D2*
X4643701D1*
X4718701D1*
X4643701Y784843D2*
Y718898D1*
X4643504Y718701D1*
Y652756D1*
X4643701Y652559D1*
X4368701Y1593701D2*
X4868701D1*
X4899950Y1562451D1*
Y1143504D1*
X4043701Y3068701D2*
D15*
Y2968701D1*
X3943701D1*
X3593701Y2043701D2*
D14*
X2768701D1*
X2668701Y2143701D1*
Y2243701D1*
X2943701D1*
X2968701Y2268701D1*
X3143701D1*
X3343701Y2643701D2*
D13*
X3443898D1*
X2668701Y2243701D2*
X2793701Y2118701D1*
X3418701D1*
X3443701Y2143701D1*
Y2168898D1*
Y2643504D1*
X3443898Y2643701D1*
X3518701Y2168898D2*
X3443701D1*
X2831102Y2918701D2*
X2743701D1*
X643701Y1218701D2*
D14*
X793701D1*
X893701Y1318701D1*
X4493701Y718701D2*
D13*
X4568701D1*
X4493701D2*
D10*
Y643701D1*
X4443701Y593701D1*
X4318701D1*
X4168701Y743701D1*
X2718701D1*
X2693701Y768701D1*
Y1393701D1*
X2718701Y1418701D1*
Y1843701D1*
X2793701Y1918701D1*
X3618701D1*
X3668701Y1968701D1*
Y2218701D1*
X3593701Y2293701D1*
Y2343701D1*
X3543701Y2393701D1*
X3518701D1*
X4818701Y918701D2*
D13*
Y693701D1*
Y518701D1*
X3343701Y2718504D2*
X3418504D1*
X3418701Y2718701D1*
X1193701Y3143701D2*
D18*
X1018701D1*
D14*
X868701D1*
X2943701Y993701D2*
D10*
X2993701Y1043701D1*
X3315354Y1152657D2*
X3227657D1*
X3193701Y1118701D1*
X3068701D1*
X3046595Y1096595D1*
X3918701Y3168701D2*
D13*
X3843504D1*
X3518701Y2318701D2*
Y2243701D1*
X1908168Y1561811D2*
Y1604234D1*
X1868701Y1643701D1*
Y1693701D1*
Y1793701D1*
X1866388Y1693701D2*
X1868701D1*
X3193504Y2868701D2*
Y2793898D1*
X3193701Y2793701D1*
X3043701Y2868701D2*
X3118701D1*
X1468504Y1668701D2*
X1543701D1*
X3315354Y1229429D2*
D10*
X3257972D1*
X3143701Y1343701D1*
Y1393701D1*
X3218701Y1593898D2*
X3340748D1*
X3378150Y1631299D1*
X3143701Y1393701D2*
Y1568701D1*
X3168701Y1593701D1*
X3218504D1*
X3218701Y1593898D1*
D67*
X2968701Y2893701D3*
X2906201D3*
Y2843701D3*
X2968701D3*
X4418701Y3168701D3*
X4043701Y1093701D3*
X5293701Y3168701D3*
X5443701D3*
X3618701Y2793701D3*
X2906201D3*
X2918701Y1631201D3*
X3943701Y1718701D3*
X4393701Y2018701D3*
X2968701Y2793701D3*
X1868701Y2843701D3*
X1968701D3*
X5508709Y2006332D2*
D24*
X5603718D1*
X5508709Y1981463D2*
X5603718D1*
X5508709Y1956594D2*
X5603718D1*
X5508709Y1931726D2*
X5603718D1*
X5508709Y1906857D2*
X5603718D1*
X5508709Y1881988D2*
X5603718D1*
X5508709Y1857119D2*
X5603718D1*
X5508709Y1832251D2*
X5603718D1*
X5501496Y1807382D2*
X5603718D1*
X5133719Y1782513D2*
X5603718D1*
X5133719Y1757644D2*
X5603718D1*
X5133719Y1732776D2*
X5603718D1*
X5133719Y1707907D2*
X5603718D1*
X5133719Y1683038D2*
X5603718D1*
X5133719Y1658169D2*
X5603718D1*
X5133719Y1633301D2*
X5603718D1*
X5133719Y1608432D2*
X5603718D1*
X5133719Y1583563D2*
X5603718D1*
X5133719Y1558694D2*
X5603718D1*
X5133719Y1533825D2*
X5603718D1*
X5133719Y1508957D2*
X5603718D1*
X5133719Y1484088D2*
X5603718D1*
X5133719Y1459219D2*
X5603718D1*
X5133719Y1434350D2*
X5603718D1*
X5133719Y1409482D2*
X5603718D1*
X5133719Y1384613D2*
X5453686D1*
X5133719Y1359744D2*
X5453686D1*
X5133719Y1334875D2*
X5453686D1*
X5133719Y1310007D2*
X5453686D1*
X5493665Y1806201D2*
X5131181D1*
X5131201Y1306167D1*
X5456192Y1306201D1*
X5456354Y1395656D1*
X5457152Y1398484D1*
X5458588Y1401049D1*
X5460583Y1403206D1*
X5463026Y1404839D1*
X5465782Y1405856D1*
X5468705Y1406201D1*
X5606173D1*
X5606201Y2031184D1*
X5506203Y2031201D1*
X5506047Y1816745D1*
X5505249Y1813917D1*
X5503814Y1811353D1*
X5501819Y1809196D1*
X5499375Y1807563D1*
X5496619Y1806546D1*
X5493697Y1806201D1*
X5483697Y2706332D2*
X5603718D1*
X5483697Y2681463D2*
X5603718D1*
X5483697Y2656594D2*
X5603718D1*
X5483697Y2631726D2*
X5603718D1*
X5483697Y2606857D2*
X5603718D1*
X5483697Y2581988D2*
X5603718D1*
X5483697Y2557119D2*
X5603718D1*
X5483697Y2532251D2*
X5603718D1*
X5483697Y2507382D2*
X5603718D1*
X5476772Y2482513D2*
X5603718D1*
X5133719Y2457644D2*
X5603718D1*
X5133719Y2432776D2*
X5603718D1*
X5133719Y2407907D2*
X5603718D1*
X5133719Y2383038D2*
X5603718D1*
X5133719Y2358169D2*
X5603718D1*
X5133719Y2333301D2*
X5603718D1*
X5133719Y2308432D2*
X5603718D1*
X5133719Y2283563D2*
X5603718D1*
X5133719Y2258694D2*
X5603718D1*
X5133719Y2233825D2*
X5603718D1*
X5133719Y2208957D2*
X5603718D1*
X5133719Y2184088D2*
X5603718D1*
X5133719Y2159219D2*
X5603718D1*
X5133719Y2134350D2*
X5603718D1*
X5133719Y2109482D2*
X5603718D1*
X5133719Y2084613D2*
X5453686D1*
X5133719Y2059744D2*
X5453686D1*
X5133719Y2034875D2*
X5453686D1*
X5133719Y2010007D2*
X5453686D1*
X5133719Y1985138D2*
X5453686D1*
X5468665Y2481201D2*
X5131210D1*
X5131201Y1981167D1*
X5456192Y1981201D1*
X5456354Y2095656D1*
X5457152Y2098484D1*
X5458588Y2101049D1*
X5460583Y2103206D1*
X5463026Y2104839D1*
X5465782Y2105856D1*
X5468705Y2106201D1*
X5606173D1*
X5606201Y2731184D1*
X5481228Y2731201D1*
X5481163Y2492720D1*
X5480589Y2489839D1*
X5479358Y2487169D1*
X5477539Y2484862D1*
X5475232Y2483043D1*
X5472563Y2481812D1*
X5469681Y2481239D1*
X5468697Y2481201D1*
X5508705Y1306332D2*
X5603714D1*
X5508705Y1281463D2*
X5603714D1*
X5508705Y1256594D2*
X5603714D1*
X5508705Y1231726D2*
X5603714D1*
X5508705Y1206857D2*
X5603714D1*
X5508705Y1181988D2*
X5603714D1*
X5508705Y1157119D2*
X5603714D1*
X5501205Y1132251D2*
X5603714D1*
X5127542Y1107382D2*
X5603714D1*
X5102675Y1082513D2*
X5603714D1*
X5077807Y1057644D2*
X5603714D1*
X5052940Y1032776D2*
X5603714D1*
X5028072Y1007907D2*
X5603714D1*
X5003203Y983038D2*
X5603714D1*
X4983719Y958169D2*
X5603714D1*
X4983719Y933301D2*
X5603714D1*
X4983719Y908432D2*
X5603714D1*
X4983719Y883563D2*
X5603714D1*
X5508705Y858694D2*
X5603714D1*
X5508705Y833825D2*
X5603714D1*
X5508705Y808957D2*
X5603714D1*
X5508705Y784088D2*
X5603714D1*
X5493665Y1131201D2*
X5148890D1*
X4981192Y963514D1*
X4981201Y881180D1*
X5494681Y881163D1*
X5497563Y880589D1*
X5500232Y879358D1*
X5502539Y877539D1*
X5504358Y875232D1*
X5505589Y872563D1*
X5506163Y869681D1*
X5506201Y781180D1*
X5606198Y781201D1*
X5606201Y1331185D1*
X5506203Y1331201D1*
X5506047Y1141745D1*
X5505249Y1138917D1*
X5503814Y1136353D1*
X5501819Y1134196D1*
X5499375Y1132563D1*
X5496619Y1131546D1*
X5493697Y1131201D1*
X5133719Y3206332D2*
X5703692D1*
X5133898Y3181463D2*
X5703692D1*
X5133898Y3156594D2*
X5703692D1*
X5133898Y3131726D2*
X5703692D1*
X5133898Y3106857D2*
X5703692D1*
X5133719Y3081988D2*
X5291669D1*
X5445732D2*
X5703692D1*
X5483697Y3057119D2*
X5703692D1*
X5483697Y3032251D2*
X5703692D1*
X5483697Y3007382D2*
X5703692D1*
X5483697Y2982513D2*
X5703692D1*
X5483697Y2957644D2*
X5703692D1*
X5483697Y2932776D2*
X5710114D1*
X5483697Y2907907D2*
X5803701D1*
X5483697Y2883038D2*
X5803701D1*
X5483697Y2858169D2*
X5803701D1*
X5483697Y2833301D2*
X5803701D1*
X5483697Y2808432D2*
X5803701D1*
X5483697Y2783563D2*
X5803701D1*
X5708692Y2758694D2*
X5803701D1*
X5708692Y2733825D2*
X5803701D1*
X5708692Y2708957D2*
X5803701D1*
X5708692Y2684088D2*
X5803701D1*
X5708692Y2659219D2*
X5803701D1*
X5708692Y2634350D2*
X5803701D1*
X5708692Y2609482D2*
X5803701D1*
X5708692Y2584613D2*
X5803701D1*
X5708692Y2559744D2*
X5803701D1*
X5708692Y2534875D2*
X5803701D1*
X5708692Y2510007D2*
X5803701D1*
X5708692Y2485138D2*
X5803701D1*
X5708692Y2460269D2*
X5803701D1*
X5708692Y2435400D2*
X5803701D1*
X5708692Y2410531D2*
X5803701D1*
X5708692Y2385663D2*
X5803701D1*
X5708692Y2360794D2*
X5803701D1*
X5708692Y2335925D2*
X5803701D1*
X5708692Y2311056D2*
X5803701D1*
X5708692Y2286188D2*
X5803701D1*
X5708692Y2261319D2*
X5803701D1*
X5708692Y2236450D2*
X5803701D1*
X5708692Y2211581D2*
X5803701D1*
X5708692Y2186713D2*
X5803701D1*
X5708692Y2161844D2*
X5803701D1*
X5708692Y2136975D2*
X5803701D1*
X5708692Y2112106D2*
X5803701D1*
X5708692Y2087238D2*
X5803701D1*
X5708692Y2062369D2*
X5803701D1*
X5708692Y2037500D2*
X5803701D1*
X5708692Y2012631D2*
X5803701D1*
X5708692Y1987762D2*
X5803701D1*
X5708692Y1962894D2*
X5803701D1*
X5708692Y1938025D2*
X5803701D1*
X5708692Y1913156D2*
X5803701D1*
X5708692Y1888287D2*
X5803701D1*
X5708692Y1863419D2*
X5803701D1*
X5708692Y1838550D2*
X5803701D1*
X5708692Y1813681D2*
X5803701D1*
X5708692Y1788812D2*
X5803701D1*
X5708692Y1763944D2*
X5803701D1*
X5708692Y1739075D2*
X5803701D1*
X5708692Y1714206D2*
X5803701D1*
X5708692Y1689337D2*
X5803701D1*
X5708692Y1664469D2*
X5803701D1*
X5708692Y1639600D2*
X5803701D1*
X5708692Y1614731D2*
X5803701D1*
X5708692Y1589862D2*
X5803701D1*
X5708692Y1564993D2*
X5803701D1*
X5708692Y1540125D2*
X5803701D1*
X5708692Y1515256D2*
X5803701D1*
X5708692Y1490387D2*
X5803701D1*
X5708692Y1465518D2*
X5803701D1*
X5708692Y1440650D2*
X5803701D1*
X5708692Y1415781D2*
X5803701D1*
X5708692Y1390912D2*
X5803701D1*
X5708692Y1366043D2*
X5803701D1*
X5708692Y1341175D2*
X5803701D1*
X5708692Y1316306D2*
X5803701D1*
X5708692Y1291437D2*
X5803701D1*
X5708692Y1266568D2*
X5803701D1*
X5708692Y1241699D2*
X5803701D1*
X5708692Y1216831D2*
X5803701D1*
X5708692Y1191962D2*
X5803701D1*
X5708692Y1167093D2*
X5803701D1*
X5708692Y1142224D2*
X5803701D1*
X5708692Y1117356D2*
X5803701D1*
X5708692Y1092487D2*
X5803701D1*
X5708692Y1067618D2*
X5803701D1*
X5708692Y1042749D2*
X5803701D1*
X5708692Y1017881D2*
X5803701D1*
X5708692Y993012D2*
X5803701D1*
X5708692Y968143D2*
X5803701D1*
X5708692Y943274D2*
X5803701D1*
X5708692Y918406D2*
X5803701D1*
X5708692Y893537D2*
X5803701D1*
X5708692Y868668D2*
X5803701D1*
X5708692Y843799D2*
X5803701D1*
X5708692Y818930D2*
X5798748D1*
X5689241Y794062D2*
X5773881D1*
X5664374Y769193D2*
X5749013D1*
X5639507Y744324D2*
X5724146D1*
X5614639Y719455D2*
X5699277D1*
X5508709Y694587D2*
X5674409D1*
X5508709Y669718D2*
X5649542D1*
X5508709Y644849D2*
X5624675D1*
X5131199Y3193478D2*
X5131413Y3179199D1*
Y3090945D1*
X5131199Y3085853D1*
X5137073Y3081201D1*
X5294210D1*
X5294177Y3093049D1*
X5443224D1*
Y3081171D1*
X5470656Y3081047D1*
X5473484Y3080249D1*
X5476049Y3078814D1*
X5478206Y3076819D1*
X5479839Y3074375D1*
X5480856Y3071619D1*
X5481201Y3068697D1*
Y2781232D1*
X5694681Y2781163D1*
X5697563Y2780589D1*
X5700232Y2779358D1*
X5702539Y2777539D1*
X5704358Y2775232D1*
X5705589Y2772563D1*
X5706163Y2769681D1*
X5706201Y818701D1*
X5705856Y815782D1*
X5704839Y813026D1*
X5703206Y810583D1*
X5601819Y709196D1*
X5599375Y707563D1*
X5596619Y706546D1*
X5593697Y706201D1*
X5506180D1*
X5506201Y631180D1*
X5613537Y631201D1*
X5806196Y823874D1*
X5806201Y2931167D1*
X5716745Y2931354D1*
X5713917Y2932152D1*
X5711353Y2933588D1*
X5709196Y2935583D1*
X5707563Y2938026D1*
X5706546Y2940782D1*
X5706201Y2943701D1*
Y3231169D1*
X5131169Y3231201D1*
X5131201Y3193571D1*
X4733719Y2743832D2*
X5278715D1*
X5038627Y2718963D2*
X5278715D1*
X5063495Y2694094D2*
X5278715D1*
X5088362Y2669226D2*
X5278715D1*
X5281177Y2768701D2*
X4736383D1*
X4731202Y2763524D1*
X4731201Y2731202D1*
X5020656Y2731047D1*
X5023484Y2730249D1*
X5026049Y2728814D1*
X5034035Y2721043D1*
X5098866Y2656214D1*
X5281196Y2656201D1*
X5281201Y2768685D1*
X5026528Y3056332D2*
X5078692D1*
X5001623Y3031463D2*
X5078692D1*
X4976756Y3006594D2*
X5078692D1*
X4951888Y2981726D2*
X5078692D1*
X4927021Y2956857D2*
X5078692D1*
X4902154Y2931988D2*
X5078692D1*
X4877285Y2907119D2*
X5078692D1*
X4852417Y2882251D2*
X5078692D1*
X4827550Y2857382D2*
X5078692D1*
X4577688Y2832513D2*
X5078692D1*
X4552820Y2807644D2*
X4687482D1*
X4527953Y2782776D2*
X4662614D1*
X4508701Y2757907D2*
X4637747D1*
X4508701Y2733038D2*
X4612843D1*
X4508701Y2708169D2*
X4587975D1*
X4508701Y2683301D2*
X4578717D1*
X4508701Y2658432D2*
X4578717D1*
X4508701Y2633563D2*
X4578717D1*
X4508701Y2608694D2*
X4578717D1*
X4508701Y2583825D2*
X4578717D1*
X5048861Y3081182D2*
X4826049Y2858588D1*
X4823484Y2857152D1*
X4820656Y2856354D1*
X4809514Y2856201D1*
X4598911D1*
X4506194Y2763517D1*
X4506201Y2581206D1*
X4581222Y2581201D1*
X4581354Y2695656D1*
X4582152Y2698484D1*
X4583588Y2701049D1*
X4591358Y2709035D1*
X4711353Y2828814D1*
X4713917Y2830249D1*
X4716745Y2831047D1*
X4727887Y2831201D1*
X5081167D1*
X5081201Y3081194D1*
X5048882Y3081201D1*
X3933719Y2131332D2*
X4028692D1*
X3933719Y2106463D2*
X4028692D1*
X3933719Y2081594D2*
X4028692D1*
X3933719Y2056726D2*
X4028692D1*
X3933719Y2031857D2*
X4028692D1*
X3933719Y2006988D2*
X4028692D1*
X3933719Y1982119D2*
X4028692D1*
X3933719Y1957251D2*
X4028692D1*
X3933719Y1932382D2*
X4028692D1*
X3933719Y1907513D2*
X4028692D1*
X3933719Y1882644D2*
X4028692D1*
X3933719Y1857776D2*
X4028692D1*
X4031201Y1856224D2*
Y2156217D1*
X3931203Y2156201D1*
X3931201Y1856185D1*
X4031198Y1856201D1*
X3508719Y1781332D2*
X3989878D1*
X3508719Y1756463D2*
X3989878D1*
X3508719Y1731594D2*
X4012951D1*
X3741033Y1706726D2*
X4012951D1*
X3779967Y1681857D2*
X4012951D1*
X3804835Y1656988D2*
X4012951D1*
X3915681Y1632119D2*
X4012951D1*
X3508719Y1607251D2*
X3567270D1*
X3670126D2*
X3755733D1*
X3928384D2*
X4012951D1*
X3508719Y1582382D2*
X3567270D1*
X3670126D2*
X3780601D1*
X3928887D2*
X4012951D1*
X3508719Y1557513D2*
X3567270D1*
X3670126D2*
X3819894D1*
X3917511D2*
X4012951D1*
X3508719Y1532644D2*
X4012951D1*
X3508719Y1507776D2*
X4012951D1*
X3508719Y1482907D2*
X3637746D1*
X3958706D2*
X4012951D1*
X3508719Y1458038D2*
X3612843D1*
X3958706D2*
X4012951D1*
X3508719Y1433169D2*
X3587975D1*
X3958706D2*
X4012951D1*
X3958706Y1408301D2*
X4012951D1*
X3958706Y1383432D2*
X4012951D1*
X3958706Y1358563D2*
X4012951D1*
X3958706Y1333694D2*
X4012951D1*
X3958706Y1308825D2*
X4012951D1*
X3958706Y1283957D2*
X4012951D1*
X3958706Y1259088D2*
X4012951D1*
X3958706Y1234219D2*
X4012951D1*
X3958706Y1209350D2*
X4012951D1*
X3667634Y1615818D2*
Y1540831D1*
X3569768D1*
Y1615864D1*
X3506171Y1615831D1*
X3506201Y1431187D1*
X3588520Y1431201D1*
X3661353Y1503814D1*
X3663917Y1505249D1*
X3666745Y1506047D1*
X3677887Y1506201D1*
X3945656Y1506047D1*
X3948484Y1505249D1*
X3951048Y1503814D1*
X3953206Y1501819D1*
X3954838Y1499376D1*
X3955855Y1496619D1*
X3956201Y1493701D1*
Y1196974D1*
X4007012Y1196965D1*
X4015437Y1205408D1*
Y1733722D1*
X3992366Y1733744D1*
Y1804051D1*
X4056204D1*
X4050328Y1806201D1*
X3818701Y1805988D1*
X3802297Y1806201D1*
X3696187D1*
X3687057Y1797209D1*
X3683469Y1794602D1*
X3679517Y1792588D1*
X3675299Y1791218D1*
X3670918Y1790524D1*
X3576837Y1790437D1*
X3506181D1*
X3506201Y1721562D1*
X3667634Y1721391D1*
X3675538Y1724600D1*
X3684506Y1726753D1*
X3693701Y1727476D1*
X3702895Y1726753D1*
X3711863Y1724600D1*
X3720384Y1721070D1*
X3728248Y1716251D1*
X3735261Y1710261D1*
X3741251Y1703248D1*
X3742163Y1701884D1*
X3748892Y1701477D1*
X3753956Y1700262D1*
X3758767Y1698269D1*
X3763207Y1695548D1*
X3767166Y1692166D1*
X3825653Y1633679D1*
X3830529Y1638394D1*
X3837991Y1643815D1*
X3846208Y1648002D1*
X3854980Y1650852D1*
X3864089Y1652295D1*
X3873312D1*
X3882422Y1650852D1*
X3891193Y1648002D1*
X3899411Y1643815D1*
X3906872Y1638394D1*
X3913394Y1631872D1*
X3918815Y1624411D1*
X3923002Y1616193D1*
X3925852Y1607422D1*
X3927295Y1598312D1*
Y1589089D1*
X3925852Y1579980D1*
X3923002Y1571208D1*
X3918815Y1562991D1*
X3913394Y1555529D1*
X3906872Y1549007D1*
X3899411Y1543586D1*
X3891193Y1539399D1*
X3882422Y1536549D1*
X3873312Y1535106D1*
X3864089D1*
X3854980Y1536549D1*
X3846208Y1539399D1*
X3837991Y1543586D1*
X3830529Y1549007D1*
X3824007Y1555529D1*
X3820239Y1560517D1*
X3813509Y1560924D1*
X3808446Y1562140D1*
X3803635Y1564133D1*
X3799195Y1566853D1*
X3795235Y1570235D1*
X3736748Y1628722D1*
X3731872Y1624007D1*
X3724411Y1618586D1*
X3716193Y1614399D1*
X3707422Y1611549D1*
X3698312Y1610106D1*
X3689089D1*
X3679980Y1611549D1*
X3671208Y1614399D1*
X3667598Y1615831D1*
X4133719Y2131332D2*
X4253703D1*
X4133719Y2106463D2*
X4253703D1*
X4133719Y2081594D2*
X4253703D1*
X4133719Y2056726D2*
X4253703D1*
X4133719Y2031857D2*
X4253703D1*
X4133719Y2006988D2*
X4253703D1*
X4133719Y1982119D2*
X4253703D1*
X4133719Y1957251D2*
X4253703D1*
X4133719Y1932382D2*
X4253703D1*
X4133719Y1907513D2*
X4253703D1*
X4133719Y1882644D2*
X4253703D1*
X4133719Y1857776D2*
X4253703D1*
X4256201Y1856224D2*
Y2156217D1*
X4131228Y2156201D1*
X4131201Y1856185D1*
X4256173Y1856201D1*
X2297247Y3206332D2*
X2942684D1*
X3494702D2*
X3703716D1*
X2322115Y3181463D2*
X2952624D1*
X3484762D2*
X3703716D1*
X2346983Y3156594D2*
X2962564D1*
X3474823D2*
X3703716D1*
X2371061Y3131726D2*
X2972539D1*
X3574078D2*
X3703716D1*
X2382508Y3106857D2*
X2985350D1*
X2383907Y3081988D2*
X3010218D1*
X3427168D2*
X3463327D1*
X2383907Y3057119D2*
X2460221D1*
X2527193D2*
X3035121D1*
X3402301D2*
X3463327D1*
X3574078D2*
X3693776D1*
X2383907Y3032251D2*
X2432088D1*
X2555326D2*
X3059989D1*
X3377433D2*
X3675367D1*
X2383907Y3007382D2*
X2421968D1*
X2565445D2*
X3084857D1*
X3352565D2*
X3673178D1*
X2383907Y2982513D2*
X2421502D1*
X2565912D2*
X3208406D1*
X3229025D2*
X3673178D1*
X2383907Y2957644D2*
X2430509D1*
X2556869D2*
X2688337D1*
X2799087D2*
X3372182D1*
X3465206D2*
X3673178D1*
X2383907Y2932776D2*
X2455556D1*
X2531858D2*
X2611580D1*
X2675825D2*
X2688337D1*
X2882518D2*
X2992276D1*
X3279074D2*
X3333355D1*
X3478267D2*
X3669410D1*
X2882518Y2907907D2*
X2992276D1*
X3478985D2*
X3642282D1*
X2885676Y2883038D2*
X2992276D1*
X3503781D2*
X3642282D1*
X2885676Y2858169D2*
X2992276D1*
X3399071D2*
X3429812D1*
X3564748D2*
X3642282D1*
X2885676Y2833301D2*
X3067274D1*
X3399071D2*
X3454679D1*
X3578133D2*
X3642282D1*
X2882518Y2808432D2*
X3024679D1*
X3062729D2*
X3142272D1*
X3245128D2*
X3458340D1*
X3579066D2*
X3648167D1*
X2413978Y2783563D2*
X2639714D1*
X2882518D2*
X2992276D1*
X3095132D2*
X3142272D1*
X3245128D2*
X3469069D1*
X3568301D2*
X3648167D1*
X2283719Y2758694D2*
X2779662D1*
X2882518D2*
X2992276D1*
X3095132D2*
X3142272D1*
X3245128D2*
X3288320D1*
X3464273D2*
X3483028D1*
X3554378D2*
X3642282D1*
X2283719Y2733825D2*
X2779662D1*
X2914132D2*
X2992276D1*
X3114151D2*
X3288320D1*
X3554378D2*
X3642282D1*
X2283719Y2708957D2*
X2804063D1*
X2927948D2*
X3009428D1*
X3127966D2*
X3288320D1*
X3554378D2*
X3642282D1*
X2283719Y2684088D2*
X2808226D1*
X2929168D2*
X3007419D1*
X3129975D2*
X3288320D1*
X3570131D2*
X3642282D1*
X2283719Y2659219D2*
X2818596D1*
X2918797D2*
X3005445D1*
X3131949D2*
X3288320D1*
X3570131D2*
X3648167D1*
X2283719Y2634350D2*
X3003472D1*
X3133923D2*
X3288320D1*
X3570131D2*
X3648167D1*
X2283719Y2609482D2*
X2992850D1*
X3144544D2*
X3288320D1*
X3570131D2*
X3608802D1*
X2283719Y2584613D2*
X2992850D1*
X3183264D2*
X3408030D1*
X3577774D2*
X3608802D1*
X2434109Y2559744D2*
X2992850D1*
X3215452D2*
X3408030D1*
X3579281D2*
X3608802D1*
X2465867Y2534875D2*
X2992850D1*
X3226719D2*
X3408030D1*
X3569270D2*
X3608802D1*
X2490735Y2510007D2*
X2992850D1*
X3228047D2*
X3408030D1*
X3574078D2*
X3608802D1*
X2510973Y2485138D2*
X2992850D1*
X3220117D2*
X3408030D1*
X3574078D2*
X3608802D1*
X2514239Y2460269D2*
X2992850D1*
X3197617D2*
X3408030D1*
X3574078D2*
X3608802D1*
X2514239Y2435400D2*
X2992850D1*
X3144544D2*
X3408030D1*
X3574078D2*
X3608802D1*
X2514239Y2410531D2*
X3408030D1*
X3574078D2*
X3608802D1*
X2514239Y2385663D2*
X3408030D1*
X3594209D2*
X3608802D1*
X2514239Y2360794D2*
X3408030D1*
X3618718D2*
X3648167D1*
X2514239Y2335925D2*
X3107859D1*
X3179532D2*
X3408030D1*
X3624460D2*
X3653262D1*
X2514239Y2311056D2*
X2645132D1*
X2692296D2*
X2919861D1*
X3214483D2*
X3408030D1*
X3624460D2*
X3660691D1*
X2514239Y2286188D2*
X2609858D1*
X3226396D2*
X3408030D1*
X3643694D2*
X3660691D1*
X2514239Y2261319D2*
X2597873D1*
X3228226D2*
X3408030D1*
X2514311Y2236450D2*
X2596007D1*
X3220798D2*
X3408030D1*
X2539178Y2211581D2*
X2603363D1*
X3199483D2*
X3408030D1*
X2564046Y2186713D2*
X2603471D1*
X2972372D2*
X3408030D1*
X2588914Y2161844D2*
X2603471D1*
X2799985D2*
X3408030D1*
X3473177Y2696571D2*
X3485521D1*
X3485516Y2770193D1*
X3480529Y2774007D1*
X3474007Y2780529D1*
X3468586Y2787991D1*
X3464399Y2796208D1*
X3461549Y2804980D1*
X3460106Y2814089D1*
Y2823312D1*
X3460969Y2829504D1*
X3429542Y2860928D1*
X3423312Y2860106D1*
X3414089D1*
X3404980Y2861549D1*
X3396564Y2864268D1*
X3396571Y2819768D1*
X3242662D1*
X3242634Y2740831D1*
X3144768D1*
X3144571Y2815867D1*
X3069768Y2815831D1*
Y2833522D1*
X2994768Y2833547D1*
Y2953853D1*
X3092634D1*
Y2951879D1*
X3246306Y2951782D1*
X3251449Y2950968D1*
X3256401Y2949358D1*
X3261041Y2946994D1*
X3265254Y2943934D1*
X3291714Y2917618D1*
X3320710Y2917634D1*
X3347149Y2943935D1*
X3351362Y2946996D1*
X3356001Y2949360D1*
X3360954Y2950969D1*
X3366097Y2951784D1*
X3370172Y2951886D1*
X3374007Y2956872D1*
X3380529Y2963394D1*
X3387991Y2968815D1*
X3396208Y2973002D1*
X3404980Y2975852D1*
X3414089Y2977295D1*
X3423312D1*
X3432422Y2975852D1*
X3441193Y2973002D1*
X3449411Y2968815D1*
X3456872Y2963394D1*
X3463394Y2956872D1*
X3468815Y2949411D1*
X3473002Y2941193D1*
X3475852Y2932422D1*
X3477295Y2923312D1*
Y2914089D1*
X3476433Y2907897D1*
X3507859Y2876473D1*
X3514089Y2877295D1*
X3523312D1*
X3532422Y2875852D1*
X3541193Y2873002D1*
X3549411Y2868815D1*
X3556872Y2863394D1*
X3563394Y2856872D1*
X3568815Y2849411D1*
X3573002Y2841193D1*
X3575852Y2832422D1*
X3577295Y2823312D1*
Y2814089D1*
X3575852Y2804980D1*
X3573002Y2796208D1*
X3568815Y2787991D1*
X3563394Y2780529D1*
X3556872Y2774007D1*
X3551884Y2770239D1*
X3551886Y2696587D1*
X3567634Y2696571D1*
Y2601227D1*
X3571070Y2595384D1*
X3574600Y2586863D1*
X3576753Y2577895D1*
X3577476Y2568701D1*
X3576753Y2559506D1*
X3574600Y2550538D1*
X3571070Y2542017D1*
X3566251Y2534153D1*
X3560261Y2527140D1*
X3553248Y2521150D1*
X3551884Y2520239D1*
X3557694Y2517437D1*
X3571571D1*
Y2405781D1*
X3615193Y2362057D1*
X3617800Y2358469D1*
X3619813Y2354517D1*
X3621184Y2350299D1*
X3621877Y2345918D1*
X3621965Y2305412D1*
X3663191Y2264182D1*
X3663173Y2325891D1*
X3658891Y2330910D1*
X3655363Y2336667D1*
X3652779Y2342905D1*
X3651203Y2349470D1*
X3650673Y2356201D1*
Y2371954D1*
X3611303Y2371933D1*
Y2615468D1*
X3650668D1*
X3650673Y2665837D1*
X3644768Y2665831D1*
Y2771571D1*
X3650689D1*
X3650673Y2815839D1*
X3644768Y2815831D1*
Y2921571D1*
X3660982Y2921645D1*
X3675683Y2936534D1*
X3675806Y3022077D1*
X3676862Y3028745D1*
X3678948Y3035167D1*
X3682014Y3041183D1*
X3685982Y3046645D1*
X3704591Y3065441D1*
X3681442Y3065437D1*
X3681414Y3058547D1*
X3571572D1*
X3571571Y3044768D1*
X3465831D1*
Y3140359D1*
X3454438Y3112300D1*
X3452644Y3109968D1*
X3351450Y3008892D1*
X3348946Y3007354D1*
X3346152Y3006444D1*
X3219178Y2981210D1*
X3216249Y2981444D1*
X3089838Y3006813D1*
X3087170Y3008043D1*
X3084862Y3009862D1*
X2983499Y3111477D1*
X2982095Y3114058D1*
X2935250Y3231170D1*
X2281171Y3231201D1*
X2281201Y3218977D1*
X2288058Y3213031D1*
X2366388Y3134429D1*
X2372172Y3126468D1*
X2376640Y3117700D1*
X2379681Y3108341D1*
X2381220Y3098621D1*
X2381413Y3075328D1*
Y2919148D1*
X2390237Y2924585D1*
X2399329Y2928351D1*
X2408897Y2930648D1*
X2418708Y2931420D1*
X2460513D1*
X2452211Y2936596D1*
X2443789Y2943789D1*
X2436595Y2952212D1*
X2430808Y2961656D1*
X2426569Y2971889D1*
X2423983Y2982659D1*
X2423114Y2993701D1*
X2423983Y3004744D1*
X2426569Y3015514D1*
X2430808Y3025747D1*
X2436595Y3035191D1*
X2443789Y3043614D1*
X2452211Y3050807D1*
X2461655Y3056594D1*
X2471888Y3060833D1*
X2482659Y3063419D1*
X2493701Y3064288D1*
X2504743Y3063419D1*
X2515513Y3060833D1*
X2525746Y3056594D1*
X2535191Y3050807D1*
X2543613Y3043614D1*
X2550807Y3035191D1*
X2556594Y3025747D1*
X2560833Y3015514D1*
X2563418Y3004744D1*
X2564287Y2993701D1*
X2563418Y2982659D1*
X2560833Y2971889D1*
X2556594Y2961656D1*
X2550807Y2952212D1*
X2543613Y2943789D1*
X2535191Y2936596D1*
X2526899Y2931453D1*
X2611293Y2931420D1*
X2616683Y2933921D1*
X2627217Y2937344D1*
X2638157Y2939077D1*
X2649234D1*
X2660173Y2937344D1*
X2670708Y2933921D1*
X2680577Y2928893D1*
X2689538Y2922382D1*
X2690825Y2921192D1*
X2690831Y2967634D1*
X2796571D1*
Y2953818D1*
X2880036Y2953854D1*
X2880070Y2907002D1*
X2883185D1*
Y2830396D1*
X2880063D1*
X2880036Y2751356D1*
X2886863Y2749600D1*
X2895384Y2746070D1*
X2903248Y2741251D1*
X2910261Y2735261D1*
X2916251Y2728248D1*
X2921070Y2720384D1*
X2924600Y2711863D1*
X2926753Y2702895D1*
X2927476Y2693701D1*
X2926753Y2684506D1*
X2924600Y2675538D1*
X2921070Y2667017D1*
X2916251Y2659153D1*
X2910261Y2652140D1*
X2903248Y2646150D1*
X2895384Y2641331D1*
X2886863Y2637802D1*
X2877895Y2635649D1*
X2868701Y2634925D1*
X2859506Y2635649D1*
X2850538Y2637802D1*
X2842017Y2641331D1*
X2834153Y2646150D1*
X2827140Y2652140D1*
X2821150Y2659153D1*
X2816331Y2667017D1*
X2812802Y2675538D1*
X2810649Y2684506D1*
X2809925Y2693701D1*
X2810649Y2702895D1*
X2810969Y2704504D1*
X2805868Y2709747D1*
X2802807Y2713960D1*
X2800443Y2718600D1*
X2798834Y2723552D1*
X2798019Y2728696D1*
X2797917Y2733560D1*
X2782169Y2733547D1*
Y2763869D1*
X2642209Y2763862D1*
Y2798132D1*
X2632653Y2798990D1*
X2621883Y2801576D1*
X2611650Y2805815D1*
X2606950Y2805995D1*
X2444719D1*
X2434429Y2796014D1*
X2426468Y2790229D1*
X2417700Y2785762D1*
X2408341Y2782721D1*
X2398621Y2781181D1*
X2375328Y2780988D1*
X2281204D1*
X2281201Y2561722D1*
X2422077Y2561596D1*
X2428745Y2560540D1*
X2435167Y2558453D1*
X2441183Y2555388D1*
X2446645Y2551419D1*
X2475109Y2523143D1*
X2501419Y2496645D1*
X2505388Y2491183D1*
X2508453Y2485167D1*
X2510540Y2478745D1*
X2511596Y2472077D1*
X2511728Y2431955D1*
Y2236494D1*
X2606026Y2142226D1*
X2605988Y2211342D1*
X2603493Y2216681D1*
X2600070Y2227216D1*
X2598337Y2238156D1*
Y2249232D1*
X2600070Y2260172D1*
X2603493Y2270706D1*
X2608521Y2280575D1*
X2615032Y2289536D1*
X2622864Y2297368D1*
X2631825Y2303879D1*
X2641694Y2308907D1*
X2652228Y2312330D1*
X2663168Y2314063D1*
X2674244D1*
X2685184Y2312330D1*
X2695719Y2308907D1*
X2701073Y2306407D1*
X2917701Y2306413D1*
X2927972Y2316388D1*
X2935933Y2322172D1*
X2944702Y2326640D1*
X2954061Y2329681D1*
X2963780Y2331220D1*
X2987073Y2331413D1*
X3099844Y2331594D1*
X3110077Y2335833D1*
X3120848Y2338418D1*
X3131911Y2339287D1*
X3161050Y2339070D1*
X3171990Y2337337D1*
X3182524Y2333914D1*
X3192393Y2328886D1*
X3201354Y2322375D1*
X3209186Y2314543D1*
X3215697Y2305582D1*
X3220725Y2295713D1*
X3224148Y2285179D1*
X3225881Y2274239D1*
Y2263163D1*
X3224148Y2252223D1*
X3220725Y2241688D1*
X3215697Y2231819D1*
X3209186Y2222858D1*
X3201354Y2215026D1*
X3192393Y2208516D1*
X3182524Y2203487D1*
X3171990Y2200064D1*
X3161050Y2198332D1*
X3137139Y2198114D1*
X3126352Y2198332D1*
X3115412Y2200064D1*
X3104877Y2203487D1*
X3099523Y2205987D1*
X2994674Y2205988D1*
X2984429Y2196014D1*
X2976468Y2190229D1*
X2967700Y2185762D1*
X2958341Y2182721D1*
X2948621Y2181181D1*
X2925328Y2180988D1*
X2778311D1*
X2807440Y2151892D1*
X3404988Y2151886D1*
X3410536Y2157467D1*
X3410516Y2590860D1*
X3394965Y2590831D1*
Y2594742D1*
X3290831Y2594767D1*
Y2767437D1*
X3385816D1*
X3392017Y2771070D1*
X3400538Y2774600D1*
X3409506Y2776753D1*
X3418701Y2777476D1*
X3427895Y2776753D1*
X3436863Y2774600D1*
X3445384Y2771070D1*
X3453248Y2766251D1*
X3460261Y2760261D1*
X3466251Y2753248D1*
X3471070Y2745384D1*
X3474600Y2736863D1*
X3476753Y2727895D1*
X3477476Y2718701D1*
X3476753Y2709506D1*
X3474600Y2700538D1*
X3473133Y2696564D1*
X3004545Y2617043D2*
X3006016D1*
X3006181Y2648621D1*
X3007721Y2658341D1*
X3009930Y2665444D1*
X3010106Y2698312D1*
X3011549Y2707422D1*
X3013276Y2713276D1*
X3008891Y2718410D1*
X3005363Y2724167D1*
X3002776Y2730417D1*
X3000771Y2733547D1*
X2994768D1*
Y2803854D1*
X3018918D1*
X3024167Y2807039D1*
X3030405Y2809622D1*
X3036970Y2811199D1*
X3043701Y2811728D1*
X3050432Y2811199D1*
X3056997Y2809622D1*
X3063235Y2807039D1*
X3068476Y2803855D1*
X3092634Y2803854D1*
Y2755590D1*
X3101419Y2746645D1*
X3105394Y2741171D1*
X3113394Y2731872D1*
X3118815Y2724411D1*
X3123002Y2716193D1*
X3125852Y2707422D1*
X3127295Y2698312D1*
X3127476Y2675328D1*
Y2665603D1*
X3129681Y2658341D1*
X3131220Y2648621D1*
X3131413Y2625328D1*
Y2617039D1*
X3142043Y2617043D1*
Y2589305D1*
X3161050Y2589070D1*
X3171990Y2587337D1*
X3182524Y2583914D1*
X3192393Y2578886D1*
X3201354Y2572375D1*
X3209186Y2564543D1*
X3215697Y2555582D1*
X3220725Y2545713D1*
X3224148Y2535179D1*
X3225881Y2524239D1*
Y2513163D1*
X3224148Y2502223D1*
X3220725Y2491688D1*
X3215697Y2481819D1*
X3209186Y2472858D1*
X3201354Y2465026D1*
X3192393Y2458516D1*
X3182524Y2453487D1*
X3171990Y2450064D1*
X3161050Y2448332D1*
X3142055Y2448114D1*
X3142043Y2420358D1*
X2995358D1*
Y2617043D1*
X3004545D1*
X3466728Y3142634D2*
X3571571D1*
Y3128818D1*
X3681414Y3128854D1*
Y3122000D1*
X3706222Y3121965D1*
X3706201Y3231167D1*
X3502140Y3231201D1*
X3467778Y3145236D1*
X2381390Y3018224D2*
X2381413Y2944734D1*
X1783898Y2956332D2*
X2053484D1*
X1783898Y2931463D2*
X2053484D1*
X1783898Y2906594D2*
X2053484D1*
X1783898Y2881726D2*
X2053484D1*
X1810308Y2856857D2*
X2027109D1*
X1810308Y2831988D2*
X2027109D1*
X1810308Y2807119D2*
X2027109D1*
X1810308Y2782251D2*
X2027109D1*
X1810308Y2757382D2*
X2027109D1*
X1783719Y2732513D2*
X2053699D1*
X1783719Y2707644D2*
X2053699D1*
X1783719Y2682776D2*
X2053699D1*
X1783719Y2657907D2*
X2053699D1*
X2056199Y2869177D2*
X2055988Y2878364D1*
Y2981172D1*
X1781448Y2981201D1*
X1781413Y2869177D1*
X1781201Y2865092D1*
Y2857377D1*
X1807791Y2857398D1*
Y2747720D1*
X1781201D1*
Y2656210D1*
X2056169Y2656201D1*
X2056201Y2747730D1*
X2029610Y2747720D1*
Y2857398D1*
X2056201D1*
Y2869161D1*
X4256304Y3206332D2*
X4903499D1*
X4258924Y3181463D2*
X4903499D1*
X4258924Y3156594D2*
X4903499D1*
X4256484Y3131726D2*
X4903499D1*
X4251029Y3106857D2*
X4903499D1*
X4251029Y3081988D2*
X4893631D1*
X4251029Y3057119D2*
X4510209D1*
X4577181D2*
X4760214D1*
X4827186D2*
X4852113D1*
X4251029Y3032251D2*
X4482075D1*
X4251029Y3007382D2*
X4396958D1*
X4251029Y2982513D2*
X4384076D1*
X4251029Y2957644D2*
X4383466D1*
X4251029Y2932776D2*
X4394697D1*
X4581846D2*
X4755549D1*
X3933705Y2907907D2*
X4148173D1*
X4239223D2*
X4812712D1*
X3933705Y2883038D2*
X4144692D1*
X4239223D2*
X4562851D1*
X3933705Y2858169D2*
X4119825D1*
X4237932D2*
X4537983D1*
X3933705Y2833301D2*
X4094957D1*
X4221640D2*
X4513115D1*
X3933705Y2808432D2*
X4070089D1*
X4196772D2*
X4488248D1*
X3933705Y2783563D2*
X4045221D1*
X4171905D2*
X4463380D1*
X3928861Y2758694D2*
X4020354D1*
X4147037D2*
X4453691D1*
X3903993Y2733825D2*
X3995486D1*
X4122169D2*
X4453691D1*
X3883719Y2708957D2*
X3970618D1*
X4097301D2*
X4453691D1*
X3883719Y2684088D2*
X3951025D1*
X4072434D2*
X4453691D1*
X3883719Y2659219D2*
X3948191D1*
X4047566D2*
X4453691D1*
X4633698D2*
X5033005D1*
X3883719Y2634350D2*
X3948191D1*
X4039241D2*
X4453691D1*
X4633698D2*
X5057873D1*
X3883719Y2609482D2*
X3908790D1*
X4078606D2*
X4158795D1*
X4328611D2*
X4453691D1*
X4633698D2*
X5082741D1*
X3883719Y2584613D2*
X3908790D1*
X4078606D2*
X4158795D1*
X4328611D2*
X4453691D1*
X4633698D2*
X5428700D1*
X3883719Y2559744D2*
X3908790D1*
X4078606D2*
X4158795D1*
X4328611D2*
X4453691D1*
X4633698D2*
X5428700D1*
X3883719Y2534875D2*
X3908790D1*
X4078606D2*
X4158795D1*
X4328611D2*
X4453691D1*
X4633698D2*
X5428700D1*
X3883719Y2510007D2*
X3908790D1*
X4078606D2*
X4158795D1*
X4328611D2*
X4453691D1*
X4633698D2*
X5078686D1*
X3883719Y2485138D2*
X3908790D1*
X4078606D2*
X4158795D1*
X4328611D2*
X4453691D1*
X4633698D2*
X5078686D1*
X3883719Y2460269D2*
X3908790D1*
X4078606D2*
X4158795D1*
X4328611D2*
X4453691D1*
X4633698D2*
X5078686D1*
X3883719Y2435400D2*
X3908790D1*
X4078606D2*
X4158795D1*
X4328611D2*
X4453691D1*
X4633698D2*
X5078686D1*
X3883719Y2410531D2*
X3908790D1*
X4078606D2*
X4158795D1*
X4328611D2*
X4453691D1*
X4633698D2*
X5078686D1*
X3883719Y2385663D2*
X3908790D1*
X4078606D2*
X4158795D1*
X4328611D2*
X4453691D1*
X4633698D2*
X5078686D1*
X3883719Y2360794D2*
X4178495D1*
X4308910D2*
X4456526D1*
X4630899D2*
X5078686D1*
X3883719Y2335925D2*
X4169739D1*
X4308910D2*
X5078686D1*
X3883719Y2311056D2*
X4144944D1*
X4308444D2*
X5078686D1*
X3883719Y2286188D2*
X4130985D1*
X4299832D2*
X5078686D1*
X3883719Y2261319D2*
X4128473D1*
X4277512D2*
X5078686D1*
X3883719Y2236450D2*
X4128473D1*
X4258924D2*
X5078686D1*
X3883719Y2211581D2*
X4128473D1*
X4258924D2*
X5078686D1*
X4333706Y2186713D2*
X5078686D1*
X4333706Y2161844D2*
X5078686D1*
X4333706Y2136975D2*
X5078686D1*
X4333706Y2112106D2*
X5078686D1*
X4333706Y2087238D2*
X5078686D1*
X4333706Y2062369D2*
X5078686D1*
X4333706Y2037500D2*
X5078686D1*
X4333706Y2012631D2*
X5078686D1*
X4333706Y1987762D2*
X5078686D1*
X4333706Y1962894D2*
X5078686D1*
X4333706Y1938025D2*
X5080050D1*
X4333706Y1913156D2*
X5453712D1*
X4333706Y1888287D2*
X5453712D1*
X4333706Y1863419D2*
X5453712D1*
X4333706Y1838550D2*
X5078686D1*
X4332666Y1813681D2*
X5078686D1*
X4299078Y1788812D2*
X5078686D1*
X4299078Y1763944D2*
X5078686D1*
X4299078Y1739075D2*
X5078686D1*
X3983692Y1714206D2*
X4012926D1*
X4206676D2*
X5078686D1*
X3983692Y1689337D2*
X4012926D1*
X4181809D2*
X5078686D1*
X3983692Y1664469D2*
X4012926D1*
X4156941D2*
X5078686D1*
X3983692Y1639600D2*
X4012926D1*
X4132073D2*
X4329496D1*
X4407915D2*
X5078686D1*
X3983692Y1614731D2*
X4012926D1*
X4107205D2*
X4311303D1*
X4897088D2*
X5078686D1*
X3983692Y1589862D2*
X4012926D1*
X4099454D2*
X4307535D1*
X4921956D2*
X5078686D1*
X3983692Y1564993D2*
X4012926D1*
X4099454D2*
X4314927D1*
X4935520D2*
X5078686D1*
X3983692Y1540125D2*
X4012926D1*
X4099454D2*
X4342019D1*
X4395355D2*
X4864278D1*
X4935628D2*
X5078686D1*
X3983692Y1515256D2*
X4012926D1*
X4099454D2*
X4864278D1*
X4935628D2*
X5078686D1*
X3983692Y1490387D2*
X4012926D1*
X4099454D2*
X4864278D1*
X4935628D2*
X5078686D1*
X3983692Y1465518D2*
X4012926D1*
X4099454D2*
X4864278D1*
X4935628D2*
X5078686D1*
X3983692Y1440650D2*
X4012926D1*
X4099454D2*
X4864278D1*
X4935628D2*
X5078686D1*
X3983692Y1415781D2*
X4012926D1*
X4099454D2*
X4864278D1*
X4935628D2*
X5078686D1*
X3983692Y1390912D2*
X4012926D1*
X4099454D2*
X4864278D1*
X4935628D2*
X5078686D1*
X3983692Y1366043D2*
X4012926D1*
X4099454D2*
X4864278D1*
X4935628D2*
X5078686D1*
X3983692Y1341175D2*
X4012926D1*
X4099454D2*
X4864278D1*
X4935628D2*
X5078686D1*
X3983692Y1316306D2*
X4012926D1*
X4099454D2*
X4864278D1*
X4935628D2*
X5078686D1*
X3983692Y1291437D2*
X4012926D1*
X4099454D2*
X4864278D1*
X4935628D2*
X5078686D1*
X3983692Y1266568D2*
X4012926D1*
X4099454D2*
X4864278D1*
X4935628D2*
X5078901D1*
X3983692Y1241699D2*
X4012926D1*
X4099454D2*
X4864278D1*
X4935628D2*
X5453712D1*
X3983692Y1216831D2*
X4012926D1*
X4099454D2*
X4864278D1*
X4935628D2*
X5453712D1*
X4099454Y1191962D2*
X4844577D1*
X4955328D2*
X5453712D1*
X4099419Y1167093D2*
X4844577D1*
X4955328D2*
X5096915D1*
X4084706Y1142224D2*
X4844577D1*
X4955328D2*
X5072047D1*
X4056429Y1117356D2*
X4844577D1*
X4955328D2*
X5047180D1*
X3983692Y1092487D2*
X4844577D1*
X4955328D2*
X5022312D1*
X3983692Y1067618D2*
X4067254D1*
X4170146D2*
X4844577D1*
X4955328D2*
X4997444D1*
X3983692Y1042749D2*
X4067254D1*
X4170146D2*
X4844577D1*
X4955328D2*
X4972576D1*
X3983692Y1017881D2*
X4067254D1*
X4170146D2*
X4864278D1*
X3983692Y993012D2*
X4067254D1*
X4170146D2*
X4864278D1*
X3986742Y968143D2*
X4067254D1*
X4170146D2*
X4377114D1*
X4460306D2*
X4602108D1*
X4752977D2*
X4784436D1*
X4009242Y943274D2*
X4052326D1*
X4135733D2*
X4377114D1*
X4223578Y918406D2*
X4377114D1*
X4234307Y893537D2*
X4377114D1*
X4234881Y868668D2*
X4377114D1*
X4460306D2*
X4602108D1*
X4752044D2*
X4783000D1*
X4234845Y843799D2*
X4783000D1*
X4227238Y818930D2*
X4602108D1*
X4685300D2*
X4783000D1*
X4193507Y794062D2*
X4602108D1*
X4685300D2*
X4783000D1*
X4183423Y769193D2*
X4442280D1*
X4694953D2*
X4783000D1*
X4210552Y744324D2*
X4442280D1*
X4694953D2*
X4761362D1*
X4235420Y719455D2*
X4442280D1*
X4694953D2*
X4761362D1*
X4260287Y694587D2*
X4442280D1*
X4694953D2*
X4761362D1*
X4285155Y669718D2*
X4442280D1*
X4694953D2*
X4761362D1*
X4310023Y644849D2*
X4452363D1*
X4524467D2*
X4602108D1*
X4685300D2*
X4761362D1*
X4512446Y619980D2*
X4602108D1*
X4685300D2*
X4783000D1*
X4487578Y595112D2*
X4783000D1*
X4461957Y570243D2*
X4602108D1*
X4749461D2*
X4783000D1*
X4069561Y2915831D2*
X3994768D1*
Y2925699D1*
X3983738Y2925673D1*
X3978248Y2921150D1*
X3970384Y2916331D1*
X3961863Y2912802D1*
X3952895Y2910649D1*
X3943701Y2909925D1*
X3934506Y2910649D1*
X3931200Y2911306D1*
X3931047Y2766745D1*
X3930249Y2763917D1*
X3928814Y2761353D1*
X3921044Y2753366D1*
X3881202Y2713525D1*
X3881201Y2206167D1*
X4130978Y2206201D1*
X4131181Y2273621D1*
X4132721Y2283341D1*
X4135762Y2292700D1*
X4140229Y2301468D1*
X4146014Y2309429D1*
X4162348Y2326037D1*
X4180998Y2344687D1*
X4180988Y2371917D1*
X4161303Y2371933D1*
Y2615468D1*
X4326099D1*
Y2371933D1*
X4306398D1*
X4306220Y2313780D1*
X4304681Y2304061D1*
X4301640Y2294702D1*
X4297172Y2285934D1*
X4291388Y2277972D1*
X4275054Y2261365D1*
X4256404Y2242715D1*
X4256413Y2206226D1*
X4320656Y2206047D1*
X4323484Y2205249D1*
X4326048Y2203814D1*
X4328206Y2201819D1*
X4329838Y2199376D1*
X4330855Y2196619D1*
X4331201Y2193697D1*
X4331047Y1816745D1*
X4330249Y1813917D1*
X4328814Y1811353D1*
X4326819Y1809196D1*
X4324376Y1807563D1*
X4321619Y1806546D1*
X4318701Y1806201D1*
X4296560D1*
X4296571Y1719767D1*
X4209767D1*
X4096973Y1607002D1*
X4096878Y1166483D1*
X4096184Y1162103D1*
X4094813Y1157885D1*
X4092800Y1153933D1*
X4090193Y1150345D1*
X4063686Y1123715D1*
X4060314Y1120835D1*
X4056532Y1118517D1*
X4052435Y1116820D1*
X4048122Y1115785D1*
X4043701Y1115437D1*
X3981226D1*
X3981201Y971152D1*
X4002693Y949557D1*
X4005300Y945969D1*
X4007313Y942017D1*
X4008684Y937799D1*
X4009378Y933418D1*
X4009465Y929299D1*
X4013860Y925931D1*
X4019726Y920065D1*
X4024603Y913353D1*
X4028369Y905961D1*
X4029509Y902872D1*
X4032416Y909731D1*
X4036751Y916805D1*
X4042139Y923113D1*
X4048447Y928501D1*
X4051265Y930384D1*
X4052041Y936122D1*
X4053411Y940340D1*
X4055425Y944291D1*
X4058032Y947879D1*
X4075771Y965830D1*
X4069768D1*
Y1071571D1*
X4167634D1*
Y965830D1*
X4146785D1*
X4146184Y962103D1*
X4144813Y957885D1*
X4142800Y953933D1*
X4140193Y950345D1*
X4114962Y924991D1*
X4119726Y920065D1*
X4124603Y913353D1*
X4128369Y905961D1*
X4129509Y902872D1*
X4132416Y909731D1*
X4136751Y916805D1*
X4142139Y923113D1*
X4148447Y928501D1*
X4155521Y932836D1*
X4163186Y936011D1*
X4171253Y937948D1*
X4179524Y938598D1*
X4187794Y937948D1*
X4195861Y936011D1*
X4203526Y932836D1*
X4210600Y928501D1*
X4216908Y923113D1*
X4222296Y916805D1*
X4226631Y909731D1*
X4229806Y902066D1*
X4231743Y893999D1*
X4232394Y885728D1*
X4232231Y842210D1*
X4230933Y834016D1*
X4228369Y826126D1*
X4224603Y818734D1*
X4219726Y812022D1*
X4213860Y806156D1*
X4207148Y801279D1*
X4199756Y797513D1*
X4191882Y794953D1*
X4168898Y771967D1*
X4173122Y771617D1*
X4177435Y770581D1*
X4181532Y768884D1*
X4185314Y766567D1*
X4188692Y763680D1*
X4330400Y621973D1*
X4431987Y621965D1*
X4465455Y655427D1*
X4465437Y665841D1*
X4444768Y665831D1*
Y771571D1*
X4604634D1*
X4604610Y839681D1*
X4682791D1*
Y771537D1*
X4692437Y771571D1*
Y665831D1*
X4682784D1*
X4682791Y597720D1*
X4604610D1*
Y665864D1*
X4521948Y665831D1*
X4521878Y641483D1*
X4521184Y637103D1*
X4519813Y632885D1*
X4517800Y628933D1*
X4515193Y625345D1*
X4463686Y573715D1*
X4460314Y570835D1*
X4458461Y569598D1*
X4457792Y564353D1*
Y551901D1*
X4604617Y551886D1*
X4604610Y573539D1*
X4682791D1*
Y565250D1*
X4687991Y568815D1*
X4696208Y573002D1*
X4704980Y575852D1*
X4714089Y577295D1*
X4723312D1*
X4732422Y575852D1*
X4741193Y573002D1*
X4749411Y568815D1*
X4756872Y563394D1*
X4763394Y556872D1*
X4768705Y549576D1*
X4774007Y556872D1*
X4780529Y563394D1*
X4785517Y567163D1*
X4785516Y634930D1*
X4763862Y634925D1*
Y752476D1*
X4785501D1*
X4785516Y870215D1*
X4780529Y874007D1*
X4774007Y880529D1*
X4768697Y887826D1*
X4763394Y880529D1*
X4756872Y874007D1*
X4749411Y868586D1*
X4741193Y864399D1*
X4732422Y861549D1*
X4723312Y860106D1*
X4714089D1*
X4704980Y861549D1*
X4696208Y864399D1*
X4687991Y868586D1*
X4682780Y872233D1*
X4682791Y863862D1*
X4604610D1*
Y885500D1*
X4457785Y885516D1*
X4457792Y863862D1*
X4379610D1*
Y973539D1*
X4457792D1*
Y951901D1*
X4604617Y951886D1*
X4604610Y973539D1*
X4682791D1*
Y965250D1*
X4687991Y968815D1*
X4696208Y973002D1*
X4704980Y975852D1*
X4714089Y977295D1*
X4723312D1*
X4732422Y975852D1*
X4741193Y973002D1*
X4749411Y968815D1*
X4756872Y963394D1*
X4763394Y956872D1*
X4768705Y949576D1*
X4774007Y956872D1*
X4780529Y963394D1*
X4787991Y968815D1*
X4796208Y973002D1*
X4804980Y975852D1*
X4814089Y977295D1*
X4823312D1*
X4832422Y975852D1*
X4841193Y973002D1*
X4849411Y968815D1*
X4856872Y963394D1*
X4863394Y956872D1*
X4866762Y952484D1*
X4866765Y1019799D1*
X4847080Y1019768D1*
Y1192437D1*
X4866780D1*
X4866765Y1548672D1*
X4854942Y1560529D1*
X4417242Y1560516D1*
X4413394Y1555529D1*
X4406872Y1549007D1*
X4399411Y1543586D1*
X4391193Y1539399D1*
X4382422Y1536549D1*
X4373312Y1535106D1*
X4364089D1*
X4354980Y1536549D1*
X4346208Y1539399D1*
X4337991Y1543586D1*
X4330529Y1549007D1*
X4324007Y1555529D1*
X4318586Y1562991D1*
X4314399Y1571208D1*
X4311549Y1579980D1*
X4310106Y1589089D1*
Y1598312D1*
X4311549Y1607422D1*
X4314399Y1616193D1*
X4318586Y1624411D1*
X4324007Y1631872D1*
X4330529Y1638394D1*
X4337991Y1643815D1*
X4346208Y1648002D1*
X4354980Y1650852D1*
X4364089Y1652295D1*
X4373312D1*
X4382422Y1650852D1*
X4391193Y1648002D1*
X4399411Y1643815D1*
X4406872Y1638394D1*
X4413394Y1631872D1*
X4417163Y1626884D1*
X4871304Y1626784D1*
X4876448Y1625969D1*
X4881400Y1624360D1*
X4886040Y1621996D1*
X4890253Y1618935D1*
X4923416Y1585917D1*
X4926797Y1581957D1*
X4929518Y1577517D1*
X4931511Y1572706D1*
X4932727Y1567643D1*
X4933135Y1562451D1*
Y1192450D1*
X4952820Y1192437D1*
Y1020495D1*
X5111353Y1178814D1*
X5113917Y1180249D1*
X5116745Y1181047D1*
X5127887Y1181201D1*
X5456192D1*
X5456201Y1256222D1*
X5091745Y1256355D1*
X5088917Y1257152D1*
X5086353Y1258588D1*
X5084196Y1260583D1*
X5082563Y1263026D1*
X5081546Y1265783D1*
X5081201Y1268705D1*
X5081355Y1845656D1*
X5082152Y1848484D1*
X5083588Y1851048D1*
X5085583Y1853206D1*
X5088026Y1854838D1*
X5090783Y1855855D1*
X5093705Y1856201D1*
X5456167D1*
X5456201Y1931222D1*
X5092720Y1931239D1*
X5089838Y1931812D1*
X5087169Y1933043D1*
X5084862Y1934862D1*
X5083043Y1937169D1*
X5081812Y1939838D1*
X5081239Y1942720D1*
Y2519682D1*
X5081812Y2522564D1*
X5083043Y2525232D1*
X5084862Y2527540D1*
X5087169Y2529359D1*
X5089838Y2530589D1*
X5092720Y2531162D1*
X5431192Y2531201D1*
X5431201Y2606222D1*
X5091745Y2606355D1*
X5088917Y2607152D1*
X5086353Y2608588D1*
X5078366Y2616358D1*
X5013536Y2681188D1*
X4648859Y2681201D1*
X4631222Y2663544D1*
X4631047Y2366745D1*
X4630249Y2363917D1*
X4628814Y2361353D1*
X4626819Y2359196D1*
X4624376Y2357563D1*
X4621619Y2356546D1*
X4618697Y2356201D1*
X4466745Y2356355D1*
X4463917Y2357152D1*
X4461353Y2358588D1*
X4459196Y2360583D1*
X4457563Y2363026D1*
X4456546Y2365783D1*
X4456201Y2368705D1*
X4456355Y2770656D1*
X4457152Y2773484D1*
X4458588Y2776048D1*
X4466358Y2784035D1*
X4586353Y2903814D1*
X4588917Y2905249D1*
X4591745Y2906047D1*
X4602887Y2906201D1*
X4813491D1*
X4857996Y2950674D1*
X4849646Y2950673D1*
X4843613Y2943788D1*
X4835191Y2936594D1*
X4825746Y2930807D1*
X4815513Y2926568D1*
X4804743Y2923983D1*
X4793701Y2923114D1*
X4782659Y2923983D1*
X4771888Y2926568D1*
X4761655Y2930807D1*
X4752211Y2936594D1*
X4743789Y2943788D1*
X4737815Y2950663D1*
X4734957Y2947883D1*
Y2938468D1*
X4602445D1*
Y2950705D1*
X4597375Y2947859D1*
X4589543Y2940027D1*
X4580582Y2933516D1*
X4570713Y2928488D1*
X4560179Y2925065D1*
X4549239Y2923332D1*
X4538163D1*
X4527223Y2925065D1*
X4516688Y2928488D1*
X4512933Y2930219D1*
X4506997Y2927779D1*
X4500432Y2926203D1*
X4493701Y2925673D1*
X4483761D1*
X4478248Y2921150D1*
X4470384Y2916331D1*
X4461863Y2912802D1*
X4452895Y2910649D1*
X4443701Y2909925D1*
X4434506Y2910649D1*
X4425538Y2912802D1*
X4417017Y2916331D1*
X4409153Y2921150D1*
X4402140Y2927140D1*
X4396150Y2934153D1*
X4391331Y2942017D1*
X4387802Y2950538D1*
X4385649Y2959506D1*
X4384925Y2968701D1*
X4385649Y2977895D1*
X4387802Y2986863D1*
X4391331Y2995384D1*
X4396150Y3003248D1*
X4402140Y3010261D1*
X4409153Y3016251D1*
X4417017Y3021070D1*
X4425538Y3024600D1*
X4434506Y3026753D1*
X4443701Y3027476D1*
X4452895Y3026753D1*
X4461863Y3024600D1*
X4470384Y3021070D1*
X4477094Y3017022D1*
X4480808Y3025747D1*
X4486595Y3035191D1*
X4493789Y3043614D1*
X4502211Y3050807D1*
X4511655Y3056594D1*
X4521888Y3060833D1*
X4532659Y3063419D1*
X4543701Y3064288D1*
X4554743Y3063419D1*
X4565513Y3060833D1*
X4575746Y3056594D1*
X4585191Y3050807D1*
X4593613Y3043614D1*
X4599587Y3036738D1*
X4602445Y3039518D1*
Y3048933D1*
X4734957D1*
Y3036696D1*
X4740026Y3039543D1*
X4747858Y3047375D1*
X4756819Y3053885D1*
X4766688Y3058914D1*
X4777223Y3062337D1*
X4788163Y3064069D1*
X4799239D1*
X4810179Y3062337D1*
X4820713Y3058914D1*
X4830582Y3053885D1*
X4839543Y3047375D1*
X4847375Y3039543D1*
X4849587Y3036737D1*
X4851267Y3037117D1*
X4854591Y3040441D1*
X4854610Y3064681D1*
X4878832D1*
X4905998Y3091848D1*
X4905988Y3231167D1*
X4239521Y3231201D1*
X4244436Y3225247D1*
X4249578Y3216857D1*
X4253344Y3207765D1*
X4255641Y3198196D1*
X4256413Y3188386D1*
X4256220Y3144095D1*
X4254681Y3134376D1*
X4251640Y3125017D1*
X4248535Y3118682D1*
X4248539Y2909925D1*
X4236734D1*
X4236596Y2865325D1*
X4235540Y2858656D1*
X4233453Y2852235D1*
X4230388Y2846219D1*
X4226419Y2840757D1*
X4198143Y2812293D1*
X4036739Y2650889D1*
X4036728Y2615485D1*
X4076099Y2615468D1*
Y2371933D1*
X3911303D1*
Y2615468D1*
X3950668D1*
X3950806Y2672077D1*
X3951862Y2678745D1*
X3953948Y2685167D1*
X3957014Y2691183D1*
X3960982Y2696645D1*
X3989259Y2725109D1*
X4150662Y2886513D1*
X4150673Y2909932D1*
X4138862Y2909925D1*
Y2915846D1*
X4069571Y2915866D1*
X4952067Y1019768D2*
X4933120D1*
X4933135Y1000844D1*
X4949819Y1017497D1*
X4001553Y1804051D2*
X4061443D1*
X4052297Y1806201D1*
X3981210D1*
X3981201Y1196935D1*
X4007012Y1196965D1*
X4015437Y1205408D1*
Y1733722D1*
X3992366Y1733744D1*
Y1804051D1*
X4001553D1*
D147*
X2293701Y1718701D3*
X2346595Y1665807D3*
D25*
X3518701Y2643701D3*
X3443898D3*
D26*
X1768701Y1793701D3*
Y1868504D3*
D18*
X2868701Y2693701D3*
X3068701D3*
D27*
X2343701Y1043701D3*
X2190157D3*
D28*
X2643695Y2668708D3*
D29*
Y2868708D3*
D26*
X1543701Y1268701D3*
Y1343504D3*
D29*
X493701Y2718701D3*
X1081199D3*
X493701Y1768701D3*
X1081199D3*
D30*
X1518701Y1943701D3*
X1628937D3*
D26*
X1768701Y1268701D3*
Y1193898D3*
D25*
X3893701Y1218701D3*
X3968504D3*
D31*
X1993701Y3043701D3*
Y2933465D3*
D25*
X3118701Y2868701D3*
X3193504D3*
D32*
X1018701Y993681D3*
D33*
Y718720D3*
D26*
X1868701Y1268701D3*
Y1193898D3*
D28*
X2668706Y2443694D3*
D29*
Y2243694D3*
D34*
X3818701Y1768705D3*
D18*
Y1868705D3*
D35*
X2218701Y1868701D3*
X1518701D3*
D26*
X1868701Y1793701D3*
Y1868504D3*
X2018701Y1268701D3*
Y1193898D3*
X1943701Y1793701D3*
Y1868504D3*
D31*
X2718701Y2818701D3*
Y2708465D3*
D26*
X3343701Y2868701D3*
Y2793898D3*
D25*
X4243701Y1918701D3*
X4318504D3*
X4243701Y2118701D3*
X4318504D3*
D31*
X1843701Y3043701D3*
Y2933465D3*
D25*
X3893701Y1093701D3*
X3968504D3*
X4243701Y2018701D3*
X4318504D3*
D26*
X1543701Y1668701D3*
Y1743504D3*
X3943701Y1868701D3*
Y1793898D3*
X1393701Y743701D3*
Y668898D3*
D36*
X1718701Y693701D3*
X1502677D3*
D34*
X1918701Y1043696D3*
D18*
Y943696D3*
D26*
X2993701Y1318701D3*
Y1393504D3*
D34*
X2918705Y1793701D3*
D18*
X3018705D3*
D31*
X1918701Y2593701D3*
Y2703937D3*
D25*
X2818701Y1393701D3*
X2893504D3*
D26*
X3143701Y1243701D3*
Y1168898D3*
X2993701Y1243701D3*
Y1168898D3*
D25*
X3893701Y1443701D3*
X3968504D3*
X3893701Y1368701D3*
X3968504D3*
D26*
X4768701Y2843701D3*
Y2768898D3*
X4868701Y2843701D3*
Y2768898D3*
D25*
X4043701Y2968701D3*
X4118504D3*
D26*
X5068701Y2843701D3*
Y2768898D3*
D30*
X4928937Y693701D3*
X4818701D3*
D26*
X4968701Y2843701D3*
Y2768898D3*
D25*
X4043701Y3068701D3*
X4118504D3*
X3693701Y2718701D3*
X3618898D3*
D30*
X5593701Y2318701D3*
X5703937D3*
X5593701Y2218701D3*
X5703937D3*
X5593701Y2618701D3*
X5703937D3*
X5593701Y2118701D3*
X5703937D3*
X5593701Y1818701D3*
X5703937D3*
X5593701Y1718701D3*
X5703937D3*
X5593701Y1418701D3*
X5703937D3*
X5593701Y2018701D3*
X5703937D3*
X5593701Y818701D3*
X5703937D3*
X5593701Y1018701D3*
X5703937D3*
X5593701Y1218701D3*
X5703937D3*
X4193701Y3068701D3*
X4303937D3*
D25*
X3143701Y1393701D3*
X3068898D3*
X3693701Y2868701D3*
X3618898D3*
D30*
X5593701Y2418701D3*
X5703937D3*
X5593701Y2518701D3*
X5703937D3*
X5593701Y2718701D3*
X5703937D3*
X5593701Y1518701D3*
X5703937D3*
X5593701Y1918701D3*
X5703937D3*
X5593701Y1618701D3*
X5703937D3*
X5593701Y1318701D3*
X5703937D3*
X5593701Y918701D3*
X5703937D3*
X5593701Y1118701D3*
X5703937D3*
X4193701Y2968701D3*
X4303937D3*
D25*
X4493701Y718701D3*
X4418898D3*
X3618701Y1593701D3*
X3543898D3*
D37*
X2468701Y1618701D3*
Y1468701D3*
D34*
X3518701Y2318701D3*
D18*
Y2568701D3*
D38*
X1918701Y3168701D3*
X2018701D3*
D39*
X1818701D3*
D35*
X893701Y1518701D3*
X1093701D3*
D28*
Y1318701D3*
D35*
X893701D3*
D40*
X1393701Y1493701D3*
X1527559D3*
D41*
X3068701Y2518701D3*
X2829331D3*
D34*
X1368701Y2468701D3*
D18*
Y2718701D3*
D37*
X1868701Y718701D3*
Y868701D3*
D42*
X1668701Y2802559D3*
Y2668701D3*
D37*
X1618701Y918701D3*
Y1068701D3*
D42*
X2168701Y2802559D3*
Y2668701D3*
X2068701D3*
Y2802559D3*
D34*
X2843701Y993701D3*
D18*
X2943701D3*
D42*
X1768701Y2668701D3*
Y2802559D3*
D43*
X5218701Y3018701D3*
X5068701D3*
D42*
X4643701Y918701D3*
Y784843D3*
Y652559D3*
Y518701D3*
D44*
X4668701Y2993701D3*
Y3168701D3*
D45*
X5368701Y3018552D3*
D46*
Y3168552D3*
D42*
X4893701Y3143701D3*
Y3009843D3*
X4418701Y784843D3*
Y918701D3*
Y518701D3*
Y652559D3*
D29*
X868701Y2943701D3*
Y3143701D3*
D28*
X1193701D3*
Y2993701D3*
X5543701Y518701D3*
Y668701D3*
D47*
X3143701Y2518701D3*
Y2268701D3*
D48*
X3593701Y2043701D3*
X3818701D3*
D29*
X543701Y2443701D3*
X1043701D3*
X543701Y2043701D3*
X1043701D3*
D49*
X2668701Y1793701D3*
X2768701D3*
X1618701Y793701D3*
X1737499D3*
D50*
X4243701Y2493701D3*
X4543701D3*
X3693701D3*
X3993701D3*
D49*
X3943701Y2968701D3*
X4443701D3*
D51*
X5293701Y2368701D3*
Y2768701D3*
Y1693701D3*
Y2093701D3*
Y1018701D3*
Y1418701D3*
D49*
X3868701Y1593701D3*
X4368701D3*
D52*
X3543701Y1493701D3*
X3443701D3*
X3343701D3*
X3243701D3*
D38*
X4193701Y3168701D3*
X4293701D3*
D39*
X4093701D3*
D38*
X5068701D3*
X5168701D3*
D39*
X4968701D3*
D54*
X3468701Y1668701D3*
Y1593898D3*
X3378150Y1631299D3*
D25*
X2293701Y1243701D3*
X2368504D3*
D18*
X2468701Y918701D3*
X2068701D3*
D26*
X3518701Y2393701D3*
Y2468504D3*
D18*
X1718701Y1368701D3*
Y968701D3*
X2293701Y1343701D3*
X1893701D3*
D26*
X3343701Y2643701D3*
Y2718504D3*
X3518701Y2243701D3*
Y2168898D3*
D30*
X4033465Y2118701D3*
X4143701D3*
X4033465Y1918701D3*
X4143701D3*
D25*
X1368701Y2818701D3*
X1443504D3*
D26*
X1618701Y1343701D3*
Y1268898D3*
D30*
X4033465Y2018701D3*
X4143701D3*
D26*
X1943701Y1268701D3*
Y1193898D3*
D25*
X2018701Y1793701D3*
X2093504D3*
D55*
X1737451Y1693701D3*
X1866388D3*
D26*
X1693701Y1268701D3*
Y1193898D3*
D29*
X2493701Y3143701D3*
Y2993701D3*
D25*
X1368701Y2593701D3*
X1293898D3*
D26*
X4243701Y1768701D3*
Y1843504D3*
D25*
X1468504Y1668701D3*
X1393701D3*
D26*
X1618701Y1418701D3*
Y1493504D3*
D25*
X1468701Y1743701D3*
X1393898D3*
X1543701Y1593701D3*
X1618504D3*
D26*
X2093701Y1268701D3*
Y1193898D3*
D25*
X2018701Y1868701D3*
X2093504D3*
D26*
X3268701Y2868701D3*
Y2793898D3*
D25*
X3193701Y2793701D3*
X3118898D3*
D26*
X2743701Y2918701D3*
Y2993504D3*
D25*
X3968701Y1293701D3*
X3893898D3*
X3968504Y1018701D3*
X3893701D3*
D26*
X1218701Y618701D3*
Y693504D3*
X1293701Y668701D3*
Y743504D3*
X1818701Y1043504D3*
Y968701D3*
D150*
X2993701Y1043701D3*
X3046595Y1096595D3*
D25*
X4043898Y1018701D3*
X4118701D3*
X3768701Y3168701D3*
X3843504D3*
D26*
X4899950Y1068701D3*
Y1143504D3*
X3218701Y1668701D3*
Y1593898D3*
D25*
X3918701Y3168701D3*
X3993504D3*
X4568701Y718701D3*
X4643504D3*
D18*
X3693701Y1668701D3*
X3293701D3*
D29*
X4543701Y3143701D3*
Y2993701D3*
D26*
X3518701Y3093701D3*
Y3018898D3*
D25*
X3618701Y1668701D3*
X3543898D3*
D29*
X4793701Y2993700D3*
Y3143700D3*
X643701Y1218701D3*
Y1518701D3*
D56*
X2318701Y2043701D3*
X2118701D3*
X1918701D3*
X1718701D3*
X1518701D3*
X2318701Y2943701D3*
X2118701D3*
X1918701D3*
X1718701D3*
X1518701D3*
D18*
X4718701Y518701D3*
X4818701D3*
D57*
X5018701Y868701D3*
Y568701D3*
D18*
X4718701Y918701D3*
X4818701D3*
D58*
X1793699Y1443701D3*
X1869685D3*
X1945668D3*
X2021651D3*
X2097635D3*
X2211122D3*
X2287105Y1561811D3*
X2173621D3*
X2060135D3*
X1984151D3*
X1908168D3*
X1832185D3*
X1718699D3*
D59*
X2831102Y2768701D3*
Y2818699D3*
Y2868699D3*
Y2918701D3*
X3043701Y2918699D3*
Y2868701D3*
Y2818699D3*
Y2768701D3*
D60*
X2937402Y2843701D3*
D62*
X4037362Y1768898D3*
Y1806299D3*
Y1843701D3*
X4143661D3*
Y1768898D3*
D63*
X4279524Y866043D3*
X4179524D3*
X4079524D3*
X3979524D3*
X3879524D3*
X3779524D3*
X3679524D3*
X3579524D3*
X3479524D3*
X3379524D3*
X3279524D3*
X3179524D3*
X3079524D3*
X2979524D3*
X2879524D3*
X2779524D3*
D64*
X1293701Y818701D3*
Y868701D3*
Y918701D3*
Y968701D3*
X1506299D3*
Y918701D3*
Y868701D3*
Y818701D3*
D38*
X2918701Y1518701D3*
X2818701D3*
D39*
X3018701D3*
D65*
X2818701Y1243701D3*
Y1281102D3*
Y1318504D3*
X2909252D3*
Y1243701D3*
D66*
X3543701Y1306201D3*
Y1280610D3*
Y1255020D3*
Y1229429D3*
Y1203839D3*
Y1178248D3*
Y1152657D3*
Y1127067D3*
Y1101476D3*
Y1075886D3*
X3315346D3*
X3315354Y1101476D3*
Y1127067D3*
Y1152657D3*
Y1178248D3*
Y1203839D3*
Y1229429D3*
Y1255020D3*
Y1280610D3*
Y1306201D3*
D64*
X3618701Y2943701D3*
Y2993701D3*
Y3043701D3*
Y3093701D3*
X3831299D3*
Y3043701D3*
Y2993701D3*
Y2943701D3*
D26*
X1293701Y2368701D3*
X1393701D3*
Y2014370D3*
X1293701D3*
D18*
X3418701Y2718701D3*
X3518701Y2818701D3*
X3418701Y2918701D3*
X3718701Y1443701D3*
Y1253701D3*
M02*
