M48
INCH
T01C0.0197
T02C0.0276
T03C0.0354
T04C0.0394
T05C0.0433
T06C0.0551
%
T01
X+029687Y+028937
X+029687Y+028437
X+029687Y+027937
X+029062Y+027937
X+029062Y+028437
X+029062Y+028937
X+036187Y+027937
X+044187Y+031687
X+052937Y+031687
X+054437Y+031687
X+043937Y+020187
X+039437Y+017187
X+040437Y+010937
X+029187Y+016312
X+019687Y+028437
X+018687Y+028437
T02
X+028687Y+026937
X+030687Y+026937
X+034187Y+027187
X+035187Y+028187
X+034187Y+029187
X+039437Y+029687
X+044437Y+029687
X+038187Y+018687
X+038187Y+017687
X+036937Y+016687
X+038687Y+015937
X+037187Y+014437
X+037187Y+012537
X+036795Y+008660
X+035795Y+008660
X+034795Y+008660
X+033795Y+008660
X+032795Y+008660
X+031795Y+008660
X+030795Y+008660
X+029795Y+008660
X+028795Y+008660
X+027795Y+008660
X+028437Y+009937
X+029437Y+009937
X+024687Y+009187
X+020687Y+009187
X+019187Y+009437
X+019187Y+010437
X+017187Y+009687
X+017375Y+007937
X+016187Y+007937
X+017187Y+013687
X+017937Y+014437
X+018697Y+014437
X+019457Y+014437
X+020217Y+014437
X+020976Y+014437
X+022111Y+014437
X+021736Y+015618
X+022871Y+015618
X+022937Y+013437
X+020601Y+015618
X+019842Y+015618
X+019082Y+015618
X+018322Y+015618
X+017187Y+015618
X+018937Y+013437
X+026687Y+017937
X+027687Y+017937
X+029187Y+017937
X+030187Y+017937
X+032937Y+016687
X+026687Y+022437
X+026687Y+024437
X+026437Y+026687
X+026437Y+028687
X+043687Y+015937
X+042795Y+008660
X+041795Y+008660
X+040795Y+008660
X+039795Y+008660
X+038795Y+008660
X+037795Y+008660
T03
X+004937Y+027187
X+005437Y+024437
X+005437Y+020437
X+004937Y+017687
X+006437Y+015187
X+008937Y+015187
X+010937Y+015187
X+010937Y+013187
X+008937Y+013187
X+006437Y+012187
X+010812Y+017687
X+010437Y+020437
X+010437Y+024437
X+010812Y+027187
X+013687Y+027187
X+013687Y+024687
X+015187Y+020437
X+015187Y+018687
X+017187Y+020437
X+019187Y+020437
X+021187Y+020437
X+023187Y+020437
X+022187Y+018687
X+031437Y+022687
X+031437Y+025187
X+035187Y+025687
X+036937Y+024937
X+035187Y+023187
X+039937Y+024937
X+042437Y+024937
X+045437Y+024937
X+045437Y+029937
X+045437Y+031437
X+047937Y+031437
X+047937Y+029937
X+048187Y+009187
X+047187Y+009187
X+050187Y+008687
X+050187Y+005687
X+048187Y+005187
X+047187Y+005187
X+024937Y+029937
X+024937Y+031437
X+023187Y+029437
X+021187Y+029437
X+019187Y+029437
X+017187Y+029437
X+015187Y+029437
X+008687Y+029437
X+008687Y+031437
T04
X+010187Y+009937
X+010187Y+007187
X+028187Y+015187
X+029187Y+015187
X+030187Y+015187
X+032437Y+014937
X+033437Y+014937
X+034437Y+014937
X+035437Y+014937
X+040937Y+031687
X+041937Y+031687
X+042937Y+031687
X+049687Y+031687
X+050687Y+031687
X+051687Y+031687
X+055437Y+006687
X+055437Y+005187
X+020187Y+031687
X+019187Y+031687
X+018187Y+031687
X+011937Y+031437
X+011937Y+029937
T05
X+053687Y+030186
X+053687Y+031686
T06
X+052937Y+023687
X+052937Y+020937
X+052937Y+016937
X+052937Y+014187
X+052937Y+010187
X+052937Y+027687
T00
M30
