G04 DipTrace 3.2.0.1*
G04 Top.gbr*
%MOIN*%
G04 #@! TF.FileFunction,Copper,L1,Top*
G04 #@! TF.Part,Single*
G04 #@! TA.AperFunction,ComponentPad*
%ADD18C,0.070866*%
G04 #@! TA.AperFunction,CopperBalancing*
%ADD24C,0.025*%
G04 #@! TA.AperFunction,ComponentPad*
%ADD28R,0.094488X0.094488*%
%ADD29C,0.094488*%
%ADD32R,0.11811X0.11811*%
%ADD33C,0.11811*%
%ADD34R,0.070866X0.070866*%
%ADD35C,0.094488*%
%ADD38O,0.07874X0.11811*%
%ADD39R,0.07874X0.11811*%
%ADD45R,0.102362X0.102362*%
%ADD46C,0.102362*%
%ADD47O,0.11811X0.094488*%
%ADD49C,0.070866*%
%ADD50R,0.11811X0.19685*%
%ADD52O,0.070866X0.086614*%
%ADD56R,0.07874X0.102362*%
%ADD57R,0.19685X0.11811*%
%ADD58O,0.051181X0.086614*%
%ADD63O,0.059055X0.098425*%
G04 #@! TA.AperFunction,ViaPad*
%ADD67C,0.059055*%
%FSLAX26Y26*%
G04*
G70*
G90*
G75*
G01*
G04 Top*
%LPD*%
D67*
X2968701Y2893701D3*
X2906201D3*
Y2843701D3*
X2968701D3*
X4418701Y3168701D3*
X4043701Y1093701D3*
X5293701Y3168701D3*
X5443701D3*
X3618701Y2793701D3*
X2906201D3*
X2918701Y1631201D3*
X3943701Y1718701D3*
X4393701Y2018701D3*
X2968701Y2793701D3*
X1868701Y2843701D3*
X1968701D3*
X1408715Y3206332D2*
D24*
X1753478D1*
X2081292D2*
X2942680D1*
X3494734D2*
X4028499D1*
X4256304D2*
X4903499D1*
X5131304D2*
X5703717D1*
X1408715Y3181463D2*
X1753478D1*
X2083911D2*
X2952620D1*
X3484758D2*
X4028499D1*
X4258924D2*
X4903499D1*
X5133924D2*
X5703717D1*
X1408715Y3156594D2*
X1753478D1*
X2083911D2*
X2962595D1*
X3474818D2*
X4028499D1*
X4258924D2*
X4903499D1*
X5133924D2*
X5703717D1*
X1408715Y3131726D2*
X1753478D1*
X2081471D2*
X2972535D1*
X3464879D2*
X4028499D1*
X4256484D2*
X4903499D1*
X5131484D2*
X5703717D1*
X1408715Y3106857D2*
X1753478D1*
X2067620D2*
X2985382D1*
X3452032D2*
X4028499D1*
X4242632D2*
X4903499D1*
X5117632D2*
X5703717D1*
X1408715Y3081988D2*
X3010250D1*
X3427164D2*
X5291694D1*
X5445721D2*
X5703717D1*
X1408715Y3057119D2*
X2460217D1*
X2527189D2*
X3035117D1*
X3402296D2*
X4510209D1*
X4577181D2*
X4760214D1*
X4827186D2*
X5291694D1*
X5445721D2*
X5703717D1*
X1408715Y3032251D2*
X2432084D1*
X2555322D2*
X3059985D1*
X3377429D2*
X4482075D1*
X4605314D2*
X4732081D1*
X4855319D2*
X5291694D1*
X5445721D2*
X5703717D1*
X1408715Y3007382D2*
X1453486D1*
X1583901D2*
X1653504D1*
X1783920D2*
X2053505D1*
X2183921D2*
X2253488D1*
X2383903D2*
X2421964D1*
X2565441D2*
X3084853D1*
X3352561D2*
X3896948D1*
X3990438D2*
X4396958D1*
X4615433D2*
X4721961D1*
X4865438D2*
X5291694D1*
X5445721D2*
X5703717D1*
X1408715Y2982513D2*
X1453486D1*
X1583901D2*
X1653504D1*
X1783920D2*
X2053505D1*
X2183921D2*
X2253488D1*
X2383903D2*
X2421498D1*
X2565908D2*
X3208402D1*
X3229012D2*
X3884065D1*
X4003321D2*
X4384076D1*
X4615900D2*
X4721495D1*
X4865905D2*
X5291694D1*
X5445721D2*
X5703717D1*
X1408715Y2957644D2*
X1453486D1*
X1583901D2*
X1653504D1*
X1783920D2*
X2053505D1*
X2183921D2*
X2253488D1*
X2383903D2*
X2430505D1*
X2556901D2*
X3372178D1*
X3465237D2*
X3883491D1*
X4003931D2*
X4383466D1*
X4606893D2*
X4730502D1*
X4856898D2*
X5291694D1*
X5445721D2*
X5703717D1*
X1408715Y2932776D2*
X1453486D1*
X1583901D2*
X1653504D1*
X1783920D2*
X2053505D1*
X2183921D2*
X2253488D1*
X2383903D2*
X2455552D1*
X2531854D2*
X2611576D1*
X2675821D2*
X3359152D1*
X3478263D2*
X3894687D1*
X3992735D2*
X4394697D1*
X4492709D2*
X4505564D1*
X4581846D2*
X4755549D1*
X4831851D2*
X5710140D1*
X1408715Y2907907D2*
X1453486D1*
X1583901D2*
X1653504D1*
X1783920D2*
X2053505D1*
X2183921D2*
X2253488D1*
X2383903D2*
X2582510D1*
X2704887D2*
X3358434D1*
X3478981D2*
X6003708D1*
X1408715Y2883038D2*
X1453486D1*
X1583901D2*
X1653504D1*
X1783920D2*
X2053505D1*
X2183921D2*
X2253488D1*
X2383903D2*
X2572068D1*
X2715330D2*
X3369486D1*
X3467929D2*
X6003708D1*
X1402937Y2858169D2*
X2571386D1*
X2715976D2*
X3472653D1*
X3564744D2*
X6003708D1*
X1258719Y2833301D2*
X2580142D1*
X2707256D2*
X3459268D1*
X3578129D2*
X6003708D1*
X1258719Y2808432D2*
X2604471D1*
X2682926D2*
X3458335D1*
X3579062D2*
X5259399D1*
X5328021D2*
X6003708D1*
X1258719Y2783563D2*
X3469101D1*
X3568333D2*
X5242533D1*
X5344887D2*
X6003708D1*
X1258719Y2758694D2*
X3373146D1*
X3464268D2*
X5241277D1*
X5346107D2*
X6003708D1*
X1258719Y2733825D2*
X2823257D1*
X2914164D2*
X3023240D1*
X3114146D2*
X3359403D1*
X3478012D2*
X5254124D1*
X5333260D2*
X6003708D1*
X1258719Y2708957D2*
X2809442D1*
X2927979D2*
X3009424D1*
X3127962D2*
X3358254D1*
X3479160D2*
X6003708D1*
X1258719Y2684088D2*
X2808222D1*
X2929199D2*
X3008204D1*
X3129182D2*
X3368697D1*
X3468718D2*
X6003708D1*
X1258719Y2659219D2*
X2818592D1*
X2918793D2*
X3018611D1*
X3118811D2*
X6003708D1*
X1258719Y2634350D2*
X6003708D1*
X1258719Y2609482D2*
X3473873D1*
X3563524D2*
X3608798D1*
X3778614D2*
X3908790D1*
X4078606D2*
X4158795D1*
X4328611D2*
X4458787D1*
X4628603D2*
X6003708D1*
X1258719Y2584613D2*
X3104123D1*
X3183259D2*
X3459627D1*
X3577770D2*
X3608798D1*
X3778614D2*
X3908790D1*
X4078606D2*
X4158795D1*
X4328611D2*
X4458787D1*
X4628603D2*
X6003708D1*
X1258719Y2559744D2*
X3071970D1*
X3215448D2*
X3458120D1*
X3579277D2*
X3608798D1*
X3778614D2*
X3908790D1*
X4078606D2*
X4158795D1*
X4328611D2*
X4458787D1*
X4628603D2*
X6003708D1*
X1258719Y2534875D2*
X3060667D1*
X3226715D2*
X3468132D1*
X3569266D2*
X3608798D1*
X3778614D2*
X3908790D1*
X4078606D2*
X4158795D1*
X4328611D2*
X4458787D1*
X4628603D2*
X6003708D1*
X1258719Y2510007D2*
X1307437D1*
X1429994D2*
X3059339D1*
X3228079D2*
X3513095D1*
X3524286D2*
X3608798D1*
X3778614D2*
X3908790D1*
X4078606D2*
X4158795D1*
X4328611D2*
X4458787D1*
X4628603D2*
X6003708D1*
X1258719Y2485138D2*
X1307437D1*
X1429994D2*
X3067306D1*
X3220112D2*
X3608798D1*
X3778614D2*
X3908790D1*
X4078606D2*
X4158795D1*
X4328611D2*
X4458787D1*
X4628603D2*
X6003708D1*
X1258719Y2460269D2*
X1307437D1*
X1429994D2*
X3089805D1*
X3197613D2*
X3608798D1*
X3778614D2*
X3908790D1*
X4078606D2*
X4158795D1*
X4328611D2*
X4458787D1*
X4628603D2*
X6003708D1*
X1258719Y2435400D2*
X1307437D1*
X1429994D2*
X3608798D1*
X3778614D2*
X3908790D1*
X4078606D2*
X4158795D1*
X4328611D2*
X4458787D1*
X4628603D2*
X6003708D1*
X1258719Y2410531D2*
X1307437D1*
X1429994D2*
X3608798D1*
X3778614D2*
X3908790D1*
X4078606D2*
X4158795D1*
X4328611D2*
X4458787D1*
X4628603D2*
X5262198D1*
X5325186D2*
X6003708D1*
X1258719Y2385663D2*
X3608798D1*
X3778614D2*
X3908790D1*
X4078606D2*
X4158795D1*
X4328611D2*
X4458787D1*
X4628603D2*
X5243215D1*
X5344205D2*
X6003708D1*
X1258719Y2360794D2*
X3457438D1*
X3579959D2*
X5240918D1*
X5346502D2*
X6003708D1*
X1258719Y2335925D2*
X3107855D1*
X3179527D2*
X3457438D1*
X3579959D2*
X5252258D1*
X5335162D2*
X6003708D1*
X1258719Y2311056D2*
X2645128D1*
X2692292D2*
X3072939D1*
X3214479D2*
X3457438D1*
X3579959D2*
X6003708D1*
X1258719Y2286188D2*
X2609854D1*
X2727566D2*
X3060990D1*
X3226392D2*
X3457438D1*
X3579959D2*
X6003708D1*
X2396247Y2261319D2*
X2597869D1*
X2739551D2*
X3059196D1*
X3228222D2*
X3457438D1*
X3579959D2*
X6003708D1*
X2421115Y2236450D2*
X2596003D1*
X2741417D2*
X3066588D1*
X3220794D2*
X6003708D1*
X2445983Y2211581D2*
X2603359D1*
X2734061D2*
X3087903D1*
X3199479D2*
X6003708D1*
X2470851Y2186713D2*
X2624531D1*
X2712854D2*
X6003708D1*
X2495718Y2161844D2*
X6003708D1*
X2520622Y2136975D2*
X5264387D1*
X5322998D2*
X6003708D1*
X2545490Y2112106D2*
X5243753D1*
X5343667D2*
X6003708D1*
X2570358Y2087238D2*
X5240703D1*
X5346681D2*
X6003708D1*
X2595225Y2062369D2*
X5251074D1*
X5336311D2*
X6003708D1*
X2608718Y2037500D2*
X6003708D1*
X2608718Y2012631D2*
X6003708D1*
X2608718Y1987762D2*
X6003708D1*
X2608718Y1962894D2*
X6003708D1*
X2608718Y1938025D2*
X6003708D1*
X2608718Y1913156D2*
X3777741D1*
X3859640D2*
X6003708D1*
X2608718Y1888287D2*
X3760767D1*
X3876614D2*
X6003708D1*
X2608718Y1863419D2*
X3757681D1*
X3879736D2*
X6003708D1*
X2608718Y1838550D2*
X2628227D1*
X2709193D2*
X2728200D1*
X2809203D2*
X2978205D1*
X3059208D2*
X3765755D1*
X3871662D2*
X6003708D1*
X2826463Y1813681D2*
X2960945D1*
X3076468D2*
X3795539D1*
X3841878D2*
X6003708D1*
X2829764Y1788812D2*
X2957643D1*
X3079769D2*
X6003708D1*
X2821870Y1763944D2*
X2965502D1*
X3071875D2*
X6003708D1*
X2608718Y1739075D2*
X2644518D1*
X2692902D2*
X2744491D1*
X2792911D2*
X2994496D1*
X3042916D2*
X5268119D1*
X5319266D2*
X6003708D1*
X2608718Y1714206D2*
X3254011D1*
X3333399D2*
X3654012D1*
X3733400D2*
X5244614D1*
X5342806D2*
X6003708D1*
X2608718Y1689337D2*
X3236176D1*
X3351233D2*
X3636178D1*
X3751234D2*
X5240488D1*
X5346932D2*
X6003708D1*
X2608718Y1664469D2*
X3232588D1*
X3354822D2*
X3632589D1*
X3754823D2*
X5249531D1*
X5337854D2*
X6003708D1*
X2608718Y1639600D2*
X3240124D1*
X3347250D2*
X3640125D1*
X3747251D2*
X3829486D1*
X3907905D2*
X4329496D1*
X4407915D2*
X6003708D1*
X2608718Y1614731D2*
X3267934D1*
X3319476D2*
X3667935D1*
X3719477D2*
X3811328D1*
X3926098D2*
X4311303D1*
X4426072D2*
X6003708D1*
X2608718Y1589862D2*
X2780376D1*
X2857036D2*
X2953481D1*
X3083896D2*
X3807560D1*
X3929866D2*
X4307535D1*
X4429840D2*
X6003708D1*
X2608718Y1564993D2*
X2759419D1*
X2877993D2*
X2953481D1*
X3083896D2*
X3814917D1*
X3922474D2*
X4314927D1*
X4422484D2*
X6003708D1*
X2608718Y1540125D2*
X2753498D1*
X2883878D2*
X2953481D1*
X3083896D2*
X3196847D1*
X3490572D2*
X3842045D1*
X3895381D2*
X4342019D1*
X4395355D2*
X6003708D1*
X2608718Y1515256D2*
X2753498D1*
X2883914D2*
X2953481D1*
X3083896D2*
X3184037D1*
X3503346D2*
X6003708D1*
X2608718Y1490387D2*
X2754072D1*
X2883303D2*
X2953481D1*
X3083896D2*
X3182422D1*
X3504961D2*
X3680494D1*
X3756904D2*
X6003708D1*
X2608718Y1465518D2*
X2763187D1*
X2874225D2*
X2953481D1*
X3083896D2*
X3186046D1*
X3501373D2*
X3661619D1*
X3775779D2*
X5271240D1*
X5316180D2*
X6003708D1*
X2608718Y1440650D2*
X2793258D1*
X2844154D2*
X2953481D1*
X3083896D2*
X3203594D1*
X3283807D2*
X3303603D1*
X3383816D2*
X3403612D1*
X3483789D2*
X3657493D1*
X3779906D2*
X5245260D1*
X5342124D2*
X6003708D1*
X2608718Y1415781D2*
X3664490D1*
X3772908D2*
X5240380D1*
X5347004D2*
X6003708D1*
X2608718Y1390912D2*
X3690363D1*
X3747036D2*
X5248562D1*
X5338858D2*
X6003708D1*
X2608718Y1366043D2*
X6003708D1*
X2608718Y1341175D2*
X6003708D1*
X2608718Y1316306D2*
X6003708D1*
X2608718Y1291437D2*
X3671129D1*
X3766270D2*
X6003708D1*
X2608718Y1266568D2*
X3658856D1*
X3778542D2*
X6003708D1*
X2608718Y1241699D2*
X3658677D1*
X3778722D2*
X6003708D1*
X2608718Y1216831D2*
X3670411D1*
X3766987D2*
X6003708D1*
X2608718Y1191962D2*
X6003708D1*
X2608718Y1167093D2*
X6003708D1*
X2608718Y1142224D2*
X6003708D1*
X2608718Y1117356D2*
X6003708D1*
X2608718Y1092487D2*
X6003708D1*
X2608718Y1067618D2*
X5277125D1*
X5310259D2*
X6003708D1*
X2608718Y1042749D2*
X2908805D1*
X2978576D2*
X5246337D1*
X5341047D2*
X6003708D1*
X2608718Y1017881D2*
X2887633D1*
X2999784D2*
X5240308D1*
X5347112D2*
X6003708D1*
X2608718Y993012D2*
X2882430D1*
X3004987D2*
X5247270D1*
X5340150D2*
X6003708D1*
X2608718Y968143D2*
X2888279D1*
X2999138D2*
X4684426D1*
X4752977D2*
X4784436D1*
X4852986D2*
X5285307D1*
X5302113D2*
X6003708D1*
X2608718Y943274D2*
X2910994D1*
X2976387D2*
X4662824D1*
X4874589D2*
X4894421D1*
X5142967D2*
X6003708D1*
X2608718Y918406D2*
X2835458D1*
X2923601D2*
X2935467D1*
X3023575D2*
X3035482D1*
X3123584D2*
X3135436D1*
X3223593D2*
X3235459D1*
X3323602D2*
X3331521D1*
X3727515D2*
X3735469D1*
X3823577D2*
X3935452D1*
X4023595D2*
X4035461D1*
X4123569D2*
X4135470D1*
X4223578D2*
X4657441D1*
X4879971D2*
X4894421D1*
X5142967D2*
X6003708D1*
X2608718Y893537D2*
X2824728D1*
X3834306D2*
X3924722D1*
X4234307D2*
X4663075D1*
X4874302D2*
X4894421D1*
X5142967D2*
X6003708D1*
X2608718Y868668D2*
X2824154D1*
X3834880D2*
X3924148D1*
X4234881D2*
X4685359D1*
X4752044D2*
X4785369D1*
X4852053D2*
X4894421D1*
X5142967D2*
X6003708D1*
X2608718Y843799D2*
X2824226D1*
X3834844D2*
X3924220D1*
X4234845D2*
X4894421D1*
X5142967D2*
X6003708D1*
X2608718Y818930D2*
X2831833D1*
X3827237D2*
X3931827D1*
X4227238D2*
X4894421D1*
X5142967D2*
X6003708D1*
X2608718Y794062D2*
X2869261D1*
X2889799D2*
X2969270D1*
X2989772D2*
X3069243D1*
X3089781D2*
X3169252D1*
X3189790D2*
X3269262D1*
X3289800D2*
X3356927D1*
X3402117D2*
X3456936D1*
X3502090D2*
X3556945D1*
X3602100D2*
X3656954D1*
X3702109D2*
X3769272D1*
X3789774D2*
X3969255D1*
X3989792D2*
X4069264D1*
X4089802D2*
X4169273D1*
X4189775D2*
X4894421D1*
X5142967D2*
X6003708D1*
X2608718Y769193D2*
X6003708D1*
X2608718Y744324D2*
X6003708D1*
X2608718Y719455D2*
X5703717D1*
X2608718Y694587D2*
X5703717D1*
X2608718Y669718D2*
X3157554D1*
X3279860D2*
X5703717D1*
X2608718Y644849D2*
X3074662D1*
X3362716D2*
X4894421D1*
X5142967D2*
X5703717D1*
X2608718Y619980D2*
X3049794D1*
X3387584D2*
X4894421D1*
X5142967D2*
X5703717D1*
X2608718Y595112D2*
X3024926D1*
X3412452D2*
X4894421D1*
X5142967D2*
X5703717D1*
X2608718Y570243D2*
X3000059D1*
X3437319D2*
X4687943D1*
X4749461D2*
X4787952D1*
X4849434D2*
X4894421D1*
X5142967D2*
X5470613D1*
X5616781D2*
X5703717D1*
X2608718Y545374D2*
X2978420D1*
X3458993D2*
X4663829D1*
X4873584D2*
X4894421D1*
X5142967D2*
X5470613D1*
X5616781D2*
X5703717D1*
X2608718Y520505D2*
X2968445D1*
X3468933D2*
X4657441D1*
X4879936D2*
X4894421D1*
X5142967D2*
X5470613D1*
X5616781D2*
X5703717D1*
X2608718Y495636D2*
X2958505D1*
X3478873D2*
X4662142D1*
X4875271D2*
X4894421D1*
X5142967D2*
X5470613D1*
X5616781D2*
X5703717D1*
X2608718Y470768D2*
X2948565D1*
X3488849D2*
X4682202D1*
X4755202D2*
X4782175D1*
X4855211D2*
X5470613D1*
X5616781D2*
X5703717D1*
X2608718Y445899D2*
X2938625D1*
X3498789D2*
X5703717D1*
X2927295Y2689089D2*
X2925852Y2679980D1*
X2923002Y2671208D1*
X2918815Y2662991D1*
X2913394Y2655529D1*
X2906872Y2649007D1*
X2899411Y2643586D1*
X2891193Y2639399D1*
X2882422Y2636549D1*
X2873312Y2635106D1*
X2864089D1*
X2854980Y2636549D1*
X2846208Y2639399D1*
X2837991Y2643586D1*
X2830529Y2649007D1*
X2824007Y2655529D1*
X2818586Y2662991D1*
X2814399Y2671208D1*
X2811549Y2679980D1*
X2810106Y2689089D1*
Y2698312D1*
X2811549Y2707422D1*
X2814399Y2716193D1*
X2818586Y2724411D1*
X2824007Y2731872D1*
X2830529Y2738394D1*
X2837991Y2743815D1*
X2846208Y2748002D1*
X2854980Y2750852D1*
X2864089Y2752295D1*
X2873312D1*
X2882422Y2750852D1*
X2891193Y2748002D1*
X2899411Y2743815D1*
X2906872Y2738394D1*
X2913394Y2731872D1*
X2918815Y2724411D1*
X2923002Y2716193D1*
X2925852Y2707422D1*
X2927295Y2698312D1*
Y2689089D1*
X3127295D2*
X3125852Y2679980D1*
X3123002Y2671208D1*
X3118815Y2662991D1*
X3113394Y2655529D1*
X3106872Y2649007D1*
X3099411Y2643586D1*
X3091193Y2639399D1*
X3082422Y2636549D1*
X3073312Y2635106D1*
X3064089D1*
X3054980Y2636549D1*
X3046208Y2639399D1*
X3037991Y2643586D1*
X3030529Y2649007D1*
X3024007Y2655529D1*
X3018586Y2662991D1*
X3014399Y2671208D1*
X3011549Y2679980D1*
X3010106Y2689089D1*
Y2698312D1*
X3011549Y2707422D1*
X3014399Y2716193D1*
X3018586Y2724411D1*
X3024007Y2731872D1*
X3030529Y2738394D1*
X3037991Y2743815D1*
X3046208Y2748002D1*
X3054980Y2750852D1*
X3064089Y2752295D1*
X3073312D1*
X3082422Y2750852D1*
X3091193Y2748002D1*
X3099411Y2743815D1*
X3106872Y2738394D1*
X3113394Y2731872D1*
X3118815Y2724411D1*
X3123002Y2716193D1*
X3125852Y2707422D1*
X3127295Y2698312D1*
Y2689089D1*
X2714064Y2863170D2*
X2712332Y2852230D1*
X2708909Y2841695D1*
X2703880Y2831826D1*
X2697370Y2822865D1*
X2689538Y2815033D1*
X2680577Y2808523D1*
X2670708Y2803494D1*
X2660173Y2800071D1*
X2649234Y2798339D1*
X2638157D1*
X2627217Y2800071D1*
X2616683Y2803494D1*
X2606814Y2808523D1*
X2597853Y2815033D1*
X2590021Y2822865D1*
X2583510Y2831826D1*
X2578482Y2841695D1*
X2575059Y2852230D1*
X2573326Y2863170D1*
Y2874246D1*
X2575059Y2885186D1*
X2578482Y2895720D1*
X2583510Y2905589D1*
X2590021Y2914550D1*
X2597853Y2922382D1*
X2606814Y2928893D1*
X2616683Y2933921D1*
X2627217Y2937344D1*
X2638157Y2939077D1*
X2649234D1*
X2660173Y2937344D1*
X2670708Y2933921D1*
X2680577Y2928893D1*
X2689538Y2922382D1*
X2697370Y2914550D1*
X2703880Y2905589D1*
X2708909Y2895720D1*
X2712332Y2885186D1*
X2714064Y2874246D1*
Y2863170D1*
X2739075Y2238156D2*
X2737343Y2227216D1*
X2733920Y2216681D1*
X2728891Y2206812D1*
X2722381Y2197851D1*
X2714549Y2190019D1*
X2705588Y2183509D1*
X2695719Y2178480D1*
X2685184Y2175057D1*
X2674244Y2173325D1*
X2663168D1*
X2652228Y2175057D1*
X2641694Y2178480D1*
X2631825Y2183509D1*
X2622864Y2190019D1*
X2615032Y2197851D1*
X2608521Y2206812D1*
X2603493Y2216681D1*
X2600070Y2227216D1*
X2598337Y2238156D1*
Y2249232D1*
X2600070Y2260172D1*
X2603493Y2270706D1*
X2608521Y2280575D1*
X2615032Y2289536D1*
X2622864Y2297368D1*
X2631825Y2303879D1*
X2641694Y2308907D1*
X2652228Y2312330D1*
X2663168Y2314063D1*
X2674244D1*
X2685184Y2312330D1*
X2695719Y2308907D1*
X2705588Y2303879D1*
X2714549Y2297368D1*
X2722381Y2289536D1*
X2728891Y2280575D1*
X2733920Y2270706D1*
X2737343Y2260172D1*
X2739075Y2249232D1*
Y2238156D1*
X3877295Y1864094D2*
X3875853Y1854984D1*
X3873003Y1846213D1*
X3868816Y1837995D1*
X3863394Y1830534D1*
X3856873Y1824012D1*
X3849411Y1818591D1*
X3841194Y1814404D1*
X3832422Y1811554D1*
X3823313Y1810111D1*
X3814090D1*
X3804980Y1811554D1*
X3796209Y1814404D1*
X3787991Y1818591D1*
X3780529Y1824012D1*
X3774008Y1830534D1*
X3768587Y1837995D1*
X3764400Y1846213D1*
X3761549Y1854984D1*
X3760107Y1864094D1*
Y1873317D1*
X3761549Y1882426D1*
X3764400Y1891198D1*
X3768587Y1899415D1*
X3774008Y1906877D1*
X3780529Y1913399D1*
X3787991Y1918820D1*
X3796209Y1923007D1*
X3804980Y1925857D1*
X3814090Y1927300D1*
X3823313D1*
X3832422Y1925857D1*
X3841194Y1923007D1*
X3849411Y1918820D1*
X3856873Y1913399D1*
X3863394Y1906877D1*
X3868816Y1899415D1*
X3873003Y1891198D1*
X3875853Y1882426D1*
X3877295Y1873317D1*
Y1864094D1*
X3077300Y1789089D2*
X3075857Y1779980D1*
X3073007Y1771208D1*
X3068820Y1762990D1*
X3063399Y1755529D1*
X3056877Y1749007D1*
X3049415Y1743586D1*
X3041198Y1739399D1*
X3032426Y1736549D1*
X3023317Y1735106D1*
X3014094D1*
X3004984Y1736549D1*
X2996213Y1739399D1*
X2987995Y1743586D1*
X2980534Y1749007D1*
X2974012Y1755529D1*
X2968591Y1762990D1*
X2964404Y1771208D1*
X2961554Y1779980D1*
X2960111Y1789089D1*
Y1798312D1*
X2961554Y1807421D1*
X2964404Y1816193D1*
X2968591Y1824411D1*
X2974012Y1831872D1*
X2980534Y1838394D1*
X2987995Y1843815D1*
X2996213Y1848002D1*
X3004984Y1850852D1*
X3014094Y1852295D1*
X3023317D1*
X3032426Y1850852D1*
X3041198Y1848002D1*
X3049415Y1843815D1*
X3056877Y1838394D1*
X3063399Y1831872D1*
X3068820Y1824411D1*
X3073007Y1816193D1*
X3075857Y1807421D1*
X3077300Y1798312D1*
Y1789089D1*
X3469112Y2377476D2*
X3577476D1*
Y2259925D1*
X3459925D1*
Y2377476D1*
X3469112D1*
X3577295Y2564089D2*
X3575852Y2554980D1*
X3573002Y2546208D1*
X3568815Y2537991D1*
X3563394Y2530529D1*
X3556872Y2524007D1*
X3549411Y2518586D1*
X3541193Y2514399D1*
X3532422Y2511549D1*
X3523312Y2510106D1*
X3514089D1*
X3504980Y2511549D1*
X3496208Y2514399D1*
X3487991Y2518586D1*
X3480529Y2524007D1*
X3474007Y2530529D1*
X3468586Y2537991D1*
X3464399Y2546208D1*
X3461549Y2554980D1*
X3460106Y2564089D1*
Y2573312D1*
X3461549Y2582422D1*
X3464399Y2591193D1*
X3468586Y2599411D1*
X3474007Y2606872D1*
X3480529Y2613394D1*
X3487991Y2618815D1*
X3496208Y2623002D1*
X3504980Y2625852D1*
X3514089Y2627295D1*
X3523312D1*
X3532422Y2625852D1*
X3541193Y2623002D1*
X3549411Y2618815D1*
X3556872Y2613394D1*
X3563394Y2606872D1*
X3568815Y2599411D1*
X3573002Y2591193D1*
X3575852Y2582422D1*
X3577295Y2573312D1*
Y2564089D1*
X1968686Y3111203D2*
X1963045Y3104671D1*
X1955562Y3098280D1*
X1947172Y3093138D1*
X1938080Y3089373D1*
X1928511Y3087075D1*
X1918701Y3086303D1*
X1908890Y3087075D1*
X1899322Y3089373D1*
X1890230Y3093138D1*
X1881839Y3098280D1*
X1881401Y3098626D1*
X1881413Y3086303D1*
X1755988D1*
Y3231168D1*
X1406171Y3231201D1*
X1406162Y2867720D1*
X1405589Y2864838D1*
X1404359Y2862170D1*
X1402540Y2859862D1*
X1400232Y2858043D1*
X1397564Y2856813D1*
X1394682Y2856239D1*
X1256228Y2856201D1*
X1256201Y2281169D1*
X2369682Y2281162D1*
X2372564Y2280589D1*
X2375232Y2279359D1*
X2377542Y2277537D1*
X2603814Y2051048D1*
X2605249Y2048484D1*
X2606047Y2045656D1*
X2606201Y2034514D1*
Y431175D1*
X2935211Y431201D1*
X2982495Y549240D1*
X2984097Y551702D1*
X3085583Y653206D1*
X3088026Y654839D1*
X3090786Y655856D1*
X3218197Y681191D1*
X3221130Y680962D1*
X3348040Y655424D1*
X3350656Y654087D1*
X3359035Y646044D1*
X3453814Y551048D1*
X3455251Y548481D1*
X3502151Y431232D1*
X5706212Y431201D1*
X5706355Y720656D1*
X5707152Y723484D1*
X5708588Y726048D1*
X5710583Y728206D1*
X5713026Y729838D1*
X5715783Y730856D1*
X5718705Y731201D1*
X6006169D1*
X6006201Y2931212D1*
X5716745Y2931355D1*
X5713917Y2932152D1*
X5711353Y2933588D1*
X5709196Y2935583D1*
X5707563Y2938026D1*
X5706546Y2940783D1*
X5706201Y2943705D1*
Y3231169D1*
X5114519Y3231201D1*
X5119436Y3225247D1*
X5124578Y3216857D1*
X5128344Y3207765D1*
X5130641Y3198196D1*
X5131413Y3188386D1*
X5131220Y3144095D1*
X5129681Y3134376D1*
X5126640Y3125017D1*
X5122172Y3116249D1*
X5116388Y3108287D1*
X5109429Y3101329D1*
X5101468Y3095544D1*
X5092700Y3091077D1*
X5083341Y3088036D1*
X5073621Y3086496D1*
X5063780D1*
X5054061Y3088036D1*
X5044702Y3091077D1*
X5035934Y3095544D1*
X5031401Y3098626D1*
X5031413Y3086303D1*
X4905988D1*
Y3231168D1*
X4239519Y3231201D1*
X4244436Y3225247D1*
X4249578Y3216857D1*
X4253344Y3207765D1*
X4255641Y3198196D1*
X4256414Y3188386D1*
X4256220Y3144095D1*
X4254681Y3134376D1*
X4251640Y3125017D1*
X4247172Y3116249D1*
X4241388Y3108287D1*
X4234429Y3101329D1*
X4226468Y3095544D1*
X4217700Y3091077D1*
X4208341Y3088036D1*
X4198621Y3086496D1*
X4188780D1*
X4179061Y3088036D1*
X4169702Y3091077D1*
X4160934Y3095544D1*
X4156401Y3098626D1*
X4156413Y3086303D1*
X4030988D1*
Y3231168D1*
X3502170Y3231201D1*
X3454438Y3112300D1*
X3452644Y3109968D1*
X3351048Y3008588D1*
X3348484Y3007152D1*
X3337144Y3004642D1*
X3219205Y2981211D1*
X3216271Y2981439D1*
X3089362Y3006978D1*
X3086745Y3008315D1*
X3078366Y3016358D1*
X2983588Y3111353D1*
X2982151Y3113921D1*
X2935250Y3231170D1*
X2064502Y3231201D1*
X2069436Y3225247D1*
X2074578Y3216857D1*
X2078344Y3207765D1*
X2080641Y3198196D1*
X2081413Y3188386D1*
X2081220Y3144095D1*
X2079681Y3134376D1*
X2076640Y3125017D1*
X2072172Y3116249D1*
X2066388Y3108287D1*
X2059429Y3101329D1*
X2051468Y3095544D1*
X2042700Y3091077D1*
X2033341Y3088036D1*
X2023621Y3086496D1*
X2013780D1*
X2004061Y3088036D1*
X1994702Y3091077D1*
X1985934Y3095544D1*
X1977972Y3101329D1*
X1971014Y3108287D1*
X1968715Y3111203D1*
X1319112Y2527476D2*
X1427476D1*
Y2409925D1*
X1309925D1*
Y2527476D1*
X1319112D1*
X3002295Y989089D2*
X3000852Y979980D1*
X2998002Y971208D1*
X2993815Y962991D1*
X2988394Y955529D1*
X2981872Y949007D1*
X2974411Y943586D1*
X2966193Y939399D1*
X2957422Y936549D1*
X2948312Y935106D1*
X2939089D1*
X2929980Y936549D1*
X2921208Y939399D1*
X2912991Y943586D1*
X2905529Y949007D1*
X2899007Y955529D1*
X2893586Y962991D1*
X2889399Y971208D1*
X2886549Y979980D1*
X2885106Y989089D1*
Y998312D1*
X2886549Y1007422D1*
X2889399Y1016193D1*
X2893586Y1024411D1*
X2899007Y1031872D1*
X2905529Y1038394D1*
X2912991Y1043815D1*
X2921208Y1048002D1*
X2929980Y1050852D1*
X2939089Y1052295D1*
X2948312D1*
X2957422Y1050852D1*
X2966193Y1048002D1*
X2974411Y1043815D1*
X2981872Y1038394D1*
X2988394Y1031872D1*
X2993815Y1024411D1*
X2998002Y1016193D1*
X3000852Y1007422D1*
X3002295Y998312D1*
Y989089D1*
X5303364Y3093076D2*
X5443225D1*
Y2944029D1*
X5294177D1*
Y3093076D1*
X5303364D1*
X5482301Y589287D2*
X5614288D1*
Y448114D1*
X5473114D1*
Y589287D1*
X5482301D1*
X3131911Y2448115D2*
X3120848Y2448983D1*
X3110077Y2451569D1*
X3099844Y2455808D1*
X3090400Y2461595D1*
X3081977Y2468789D1*
X3074784Y2477211D1*
X3068997Y2486655D1*
X3064758Y2496888D1*
X3062172Y2507659D1*
X3061303Y2518701D1*
X3062172Y2529743D1*
X3064758Y2540513D1*
X3068997Y2550746D1*
X3074784Y2560191D1*
X3081977Y2568613D1*
X3090400Y2575807D1*
X3099844Y2581594D1*
X3110077Y2585833D1*
X3120848Y2588418D1*
X3131911Y2589287D1*
X3161050Y2589070D1*
X3171990Y2587337D1*
X3182524Y2583914D1*
X3192393Y2578886D1*
X3201354Y2572375D1*
X3209186Y2564543D1*
X3215697Y2555582D1*
X3220725Y2545713D1*
X3224148Y2535179D1*
X3225881Y2524239D1*
Y2513163D1*
X3224148Y2502223D1*
X3220725Y2491688D1*
X3215697Y2481819D1*
X3209186Y2472858D1*
X3201354Y2465026D1*
X3192393Y2458516D1*
X3182524Y2453487D1*
X3171990Y2450064D1*
X3161050Y2448332D1*
X3137139Y2448114D1*
X3131890Y2448150D1*
X3131911Y2198115D2*
X3120848Y2198983D1*
X3110077Y2201569D1*
X3099844Y2205808D1*
X3090400Y2211595D1*
X3081977Y2218789D1*
X3074784Y2227211D1*
X3068997Y2236655D1*
X3064758Y2246888D1*
X3062172Y2257659D1*
X3061303Y2268701D1*
X3062172Y2279743D1*
X3064758Y2290513D1*
X3068997Y2300746D1*
X3074784Y2310191D1*
X3081977Y2318613D1*
X3090400Y2325807D1*
X3099844Y2331594D1*
X3110077Y2335833D1*
X3120848Y2338418D1*
X3131911Y2339287D1*
X3161050Y2339070D1*
X3171990Y2337337D1*
X3182524Y2333914D1*
X3192393Y2328886D1*
X3201354Y2322375D1*
X3209186Y2314543D1*
X3215697Y2305582D1*
X3220725Y2295713D1*
X3224148Y2285179D1*
X3225881Y2274239D1*
Y2263163D1*
X3224148Y2252223D1*
X3220725Y2241688D1*
X3215697Y2231819D1*
X3209186Y2222858D1*
X3201354Y2215026D1*
X3192393Y2208516D1*
X3182524Y2203487D1*
X3171990Y2200064D1*
X3161050Y2198332D1*
X3137139Y2198114D1*
X3131890Y2198150D1*
X2718705Y1762826D2*
X2713394Y1755529D1*
X2706872Y1749007D1*
X2699411Y1743586D1*
X2691193Y1739399D1*
X2682422Y1736549D1*
X2673312Y1735106D1*
X2664089D1*
X2654980Y1736549D1*
X2646208Y1739399D1*
X2637991Y1743586D1*
X2630529Y1749007D1*
X2624007Y1755529D1*
X2618586Y1762991D1*
X2614399Y1771208D1*
X2611549Y1779980D1*
X2610106Y1789089D1*
Y1798312D1*
X2611549Y1807422D1*
X2614399Y1816193D1*
X2618586Y1824411D1*
X2624007Y1831872D1*
X2630529Y1838394D1*
X2637991Y1843815D1*
X2646208Y1848002D1*
X2654980Y1850852D1*
X2664089Y1852295D1*
X2673312D1*
X2682422Y1850852D1*
X2691193Y1848002D1*
X2699411Y1843815D1*
X2706872Y1838394D1*
X2713394Y1831872D1*
X2718705Y1824576D1*
X2724007Y1831872D1*
X2730529Y1838394D1*
X2737991Y1843815D1*
X2746208Y1848002D1*
X2754980Y1850852D1*
X2764089Y1852295D1*
X2773312D1*
X2782422Y1850852D1*
X2791193Y1848002D1*
X2799411Y1843815D1*
X2806872Y1838394D1*
X2813394Y1831872D1*
X2818815Y1824411D1*
X2823002Y1816193D1*
X2825852Y1807422D1*
X2827295Y1798312D1*
Y1789089D1*
X2825852Y1779980D1*
X2823002Y1771208D1*
X2818815Y1762991D1*
X2813394Y1755529D1*
X2806872Y1749007D1*
X2799411Y1743586D1*
X2791193Y1739399D1*
X2782422Y1736549D1*
X2773312Y1735106D1*
X2764089D1*
X2754980Y1736549D1*
X2746208Y1739399D1*
X2737991Y1743586D1*
X2730529Y1749007D1*
X2724007Y1755529D1*
X2718697Y1762826D1*
X4170490Y2615468D2*
X4326099D1*
Y2371933D1*
X4161303D1*
Y2615468D1*
X4170490D1*
X4470490D2*
X4626099D1*
Y2371933D1*
X4461303D1*
Y2615468D1*
X4470490D1*
X3620490D2*
X3776099D1*
Y2371933D1*
X3611303D1*
Y2615468D1*
X3620490D1*
X3920490D2*
X4076099D1*
Y2371933D1*
X3911303D1*
Y2615468D1*
X3920490D1*
X4002295Y2964089D2*
X4000852Y2954980D1*
X3998002Y2946208D1*
X3993815Y2937991D1*
X3988394Y2930529D1*
X3981872Y2924007D1*
X3974411Y2918586D1*
X3966193Y2914399D1*
X3957422Y2911549D1*
X3948312Y2910106D1*
X3939089D1*
X3929980Y2911549D1*
X3921208Y2914399D1*
X3912991Y2918586D1*
X3905529Y2924007D1*
X3899007Y2930529D1*
X3893586Y2937991D1*
X3889399Y2946208D1*
X3886549Y2954980D1*
X3885106Y2964089D1*
Y2973312D1*
X3886549Y2982422D1*
X3889399Y2991193D1*
X3893586Y2999411D1*
X3899007Y3006872D1*
X3905529Y3013394D1*
X3912991Y3018815D1*
X3921208Y3023002D1*
X3929980Y3025852D1*
X3939089Y3027295D1*
X3948312D1*
X3957422Y3025852D1*
X3966193Y3023002D1*
X3974411Y3018815D1*
X3981872Y3013394D1*
X3988394Y3006872D1*
X3993815Y2999411D1*
X3998002Y2991193D1*
X4000852Y2982422D1*
X4002295Y2973312D1*
Y2964089D1*
X4495920Y2941750D2*
X4491251Y2934153D1*
X4485261Y2927140D1*
X4478248Y2921150D1*
X4470384Y2916331D1*
X4461863Y2912802D1*
X4452895Y2910649D1*
X4443701Y2909925D1*
X4434506Y2910649D1*
X4425538Y2912802D1*
X4417017Y2916331D1*
X4409153Y2921150D1*
X4402140Y2927140D1*
X4396150Y2934153D1*
X4391331Y2942017D1*
X4387802Y2950538D1*
X4385649Y2959506D1*
X4384925Y2968701D1*
X4385649Y2977895D1*
X4387802Y2986863D1*
X4391331Y2995384D1*
X4396150Y3003248D1*
X4402140Y3010261D1*
X4409153Y3016251D1*
X4417017Y3021070D1*
X4425538Y3024600D1*
X4434506Y3026753D1*
X4443701Y3027476D1*
X4452895Y3026753D1*
X4461863Y3024600D1*
X4470384Y3021070D1*
X4477094Y3017022D1*
X4480808Y3025747D1*
X4486595Y3035191D1*
X4493789Y3043614D1*
X4502211Y3050807D1*
X4511655Y3056594D1*
X4521888Y3060833D1*
X4532659Y3063419D1*
X4543701Y3064288D1*
X4554743Y3063419D1*
X4565513Y3060833D1*
X4575746Y3056594D1*
X4585191Y3050807D1*
X4593613Y3043614D1*
X4600807Y3035191D1*
X4606594Y3025747D1*
X4610833Y3015514D1*
X4613418Y3004744D1*
X4614287Y2993701D1*
X4613418Y2982659D1*
X4610833Y2971889D1*
X4606594Y2961656D1*
X4600807Y2952212D1*
X4593613Y2943789D1*
X4585191Y2936596D1*
X4575746Y2930808D1*
X4565513Y2926569D1*
X4554743Y2923984D1*
X4543701Y2923115D1*
X4532659Y2923984D1*
X4521888Y2926569D1*
X4511655Y2930808D1*
X4502211Y2936596D1*
X4495967Y2941776D1*
X5344445Y2364707D2*
X5343196Y2356818D1*
X5340728Y2349222D1*
X5337102Y2342105D1*
X5332407Y2335643D1*
X5326759Y2329995D1*
X5320297Y2325300D1*
X5313180Y2321674D1*
X5305584Y2319206D1*
X5297694Y2317956D1*
X5289707D1*
X5281818Y2319206D1*
X5274222Y2321674D1*
X5267105Y2325300D1*
X5260643Y2329995D1*
X5254995Y2335643D1*
X5250300Y2342105D1*
X5246674Y2349222D1*
X5244206Y2356818D1*
X5242956Y2364707D1*
Y2372694D1*
X5244206Y2380584D1*
X5246674Y2388180D1*
X5250300Y2395297D1*
X5254995Y2401759D1*
X5260643Y2407407D1*
X5267105Y2412102D1*
X5274222Y2415728D1*
X5281818Y2418196D1*
X5289707Y2419445D1*
X5297694D1*
X5305584Y2418196D1*
X5313180Y2415728D1*
X5320297Y2412102D1*
X5326759Y2407407D1*
X5332407Y2401759D1*
X5337102Y2395297D1*
X5340728Y2388180D1*
X5343196Y2380584D1*
X5344445Y2372694D1*
Y2364707D1*
Y2764707D2*
X5343196Y2756818D1*
X5340728Y2749222D1*
X5337102Y2742105D1*
X5332407Y2735643D1*
X5326759Y2729995D1*
X5320297Y2725300D1*
X5313180Y2721674D1*
X5305584Y2719206D1*
X5297694Y2717956D1*
X5289707D1*
X5281818Y2719206D1*
X5274222Y2721674D1*
X5267105Y2725300D1*
X5260643Y2729995D1*
X5254995Y2735643D1*
X5250300Y2742105D1*
X5246674Y2749222D1*
X5244206Y2756818D1*
X5242956Y2764707D1*
Y2772694D1*
X5244206Y2780584D1*
X5246674Y2788180D1*
X5250300Y2795297D1*
X5254995Y2801759D1*
X5260643Y2807407D1*
X5267105Y2812102D1*
X5274222Y2815728D1*
X5281818Y2818196D1*
X5289707Y2819445D1*
X5297694D1*
X5305584Y2818196D1*
X5313180Y2815728D1*
X5320297Y2812102D1*
X5326759Y2807407D1*
X5332407Y2801759D1*
X5337102Y2795297D1*
X5340728Y2788180D1*
X5343196Y2780584D1*
X5344445Y2772694D1*
Y2764707D1*
Y1689707D2*
X5343196Y1681818D1*
X5340728Y1674222D1*
X5337102Y1667105D1*
X5332407Y1660643D1*
X5326759Y1654995D1*
X5320297Y1650300D1*
X5313180Y1646674D1*
X5305584Y1644206D1*
X5297694Y1642956D1*
X5289707D1*
X5281818Y1644206D1*
X5274222Y1646674D1*
X5267105Y1650300D1*
X5260643Y1654995D1*
X5254995Y1660643D1*
X5250300Y1667105D1*
X5246674Y1674222D1*
X5244206Y1681818D1*
X5242956Y1689707D1*
Y1697694D1*
X5244206Y1705584D1*
X5246674Y1713180D1*
X5250300Y1720297D1*
X5254995Y1726759D1*
X5260643Y1732407D1*
X5267105Y1737102D1*
X5274222Y1740728D1*
X5281818Y1743196D1*
X5289707Y1744445D1*
X5297694D1*
X5305584Y1743196D1*
X5313180Y1740728D1*
X5320297Y1737102D1*
X5326759Y1732407D1*
X5332407Y1726759D1*
X5337102Y1720297D1*
X5340728Y1713180D1*
X5343196Y1705584D1*
X5344445Y1697694D1*
Y1689707D1*
Y2089707D2*
X5343196Y2081818D1*
X5340728Y2074222D1*
X5337102Y2067105D1*
X5332407Y2060643D1*
X5326759Y2054995D1*
X5320297Y2050300D1*
X5313180Y2046674D1*
X5305584Y2044206D1*
X5297694Y2042956D1*
X5289707D1*
X5281818Y2044206D1*
X5274222Y2046674D1*
X5267105Y2050300D1*
X5260643Y2054995D1*
X5254995Y2060643D1*
X5250300Y2067105D1*
X5246674Y2074222D1*
X5244206Y2081818D1*
X5242956Y2089707D1*
Y2097694D1*
X5244206Y2105584D1*
X5246674Y2113180D1*
X5250300Y2120297D1*
X5254995Y2126759D1*
X5260643Y2132407D1*
X5267105Y2137102D1*
X5274222Y2140728D1*
X5281818Y2143196D1*
X5289707Y2144445D1*
X5297694D1*
X5305584Y2143196D1*
X5313180Y2140728D1*
X5320297Y2137102D1*
X5326759Y2132407D1*
X5332407Y2126759D1*
X5337102Y2120297D1*
X5340728Y2113180D1*
X5343196Y2105584D1*
X5344445Y2097694D1*
Y2089707D1*
Y1014707D2*
X5343196Y1006818D1*
X5340728Y999222D1*
X5337102Y992105D1*
X5332407Y985643D1*
X5326759Y979995D1*
X5320297Y975300D1*
X5313180Y971674D1*
X5305584Y969206D1*
X5297694Y967956D1*
X5289707D1*
X5281818Y969206D1*
X5274222Y971674D1*
X5267105Y975300D1*
X5260643Y979995D1*
X5254995Y985643D1*
X5250300Y992105D1*
X5246674Y999222D1*
X5244206Y1006818D1*
X5242956Y1014707D1*
Y1022694D1*
X5244206Y1030584D1*
X5246674Y1038180D1*
X5250300Y1045297D1*
X5254995Y1051759D1*
X5260643Y1057407D1*
X5267105Y1062102D1*
X5274222Y1065728D1*
X5281818Y1068196D1*
X5289707Y1069445D1*
X5297694D1*
X5305584Y1068196D1*
X5313180Y1065728D1*
X5320297Y1062102D1*
X5326759Y1057407D1*
X5332407Y1051759D1*
X5337102Y1045297D1*
X5340728Y1038180D1*
X5343196Y1030584D1*
X5344445Y1022694D1*
Y1014707D1*
Y1414707D2*
X5343196Y1406818D1*
X5340728Y1399222D1*
X5337102Y1392105D1*
X5332407Y1385643D1*
X5326759Y1379995D1*
X5320297Y1375300D1*
X5313180Y1371674D1*
X5305584Y1369206D1*
X5297694Y1367956D1*
X5289707D1*
X5281818Y1369206D1*
X5274222Y1371674D1*
X5267105Y1375300D1*
X5260643Y1379995D1*
X5254995Y1385643D1*
X5250300Y1392105D1*
X5246674Y1399222D1*
X5244206Y1406818D1*
X5242956Y1414707D1*
Y1422694D1*
X5244206Y1430584D1*
X5246674Y1438180D1*
X5250300Y1445297D1*
X5254995Y1451759D1*
X5260643Y1457407D1*
X5267105Y1462102D1*
X5274222Y1465728D1*
X5281818Y1468196D1*
X5289707Y1469445D1*
X5297694D1*
X5305584Y1468196D1*
X5313180Y1465728D1*
X5320297Y1462102D1*
X5326759Y1457407D1*
X5332407Y1451759D1*
X5337102Y1445297D1*
X5340728Y1438180D1*
X5343196Y1430584D1*
X5344445Y1422694D1*
Y1414707D1*
X3927295Y1589089D2*
X3925852Y1579980D1*
X3923002Y1571208D1*
X3918815Y1562991D1*
X3913394Y1555529D1*
X3906872Y1549007D1*
X3899411Y1543586D1*
X3891193Y1539399D1*
X3882422Y1536549D1*
X3873312Y1535106D1*
X3864089D1*
X3854980Y1536549D1*
X3846208Y1539399D1*
X3837991Y1543586D1*
X3830529Y1549007D1*
X3824007Y1555529D1*
X3818586Y1562991D1*
X3814399Y1571208D1*
X3811549Y1579980D1*
X3810106Y1589089D1*
Y1598312D1*
X3811549Y1607422D1*
X3814399Y1616193D1*
X3818586Y1624411D1*
X3824007Y1631872D1*
X3830529Y1638394D1*
X3837991Y1643815D1*
X3846208Y1648002D1*
X3854980Y1650852D1*
X3864089Y1652295D1*
X3873312D1*
X3882422Y1650852D1*
X3891193Y1648002D1*
X3899411Y1643815D1*
X3906872Y1638394D1*
X3913394Y1631872D1*
X3918815Y1624411D1*
X3923002Y1616193D1*
X3925852Y1607422D1*
X3927295Y1598312D1*
Y1589089D1*
X4427295D2*
X4425852Y1579980D1*
X4423002Y1571208D1*
X4418815Y1562991D1*
X4413394Y1555529D1*
X4406872Y1549007D1*
X4399411Y1543586D1*
X4391193Y1539399D1*
X4382422Y1536549D1*
X4373312Y1535106D1*
X4364089D1*
X4354980Y1536549D1*
X4346208Y1539399D1*
X4337991Y1543586D1*
X4330529Y1549007D1*
X4324007Y1555529D1*
X4318586Y1562991D1*
X4314399Y1571208D1*
X4311549Y1579980D1*
X4310106Y1589089D1*
Y1598312D1*
X4311549Y1607422D1*
X4314399Y1616193D1*
X4318586Y1624411D1*
X4324007Y1631872D1*
X4330529Y1638394D1*
X4337991Y1643815D1*
X4346208Y1648002D1*
X4354980Y1650852D1*
X4364089Y1652295D1*
X4373312D1*
X4382422Y1650852D1*
X4391193Y1648002D1*
X4399411Y1643815D1*
X4406872Y1638394D1*
X4413394Y1631872D1*
X4418815Y1624411D1*
X4423002Y1616193D1*
X4425852Y1607422D1*
X4427295Y1598312D1*
Y1589089D1*
X3393697Y1532450D2*
X3399007Y1539746D1*
X3405529Y1546268D1*
X3412991Y1551689D1*
X3421208Y1555876D1*
X3429980Y1558726D1*
X3439089Y1560169D1*
X3448312D1*
X3457422Y1558726D1*
X3466193Y1555876D1*
X3474411Y1551689D1*
X3481872Y1546268D1*
X3488394Y1539746D1*
X3493815Y1532285D1*
X3498002Y1524067D1*
X3500852Y1515296D1*
X3502295Y1506186D1*
X3502441Y1485827D1*
X3501753Y1476632D1*
X3499600Y1467664D1*
X3496070Y1459143D1*
X3491251Y1451279D1*
X3485261Y1444266D1*
X3478248Y1438276D1*
X3470384Y1433457D1*
X3461863Y1429928D1*
X3452895Y1427775D1*
X3443701Y1427051D1*
X3434506Y1427775D1*
X3425538Y1429928D1*
X3417017Y1433457D1*
X3409153Y1438276D1*
X3402140Y1444266D1*
X3396150Y1451279D1*
X3393697Y1454952D1*
X3388394Y1447655D1*
X3381872Y1441133D1*
X3374411Y1435712D1*
X3366193Y1431525D1*
X3357422Y1428675D1*
X3348312Y1427232D1*
X3339089D1*
X3329980Y1428675D1*
X3321208Y1431525D1*
X3312991Y1435712D1*
X3305529Y1441133D1*
X3299007Y1447655D1*
X3293697Y1454952D1*
X3288394Y1447655D1*
X3281872Y1441133D1*
X3274411Y1435712D1*
X3266193Y1431525D1*
X3257422Y1428675D1*
X3248312Y1427232D1*
X3239089D1*
X3229980Y1428675D1*
X3221208Y1431525D1*
X3212991Y1435712D1*
X3205529Y1441133D1*
X3199007Y1447655D1*
X3193586Y1455117D1*
X3189399Y1463334D1*
X3186549Y1472106D1*
X3185106Y1481215D1*
X3184925Y1501575D1*
X3185649Y1510769D1*
X3187802Y1519737D1*
X3191331Y1528258D1*
X3196150Y1536122D1*
X3202140Y1543135D1*
X3209153Y1549125D1*
X3217017Y1553944D1*
X3225538Y1557474D1*
X3234506Y1559627D1*
X3243701Y1560350D1*
X3252895Y1559627D1*
X3261863Y1557474D1*
X3270384Y1553944D1*
X3278248Y1549125D1*
X3285261Y1543135D1*
X3291251Y1536122D1*
X3293705Y1532450D1*
X3299007Y1539746D1*
X3305529Y1546268D1*
X3312991Y1551689D1*
X3321208Y1555876D1*
X3329980Y1558726D1*
X3339089Y1560169D1*
X3348312D1*
X3357422Y1558726D1*
X3366193Y1555876D1*
X3374411Y1551689D1*
X3381872Y1546268D1*
X3388394Y1539746D1*
X3393705Y1532450D1*
X2564070Y2988163D2*
X2562337Y2977223D1*
X2558914Y2966689D1*
X2553886Y2956820D1*
X2547375Y2947859D1*
X2539543Y2940027D1*
X2530582Y2933516D1*
X2520713Y2928488D1*
X2510179Y2925065D1*
X2499239Y2923332D1*
X2488163D1*
X2477223Y2925065D1*
X2466688Y2928488D1*
X2456819Y2933516D1*
X2447858Y2940027D1*
X2440026Y2947859D1*
X2433516Y2956820D1*
X2428487Y2966689D1*
X2425064Y2977223D1*
X2423332Y2988163D1*
Y2999239D1*
X2425064Y3010179D1*
X2428487Y3020714D1*
X2433516Y3030583D1*
X2440026Y3039544D1*
X2447858Y3047376D1*
X2456819Y3053886D1*
X2466688Y3058915D1*
X2477223Y3062338D1*
X2488163Y3064070D1*
X2499239D1*
X2510179Y3062338D1*
X2520713Y3058915D1*
X2530582Y3053886D1*
X2539543Y3047376D1*
X2547375Y3039544D1*
X2553886Y3030583D1*
X2558914Y3020714D1*
X2562337Y3010179D1*
X2564070Y2999239D1*
Y2988163D1*
X3752295Y1664089D2*
X3750852Y1654980D1*
X3748002Y1646208D1*
X3743815Y1637991D1*
X3738394Y1630529D1*
X3731872Y1624007D1*
X3724411Y1618586D1*
X3716193Y1614399D1*
X3707422Y1611549D1*
X3698312Y1610106D1*
X3689089D1*
X3679980Y1611549D1*
X3671208Y1614399D1*
X3662991Y1618586D1*
X3655529Y1624007D1*
X3649007Y1630529D1*
X3643586Y1637991D1*
X3639399Y1646208D1*
X3636549Y1654980D1*
X3635106Y1664089D1*
Y1673312D1*
X3636549Y1682422D1*
X3639399Y1691193D1*
X3643586Y1699411D1*
X3649007Y1706872D1*
X3655529Y1713394D1*
X3662991Y1718815D1*
X3671208Y1723002D1*
X3679980Y1725852D1*
X3689089Y1727295D1*
X3698312D1*
X3707422Y1725852D1*
X3716193Y1723002D1*
X3724411Y1718815D1*
X3731872Y1713394D1*
X3738394Y1706872D1*
X3743815Y1699411D1*
X3748002Y1691193D1*
X3750852Y1682422D1*
X3752295Y1673312D1*
Y1664089D1*
X3352295D2*
X3350852Y1654980D1*
X3348002Y1646208D1*
X3343815Y1637991D1*
X3338394Y1630529D1*
X3331872Y1624007D1*
X3324411Y1618586D1*
X3316193Y1614399D1*
X3307422Y1611549D1*
X3298312Y1610106D1*
X3289089D1*
X3279980Y1611549D1*
X3271208Y1614399D1*
X3262991Y1618586D1*
X3255529Y1624007D1*
X3249007Y1630529D1*
X3243586Y1637991D1*
X3239399Y1646208D1*
X3236549Y1654980D1*
X3235106Y1664089D1*
Y1673312D1*
X3236549Y1682422D1*
X3239399Y1691193D1*
X3243586Y1699411D1*
X3249007Y1706872D1*
X3255529Y1713394D1*
X3262991Y1718815D1*
X3271208Y1723002D1*
X3279980Y1725852D1*
X3289089Y1727295D1*
X3298312D1*
X3307422Y1725852D1*
X3316193Y1723002D1*
X3324411Y1718815D1*
X3331872Y1713394D1*
X3338394Y1706872D1*
X3343815Y1699411D1*
X3348002Y1691193D1*
X3350852Y1682422D1*
X3352295Y1673312D1*
Y1664089D1*
X4864070Y2988162D2*
X4862337Y2977222D1*
X4858914Y2966688D1*
X4853886Y2956819D1*
X4847375Y2947858D1*
X4839543Y2940026D1*
X4830582Y2933515D1*
X4820713Y2928487D1*
X4810179Y2925064D1*
X4799239Y2923331D1*
X4788163D1*
X4777223Y2925064D1*
X4766688Y2928487D1*
X4756819Y2933515D1*
X4747858Y2940026D1*
X4740026Y2947858D1*
X4733516Y2956819D1*
X4728487Y2966688D1*
X4725064Y2977222D1*
X4723332Y2988162D1*
Y2999238D1*
X4725064Y3010178D1*
X4728487Y3020713D1*
X4733516Y3030582D1*
X4740026Y3039543D1*
X4747858Y3047375D1*
X4756819Y3053885D1*
X4766688Y3058914D1*
X4777223Y3062337D1*
X4788163Y3064069D1*
X4799239D1*
X4810179Y3062337D1*
X4820713Y3058914D1*
X4830582Y3053885D1*
X4839543Y3047375D1*
X4847375Y3039543D1*
X4853886Y3030582D1*
X4858914Y3020713D1*
X4862337Y3010178D1*
X4864070Y2999238D1*
Y2988162D1*
X2265175Y3018224D2*
X2381414D1*
Y2869177D1*
X2255988D1*
Y3018224D1*
X2265175D1*
X2065175D2*
X2181414D1*
Y2869177D1*
X2055988D1*
Y3018224D1*
X2065175D1*
X1665175D2*
X1781414D1*
Y2869177D1*
X1655988D1*
Y3018224D1*
X1665175D1*
X1465175D2*
X1581414D1*
Y2869177D1*
X1455988D1*
Y3018224D1*
X1465175D1*
X4768705Y487826D2*
X4763394Y480529D1*
X4756872Y474007D1*
X4749411Y468586D1*
X4741193Y464399D1*
X4732422Y461549D1*
X4723312Y460106D1*
X4714089D1*
X4704980Y461549D1*
X4696208Y464399D1*
X4687991Y468586D1*
X4680529Y474007D1*
X4674007Y480529D1*
X4668586Y487991D1*
X4664399Y496208D1*
X4661549Y504980D1*
X4660106Y514089D1*
Y523312D1*
X4661549Y532422D1*
X4664399Y541193D1*
X4668586Y549411D1*
X4674007Y556872D1*
X4680529Y563394D1*
X4687991Y568815D1*
X4696208Y573002D1*
X4704980Y575852D1*
X4714089Y577295D1*
X4723312D1*
X4732422Y575852D1*
X4741193Y573002D1*
X4749411Y568815D1*
X4756872Y563394D1*
X4763394Y556872D1*
X4768705Y549576D1*
X4774007Y556872D1*
X4780529Y563394D1*
X4787991Y568815D1*
X4796208Y573002D1*
X4804980Y575852D1*
X4814089Y577295D1*
X4823312D1*
X4832422Y575852D1*
X4841193Y573002D1*
X4849411Y568815D1*
X4856872Y563394D1*
X4863394Y556872D1*
X4868815Y549411D1*
X4873002Y541193D1*
X4875852Y532422D1*
X4877295Y523312D1*
Y514089D1*
X4875852Y504980D1*
X4873002Y496208D1*
X4868815Y487991D1*
X4863394Y480529D1*
X4856872Y474007D1*
X4849411Y468586D1*
X4841193Y464399D1*
X4832422Y461549D1*
X4823312Y460106D1*
X4814089D1*
X4804980Y461549D1*
X4796208Y464399D1*
X4787991Y468586D1*
X4780529Y474007D1*
X4774007Y480529D1*
X4768697Y487826D1*
X4906120Y951098D2*
X5140469D1*
Y786303D1*
X4896933D1*
Y951098D1*
X4906120D1*
Y651098D2*
X5140469D1*
Y486303D1*
X4896933D1*
Y651098D1*
X4906120D1*
X4768705Y887826D2*
X4763394Y880529D1*
X4756872Y874007D1*
X4749411Y868586D1*
X4741193Y864399D1*
X4732422Y861549D1*
X4723312Y860106D1*
X4714089D1*
X4704980Y861549D1*
X4696208Y864399D1*
X4687991Y868586D1*
X4680529Y874007D1*
X4674007Y880529D1*
X4668586Y887991D1*
X4664399Y896208D1*
X4661549Y904980D1*
X4660106Y914089D1*
Y923312D1*
X4661549Y932422D1*
X4664399Y941193D1*
X4668586Y949411D1*
X4674007Y956872D1*
X4680529Y963394D1*
X4687991Y968815D1*
X4696208Y973002D1*
X4704980Y975852D1*
X4714089Y977295D1*
X4723312D1*
X4732422Y975852D1*
X4741193Y973002D1*
X4749411Y968815D1*
X4756872Y963394D1*
X4763394Y956872D1*
X4768705Y949576D1*
X4774007Y956872D1*
X4780529Y963394D1*
X4787991Y968815D1*
X4796208Y973002D1*
X4804980Y975852D1*
X4814089Y977295D1*
X4823312D1*
X4832422Y975852D1*
X4841193Y973002D1*
X4849411Y968815D1*
X4856872Y963394D1*
X4863394Y956872D1*
X4868815Y949411D1*
X4873002Y941193D1*
X4875852Y932422D1*
X4877295Y923312D1*
Y914089D1*
X4875852Y904980D1*
X4873002Y896208D1*
X4868815Y887991D1*
X4863394Y880529D1*
X4856872Y874007D1*
X4849411Y868586D1*
X4841193Y864399D1*
X4832422Y861549D1*
X4823312Y860106D1*
X4814089D1*
X4804980Y861549D1*
X4796208Y864399D1*
X4787991Y868586D1*
X4780529Y874007D1*
X4774007Y880529D1*
X4768697Y887826D1*
X4129539Y902872D2*
X4132416Y909731D1*
X4136751Y916805D1*
X4142139Y923113D1*
X4148447Y928501D1*
X4155521Y932836D1*
X4163186Y936011D1*
X4171253Y937948D1*
X4179524Y938598D1*
X4187794Y937948D1*
X4195861Y936011D1*
X4203526Y932836D1*
X4210600Y928501D1*
X4216908Y923113D1*
X4222296Y916805D1*
X4226631Y909731D1*
X4229806Y902066D1*
X4231743Y893999D1*
X4232394Y885728D1*
X4232231Y842210D1*
X4230933Y834016D1*
X4228369Y826126D1*
X4224603Y818734D1*
X4219726Y812022D1*
X4213860Y806156D1*
X4207148Y801279D1*
X4199756Y797513D1*
X4191866Y794949D1*
X4183672Y793651D1*
X4175375D1*
X4167181Y794949D1*
X4159291Y797513D1*
X4151899Y801279D1*
X4145187Y806156D1*
X4139321Y812022D1*
X4134444Y818734D1*
X4130678Y826126D1*
X4129539Y829214D1*
X4126631Y822356D1*
X4122296Y815282D1*
X4116908Y808973D1*
X4110600Y803585D1*
X4103526Y799251D1*
X4095861Y796076D1*
X4087794Y794139D1*
X4079524Y793488D1*
X4071253Y794139D1*
X4063186Y796076D1*
X4055521Y799251D1*
X4048447Y803585D1*
X4042139Y808973D1*
X4036751Y815282D1*
X4032416Y822356D1*
X4029539Y829214D1*
X4026631Y822356D1*
X4022296Y815282D1*
X4016908Y808973D1*
X4010600Y803585D1*
X4003526Y799251D1*
X3995861Y796076D1*
X3987794Y794139D1*
X3979524Y793488D1*
X3971253Y794139D1*
X3963186Y796076D1*
X3955521Y799251D1*
X3948447Y803585D1*
X3942139Y808973D1*
X3936751Y815282D1*
X3932416Y822356D1*
X3929241Y830021D1*
X3927304Y838088D1*
X3926654Y846374D1*
X3926817Y889876D1*
X3928114Y898071D1*
X3930678Y905961D1*
X3934444Y913353D1*
X3939321Y920065D1*
X3945187Y925931D1*
X3951899Y930807D1*
X3959291Y934574D1*
X3967181Y937138D1*
X3975375Y938435D1*
X3983672D1*
X3991866Y937138D1*
X3999756Y934574D1*
X4007148Y930807D1*
X4013860Y925931D1*
X4019726Y920065D1*
X4024603Y913353D1*
X4028369Y905961D1*
X4029509Y902872D1*
X4032416Y909731D1*
X4036751Y916805D1*
X4042139Y923113D1*
X4048447Y928501D1*
X4055521Y932836D1*
X4063186Y936011D1*
X4071253Y937948D1*
X4079524Y938598D1*
X4087794Y937948D1*
X4095861Y936011D1*
X4103526Y932836D1*
X4110600Y928501D1*
X4116908Y923113D1*
X4122296Y916805D1*
X4126631Y909731D1*
X4129509Y902872D1*
X3731255Y907213D2*
X3734444Y913353D1*
X3739321Y920065D1*
X3745187Y925931D1*
X3751899Y930807D1*
X3759291Y934574D1*
X3767181Y937138D1*
X3775375Y938435D1*
X3783672D1*
X3791866Y937138D1*
X3799756Y934574D1*
X3807148Y930807D1*
X3813860Y925931D1*
X3819726Y920065D1*
X3824603Y913353D1*
X3828369Y905961D1*
X3830933Y898071D1*
X3832231Y889876D1*
X3832394Y858169D1*
X3832231Y842210D1*
X3830933Y834016D1*
X3828369Y826126D1*
X3824603Y818734D1*
X3819726Y812022D1*
X3813860Y806156D1*
X3807148Y801279D1*
X3799756Y797513D1*
X3791866Y794949D1*
X3783672Y793651D1*
X3775375D1*
X3767181Y794949D1*
X3759291Y797513D1*
X3751899Y801279D1*
X3745187Y806156D1*
X3739321Y812022D1*
X3734444Y818734D1*
X3731255Y824874D1*
X3727288Y817088D1*
X3722121Y809976D1*
X3715905Y803761D1*
X3708794Y798594D1*
X3700961Y794603D1*
X3692601Y791886D1*
X3683919Y790511D1*
X3675128D1*
X3666446Y791886D1*
X3658086Y794603D1*
X3650253Y798594D1*
X3643142Y803761D1*
X3636926Y809976D1*
X3631759Y817088D1*
X3629438Y820926D1*
X3624844Y813431D1*
X3619136Y806746D1*
X3612451Y801037D1*
X3604956Y796444D1*
X3596835Y793080D1*
X3588287Y791028D1*
X3579524Y790339D1*
X3570760Y791028D1*
X3562213Y793080D1*
X3554091Y796444D1*
X3546596Y801037D1*
X3539912Y806746D1*
X3534203Y813431D1*
X3529531Y821098D1*
X3524844Y813431D1*
X3519136Y806746D1*
X3512451Y801037D1*
X3504956Y796444D1*
X3496835Y793080D1*
X3488287Y791028D1*
X3479524Y790339D1*
X3470760Y791028D1*
X3462213Y793080D1*
X3454091Y796444D1*
X3446596Y801037D1*
X3439912Y806746D1*
X3434203Y813431D1*
X3429531Y821098D1*
X3424844Y813431D1*
X3419136Y806746D1*
X3412451Y801037D1*
X3404956Y796444D1*
X3396835Y793080D1*
X3388287Y791028D1*
X3379524Y790339D1*
X3370760Y791028D1*
X3362213Y793080D1*
X3354091Y796444D1*
X3346596Y801037D1*
X3339912Y806746D1*
X3334203Y813431D1*
X3329610Y820926D1*
X3327804Y824842D1*
X3324603Y818734D1*
X3319726Y812022D1*
X3313860Y806156D1*
X3307148Y801279D1*
X3299756Y797513D1*
X3291866Y794949D1*
X3283672Y793651D1*
X3275375D1*
X3267181Y794949D1*
X3259291Y797513D1*
X3251899Y801279D1*
X3245187Y806156D1*
X3239321Y812022D1*
X3234444Y818734D1*
X3230678Y826126D1*
X3229539Y829214D1*
X3226631Y822356D1*
X3222296Y815282D1*
X3216908Y808973D1*
X3210600Y803585D1*
X3203526Y799251D1*
X3195861Y796076D1*
X3187794Y794139D1*
X3179524Y793488D1*
X3171253Y794139D1*
X3163186Y796076D1*
X3155521Y799251D1*
X3148447Y803585D1*
X3142139Y808973D1*
X3136751Y815282D1*
X3132416Y822356D1*
X3129539Y829214D1*
X3126631Y822356D1*
X3122296Y815282D1*
X3116908Y808973D1*
X3110600Y803585D1*
X3103526Y799251D1*
X3095861Y796076D1*
X3087794Y794139D1*
X3079524Y793488D1*
X3071253Y794139D1*
X3063186Y796076D1*
X3055521Y799251D1*
X3048447Y803585D1*
X3042139Y808973D1*
X3036751Y815282D1*
X3032416Y822356D1*
X3029539Y829214D1*
X3026631Y822356D1*
X3022296Y815282D1*
X3016908Y808973D1*
X3010600Y803585D1*
X3003526Y799251D1*
X2995861Y796076D1*
X2987794Y794139D1*
X2979524Y793488D1*
X2971253Y794139D1*
X2963186Y796076D1*
X2955521Y799251D1*
X2948447Y803585D1*
X2942139Y808973D1*
X2936751Y815282D1*
X2932416Y822356D1*
X2929539Y829214D1*
X2926631Y822356D1*
X2922296Y815282D1*
X2916908Y808973D1*
X2910600Y803585D1*
X2903526Y799251D1*
X2895861Y796076D1*
X2887794Y794139D1*
X2879524Y793488D1*
X2871253Y794139D1*
X2863186Y796076D1*
X2855521Y799251D1*
X2848447Y803585D1*
X2842139Y808973D1*
X2836751Y815282D1*
X2832416Y822356D1*
X2829241Y830021D1*
X2827304Y838088D1*
X2826654Y846374D1*
X2826817Y889876D1*
X2828114Y898071D1*
X2830678Y905961D1*
X2834444Y913353D1*
X2839321Y920065D1*
X2845187Y925931D1*
X2851899Y930807D1*
X2859291Y934574D1*
X2867181Y937138D1*
X2875375Y938435D1*
X2883672D1*
X2891866Y937138D1*
X2899756Y934574D1*
X2907148Y930807D1*
X2913860Y925931D1*
X2919726Y920065D1*
X2924603Y913353D1*
X2928369Y905961D1*
X2929509Y902872D1*
X2932416Y909731D1*
X2936751Y916805D1*
X2942139Y923113D1*
X2948447Y928501D1*
X2955521Y932836D1*
X2963186Y936011D1*
X2971253Y937948D1*
X2979524Y938598D1*
X2987794Y937948D1*
X2995861Y936011D1*
X3003526Y932836D1*
X3010600Y928501D1*
X3016908Y923113D1*
X3022296Y916805D1*
X3026631Y909731D1*
X3029509Y902872D1*
X3032416Y909731D1*
X3036751Y916805D1*
X3042139Y923113D1*
X3048447Y928501D1*
X3055521Y932836D1*
X3063186Y936011D1*
X3071253Y937948D1*
X3079524Y938598D1*
X3087794Y937948D1*
X3095861Y936011D1*
X3103526Y932836D1*
X3110600Y928501D1*
X3116908Y923113D1*
X3122296Y916805D1*
X3126631Y909731D1*
X3129509Y902872D1*
X3132416Y909731D1*
X3136751Y916805D1*
X3142139Y923113D1*
X3148447Y928501D1*
X3155521Y932836D1*
X3163186Y936011D1*
X3171253Y937948D1*
X3179524Y938598D1*
X3187794Y937948D1*
X3195861Y936011D1*
X3203526Y932836D1*
X3210600Y928501D1*
X3216908Y923113D1*
X3222296Y916805D1*
X3226631Y909731D1*
X3229509Y902872D1*
X3232416Y909731D1*
X3236751Y916805D1*
X3242139Y923113D1*
X3248447Y928501D1*
X3255521Y932836D1*
X3263186Y936011D1*
X3271253Y937948D1*
X3279524Y938598D1*
X3287794Y937948D1*
X3295861Y936011D1*
X3303526Y932836D1*
X3310600Y928501D1*
X3316908Y923113D1*
X3322296Y916805D1*
X3326631Y909731D1*
X3327792Y907213D1*
X3331759Y914999D1*
X3336926Y922110D1*
X3343142Y928326D1*
X3350253Y933493D1*
X3358086Y937484D1*
X3366446Y940200D1*
X3375128Y941575D1*
X3383919D1*
X3392601Y940200D1*
X3400961Y937484D1*
X3408794Y933493D1*
X3415905Y928326D1*
X3422121Y922110D1*
X3427288Y914999D1*
X3429610Y911161D1*
X3434203Y918656D1*
X3439912Y925340D1*
X3446596Y931049D1*
X3454091Y935642D1*
X3462213Y939006D1*
X3470760Y941058D1*
X3479524Y941748D1*
X3488287Y941058D1*
X3496835Y939006D1*
X3504956Y935642D1*
X3512451Y931049D1*
X3519136Y925340D1*
X3524844Y918656D1*
X3529517Y910989D1*
X3534203Y918656D1*
X3539912Y925340D1*
X3546596Y931049D1*
X3554091Y935642D1*
X3562213Y939006D1*
X3570760Y941058D1*
X3579524Y941748D1*
X3588287Y941058D1*
X3596835Y939006D1*
X3604956Y935642D1*
X3612451Y931049D1*
X3619136Y925340D1*
X3624844Y918656D1*
X3629517Y910989D1*
X3634203Y918656D1*
X3639912Y925340D1*
X3646596Y931049D1*
X3654091Y935642D1*
X3662213Y939006D1*
X3670760Y941058D1*
X3679524Y941748D1*
X3688287Y941058D1*
X3696835Y939006D1*
X3704956Y935642D1*
X3712451Y931049D1*
X3719136Y925340D1*
X3724844Y918656D1*
X3729438Y911161D1*
X3731243Y907244D1*
X2755989Y1538367D2*
X2756760Y1548196D1*
X2759058Y1557765D1*
X2762823Y1566857D1*
X2767965Y1575247D1*
X2774356Y1582730D1*
X2781839Y1589121D1*
X2790230Y1594263D1*
X2799322Y1598029D1*
X2808890Y1600326D1*
X2818701Y1601098D1*
X2828511Y1600326D1*
X2838080Y1598029D1*
X2847172Y1594263D1*
X2855562Y1589121D1*
X2863045Y1582730D1*
X2869436Y1575247D1*
X2874578Y1566857D1*
X2878344Y1557765D1*
X2880641Y1548196D1*
X2881414Y1538386D1*
X2881220Y1494095D1*
X2879681Y1484376D1*
X2876640Y1475017D1*
X2872172Y1466249D1*
X2866388Y1458287D1*
X2859429Y1451329D1*
X2851468Y1445544D1*
X2842700Y1441077D1*
X2833341Y1438036D1*
X2823621Y1436496D1*
X2813780D1*
X2804061Y1438036D1*
X2794702Y1441077D1*
X2785934Y1445544D1*
X2777972Y1451329D1*
X2771014Y1458287D1*
X2765230Y1466249D1*
X2760762Y1475017D1*
X2757721Y1484376D1*
X2756182Y1494095D1*
X2755988Y1517388D1*
Y1538191D1*
X2965175Y1601098D2*
X3081414D1*
Y1436303D1*
X2955989D1*
Y1601098D1*
X2965175D1*
X3477295Y2714089D2*
X3475852Y2704980D1*
X3473002Y2696208D1*
X3468815Y2687991D1*
X3463394Y2680529D1*
X3456872Y2674007D1*
X3449411Y2668586D1*
X3441193Y2664399D1*
X3432422Y2661549D1*
X3423312Y2660106D1*
X3414089D1*
X3404980Y2661549D1*
X3396208Y2664399D1*
X3387991Y2668586D1*
X3380529Y2674007D1*
X3374007Y2680529D1*
X3368586Y2687991D1*
X3364399Y2696208D1*
X3361549Y2704980D1*
X3360106Y2714089D1*
Y2723312D1*
X3361549Y2732422D1*
X3364399Y2741193D1*
X3368586Y2749411D1*
X3374007Y2756872D1*
X3380529Y2763394D1*
X3387991Y2768815D1*
X3396208Y2773002D1*
X3404980Y2775852D1*
X3414089Y2777295D1*
X3423312D1*
X3432422Y2775852D1*
X3441193Y2773002D1*
X3449411Y2768815D1*
X3456872Y2763394D1*
X3463394Y2756872D1*
X3468815Y2749411D1*
X3473002Y2741193D1*
X3475852Y2732422D1*
X3477295Y2723312D1*
Y2714089D1*
X3577295Y2814089D2*
X3575852Y2804980D1*
X3573002Y2796208D1*
X3568815Y2787991D1*
X3563394Y2780529D1*
X3556872Y2774007D1*
X3549411Y2768586D1*
X3541193Y2764399D1*
X3532422Y2761549D1*
X3523312Y2760106D1*
X3514089D1*
X3504980Y2761549D1*
X3496208Y2764399D1*
X3487991Y2768586D1*
X3480529Y2774007D1*
X3474007Y2780529D1*
X3468586Y2787991D1*
X3464399Y2796208D1*
X3461549Y2804980D1*
X3460106Y2814089D1*
Y2823312D1*
X3461549Y2832422D1*
X3464399Y2841193D1*
X3468586Y2849411D1*
X3474007Y2856872D1*
X3480529Y2863394D1*
X3487991Y2868815D1*
X3496208Y2873002D1*
X3504980Y2875852D1*
X3514089Y2877295D1*
X3523312D1*
X3532422Y2875852D1*
X3541193Y2873002D1*
X3549411Y2868815D1*
X3556872Y2863394D1*
X3563394Y2856872D1*
X3568815Y2849411D1*
X3573002Y2841193D1*
X3575852Y2832422D1*
X3577295Y2823312D1*
Y2814089D1*
X3477295Y2914089D2*
X3475852Y2904980D1*
X3473002Y2896208D1*
X3468815Y2887991D1*
X3463394Y2880529D1*
X3456872Y2874007D1*
X3449411Y2868586D1*
X3441193Y2864399D1*
X3432422Y2861549D1*
X3423312Y2860106D1*
X3414089D1*
X3404980Y2861549D1*
X3396208Y2864399D1*
X3387991Y2868586D1*
X3380529Y2874007D1*
X3374007Y2880529D1*
X3368586Y2887991D1*
X3364399Y2896208D1*
X3361549Y2904980D1*
X3360106Y2914089D1*
Y2923312D1*
X3361549Y2932422D1*
X3364399Y2941193D1*
X3368586Y2949411D1*
X3374007Y2956872D1*
X3380529Y2963394D1*
X3387991Y2968815D1*
X3396208Y2973002D1*
X3404980Y2975852D1*
X3414089Y2977295D1*
X3423312D1*
X3432422Y2975852D1*
X3441193Y2973002D1*
X3449411Y2968815D1*
X3456872Y2963394D1*
X3463394Y2956872D1*
X3468815Y2949411D1*
X3473002Y2941193D1*
X3475852Y2932422D1*
X3477295Y2923312D1*
Y2914089D1*
X3777295Y1439089D2*
X3775852Y1429980D1*
X3773002Y1421208D1*
X3768815Y1412991D1*
X3763394Y1405529D1*
X3756872Y1399007D1*
X3749411Y1393586D1*
X3741193Y1389399D1*
X3732422Y1386549D1*
X3723312Y1385106D1*
X3714089D1*
X3704980Y1386549D1*
X3696208Y1389399D1*
X3687991Y1393586D1*
X3680529Y1399007D1*
X3674007Y1405529D1*
X3668586Y1412991D1*
X3664399Y1421208D1*
X3661549Y1429980D1*
X3660106Y1439089D1*
Y1448312D1*
X3661549Y1457422D1*
X3664399Y1466193D1*
X3668586Y1474411D1*
X3674007Y1481872D1*
X3680529Y1488394D1*
X3687991Y1493815D1*
X3696208Y1498002D1*
X3704980Y1500852D1*
X3714089Y1502295D1*
X3723312D1*
X3732422Y1500852D1*
X3741193Y1498002D1*
X3749411Y1493815D1*
X3756872Y1488394D1*
X3763394Y1481872D1*
X3768815Y1474411D1*
X3773002Y1466193D1*
X3775852Y1457422D1*
X3777295Y1448312D1*
Y1439089D1*
Y1249089D2*
X3775852Y1239980D1*
X3773002Y1231208D1*
X3768815Y1222991D1*
X3763394Y1215529D1*
X3756872Y1209007D1*
X3749411Y1203586D1*
X3741193Y1199399D1*
X3732422Y1196549D1*
X3723312Y1195106D1*
X3714089D1*
X3704980Y1196549D1*
X3696208Y1199399D1*
X3687991Y1203586D1*
X3680529Y1209007D1*
X3674007Y1215529D1*
X3668586Y1222991D1*
X3664399Y1231208D1*
X3661549Y1239980D1*
X3660106Y1249089D1*
Y1258312D1*
X3661549Y1267422D1*
X3664399Y1276193D1*
X3668586Y1284411D1*
X3674007Y1291872D1*
X3680529Y1298394D1*
X3687991Y1303815D1*
X3696208Y1308002D1*
X3704980Y1310852D1*
X3714089Y1312295D1*
X3723312D1*
X3732422Y1310852D1*
X3741193Y1308002D1*
X3749411Y1303815D1*
X3756872Y1298394D1*
X3763394Y1291872D1*
X3768815Y1284411D1*
X3773002Y1276193D1*
X3775852Y1267422D1*
X3777295Y1258312D1*
Y1249089D1*
D18*
X2868701Y2693701D3*
X3068701D3*
D28*
X2643695Y2668708D3*
D29*
Y2868708D3*
X493701Y2718701D3*
X1081199D3*
X493701Y1768701D3*
X1081199D3*
D32*
X1018701Y993681D3*
D33*
Y718720D3*
D28*
X2668706Y2443694D3*
D29*
Y2243694D3*
D34*
X3818701Y1768705D3*
D18*
Y1868705D3*
D35*
X2218701Y1868701D3*
X1518701D3*
D34*
X1918701Y1043696D3*
D18*
Y943696D3*
D34*
X2918705Y1793701D3*
D18*
X3018705D3*
D34*
X3518701Y2318701D3*
D18*
Y2568701D3*
D38*
X1918701Y3168701D3*
X2018701D3*
D39*
X1818701D3*
D35*
X893701Y1518701D3*
X1093701D3*
D28*
Y1318701D3*
D35*
X893701D3*
D34*
X1368701Y2468701D3*
D18*
Y2718701D3*
D34*
X2843701Y993701D3*
D18*
X2943701D3*
D45*
X5368701Y3018552D3*
D46*
Y3168552D3*
D29*
X868701Y2943701D3*
Y3143701D3*
D28*
X1193701D3*
Y2993701D3*
X5543701Y518701D3*
Y668701D3*
D47*
X3143701Y2518701D3*
Y2268701D3*
D29*
X543701Y2443701D3*
X1043701D3*
X543701Y2043701D3*
X1043701D3*
D49*
X2668701Y1793701D3*
X2768701D3*
X1618701Y793701D3*
X1737499D3*
D50*
X4243701Y2493701D3*
X4543701D3*
X3693701D3*
X3993701D3*
D49*
X3943701Y2968701D3*
X4443701D3*
X3868701Y1593701D3*
X4368701D3*
D52*
X3543701Y1493701D3*
X3443701D3*
X3343701D3*
X3243701D3*
D38*
X4193701Y3168701D3*
X4293701D3*
D39*
X4093701D3*
D38*
X5068701D3*
X5168701D3*
D39*
X4968701D3*
D18*
X2468701Y918701D3*
X2068701D3*
X1718701Y1368701D3*
Y968701D3*
X2293701Y1343701D3*
X1893701D3*
D29*
X2493701Y3143701D3*
Y2993701D3*
D18*
X3693701Y1668701D3*
X3293701D3*
D29*
X4543701Y3143701D3*
Y2993701D3*
X4793701Y2993700D3*
Y3143700D3*
X643701Y1218701D3*
Y1518701D3*
D56*
X2318701Y2043701D3*
X2118701D3*
X1918701D3*
X1718701D3*
X1518701D3*
X2318701Y2943701D3*
X2118701D3*
X1918701D3*
X1718701D3*
X1518701D3*
D18*
X4718701Y518701D3*
X4818701D3*
D57*
X5018701Y868701D3*
Y568701D3*
D18*
X4718701Y918701D3*
X4818701D3*
D58*
X1793699Y1443701D3*
X1869685D3*
X1945668D3*
X2021651D3*
X2097635D3*
X2211122D3*
X2287105Y1561811D3*
X2173621D3*
X2060135D3*
X1984151D3*
X1908168D3*
X1832185D3*
X1718699D3*
D63*
X4279524Y866043D3*
X4179524D3*
X4079524D3*
X3979524D3*
X3879524D3*
X3779524D3*
X3679524D3*
X3579524D3*
X3479524D3*
X3379524D3*
X3279524D3*
X3179524D3*
X3079524D3*
X2979524D3*
X2879524D3*
X2779524D3*
D38*
X2918701Y1518701D3*
X2818701D3*
D39*
X3018701D3*
D18*
X3418701Y2718701D3*
X3518701Y2818701D3*
X3418701Y2918701D3*
X3718701Y1443701D3*
Y1253701D3*
M02*
