G04 DipTrace 3.2.0.1*
G04 TopMask.gbr*
%MOIN*%
G04 #@! TF.FileFunction,Soldermask,Top*
G04 #@! TF.Part,Single*
%ADD14C,0.07874*%
%ADD17C,0.062992*%
%ADD45R,0.102362X0.102362*%
%ADD46C,0.102362*%
%ADD78O,0.066929X0.106299*%
%ADD86O,0.059055X0.094488*%
%ADD88R,0.204724X0.125984*%
%ADD90R,0.086614X0.110236*%
%ADD96O,0.07874X0.094488*%
%ADD100R,0.125984X0.204724*%
%ADD102C,0.07874*%
%ADD106O,0.125984X0.102362*%
%ADD108C,0.110236*%
%ADD109R,0.110236X0.110236*%
%ADD120R,0.086614X0.125984*%
%ADD122O,0.086614X0.125984*%
%ADD126R,0.07874X0.07874*%
%ADD127C,0.102362*%
%ADD130C,0.125984*%
%ADD132R,0.125984X0.125984*%
%FSLAX26Y26*%
G04*
G70*
G90*
G75*
G01*
G04 TopMask*
%LPD*%
D14*
X2868701Y2693701D3*
X3068701D3*
D45*
X2643695Y2668708D3*
D46*
Y2868708D3*
X493701Y2718701D3*
X1081199D3*
X493701Y1768701D3*
X1081199D3*
D132*
X1018701Y993681D3*
D130*
Y718720D3*
D45*
X2668706Y2443694D3*
D46*
Y2243694D3*
D126*
X3818701Y1768705D3*
D14*
Y1868705D3*
D127*
X2218701Y1868701D3*
X1518701D3*
D126*
X1918701Y1043696D3*
D14*
Y943696D3*
D126*
X2918705Y1793701D3*
D14*
X3018705D3*
D126*
X3518701Y2318701D3*
D14*
Y2568701D3*
D122*
X1918701Y3168701D3*
X2018701D3*
D120*
X1818701D3*
D127*
X893701Y1518701D3*
X1093701D3*
D45*
Y1318701D3*
D127*
X893701D3*
D126*
X1368701Y2468701D3*
D14*
Y2718701D3*
D126*
X2843701Y993701D3*
D14*
X2943701D3*
D109*
X5368701Y3018552D3*
D108*
Y3168552D3*
D46*
X868701Y2943701D3*
Y3143701D3*
D45*
X1193701D3*
Y2993701D3*
X5543701Y518701D3*
Y668701D3*
D106*
X3143701Y2518701D3*
Y2268701D3*
D46*
X543701Y2443701D3*
X1043701D3*
X543701Y2043701D3*
X1043701D3*
D102*
X2668701Y1793701D3*
X2768701D3*
X1618701Y793701D3*
X1737499D3*
D100*
X4243701Y2493701D3*
X4543701D3*
X3693701D3*
X3993701D3*
D102*
X3943701Y2968701D3*
X4443701D3*
D17*
X5293701Y2368701D3*
Y2768701D3*
Y1693701D3*
Y2093701D3*
Y1018701D3*
Y1418701D3*
D102*
X3868701Y1593701D3*
X4368701D3*
D96*
X3543701Y1493701D3*
X3443701D3*
X3343701D3*
X3243701D3*
D122*
X4193701Y3168701D3*
X4293701D3*
D120*
X4093701D3*
D122*
X5068701D3*
X5168701D3*
D120*
X4968701D3*
D14*
X2468701Y918701D3*
X2068701D3*
X1718701Y1368701D3*
Y968701D3*
X2293701Y1343701D3*
X1893701D3*
D46*
X2493701Y3143701D3*
Y2993701D3*
D14*
X3693701Y1668701D3*
X3293701D3*
D46*
X4543701Y3143701D3*
Y2993701D3*
X4793701Y2993700D3*
Y3143700D3*
X643701Y1218701D3*
Y1518701D3*
D90*
X2318701Y2043701D3*
X2118701D3*
X1918701D3*
X1718701D3*
X1518701D3*
X2318701Y2943701D3*
X2118701D3*
X1918701D3*
X1718701D3*
X1518701D3*
D14*
X4718701Y518701D3*
X4818701D3*
D88*
X5018701Y868701D3*
Y568701D3*
D14*
X4718701Y918701D3*
X4818701D3*
D86*
X1793699Y1443701D3*
X1869685D3*
X1945668D3*
X2021651D3*
X2097635D3*
X2211122D3*
X2287105Y1561811D3*
X2173621D3*
X2060135D3*
X1984151D3*
X1908168D3*
X1832185D3*
X1718699D3*
D78*
X4279524Y866043D3*
X4179524D3*
X4079524D3*
X3979524D3*
X3879524D3*
X3779524D3*
X3679524D3*
X3579524D3*
X3479524D3*
X3379524D3*
X3279524D3*
X3179524D3*
X3079524D3*
X2979524D3*
X2879524D3*
X2779524D3*
D122*
X2918701Y1518701D3*
X2818701D3*
D120*
X3018701D3*
D14*
X3418701Y2718701D3*
X3518701Y2818701D3*
X3418701Y2918701D3*
X3718701Y1443701D3*
Y1253701D3*
M02*
