G04 DipTrace 3.2.0.1*
G04 TopSilk.gbr*
%MOIN*%
G04 #@! TF.FileFunction,Legend,Top*
G04 #@! TF.Part,Single*
%ADD10C,0.009843*%
%ADD144C,0.00772*%
%ADD146C,0.012351*%
%FSLAX26Y26*%
G04*
G70*
G90*
G75*
G01*
G04 TopSilk*
%LPD*%
X2881211Y2649951D2*
D10*
G03X3056191Y2649951I87490J194744D01*
G01*
X2881211Y2737451D2*
G02X3056191Y2737451I87490J-194744D01*
G01*
X2443687Y2768701D2*
G02X2443687Y2768701I200004J0D01*
G01*
X1137450Y2568701D2*
X437450D1*
Y2868701D1*
X1137450D1*
Y2568701D1*
Y1618701D2*
X437450D1*
Y1918701D1*
X1137450D1*
Y1618701D1*
X668701Y856201D2*
G02X668701Y856201I350000J0D01*
G01*
X2468705Y2343701D2*
G02X2468705Y2343701I200004J0D01*
G01*
X3693700Y1818701D2*
G02X3693700Y1818701I125011J0D01*
G01*
X2268701Y1718701D2*
Y1818691D1*
Y1718701D2*
X1468701D1*
X2268701Y2018701D2*
X1468701D1*
X2268701D2*
Y1918711D1*
X1468701Y1718701D2*
Y1818691D1*
Y2018701D2*
Y1918711D1*
X1793679Y993701D2*
G02X1793679Y993701I125011J0D01*
G01*
X2843705Y1793691D2*
G02X2843705Y1793691I124996J0D01*
G01*
X3556201Y2368682D2*
X3481201D1*
Y2518719D1*
X3556201D1*
Y2368682D1*
Y2406224D2*
X3481201D1*
X1718701Y3243693D2*
X2118701D1*
X1718701Y3268701D2*
X2118701D1*
Y3093701D1*
X1718701D1*
Y3268701D1*
X893706Y1568711D2*
G02X1093696Y1568711I99995J-187565D01*
G01*
X931226Y1468681D2*
X971196D1*
X951211Y1448696D2*
Y1488666D1*
X1009976Y1381216D2*
X1049981D1*
X928916Y1375896D2*
G02X954886Y1375896I12985J-7581D01*
G01*
G03X975186Y1379326I9852J3482D01*
G01*
X1007911Y1467141D2*
G02X1033916Y1467141I13002J-7541D01*
G01*
G03X1054181Y1470571I9838J3455D01*
G01*
X1143711Y1518696D2*
G02X1143711Y1318706I-187565J-99995D01*
G01*
X1093696Y1268691D2*
G02X893706Y1268691I-99995J187565D01*
G01*
X843691Y1318706D2*
G02X843691Y1518696I187565J99995D01*
G01*
X1406201Y2518682D2*
X1331201D1*
Y2668719D1*
X1406201D1*
Y2518682D1*
Y2556224D2*
X1331201D1*
X2956204Y1037456D2*
G03X2831198Y1037456I-62503J-46893D01*
G01*
X2956204Y949946D2*
G02X2831198Y949946I-62503J46893D01*
G01*
X5306198Y3093554D2*
G03X5431204Y3093554I62503J-77490D01*
G01*
X706201Y3043701D2*
G02X706201Y3043701I162500J0D01*
G01*
X1318701Y3218701D2*
X1043701D1*
Y2918701D1*
X1318701D1*
Y3218701D1*
X1131178Y3143701D2*
X1043701D1*
Y2993701D2*
X1131178D1*
X5418701Y443701D2*
X5693701D1*
Y743701D1*
X5418701D1*
Y443701D1*
X5606223Y518701D2*
X5693701D1*
Y668701D2*
X5606223D1*
X2893701Y2393701D2*
G02X2893701Y2393701I250000J0D01*
G01*
X443701Y2543701D2*
X1143701D1*
Y1943701D1*
X443701D1*
Y2543701D1*
X2718704Y1843695D2*
G02X2718704Y1743706I52501J-49995D01*
G01*
X1528100Y793701D2*
G02X1528100Y793701I150000J0D01*
G01*
X4243683Y2143701D2*
X4543719D1*
X4243683Y2843701D2*
X4543719D1*
Y2618721D1*
Y2368681D2*
Y2143701D1*
X4243683D2*
Y2368681D1*
Y2618721D2*
Y2843701D1*
X3693683Y2143701D2*
X3993719D1*
X3693683Y2843701D2*
X3993719D1*
Y2618721D1*
Y2368681D2*
Y2143701D1*
X3693683D2*
Y2368681D1*
Y2618721D2*
Y2843701D1*
X4343781Y2908701D2*
Y3028701D1*
X4043620D2*
X4343781D1*
X4043620Y2908701D2*
Y3028701D1*
Y2908701D2*
X4343781D1*
X4593701Y2318730D2*
Y2818672D1*
X5993701Y2318730D2*
Y2818672D1*
X5468701D1*
X5118701D2*
X4593701D1*
X5118701Y2318730D2*
X4593701D1*
X5468701D2*
X5993701D1*
X4593701Y1643730D2*
Y2143672D1*
X5993701Y1643730D2*
Y2143672D1*
X5468701D1*
X5118701D2*
X4593701D1*
X5118701Y1643730D2*
X4593701D1*
X5468701D2*
X5993701D1*
X4593701Y968730D2*
Y1468672D1*
X5993701Y968730D2*
Y1468672D1*
X5468701D1*
X5118701D2*
X4593701D1*
X5118701Y968730D2*
X4593701D1*
X5468701D2*
X5993701D1*
X4268781Y1533701D2*
Y1653701D1*
X3968620D2*
X4268781D1*
X3968620Y1533701D2*
Y1653701D1*
Y1533701D2*
X4268781D1*
X3568701Y1543705D2*
X3418701D1*
X3393701Y1518693D1*
Y1468709D1*
X3418701Y1443697D2*
X3393701Y1468709D1*
X3568701Y1443697D2*
X3418701D1*
X3593701Y1468709D2*
X3568701Y1443697D1*
X3593701Y1518693D2*
Y1468709D1*
Y1518693D2*
X3568701Y1543705D1*
X3368701D2*
X3218701D1*
X3193701Y1518693D1*
Y1468709D1*
X3218701Y1443697D2*
X3193701Y1468709D1*
X3368701Y1443697D2*
X3218701D1*
X3393701Y1468709D2*
X3368701Y1443697D1*
X3393701Y1518693D2*
Y1468709D1*
Y1518693D2*
X3368701Y1543705D1*
X3993701Y3243693D2*
X4393701D1*
X3993701Y3268701D2*
X4393701D1*
Y3093701D1*
X3993701D1*
Y3268701D1*
X4868701Y3243693D2*
X5268701D1*
X4868701Y3268701D2*
X5268701D1*
Y3093701D1*
X4868701D1*
Y3268701D1*
X2143686Y962451D2*
X2393716D1*
Y874951D1*
X2143686D1*
Y962451D1*
X1674951Y1043686D2*
X1762451D1*
Y1293716D1*
X1674951D1*
Y1043686D1*
X1968686Y1387451D2*
X2218716D1*
Y1299951D1*
X1968686D1*
Y1387451D1*
X2543703Y3056197D2*
G03X2443699Y3056197I-50002J86611D01*
G01*
X3368686Y1712451D2*
X3618716D1*
Y1624951D1*
X3368686D1*
Y1712451D1*
X4593703Y3056197D2*
G03X4493699Y3056197I-50002J86611D01*
G01*
X4743699Y3081205D2*
G03X4843703Y3081205I50002J-86611D01*
G01*
X543701Y1243691D2*
Y1493711D1*
X743701Y1243691D2*
Y1493711D1*
X543701D2*
G02X743701Y1493711I100000J-10D01*
G01*
X543701Y1243691D2*
G03X743701Y1243691I100000J10D01*
G01*
X2418701Y1993723D2*
X1418701D1*
Y2993679D1*
X2418701D1*
Y1993723D1*
X4668701Y868719D2*
X5368701D1*
Y568683D1*
X4668701D1*
Y868719D1*
X1679379Y1615255D2*
X2323128D1*
Y1502753D1*
X1679379D1*
Y1615255D1*
X3118701Y1443708D2*
X2718701D1*
X3118701Y1418701D2*
X2718701D1*
Y1593701D1*
X3118701D1*
Y1418701D1*
X3568701Y2968701D2*
Y2668701D1*
Y2968701D2*
X3268701D1*
Y2668701D1*
X3568701D2*
X3268701D1*
X3468681Y2818701D2*
X3368691D1*
G02X3368691Y2818701I49995J0D01*
G01*
X3633701Y1468708D2*
Y1228694D1*
X3803701Y1468708D2*
Y1228694D1*
X3653693Y1468708D2*
Y1228694D1*
X3783709D2*
Y1468708D1*
X3748706Y1358705D2*
Y1338697D1*
X3688696D1*
Y1358705D1*
X3748706D1*
Y1323691D2*
X3718701D1*
X3688696D1*
X3748706Y1373711D2*
X3718701D1*
X3688696D1*
X3718701Y1323691D2*
Y1298681D1*
Y1373711D2*
Y1398721D1*
X3803701Y1468708D2*
G03X3633701Y1468708I-85000J-7D01*
G01*
Y1228694D2*
G03X3803701Y1228694I85000J7D01*
G01*
X3783709Y1468708D2*
G03X3653693Y1468708I-65008J-23D01*
G01*
Y1228694D2*
G03X3783709Y1228694I65008J23D01*
G01*
X2910981Y2592486D2*
D144*
X2908605Y2597239D1*
X2903796Y2602047D1*
X2899043Y2604424D1*
X2889481D1*
X2884673Y2602047D1*
X2879920Y2597239D1*
X2877488Y2592486D1*
X2875111Y2585301D1*
Y2573307D1*
X2877488Y2566177D1*
X2879920Y2561369D1*
X2884673Y2556616D1*
X2889481Y2554184D1*
X2899043D1*
X2903796Y2556616D1*
X2908605Y2561369D1*
X2910981Y2566177D1*
X2950352Y2554184D2*
Y2604369D1*
X2926420Y2570931D1*
X2962290D1*
X2648026Y3036210D2*
X2645649Y3040963D1*
X2640841Y3045771D1*
X2636088Y3048148D1*
X2626526D1*
X2621718Y3045771D1*
X2616964Y3040963D1*
X2614532Y3036210D1*
X2612156Y3029025D1*
Y3017031D1*
X2614532Y3009901D1*
X2616964Y3005093D1*
X2621718Y3000340D1*
X2626526Y2997908D1*
X2636088D1*
X2640841Y3000340D1*
X2645649Y3005093D1*
X2648026Y3009901D1*
X2692150Y3040963D2*
X2689773Y3045716D1*
X2682588Y3048093D1*
X2677835D1*
X2670650Y3045716D1*
X2665842Y3038531D1*
X2663465Y3026593D1*
Y3014655D1*
X2665842Y3005093D1*
X2670650Y3000284D1*
X2677835Y2997908D1*
X2680212D1*
X2687341Y3000284D1*
X2692150Y3005093D1*
X2694527Y3012278D1*
Y3014655D1*
X2692150Y3021840D1*
X2687341Y3026593D1*
X2680212Y3028969D1*
X2677835D1*
X2670650Y3026593D1*
X2665842Y3021840D1*
X2663465Y3014655D1*
X1205946Y2729986D2*
X1203570Y2734739D1*
X1198761Y2739547D1*
X1194008Y2741924D1*
X1184447D1*
X1179638Y2739547D1*
X1174885Y2734739D1*
X1172453Y2729986D1*
X1170077Y2722801D1*
Y2710807D1*
X1172453Y2703677D1*
X1174885Y2698869D1*
X1179638Y2694116D1*
X1184447Y2691684D1*
X1194008D1*
X1198761Y2694116D1*
X1203570Y2698869D1*
X1205946Y2703677D1*
X1233324Y2741869D2*
X1226194Y2739492D1*
X1223762Y2734739D1*
Y2729930D1*
X1226194Y2725177D1*
X1230947Y2722745D1*
X1240509Y2720369D1*
X1247694Y2717992D1*
X1252447Y2713184D1*
X1254824Y2708431D1*
Y2701245D1*
X1252447Y2696492D1*
X1250071Y2694060D1*
X1242886Y2691684D1*
X1233324D1*
X1226194Y2694060D1*
X1223762Y2696492D1*
X1221386Y2701245D1*
Y2708431D1*
X1223762Y2713184D1*
X1228571Y2717992D1*
X1235700Y2720369D1*
X1245262Y2722745D1*
X1250071Y2725177D1*
X1252447Y2729930D1*
Y2734739D1*
X1250071Y2739492D1*
X1242886Y2741869D1*
X1233324D1*
X1207107Y1779986D2*
X1204731Y1784739D1*
X1199922Y1789547D1*
X1195169Y1791924D1*
X1185607D1*
X1180799Y1789547D1*
X1176046Y1784739D1*
X1173614Y1779986D1*
X1171237Y1772801D1*
Y1760807D1*
X1173614Y1753677D1*
X1176046Y1748869D1*
X1180799Y1744116D1*
X1185607Y1741684D1*
X1195169D1*
X1199922Y1744116D1*
X1204731Y1748869D1*
X1207107Y1753677D1*
X1253663Y1775177D2*
X1251231Y1767992D1*
X1246478Y1763184D1*
X1239293Y1760807D1*
X1236916D1*
X1229731Y1763184D1*
X1224978Y1767992D1*
X1222546Y1775177D1*
Y1777554D1*
X1224978Y1784739D1*
X1229731Y1789492D1*
X1236916Y1791869D1*
X1239293D1*
X1246478Y1789492D1*
X1251231Y1784739D1*
X1253663Y1775177D1*
Y1763184D1*
X1251231Y1751245D1*
X1246478Y1744060D1*
X1239293Y1741684D1*
X1234540D1*
X1227355Y1744060D1*
X1224978Y1748869D1*
X1298453Y1192486D2*
X1296077Y1197239D1*
X1291268Y1202047D1*
X1286515Y1204424D1*
X1276953D1*
X1272145Y1202047D1*
X1267392Y1197239D1*
X1264960Y1192486D1*
X1262583Y1185301D1*
Y1173307D1*
X1264960Y1166177D1*
X1267392Y1161369D1*
X1272145Y1156616D1*
X1276953Y1154184D1*
X1286515D1*
X1291268Y1156616D1*
X1296077Y1161369D1*
X1298453Y1166177D1*
X1313892Y1194807D2*
X1318701Y1197239D1*
X1325886Y1204369D1*
Y1154184D1*
X1370010Y1204369D2*
X1346134D1*
X1343757Y1182869D1*
X1346134Y1185245D1*
X1353319Y1187677D1*
X1360448D1*
X1367633Y1185245D1*
X1372442Y1180492D1*
X1374818Y1173307D1*
Y1168554D1*
X1372442Y1161369D1*
X1367633Y1156560D1*
X1360448Y1154184D1*
X1353319D1*
X1346134Y1156560D1*
X1343757Y1158992D1*
X1341325Y1163745D1*
X2663813Y2104971D2*
X2661436Y2109724D1*
X2656628Y2114532D1*
X2651874Y2116909D1*
X2642313D1*
X2637504Y2114532D1*
X2632751Y2109724D1*
X2630319Y2104971D1*
X2627943Y2097786D1*
Y2085792D1*
X2630319Y2078662D1*
X2632751Y2073854D1*
X2637504Y2069101D1*
X2642313Y2066669D1*
X2651874D1*
X2656628Y2069101D1*
X2661436Y2073854D1*
X2663813Y2078662D1*
X2679252Y2107292D2*
X2684060Y2109724D1*
X2691245Y2116854D1*
Y2066669D1*
X2716246D2*
X2740178Y2116854D1*
X2706685D1*
X3845624Y2061231D2*
X3843247Y2065984D1*
X3838439Y2070793D1*
X3833686Y2073169D1*
X3824124D1*
X3819315Y2070793D1*
X3814562Y2065984D1*
X3812130Y2061231D1*
X3809754Y2054046D1*
Y2042053D1*
X3812130Y2034923D1*
X3814562Y2030114D1*
X3819315Y2025361D1*
X3824124Y2022929D1*
X3833686D1*
X3838439Y2025361D1*
X3843247Y2030114D1*
X3845624Y2034923D1*
X3861063Y2063552D2*
X3865871Y2065984D1*
X3873057Y2073114D1*
Y2022929D1*
X3900434Y2073114D2*
X3893304Y2070738D1*
X3890872Y2065984D1*
Y2061176D1*
X3893304Y2056423D1*
X3898057Y2053991D1*
X3907619Y2051614D1*
X3914804Y2049238D1*
X3919557Y2044429D1*
X3921934Y2039676D1*
Y2032491D1*
X3919557Y2027738D1*
X3917181Y2025306D1*
X3909996Y2022929D1*
X3900434D1*
X3893304Y2025306D1*
X3890872Y2027738D1*
X3888496Y2032491D1*
Y2039676D1*
X3890872Y2044429D1*
X3895681Y2049238D1*
X3902811Y2051614D1*
X3912372Y2053991D1*
X3917181Y2056423D1*
X3919557Y2061176D1*
Y2065984D1*
X3917181Y2070738D1*
X3909996Y2073114D1*
X3900434D1*
X1349641Y1879986D2*
X1347265Y1884739D1*
X1342456Y1889547D1*
X1337703Y1891924D1*
X1328142D1*
X1323333Y1889547D1*
X1318580Y1884739D1*
X1316148Y1879986D1*
X1313771Y1872801D1*
Y1860807D1*
X1316148Y1853677D1*
X1318580Y1848869D1*
X1323333Y1844116D1*
X1328142Y1841684D1*
X1337703D1*
X1342456Y1844116D1*
X1347265Y1848869D1*
X1349641Y1853677D1*
X1365081Y1882307D2*
X1369889Y1884739D1*
X1377074Y1891869D1*
Y1841684D1*
X1423630Y1875177D2*
X1421198Y1867992D1*
X1416445Y1863184D1*
X1409260Y1860807D1*
X1406883D1*
X1399698Y1863184D1*
X1394945Y1867992D1*
X1392513Y1875177D1*
Y1877554D1*
X1394945Y1884739D1*
X1399698Y1889492D1*
X1406883Y1891869D1*
X1409260D1*
X1416445Y1889492D1*
X1421198Y1884739D1*
X1423630Y1875177D1*
Y1863184D1*
X1421198Y1851245D1*
X1416445Y1844060D1*
X1409260Y1841684D1*
X1404507D1*
X1397322Y1844060D1*
X1394945Y1848869D1*
X1839372Y1179982D2*
X1836995Y1184735D1*
X1832187Y1189543D1*
X1827434Y1191920D1*
X1817872D1*
X1813064Y1189543D1*
X1808310Y1184735D1*
X1805878Y1179982D1*
X1803502Y1172797D1*
Y1160803D1*
X1805878Y1153674D1*
X1808310Y1148865D1*
X1813064Y1144112D1*
X1817872Y1141680D1*
X1827434D1*
X1832187Y1144112D1*
X1836995Y1148865D1*
X1839372Y1153674D1*
X1859620Y1191865D2*
X1885873D1*
X1871558Y1172742D1*
X1878743D1*
X1883496Y1170365D1*
X1885873Y1167988D1*
X1888304Y1160803D1*
Y1156050D1*
X1885873Y1148865D1*
X1881119Y1144057D1*
X1873934Y1141680D1*
X1866749D1*
X1859620Y1144057D1*
X1857243Y1146488D1*
X1854811Y1151242D1*
X1927675Y1141680D2*
Y1191865D1*
X1903744Y1158427D1*
X1939614D1*
X2967044Y1979987D2*
X2964667Y1984740D1*
X2959859Y1989548D1*
X2955106Y1991925D1*
X2945544D1*
X2940735Y1989548D1*
X2935982Y1984740D1*
X2933550Y1979987D1*
X2931174Y1972802D1*
Y1960808D1*
X2933550Y1953678D1*
X2935982Y1948870D1*
X2940735Y1944117D1*
X2945544Y1941685D1*
X2955106D1*
X2959859Y1944117D1*
X2964667Y1948870D1*
X2967044Y1953678D1*
X2987291Y1991870D2*
X3013544D1*
X2999230Y1972746D1*
X3006415D1*
X3011168Y1970370D1*
X3013544Y1967993D1*
X3015976Y1960808D1*
Y1956055D1*
X3013544Y1948870D1*
X3008791Y1944061D1*
X3001606Y1941685D1*
X2994421D1*
X2987291Y1944061D1*
X2984915Y1946493D1*
X2982483Y1951247D1*
X3060100Y1984740D2*
X3057724Y1989493D1*
X3050539Y1991870D1*
X3045786D1*
X3038601Y1989493D1*
X3033792Y1982308D1*
X3031416Y1970370D1*
Y1958432D1*
X3033792Y1948870D1*
X3038601Y1944061D1*
X3045786Y1941685D1*
X3048162D1*
X3055292Y1944061D1*
X3060100Y1948870D1*
X3062477Y1956055D1*
Y1958432D1*
X3060100Y1965617D1*
X3055292Y1970370D1*
X3048162Y1972746D1*
X3045786D1*
X3038601Y1970370D1*
X3033792Y1965617D1*
X3031416Y1958432D1*
X3407978Y2402488D2*
X3458218D1*
Y2419235D1*
X3455786Y2426420D1*
X3451033Y2431228D1*
X3446224Y2433605D1*
X3439095Y2435981D1*
X3427101D1*
X3419916Y2433605D1*
X3415163Y2431228D1*
X3410354Y2426420D1*
X3407978Y2419235D1*
Y2402488D1*
X3419971Y2453852D2*
X3417595D1*
X3412786Y2456229D1*
X3410410Y2458606D1*
X3408033Y2463414D1*
Y2472976D1*
X3410410Y2477729D1*
X3412786Y2480105D1*
X3417595Y2482537D1*
X3422348D1*
X3427156Y2480105D1*
X3434286Y2475352D1*
X3458218Y2451420D1*
Y2484914D1*
X2152488Y3191924D2*
Y3141684D1*
X2169234D1*
X2176420Y3144116D1*
X2181228Y3148869D1*
X2183605Y3153677D1*
X2185981Y3160807D1*
Y3172801D1*
X2183605Y3179986D1*
X2181228Y3184739D1*
X2176420Y3189547D1*
X2169234Y3191924D1*
X2152488D1*
X2206229Y3191869D2*
X2232482D1*
X2218167Y3172745D1*
X2225352D1*
X2230105Y3170369D1*
X2232482Y3167992D1*
X2234914Y3160807D1*
Y3156054D1*
X2232482Y3148869D1*
X2227729Y3144060D1*
X2220544Y3141684D1*
X2213359D1*
X2206229Y3144060D1*
X2203852Y3146492D1*
X2201420Y3151245D1*
X1201300Y1441924D2*
Y1391684D1*
X1218046D1*
X1225231Y1394116D1*
X1230040Y1398869D1*
X1232416Y1403677D1*
X1234793Y1410807D1*
Y1422801D1*
X1232416Y1429986D1*
X1230040Y1434739D1*
X1225231Y1439547D1*
X1218046Y1441924D1*
X1201300D1*
X1274164Y1391684D2*
Y1441869D1*
X1250232Y1408431D1*
X1286102D1*
X1257978Y2552488D2*
X1308218D1*
Y2569235D1*
X1305786Y2576420D1*
X1301033Y2581228D1*
X1296224Y2583605D1*
X1289095Y2585981D1*
X1277101D1*
X1269916Y2583605D1*
X1265163Y2581228D1*
X1260354Y2576420D1*
X1257978Y2569235D1*
Y2552488D1*
X1308218Y2610982D2*
X1258033Y2634914D1*
Y2601420D1*
X2838771Y1141924D2*
Y1091684D1*
X2855518D1*
X2862703Y1094116D1*
X2867512Y1098869D1*
X2869888Y1103677D1*
X2872265Y1110807D1*
Y1122801D1*
X2869888Y1129986D1*
X2867512Y1134739D1*
X2862703Y1139547D1*
X2855518Y1141924D1*
X2838771D1*
X2887704Y1132307D2*
X2892512Y1134739D1*
X2899698Y1141869D1*
Y1091684D1*
X2919945Y1141869D2*
X2946198D1*
X2931883Y1122745D1*
X2939068D1*
X2943822Y1120369D1*
X2946198Y1117992D1*
X2948630Y1110807D1*
Y1106054D1*
X2946198Y1098869D1*
X2941445Y1094060D1*
X2934260Y1091684D1*
X2927075D1*
X2919945Y1094060D1*
X2917569Y1096492D1*
X2915137Y1101245D1*
X5489960Y2967956D2*
Y2917716D1*
X5506706D1*
X5513891Y2920148D1*
X5518700Y2924901D1*
X5521077Y2929710D1*
X5523453Y2936840D1*
Y2948833D1*
X5521077Y2956018D1*
X5518700Y2960771D1*
X5513891Y2965580D1*
X5506706Y2967956D1*
X5489960D1*
X5538892Y2958340D2*
X5543701Y2960771D1*
X5550886Y2967901D1*
Y2917716D1*
X5597442Y2951210D2*
X5595010Y2944025D1*
X5590257Y2939216D1*
X5583072Y2936840D1*
X5580695D1*
X5573510Y2939216D1*
X5568757Y2944025D1*
X5566325Y2951210D1*
Y2953586D1*
X5568757Y2960771D1*
X5573510Y2965525D1*
X5580695Y2967901D1*
X5583072D1*
X5590257Y2965525D1*
X5595010Y2960771D1*
X5597442Y2951210D1*
Y2939216D1*
X5595010Y2927278D1*
X5590257Y2920093D1*
X5583072Y2917716D1*
X5578319D1*
X5571134Y2920093D1*
X5568757Y2924901D1*
X995543Y3229424D2*
X964426D1*
Y3179184D1*
Y3205492D2*
X983549D1*
X1010982Y3219807D2*
X1015790Y3222239D1*
X1022976Y3229369D1*
Y3179184D1*
X1379450Y3091924D2*
Y3053677D1*
X1377074Y3046492D1*
X1374642Y3044116D1*
X1369889Y3041684D1*
X1365080D1*
X1360327Y3044116D1*
X1357950Y3046492D1*
X1355519Y3053677D1*
Y3058431D1*
X1394890Y3082307D2*
X1399698Y3084739D1*
X1406883Y3091869D1*
Y3041684D1*
X5543700Y816924D2*
Y778677D1*
X5541324Y771492D1*
X5538892Y769116D1*
X5534139Y766684D1*
X5529330D1*
X5524577Y769116D1*
X5522201Y771492D1*
X5519769Y778677D1*
Y783431D1*
X5561571Y804930D2*
Y807307D1*
X5563948Y812115D1*
X5566325Y814492D1*
X5571133Y816869D1*
X5580695D1*
X5585448Y814492D1*
X5587824Y812115D1*
X5590256Y807307D1*
Y802554D1*
X5587824Y797745D1*
X5583071Y790616D1*
X5559140Y766684D1*
X5592633D1*
X3115642Y2116924D2*
Y2066684D1*
X3144327D1*
X3159766Y2107307D2*
X3164575Y2109739D1*
X3171760Y2116869D1*
Y2066684D1*
X1179892Y2266924D2*
Y2216684D1*
X1208577D1*
X1228825Y2266869D2*
X1255078D1*
X1240763Y2247745D1*
X1247948D1*
X1252701Y2245369D1*
X1255078Y2242992D1*
X1257510Y2235807D1*
Y2231054D1*
X1255078Y2223869D1*
X1250324Y2219060D1*
X1243139Y2216684D1*
X1235954D1*
X1228825Y2219060D1*
X1226448Y2221492D1*
X1224016Y2226245D1*
X2698487Y1939421D2*
Y1889181D1*
X2727172D1*
X2766543D2*
Y1939365D1*
X2742611Y1905927D1*
X2778481D1*
X1839291Y691924D2*
Y641684D1*
X1867976D1*
X1912100Y691869D2*
X1888224D1*
X1885847Y670369D1*
X1888224Y672745D1*
X1895409Y675177D1*
X1902538D1*
X1909723Y672745D1*
X1914532Y667992D1*
X1916908Y660807D1*
Y656054D1*
X1914532Y648869D1*
X1909723Y644060D1*
X1902538Y641684D1*
X1895409D1*
X1888224Y644060D1*
X1885847Y646492D1*
X1883415Y651245D1*
X4356108Y2216924D2*
Y2166684D1*
X4384793D1*
X4428917Y2209739D2*
X4426540Y2214492D1*
X4419355Y2216869D1*
X4414602D1*
X4407417Y2214492D1*
X4402609Y2207307D1*
X4400232Y2195369D1*
Y2183431D1*
X4402609Y2173869D1*
X4407417Y2169060D1*
X4414602Y2166684D1*
X4416979D1*
X4424109Y2169060D1*
X4428917Y2173869D1*
X4431294Y2181054D1*
Y2183431D1*
X4428917Y2190616D1*
X4424109Y2195369D1*
X4416979Y2197745D1*
X4414602D1*
X4407417Y2195369D1*
X4402609Y2190616D1*
X4400232Y2183431D1*
X3804892Y2216924D2*
Y2166684D1*
X3833577D1*
X3858578D2*
X3882510Y2216869D1*
X3849016D1*
X4129920Y2876924D2*
Y2826684D1*
X4158605D1*
X4185982Y2876869D2*
X4178852Y2874492D1*
X4176420Y2869739D1*
Y2864930D1*
X4178852Y2860177D1*
X4183605Y2857745D1*
X4193167Y2855369D1*
X4200352Y2852992D1*
X4205105Y2848184D1*
X4207482Y2843431D1*
Y2836245D1*
X4205105Y2831492D1*
X4202729Y2829060D1*
X4195544Y2826684D1*
X4185982D1*
X4178852Y2829060D1*
X4176420Y2831492D1*
X4174044Y2836245D1*
Y2843431D1*
X4176420Y2848184D1*
X4181229Y2852992D1*
X4188359Y2855369D1*
X4197920Y2857745D1*
X4202729Y2860177D1*
X4205105Y2864930D1*
Y2869739D1*
X4202729Y2874492D1*
X4195544Y2876869D1*
X4185982D1*
X4631080Y2610034D2*
Y2559794D1*
X4659765D1*
X4706321Y2593287D2*
X4703889Y2586102D1*
X4699136Y2581294D1*
X4691951Y2578917D1*
X4689575D1*
X4682390Y2581294D1*
X4677636Y2586102D1*
X4675204Y2593287D1*
Y2595664D1*
X4677636Y2602849D1*
X4682390Y2607602D1*
X4689575Y2609979D1*
X4691951D1*
X4699136Y2607602D1*
X4703889Y2602849D1*
X4706321Y2593287D1*
Y2581294D1*
X4703889Y2569356D1*
X4699136Y2562171D1*
X4691951Y2559794D1*
X4687198D1*
X4680013Y2562171D1*
X4677636Y2566979D1*
X4616176Y1910034D2*
Y1859794D1*
X4644861D1*
X4660300Y1900417D2*
X4665108Y1902849D1*
X4672293Y1909979D1*
Y1859794D1*
X4702103Y1909979D2*
X4694918Y1907602D1*
X4690109Y1900417D1*
X4687733Y1888479D1*
Y1881294D1*
X4690109Y1869356D1*
X4694918Y1862171D1*
X4702103Y1859794D1*
X4706856D1*
X4714041Y1862171D1*
X4718794Y1869356D1*
X4721226Y1881294D1*
Y1888479D1*
X4718794Y1900417D1*
X4714041Y1907602D1*
X4706856Y1909979D1*
X4702103D1*
X4718794Y1900417D2*
X4690109Y1869356D1*
X4626926Y1260034D2*
Y1209794D1*
X4655610D1*
X4671050Y1250417D2*
X4675858Y1252849D1*
X4683043Y1259979D1*
Y1209794D1*
X4698482Y1250417D2*
X4703291Y1252849D1*
X4710476Y1259979D1*
Y1209794D1*
X4066176Y1726924D2*
Y1676684D1*
X4094861D1*
X4110300Y1717307D2*
X4115108Y1719739D1*
X4122293Y1726869D1*
Y1676684D1*
X4140164Y1714930D2*
Y1717307D1*
X4142541Y1722115D1*
X4144918Y1724492D1*
X4149726Y1726869D1*
X4159288D1*
X4164041Y1724492D1*
X4166417Y1722115D1*
X4168849Y1717307D1*
Y1712554D1*
X4166417Y1707745D1*
X4161664Y1700616D1*
X4137733Y1676684D1*
X4171226D1*
X3363238Y1390620D2*
X3384793D1*
X3391923Y1392996D1*
X3394354Y1395428D1*
X3396731Y1400181D1*
Y1407366D1*
X3394354Y1412119D1*
X3391923Y1414551D1*
X3384793Y1416928D1*
X3363238D1*
Y1366688D1*
X3412170Y1407311D2*
X3416979Y1409743D1*
X3424164Y1416873D1*
Y1366688D1*
X3900204Y3191924D2*
X3895450Y3189603D1*
X3890642Y3184794D1*
X3888265Y3179986D1*
X3885834Y3172801D1*
Y3160862D1*
X3888265Y3153677D1*
X3890642Y3148924D1*
X3895450Y3144116D1*
X3900204Y3141739D1*
X3909765D1*
X3914574Y3144116D1*
X3919327Y3148924D1*
X3921703Y3153677D1*
X3924135Y3160862D1*
Y3172801D1*
X3921703Y3179986D1*
X3919327Y3184794D1*
X3914574Y3189603D1*
X3909765Y3191924D1*
X3900204D1*
X3907389Y3151301D2*
X3921703Y3136931D1*
X3939575Y3182307D2*
X3944383Y3184739D1*
X3951568Y3191869D1*
Y3141684D1*
X5039454Y3066924D2*
X5034701Y3064603D1*
X5029892Y3059794D1*
X5027515Y3054986D1*
X5025084Y3047801D1*
Y3035862D1*
X5027515Y3028677D1*
X5029892Y3023924D1*
X5034701Y3019116D1*
X5039454Y3016739D1*
X5049015D1*
X5053824Y3019116D1*
X5058577Y3023924D1*
X5060954Y3028677D1*
X5063385Y3035862D1*
Y3047801D1*
X5060954Y3054986D1*
X5058577Y3059794D1*
X5053824Y3064603D1*
X5049015Y3066924D1*
X5039454D1*
X5046639Y3026301D2*
X5060954Y3011931D1*
X5081256Y3054930D2*
Y3057307D1*
X5083633Y3062115D1*
X5086010Y3064492D1*
X5090818Y3066869D1*
X5100380D1*
X5105133Y3064492D1*
X5107510Y3062115D1*
X5109941Y3057307D1*
Y3052554D1*
X5107510Y3047745D1*
X5102756Y3040616D1*
X5078825Y3016684D1*
X5112318D1*
X2227488Y1011742D2*
X2248988D1*
X2256173Y1014174D1*
X2258605Y1016551D1*
X2260981Y1021304D1*
Y1026112D1*
X2258605Y1030865D1*
X2256173Y1033297D1*
X2248988Y1035674D1*
X2227488D1*
Y985434D1*
X2244234Y1011742D2*
X2260981Y985434D1*
X2278852Y1023680D2*
Y1026057D1*
X2281229Y1030865D1*
X2283605Y1033242D1*
X2288414Y1035619D1*
X2297976D1*
X2302729Y1033242D1*
X2305105Y1030865D1*
X2307537Y1026057D1*
Y1021304D1*
X2305105Y1016495D1*
X2300352Y1009366D1*
X2276420Y985434D1*
X2309914D1*
X1625659Y1126300D2*
Y1147799D1*
X1623228Y1154985D1*
X1620851Y1157416D1*
X1616098Y1159793D1*
X1611289D1*
X1606536Y1157416D1*
X1604104Y1154985D1*
X1601728Y1147800D1*
Y1126300D1*
X1651968D1*
X1625659Y1143046D2*
X1651968Y1159793D1*
Y1199164D2*
X1601783D1*
X1635221Y1175232D1*
Y1211102D1*
X2052488Y1261742D2*
X2073988D1*
X2081173Y1264174D1*
X2083605Y1266551D1*
X2085981Y1271304D1*
Y1276112D1*
X2083605Y1280865D1*
X2081173Y1283297D1*
X2073988Y1285674D1*
X2052488D1*
Y1235434D1*
X2069234Y1261742D2*
X2085981Y1235434D1*
X2130105Y1285619D2*
X2106229D1*
X2103852Y1264119D1*
X2106229Y1266495D1*
X2113414Y1268927D1*
X2120544D1*
X2127729Y1266495D1*
X2132537Y1261742D1*
X2134914Y1254557D1*
Y1249804D1*
X2132537Y1242619D1*
X2127729Y1237810D1*
X2120544Y1235434D1*
X2113414D1*
X2106229Y1237810D1*
X2103852Y1240242D1*
X2101420Y1244995D1*
X2613771Y3167107D2*
X2635271D1*
X2642456Y3169539D1*
X2644888Y3171916D1*
X2647265Y3176669D1*
Y3181477D1*
X2644888Y3186230D1*
X2642456Y3188662D1*
X2635271Y3191039D1*
X2613771D1*
Y3140799D1*
X2630518Y3167107D2*
X2647265Y3140799D1*
X2662704Y3181422D2*
X2667512Y3183854D1*
X2674698Y3190984D1*
Y3140799D1*
X2699698D2*
X2723630Y3190984D1*
X2690137D1*
X3437583Y1761742D2*
X3459083D1*
X3466268Y1764174D1*
X3468700Y1766551D1*
X3471077Y1771304D1*
Y1776112D1*
X3468700Y1780865D1*
X3466268Y1783297D1*
X3459083Y1785674D1*
X3437583D1*
Y1735434D1*
X3454330Y1761742D2*
X3471077Y1735434D1*
X3510447D2*
Y1785619D1*
X3486516Y1752181D1*
X3522386D1*
X3537825Y1776057D2*
X3542633Y1778489D1*
X3549818Y1785619D1*
Y1735434D1*
X4476833Y2892107D2*
X4498333D1*
X4505518Y2894539D1*
X4507950Y2896916D1*
X4510327Y2901669D1*
Y2906477D1*
X4507950Y2911230D1*
X4505518Y2913662D1*
X4498333Y2916039D1*
X4476833D1*
Y2865799D1*
X4493580Y2892107D2*
X4510327Y2865799D1*
X4549698D2*
Y2915984D1*
X4525766Y2882545D1*
X4561636D1*
X4579507Y2904045D2*
Y2906422D1*
X4581883Y2911230D1*
X4584260Y2913607D1*
X4589068Y2915984D1*
X4598630D1*
X4603383Y2913607D1*
X4605760Y2911230D1*
X4608192Y2906422D1*
Y2901669D1*
X4605760Y2896860D1*
X4601007Y2889731D1*
X4577075Y2865799D1*
X4610568D1*
X4726833Y3240236D2*
X4748333D1*
X4755518Y3242668D1*
X4757950Y3245044D1*
X4760327Y3249797D1*
Y3254606D1*
X4757950Y3259359D1*
X4755518Y3261791D1*
X4748333Y3264167D1*
X4726833D1*
Y3213927D1*
X4743580Y3240236D2*
X4760327Y3213927D1*
X4799698D2*
Y3264112D1*
X4775766Y3230674D1*
X4811636D1*
X4855760Y3264112D2*
X4831883D1*
X4829507Y3242612D1*
X4831883Y3244989D1*
X4839068Y3247421D1*
X4846198D1*
X4853383Y3244989D1*
X4858192Y3240236D1*
X4860568Y3233051D1*
Y3228297D1*
X4858192Y3221112D1*
X4853383Y3216304D1*
X4846198Y3213927D1*
X4839068D1*
X4831883Y3216304D1*
X4829507Y3218736D1*
X4827075Y3223489D1*
X488771Y1092992D2*
X510271D1*
X517456Y1095424D1*
X519888Y1097801D1*
X522265Y1102554D1*
Y1107362D1*
X519888Y1112115D1*
X517456Y1114547D1*
X510271Y1116924D1*
X488771D1*
Y1066684D1*
X505518Y1092992D2*
X522265Y1066684D1*
X554451Y1116924D2*
Y1066684D1*
X537704Y1116924D2*
X571197D1*
X586637Y1107307D2*
X591445Y1109739D1*
X598630Y1116869D1*
Y1066684D1*
X1904984Y3068105D2*
Y3017865D1*
X1888238Y3068105D2*
X1921731D1*
X1937170Y3058488D2*
X1941979Y3060920D1*
X1949164Y3068050D1*
Y3017865D1*
X4719234Y752357D2*
Y702117D1*
X4702488Y752357D2*
X4735981D1*
X4753852Y740363D2*
Y742740D1*
X4756229Y747548D1*
X4758605Y749925D1*
X4763414Y752302D1*
X4772976D1*
X4777729Y749925D1*
X4780105Y747548D1*
X4782537Y742740D1*
Y737987D1*
X4780105Y733178D1*
X4775352Y726049D1*
X4751420Y702117D1*
X4784914D1*
X1970790Y1688478D2*
Y1652608D1*
X1973167Y1645423D1*
X1977975Y1640670D1*
X1985160Y1638238D1*
X1989914D1*
X1997099Y1640670D1*
X2001907Y1645423D1*
X2004284Y1652608D1*
Y1688478D1*
X2019723Y1678861D2*
X2024531Y1681293D1*
X2031716Y1688422D1*
Y1638238D1*
X2603704Y1541924D2*
Y1506054D1*
X2606080Y1498869D1*
X2610889Y1494116D1*
X2618074Y1491684D1*
X2622827D1*
X2630012Y1494116D1*
X2634821Y1498869D1*
X2637197Y1506054D1*
Y1541924D1*
X2681321Y1534739D2*
X2678945Y1539492D1*
X2671760Y1541869D1*
X2667006D1*
X2659821Y1539492D1*
X2655013Y1532307D1*
X2652636Y1520369D1*
Y1508431D1*
X2655013Y1498869D1*
X2659821Y1494060D1*
X2667006Y1491684D1*
X2669383D1*
X2676513Y1494060D1*
X2681321Y1498869D1*
X2683698Y1506054D1*
Y1508431D1*
X2681321Y1515616D1*
X2676513Y1520369D1*
X2669383Y1522745D1*
X2667006D1*
X2659821Y1520369D1*
X2655013Y1515616D1*
X2652636Y1508431D1*
X3386395Y3041924D2*
X3405518Y2991684D1*
X3424641Y3041924D1*
X3440081Y3017992D2*
X3461580D1*
X3468766Y3020424D1*
X3471197Y3022801D1*
X3473574Y3027554D1*
Y3032362D1*
X3471197Y3037115D1*
X3468766Y3039547D1*
X3461580Y3041924D1*
X3440081D1*
Y2991684D1*
X3456827Y3017992D2*
X3473574Y2991684D1*
X3489013Y3032307D2*
X3493822Y3034739D1*
X3501007Y3041869D1*
Y2991684D1*
X3560478Y1219839D2*
X3610718Y1253332D1*
X3560478D2*
X3610718Y1219839D1*
X3560478Y1285518D2*
X3610718D1*
X3560478Y1268772D2*
Y1302265D1*
X3610718Y1356006D2*
X3560478Y1336827D1*
X3610718Y1317704D1*
X3593971Y1324889D2*
Y1348821D1*
X3560478Y1371445D2*
X3610718D1*
Y1400130D1*
X3570095Y1415569D2*
X3567663Y1420378D1*
X3560533Y1427563D1*
X3610718D1*
X2751630Y2984261D2*
D146*
X2820518D1*
X2786118Y2949861D2*
X2786119Y3018749D1*
X960785Y640625D2*
X891897D1*
X926296Y675025D2*
Y606137D1*
X2560771Y2128141D2*
X2491883D1*
X2526283Y2162540D2*
Y2093652D1*
X3876633Y1959283D2*
X3945521Y1959282D1*
X3911121Y1924883D2*
Y1993771D1*
X1860769Y853119D2*
X1791881D1*
X1826281Y887519D2*
Y818631D1*
X3109282Y1735769D2*
Y1666881D1*
X3074883Y1701281D2*
X3143771D1*
M02*
